<?xml version="1.0" encoding="UTF-8" standalone="no"?>
<!DOCTYPE svg PUBLIC "-//W3C//DTD SVG 1.1//EN" "http://www.w3.org/Graphics/SVG/1.1/DTD/svg11.dtd">
<svg width="100%" height="100%" viewBox="0 0 78 88" version="1.1" xmlns="http://www.w3.org/2000/svg" xmlns:xlink="http://www.w3.org/1999/xlink" xml:space="preserve" xmlns:serif="http://www.serif.com/" style="fill-rule:evenodd;clip-rule:evenodd;stroke-linejoin:round;stroke-miterlimit:2;">
    <g transform="matrix(1,0,0,1,-12.9561,-8.29413)">
        <g id="Layer_x0020_1">
            <g id="_2926258248080">
                <g>
                    <path d="M45.718,38.389L45.646,38.461L45.718,38.389ZM45.718,38.389C45.862,38.245 46.006,38.101 46.222,38.101L46.222,38.245C46.006,38.245 45.934,38.317 45.718,38.389ZM45.07,37.021L44.998,37.093L45.07,37.021ZM45.142,36.949L45.07,37.021L45.142,36.949ZM58.173,38.173L58.101,38.101C57.237,36.805 57.093,37.453 57.093,36.517C57.309,36.661 57.597,37.021 57.741,37.237C57.885,37.453 58.101,37.741 58.173,38.173ZM49.605,36.301L49.605,36.301ZM45.142,36.949C45.214,36.589 45.79,36.085 46.366,36.013C46.366,36.373 46.15,36.517 45.862,36.589C45.718,36.661 45.646,36.733 45.502,36.805C45.358,36.877 45.358,36.949 45.142,36.949ZM45.286,36.013L45.214,36.085L45.286,36.013ZM45.286,36.013C45.574,35.581 46.006,35.149 46.582,35.077C46.438,35.509 46.222,35.437 45.646,35.797C45.43,35.941 45.502,35.941 45.286,36.013ZM45.862,33.925L45.79,33.997L45.862,33.925ZM45.934,33.853L45.862,33.925L45.934,33.853ZM45.934,33.853C46.078,33.637 46.582,33.061 47.014,33.205C46.942,33.565 46.798,33.421 46.51,33.565C46.222,33.637 46.15,33.781 45.934,33.853ZM46.366,31.981L46.222,32.053L46.366,31.981ZM46.438,31.909L46.366,31.981L46.438,31.909ZM46.438,31.909C46.654,31.549 47.23,31.261 47.806,31.189C47.59,31.477 46.798,31.837 46.438,31.909ZM42.406,24.205L42.406,24.277L42.406,24.205ZM37.654,23.053C37.654,23.053 37.582,23.053 37.654,23.053ZM50.109,15.854L50.541,14.486L50.541,15.35C50.469,15.71 50.397,15.782 50.109,15.854ZM50.541,14.054L50.541,14.414L50.541,14.054ZM49.389,13.766L49.173,13.766C49.173,13.262 49.317,13.406 49.317,12.47L49.389,12.47C49.461,12.758 49.533,13.478 49.389,13.766ZM46.006,32.197L45.502,32.557C45.358,32.773 45.214,32.845 45.214,33.205C45.718,33.205 45.574,33.061 46.222,32.629C46.438,32.485 47.014,32.125 47.302,32.125C47.23,32.341 47.302,32.341 47.086,32.485C47.014,32.557 46.798,32.557 46.654,32.629C46.366,32.701 46.15,32.917 45.934,33.061C45.286,33.565 45.286,33.637 44.854,34.357C45.07,34.501 44.998,34.429 45.286,34.429C45.142,34.645 45.07,34.717 44.998,35.005C45.43,34.789 45.574,35.005 45.862,34.573C46.078,34.213 46.294,33.997 46.726,34.213C46.654,34.573 46.438,34.501 46.078,34.645C45.646,34.861 45.142,35.221 44.926,35.653C44.566,36.229 44.782,36.085 45.214,36.085C44.998,36.373 44.566,36.589 44.566,37.165C44.782,37.165 44.782,37.165 44.998,37.093C44.854,37.309 44.638,37.525 44.566,37.813C44.422,38.317 44.854,38.101 44.998,37.885C45.286,37.525 45.358,37.021 46.366,37.021C46.294,37.165 45.934,37.453 45.79,37.525C45.07,38.101 44.782,38.173 44.926,39.037C44.998,39.325 44.782,38.965 44.782,39.829C45.142,39.757 45.142,39.613 45.43,39.469C45.286,39.757 45.142,39.973 45.142,40.404C45.574,40.404 45.718,39.973 45.862,39.613L46.15,39.901C46.006,40.045 45.934,40.045 45.862,40.189C45.646,40.404 45.142,41.124 45.07,41.412C45.286,41.484 45.43,41.34 45.502,41.7C45.574,41.916 45.358,42.06 45.502,42.276C45.862,42.852 46.006,41.7 46.006,43.14C46.51,43.14 46.366,42.996 46.366,42.492C46.51,42.564 46.942,42.996 46.87,42.492C46.798,42.132 46.654,41.988 46.654,41.556C47.374,42.06 46.798,41.412 46.798,40.764C47.158,40.98 46.87,41.052 47.23,41.196C47.302,40.98 47.302,40.476 47.302,40.189C47.518,40.333 47.23,40.261 47.518,40.476C47.518,39.757 47.302,39.253 47.302,38.533C47.518,38.677 47.59,38.821 47.95,38.893C47.95,38.317 47.446,37.885 47.446,37.165C47.878,37.309 47.518,37.309 47.95,37.597L47.95,36.877C48.166,36.949 48.094,36.949 48.382,37.021C48.598,36.157 48.094,36.517 48.022,35.725L48.166,35.725L48.31,35.725L48.31,35.293C48.454,35.365 48.526,35.365 48.598,35.437C48.598,34.501 48.31,34.861 48.31,33.997C48.454,34.141 48.454,34.141 48.67,34.285C48.742,34.213 48.742,34.141 48.742,34.069L48.886,33.853C48.886,34.285 48.67,34.357 48.67,34.861L49.101,34.861C49.029,35.005 48.886,35.293 48.886,35.509C48.886,35.941 49.101,35.653 49.317,35.653C49.245,35.941 49.029,36.517 49.173,36.877C49.389,36.805 49.245,36.877 49.389,36.661L49.533,36.445C49.533,36.949 49.245,37.021 49.245,37.597C49.533,37.597 49.533,37.597 49.749,37.165C50.109,36.589 50.397,35.509 50.901,35.365C50.325,36.445 49.965,37.021 49.677,38.245C49.533,38.821 49.533,39.037 50.037,38.677C49.965,39.037 49.821,39.325 49.821,39.685C50.037,39.613 49.893,39.613 50.109,39.541C50.109,39.901 50.109,40.189 50.181,40.548C50.253,40.98 50.109,41.052 50.181,41.412C50.541,41.556 50.469,41.124 50.613,41.7C50.613,42.132 50.685,42.132 51.045,42.06C51.045,42.204 51.045,42.204 51.117,42.348L51.261,42.348C51.261,43.068 51.261,42.708 51.405,43.14C51.477,43.212 51.477,43.14 51.549,43.356C51.909,43.212 51.477,43.212 51.909,43.14C51.981,43.356 52.197,43.716 52.269,44.076L52.485,44.076C52.557,43.788 52.485,43.356 52.413,43.068C52.485,43.068 52.989,43.5 52.773,42.924C52.701,42.564 52.485,42.636 52.413,42.276C52.629,42.42 52.989,42.42 52.773,42.06C52.701,41.844 52.485,41.772 52.413,41.484C52.557,41.412 52.629,41.412 52.773,41.34C52.773,40.908 52.629,40.836 52.485,40.62C52.917,40.62 52.773,40.692 53.133,40.764C53.133,40.045 52.629,40.045 52.557,39.397C52.773,39.397 52.773,39.469 53.061,39.469C53.061,38.965 52.773,38.893 52.485,38.389C52.629,38.389 52.989,38.605 53.133,38.677C53.133,38.173 52.701,37.669 52.485,37.165C52.845,37.165 53.133,37.237 52.989,36.877C52.845,36.517 52.629,36.589 52.629,36.157C52.917,36.157 52.845,36.229 53.061,36.157C52.845,35.725 52.629,35.725 52.557,35.293C52.773,35.293 52.845,35.293 52.989,35.221C52.989,34.861 52.773,34.789 52.701,34.429C52.989,34.501 53.421,34.933 53.277,34.285C53.133,33.853 52.845,33.781 52.845,33.421L53.205,33.421C53.205,33.205 53.205,33.205 53.133,33.061C53.277,32.989 53.349,32.989 53.493,32.917C53.493,32.485 53.205,32.413 52.989,32.053C52.845,31.837 52.845,32.053 52.845,31.765L53.133,31.765C53.133,31.405 53.061,31.405 52.989,31.117C52.917,30.973 52.845,30.757 52.773,30.541C53.493,30.613 52.989,31.333 53.997,31.333C54.069,31.477 54.069,31.261 53.997,31.549C54.645,31.477 54.573,30.901 55.005,30.757C54.861,31.261 54.645,31.477 54.357,31.837C54.141,32.125 53.781,32.557 53.925,32.989C54.501,32.557 54.213,32.413 55.077,31.981C55.005,32.629 54.501,32.917 54.501,33.637L55.365,32.845C55.293,33.493 54.717,33.637 54.717,34.357C55.077,34.285 55.437,33.565 55.797,33.349C55.653,33.997 55.149,34.717 54.861,35.293C55.077,35.293 55.437,35.005 55.653,34.933C55.437,35.653 54.717,35.653 55.005,36.301C55.365,36.229 55.437,35.797 55.869,35.653C55.797,36.085 55.581,36.301 55.365,36.589C55.221,36.805 54.861,37.165 54.861,37.525C55.293,37.453 55.437,37.165 55.797,37.021C55.653,37.381 55.365,37.813 55.293,38.245C55.725,38.173 55.725,37.741 56.157,37.597C56.013,38.245 55.077,38.677 55.077,39.469C55.509,39.469 55.725,39.109 56.157,38.893C56.085,39.469 55.509,39.541 55.149,40.261C54.645,41.412 55.941,40.117 56.085,40.045C56.013,40.548 55.653,40.62 55.653,41.124L55.941,41.124C55.869,41.484 55.653,41.484 55.653,42.06C55.797,42.132 55.725,42.132 56.013,42.132C56.013,42.42 55.941,42.636 56.157,42.708C56.445,42.78 56.445,42.42 56.445,42.204L56.877,42.204C56.805,41.916 56.661,41.916 56.733,41.7C56.805,41.484 56.949,41.628 57.093,41.7C57.093,41.7 57.957,42.42 57.741,41.556C57.597,40.836 56.949,40.476 56.949,39.685C57.165,39.757 57.165,39.829 57.381,40.189C57.453,40.404 57.669,40.692 57.669,40.908C58.173,40.836 57.813,40.045 57.669,39.757C57.453,39.397 57.093,39.109 57.021,38.677C57.525,38.965 57.669,39.541 57.885,40.117C57.957,40.261 58.101,40.404 58.317,40.404C58.317,39.685 58.173,39.325 57.885,38.893C57.525,38.389 57.093,38.173 57.093,37.669C57.741,37.885 57.813,38.893 58.245,38.965C58.389,38.605 58.173,38.533 58.173,38.173C58.533,38.605 58.533,37.453 57.597,36.301C57.453,36.085 57.165,35.941 57.093,35.653C57.597,35.725 57.957,36.733 58.245,37.093C58.461,37.237 58.677,37.165 58.605,36.805C58.461,35.797 57.309,35.365 57.309,34.717C57.741,35.005 57.885,35.653 58.389,35.725C58.389,35.077 57.957,34.645 57.453,34.285C57.165,34.069 57.237,34.213 57.093,33.781C57.741,33.853 58.173,35.149 58.821,35.221C58.749,34.213 58.029,33.853 58.029,33.781C58.173,33.637 58.101,33.709 58.389,33.709C58.317,33.421 58.101,33.205 57.885,33.061C57.381,32.701 57.669,32.845 58.173,32.845C58.173,32.269 57.669,32.269 57.669,31.765C57.885,31.909 57.957,32.125 58.245,32.269C58.677,32.485 58.533,31.981 58.389,31.765C58.245,31.549 57.957,31.261 57.885,31.117C57.813,30.901 57.885,31.045 57.957,30.829C57.957,30.613 57.885,30.541 57.885,30.325C58.173,30.469 58.245,30.685 58.317,31.045C58.605,30.973 58.677,30.757 58.749,30.469C58.965,30.613 58.893,30.973 59.109,31.621C59.181,31.909 59.109,31.909 59.397,31.909C59.397,31.621 59.325,31.621 59.469,31.405C59.829,31.693 59.685,32.341 59.829,32.773C59.829,33.061 59.901,33.133 60.117,33.133C60.117,32.917 60.189,32.485 60.333,32.413C60.333,32.701 60.333,33.493 60.693,33.493C60.981,33.421 60.909,33.133 60.909,32.773L61.053,32.773C61.197,33.349 61.269,33.421 61.125,33.997C61.053,34.501 60.981,34.861 61.197,35.221C61.629,34.933 61.557,34.213 61.917,33.781C61.917,34.357 62.061,34.789 62.133,35.221C62.493,35.221 62.277,35.077 62.565,34.861C62.637,35.077 62.493,35.725 62.637,36.229L62.925,36.229C62.997,36.085 62.997,36.013 62.997,35.797C63.429,36.085 63.213,36.661 63.213,37.237C63.285,37.309 63.429,37.309 63.501,37.381C63.717,37.453 63.789,37.885 64.005,38.029L64.005,37.669C64.437,37.813 64.149,38.101 64.725,38.101C64.797,38.389 64.725,38.317 64.941,38.389C65.085,37.957 65.085,37.957 65.085,37.381C65.229,37.453 65.373,37.669 65.517,37.813C66.237,38.101 65.301,36.229 65.301,36.157C66.453,36.949 65.445,35.725 65.373,35.437C65.301,35.149 65.589,35.077 65.805,35.005C65.661,34.645 65.157,34.573 64.941,34.213L65.373,34.213C65.373,33.853 65.085,33.781 64.869,33.637C64.653,33.421 64.437,33.349 64.365,33.061C64.581,32.917 64.725,32.989 64.869,32.773C64.725,32.197 63.645,32.413 63.357,31.981C63.501,31.981 63.645,31.909 63.789,31.837C64.005,31.837 64.077,31.837 64.149,31.693C63.861,31.549 63.645,31.549 63.357,31.477C63.357,31.117 63.357,31.045 63.429,30.757C62.997,30.541 62.853,30.541 62.205,30.541L62.637,30.325C62.709,30.325 62.925,30.181 62.853,30.037C62.709,29.749 62.277,30.109 61.989,29.677C62.205,29.605 62.133,29.605 62.205,29.461C61.845,29.101 61.629,29.173 61.053,29.029C61.197,28.597 61.341,28.885 61.485,28.525C61.125,28.309 60.621,28.381 60.333,28.237C60.549,27.949 60.549,28.237 60.621,27.949C60.333,27.805 59.901,27.733 59.613,27.733L59.613,27.589C59.829,27.589 59.757,27.517 60.045,27.445L60.045,27.301C59.685,27.229 59.037,27.157 58.965,27.085C58.821,26.869 58.605,26.293 58.605,26.005C58.965,26.293 59.397,26.869 59.829,27.013C59.829,26.653 59.541,26.365 59.469,26.005C59.829,26.149 59.973,26.581 60.189,26.941C60.333,27.157 60.261,27.157 60.477,27.229L60.333,26.149C60.765,26.365 61.053,26.941 61.125,27.373C61.485,27.301 61.485,26.869 61.485,26.581C61.701,26.725 61.701,27.013 62.061,27.085L62.133,26.653C62.205,26.869 62.349,27.373 62.493,27.445C62.853,27.517 62.781,26.869 62.781,26.581C63.141,26.797 62.997,27.445 63.429,27.589C63.501,27.445 63.573,27.229 63.573,27.085C63.933,27.085 63.933,27.301 64.005,27.661C64.077,27.949 64.149,28.093 64.437,28.165C64.509,27.733 64.437,27.877 64.437,27.445C64.653,27.517 64.725,27.733 64.797,27.949C64.869,28.309 64.797,28.453 65.229,28.453L65.229,27.445C65.589,27.517 65.589,27.805 65.661,28.093C65.733,28.309 65.733,28.381 65.805,28.525C65.877,28.741 65.877,28.813 66.093,28.813C66.165,28.669 66.165,28.309 66.237,28.021C66.669,28.309 66.669,29.389 67.173,29.677C67.317,29.461 67.317,29.533 67.317,29.173L67.317,28.525L67.605,29.101C67.677,29.245 67.677,29.317 67.749,29.389C67.821,29.533 67.893,29.605 67.965,29.677C68.109,29.389 67.965,29.173 68.109,28.885C68.325,29.029 68.397,29.317 68.469,29.605C68.469,29.893 68.469,30.253 68.756,30.325C68.756,30.109 68.828,29.821 68.9,29.605C69.188,29.821 68.972,30.109 69.332,30.325C69.62,30.469 69.836,30.397 69.836,30.109C69.836,30.037 69.836,30.037 69.908,29.893C70.7,30.037 70.124,29.389 70.052,29.245C70.34,29.029 70.34,29.173 70.556,29.029C70.34,28.453 70.052,28.309 69.548,28.021C69.548,27.805 69.62,27.805 69.62,27.517L69.188,27.373C69.188,27.085 69.476,26.869 68.972,26.869C68.684,26.869 68.828,26.941 68.541,26.941C68.325,26.941 68.325,26.869 68.109,26.869C68.397,26.509 68.684,26.797 68.684,26.221C68.397,26.149 68.325,26.149 67.965,26.149C67.965,25.933 68.181,25.933 68.109,25.717C67.893,25.285 66.669,25.789 66.381,25.789C66.525,25.645 66.525,25.645 66.669,25.501C66.957,25.285 66.885,25.069 66.597,25.069C66.309,25.069 65.805,25.213 65.445,25.285C65.589,25.141 65.661,25.069 65.805,24.925C66.597,24.205 64.941,24.637 64.725,24.709L65.013,24.349C65.805,23.557 64.077,24.061 64.005,24.061C63.861,23.485 63.501,23.917 63.069,23.701C63.285,23.341 63.429,23.629 63.645,23.341C63.069,23.197 62.349,23.413 61.629,23.413C61.845,23.197 62.205,23.269 62.205,22.909C61.773,22.693 61.053,23.125 60.621,23.269C60.765,22.981 61.197,22.621 60.261,22.909C60.117,22.981 59.829,23.125 59.613,23.053C59.253,22.981 59.613,22.981 59.685,22.693C59.325,22.549 59.397,22.693 59.109,22.765C58.677,22.837 58.893,22.549 58.965,22.405C58.389,22.477 58.173,22.837 57.597,22.837L57.597,22.693C56.805,22.693 56.589,23.485 56.157,22.693C56.301,22.477 56.229,22.621 56.373,22.405C56.301,22.261 56.085,22.189 55.941,22.045C56.445,22.045 56.373,22.333 56.805,22.333C56.805,21.541 56.445,21.829 56.373,21.397C56.877,21.397 57.021,21.469 57.453,21.469C57.381,21.109 57.237,21.253 57.165,20.821C57.309,20.893 58.389,21.325 58.389,20.893C58.389,20.606 58.317,20.749 58.245,20.462C58.605,20.534 58.605,20.678 58.965,20.678C58.965,20.462 58.893,20.39 58.893,20.174C59.325,20.246 59.325,20.965 60.045,20.606C59.901,20.174 59.829,20.318 59.685,20.03C59.973,20.03 60.261,20.39 60.477,20.246C60.621,20.174 60.477,20.03 60.405,19.958C60.333,19.742 60.261,19.886 60.189,19.526C60.621,19.598 60.693,19.814 60.981,19.958C61.341,20.03 61.341,19.814 61.197,19.67C61.053,19.454 61.053,19.598 60.981,19.382C61.629,19.526 61.485,20.102 62.061,20.174C62.205,19.886 62.061,19.814 62.061,19.526C62.205,19.598 62.925,20.821 62.781,19.526C63.285,19.526 63.141,19.886 63.501,20.102C64.077,20.462 63.645,19.598 63.717,19.526C63.789,19.238 64.293,20.318 64.653,20.174C64.869,20.102 64.797,19.958 64.725,19.742C65.301,19.814 64.869,20.03 65.589,20.03C65.589,19.742 65.589,19.742 65.445,19.526C66.093,19.598 65.733,20.174 66.453,20.174L66.453,19.958C66.741,20.174 66.957,20.678 67.317,20.462C67.317,20.462 67.317,20.39 67.389,20.39L67.749,20.174C67.749,19.742 67.533,19.382 67.533,18.95C67.317,18.95 67.173,18.878 67.029,18.806L67.101,18.734C67.173,18.518 67.101,18.806 67.173,18.446C66.597,18.086 66.525,18.518 65.877,18.302C66.093,18.014 66.381,18.158 66.597,17.798C66.453,17.726 66.381,17.726 66.165,17.654C66.237,17.51 66.237,17.51 66.237,17.366C65.733,17.366 65.445,17.438 65.013,17.438C65.229,17.222 65.373,17.366 65.373,17.006C64.869,16.79 63.645,17.798 62.853,17.798C63.141,17.438 64.221,17.15 64.509,16.718C64.149,16.574 63.213,17.078 62.781,17.078C62.925,16.79 63.501,16.718 63.501,16.358C62.853,16.358 62.277,16.862 61.629,17.006C61.773,16.862 62.349,16.574 62.205,16.286C62.061,15.998 60.765,17.222 60.621,17.366C60.477,17.51 60.405,17.582 60.261,17.726C60.117,17.87 60.045,17.942 59.829,18.014C59.973,17.726 60.189,17.582 60.405,17.294C60.549,17.078 60.837,16.862 60.837,16.502C59.685,16.574 59.253,17.942 58.893,18.374C58.749,18.014 58.533,17.582 58.965,17.366C59.325,17.078 59.757,17.222 59.757,16.646C59.253,16.646 58.893,17.006 58.605,17.294C58.173,17.87 58.461,18.23 58.245,18.734C57.957,18.59 57.957,18.59 58.029,18.23C58.101,18.014 58.101,17.726 58.173,17.51C58.389,16.862 58.605,16.862 58.893,16.43C58.533,16.502 58.245,16.646 58.029,16.79C57.741,17.006 57.669,17.222 57.381,17.438L57.381,17.078C57.021,17.15 56.805,17.51 56.085,17.51C56.445,16.934 56.949,17.078 57.381,16.862C57.165,16.43 56.733,16.718 56.373,16.502C56.517,16.142 56.733,16.574 57.669,15.998C57.525,15.71 57.453,15.926 57.381,15.71C57.669,15.638 58.029,15.566 58.245,15.35C58.389,15.278 58.389,15.35 58.389,15.062C58.173,15.062 57.957,14.99 57.741,14.99L57.741,14.774C57.957,14.774 58.245,14.702 58.461,14.702C58.749,14.63 58.893,14.558 59.109,14.486L59.109,14.27C58.965,14.198 59.037,14.27 58.965,14.126C59.253,14.126 59.325,14.126 59.541,14.054C59.397,13.694 59.253,13.91 59.037,13.622C59.469,13.478 60.333,13.478 60.477,13.262C60.621,13.046 60.405,13.19 60.333,12.974C60.909,12.974 61.269,13.046 61.629,12.83C61.557,12.542 61.413,12.83 61.413,12.47C61.629,12.398 61.845,12.398 62.061,12.326C62.493,12.254 62.277,12.254 62.205,11.966C62.637,11.966 63.717,11.966 63.933,11.75C63.717,11.678 63.429,11.606 63.285,11.462C62.997,11.174 64.005,11.39 62.709,10.814C62.493,10.742 62.205,10.454 62.133,10.454C61.701,10.454 61.989,10.598 61.341,10.598L61.341,10.382C60.549,10.742 60.981,10.526 60.477,10.526C60.189,10.454 59.973,10.886 59.757,11.03C59.469,10.814 59.757,10.67 59.181,10.67C59.181,11.102 58.965,11.318 58.965,11.606C58.893,11.606 58.893,11.534 58.893,11.534C58.893,11.678 58.893,11.174 58.605,11.03C58.461,11.102 58.389,11.246 58.317,11.462C58.245,11.894 58.389,12.038 58.101,12.11C58.101,11.75 58.173,11.678 58.173,11.246L57.885,11.03C57.597,11.246 57.525,11.534 57.525,11.894C57.453,12.182 57.669,12.614 57.669,12.974C57.093,12.614 57.453,12.254 57.237,11.822C56.805,11.894 56.949,12.542 56.949,13.118L56.877,13.118C56.877,12.758 56.733,12.254 56.661,11.894C56.301,12.038 56.301,12.47 56.301,12.83C56.229,13.262 56.373,13.55 56.373,13.982L56.229,13.766C56.085,13.478 56.157,13.118 56.013,12.83C55.509,12.902 55.581,13.622 55.581,14.198L55.437,13.766L55.221,13.766C55.149,14.054 55.077,14.198 55.149,14.486C55.221,14.846 55.221,14.774 55.221,15.206C55.077,15.206 55.077,15.278 54.933,15.278C54.645,14.918 54.789,14.702 54.573,14.414C54.357,14.558 54.501,14.63 54.357,14.846C54.213,15.062 54.141,14.99 53.853,15.062L53.493,16.502C53.133,16.502 53.349,16.43 53.061,16.358C52.845,16.574 52.917,16.43 52.845,16.79C52.773,17.15 52.773,17.078 52.557,17.294C52.341,17.15 52.485,17.15 52.269,17.006C52.053,16.934 52.053,17.006 51.981,16.646C51.477,16.718 51.837,17.078 51.477,17.366C51.333,17.006 51.621,15.926 51.621,15.422C51.333,15.422 51.261,15.71 51.189,15.206L51.189,14.342C51.117,14.342 51.045,14.414 50.973,14.414C50.901,14.126 50.973,14.27 50.973,13.91C50.973,13.694 50.973,13.55 50.901,13.406C50.685,13.478 50.757,13.478 50.685,13.766L50.541,13.91C50.541,13.55 50.613,13.118 50.469,12.758C50.397,12.542 50.469,12.542 50.253,12.47C49.893,13.262 50.685,14.63 49.677,14.918C49.677,14.054 50.253,13.622 49.821,12.398C49.749,12.182 49.677,11.966 49.461,11.894L49.389,11.894C49.389,11.606 49.461,11.174 49.101,11.03L49.029,11.03C48.598,10.958 49.173,11.102 48.886,11.03C48.886,10.67 48.958,10.238 48.742,9.95C48.598,9.662 48.814,9.878 48.598,9.806C48.526,9.95 48.454,10.166 48.454,10.31L48.31,10.31C48.238,9.95 48.31,9.086 48.166,8.87C47.878,9.086 48.094,9.302 47.734,9.518C47.662,9.23 47.662,8.942 47.59,8.726L47.59,8.582C47.374,8.366 47.518,8.51 47.446,8.51L47.086,8.582C47.014,8.438 47.014,8.438 47.014,8.294L46.798,8.582C46.438,8.51 46.654,8.366 46.438,8.438C46.294,8.582 46.294,8.726 46.294,8.942C45.934,8.942 45.862,8.582 45.79,8.87C45.79,9.23 46.078,8.942 46.078,9.446C45.934,9.518 46.006,9.446 45.718,9.446C45.79,9.806 46.078,9.518 46.078,10.094L45.862,10.094C45.862,10.454 45.934,10.526 46.15,10.67C46.366,10.742 46.582,10.814 46.654,10.958L46.51,10.958C46.366,11.03 46.438,10.958 46.294,11.102C46.366,11.462 46.51,11.534 46.798,11.678C47.086,11.822 47.302,11.75 47.302,12.11C46.87,12.11 46.726,12.038 46.582,12.326C46.654,12.542 46.798,12.542 47.014,12.614C47.23,12.686 47.446,12.758 47.662,12.83L47.662,12.974C47.23,13.046 46.87,12.902 46.654,13.046C46.726,13.55 47.446,13.262 47.518,13.694C47.374,13.838 47.086,13.766 46.942,13.982C47.014,14.198 46.942,14.126 47.158,14.198C47.23,14.27 47.374,14.342 47.446,14.414C47.734,14.486 48.022,14.414 48.022,14.774C47.734,14.774 47.446,14.702 47.302,14.774C47.374,15.134 47.734,15.35 48.094,15.422C48.022,15.854 47.806,15.35 47.734,15.926C48.022,15.998 48.022,15.998 48.166,16.142C47.878,16.574 48.094,16.574 48.67,16.718C48.67,16.862 48.67,16.862 48.598,17.006C48.886,17.006 48.886,17.078 49.101,17.078C48.886,17.726 48.166,16.574 48.094,17.438C48.382,17.51 48.886,17.51 48.958,17.87C48.454,17.87 48.67,17.726 48.31,17.798C48.31,18.23 48.67,18.446 48.238,18.518C48.166,18.23 48.238,17.942 48.022,17.726C47.878,17.582 47.878,17.582 47.806,17.438C47.662,17.15 47.806,17.222 47.59,17.006C47.302,17.438 47.518,17.294 47.518,17.726C47.374,17.654 47.446,17.726 47.302,17.582C47.086,17.294 47.158,16.862 46.726,16.862C46.51,17.438 47.014,18.086 47.302,18.59C47.446,18.878 47.518,18.95 47.158,19.022C47.014,18.59 46.798,18.086 46.582,17.654C46.366,17.15 46.222,16.79 45.79,16.502C45.79,17.222 46.366,17.51 46.15,18.23C45.79,18.086 45.934,17.726 45.502,16.862C45.358,16.574 45.286,16.43 45.142,16.214C44.926,15.998 44.854,15.782 44.566,15.71C44.566,16.358 45.142,16.574 45.286,17.15L45.286,17.582C45.214,17.87 45.358,17.654 45.142,17.798C44.926,16.934 44.134,15.134 43.27,15.062C43.27,15.566 43.63,15.566 43.846,15.998C44.134,16.358 44.206,16.574 44.206,17.222C43.918,17.006 43.702,15.638 42.766,14.99C42.694,14.918 42.262,14.558 42.406,14.99C42.478,15.422 43.558,15.71 43.27,16.862L43.126,16.862C43.054,16.358 42.622,15.71 42.334,15.422C42.19,15.206 41.974,15.062 41.758,14.918C41.398,14.63 41.398,14.702 40.894,14.702C40.75,14.414 40.606,14.414 40.246,14.414C40.318,14.702 40.318,14.63 40.318,14.918C39.958,14.63 39.886,14.414 39.31,14.414C39.382,14.846 39.814,14.918 40.102,15.134C40.534,15.35 40.678,15.494 40.678,16.07C40.03,15.638 39.886,14.702 38.806,14.702C38.806,15.062 38.95,15.062 39.238,15.206C39.454,15.35 39.67,15.638 39.238,15.566C38.878,15.494 38.95,14.774 38.23,14.702C38.158,14.846 38.158,14.846 38.158,14.918L38.158,15.062C37.942,14.918 37.87,14.99 37.654,14.99C37.51,15.134 37.51,15.134 37.51,15.35C37.006,15.206 37.222,15.35 36.862,15.494C36.718,15.566 36.718,15.566 36.574,15.638C36.718,15.782 36.718,15.854 37.006,15.854C36.934,16.214 36.718,16.07 36.862,16.574C37.366,16.574 37.366,16.358 37.942,16.358C37.294,17.294 38.59,16.574 38.95,16.358C38.95,16.43 38.95,16.43 39.022,16.502C39.022,16.574 39.094,16.574 39.094,16.646C38.95,16.862 38.878,16.79 38.878,17.078C39.454,17.438 39.598,16.862 40.39,17.006C40.318,17.294 40.102,17.222 40.03,17.582C40.39,17.582 40.534,17.51 40.894,17.51C41.398,17.438 41.398,17.366 41.614,17.654C41.326,17.726 41.254,17.798 41.254,18.158C41.974,18.158 42.046,17.798 42.838,18.014C42.766,18.302 42.55,18.23 42.334,18.446C42.406,18.806 42.55,18.734 42.91,18.662C43.198,18.59 43.126,18.518 43.558,18.518C43.414,18.806 43.126,18.734 43.126,19.094C43.486,19.094 43.342,19.166 43.774,19.166C44.206,19.094 44.134,19.166 44.494,19.166C44.278,19.382 44.062,19.238 44.062,19.598L45.358,19.742C45.286,19.886 44.926,20.03 45.286,20.102C45.502,20.174 45.718,20.102 46.006,20.174C45.934,20.39 45.79,20.39 45.646,20.462C45.646,21.037 46.366,21.613 46.87,22.261C46.87,22.333 47.086,22.621 47.086,22.621C47.158,22.693 47.086,22.765 46.942,22.837C46.582,22.765 46.654,22.765 46.51,22.477C46.438,22.261 46.294,22.045 46.15,21.901L45.286,21.037C45.07,20.749 44.566,20.821 45.43,21.613C45.79,21.973 46.006,22.189 46.006,22.765C45.79,22.693 45.79,22.765 45.646,22.549C45.358,21.901 44.926,21.253 44.35,20.821C44.062,20.678 43.774,20.462 43.486,20.606C43.63,21.253 45.214,21.685 44.782,22.549C44.638,22.477 44.638,22.477 44.494,22.333C44.062,21.541 43.486,20.606 42.406,20.606C42.406,20.821 42.406,20.893 42.478,21.037C42.19,21.037 41.758,20.462 41.47,20.749C41.326,20.893 41.398,20.821 41.47,21.109C41.182,20.965 40.462,20.606 40.39,21.109C40.174,21.037 40.03,20.965 39.742,20.893C39.454,20.821 39.238,20.821 38.878,20.821C38.878,21.037 38.95,21.037 39.022,21.253C38.806,21.253 38.446,21.325 38.302,21.397L38.302,21.613C38.95,21.757 39.598,21.901 39.742,22.693C39.238,22.549 39.022,22.045 38.518,21.829C38.302,21.757 37.942,21.613 37.726,21.613C37.582,21.541 37.366,21.541 37.222,21.613C37.078,21.613 37.078,21.685 37.006,21.901C37.51,21.973 38.59,22.261 38.734,22.765C38.518,22.765 38.302,22.693 38.158,22.549C37.582,22.189 36.934,22.189 36.286,22.261C36.358,22.549 36.574,22.549 36.862,22.693C37.15,22.837 37.438,22.837 37.582,23.053C37.222,23.053 36.862,22.909 36.43,22.837C35.998,22.837 35.638,22.765 35.278,22.909L35.566,23.197C35.638,23.269 35.566,23.197 35.71,23.269C35.422,23.197 35.062,23.125 34.846,23.269C34.558,23.413 34.63,23.701 34.846,23.845L34.774,23.845L34.774,23.917C34.63,24.061 34.702,23.917 34.702,24.061L34.702,24.205C34.702,24.277 34.702,24.133 34.63,24.349C34.918,24.349 34.774,24.277 34.918,24.493L34.27,24.709L34.27,24.997C34.198,25.141 34.198,25.069 34.126,25.357C34.486,25.357 34.486,25.285 34.702,25.285L34.702,25.357C34.774,25.501 34.702,25.501 34.846,25.573C35.134,25.501 35.278,25.069 35.638,24.781L35.638,25.357C35.998,25.285 36.07,24.853 36.43,24.709C36.43,25.069 36.358,24.997 36.358,25.357C36.574,25.429 36.718,25.429 36.79,25.501C36.862,25.573 36.718,25.501 36.934,25.645C37.006,25.501 37.006,25.573 37.078,25.357C37.294,24.997 37.366,24.565 37.798,24.493C37.798,24.853 37.582,24.925 37.726,25.357C38.158,25.213 38.23,24.709 38.59,24.493C38.59,24.781 38.446,24.853 38.59,25.069C39.022,24.925 38.878,24.565 39.31,24.493C39.238,24.637 39.238,24.709 39.238,24.925C39.382,24.925 39.67,24.781 39.742,24.709L39.742,24.997C40.174,24.709 40.318,23.989 40.822,23.917C40.678,24.277 40.462,24.493 40.462,24.853C41.038,24.853 41.254,24.061 41.83,23.989C41.758,24.133 41.326,24.853 41.542,24.997C41.686,25.069 41.974,24.853 42.046,24.781C42.19,24.637 42.262,24.493 42.406,24.349C42.334,24.709 42.262,24.637 42.262,25.141C42.982,24.925 43.054,24.061 43.774,23.917C43.774,24.277 43.63,24.277 43.63,24.709C44.206,24.709 44.062,24.277 44.638,24.133C44.566,24.421 43.99,24.925 44.638,24.781C44.998,24.709 45.214,24.349 45.502,24.277C45.43,24.421 45.43,24.493 45.286,24.637C45.214,24.853 45.142,24.925 45.142,25.141C45.358,25.069 46.366,24.421 46.078,25.069C45.934,25.213 45.862,25.213 45.646,25.285C45.718,25.573 45.79,25.501 45.79,25.933C45.502,25.933 45.502,25.861 45.286,25.861C45.214,26.005 45.214,25.933 45.214,26.149C44.71,26.221 44.062,26.293 43.63,26.509C43.702,26.797 43.99,26.797 44.134,26.941C43.99,26.941 43.414,26.797 43.198,27.157C43.126,27.229 43.126,27.085 43.198,27.229L43.198,27.301L43.27,27.373C42.91,27.373 42.334,27.445 41.974,27.589C41.758,27.661 41.758,27.661 41.686,27.877C42.19,27.877 43.99,27.733 44.206,27.805C44.494,27.877 44.638,28.093 44.206,28.093C43.846,28.165 43.63,28.021 43.414,28.021C42.694,28.021 41.614,28.237 40.894,28.309L40.894,28.453C41.542,28.453 42.262,28.597 42.982,28.597C42.694,28.741 41.974,28.741 41.614,28.741C41.326,28.813 40.606,28.813 40.39,29.101C40.75,29.173 40.966,29.029 41.11,29.245C40.75,29.317 40.03,29.461 39.958,29.821C40.534,29.821 41.254,29.893 41.902,29.893C41.398,30.325 40.174,30.037 39.598,30.181C39.31,30.253 39.022,30.325 38.95,30.541C39.742,30.613 40.534,30.685 41.398,30.685L41.398,30.757C40.966,30.757 41.038,30.829 40.75,30.901C39.958,30.973 39.238,30.901 38.518,31.189C38.158,31.333 38.158,31.405 37.942,31.765C37.87,31.837 37.798,31.909 37.726,31.981C37.222,32.557 38.518,32.269 38.806,32.269C38.734,32.341 38.734,32.341 38.59,32.413L37.798,32.701C37.438,32.773 37.078,33.061 37.006,33.421C37.654,33.421 38.518,32.845 39.094,32.701L38.734,33.133C38.374,33.493 37.87,33.565 37.438,33.709C37.15,33.781 37.006,33.781 36.862,33.997C37.294,34.645 37.87,33.493 38.302,33.709C38.302,33.997 38.158,33.997 37.942,34.141C37.726,34.213 37.582,34.213 37.366,34.357C37.078,34.429 36.646,34.717 36.502,35.005C37.222,35.005 37.582,34.645 38.302,34.501C37.942,35.005 37.078,35.149 36.646,35.509C36.214,35.869 35.71,37.165 36.934,36.373C36.862,36.877 36.142,37.741 37.006,37.957C37.006,37.669 37.078,37.741 37.078,37.453C37.15,37.165 37.078,37.021 37.366,36.949C37.366,37.237 37.366,37.165 37.438,37.381C37.726,37.165 37.654,36.949 37.726,36.589L37.942,36.589C37.942,36.661 37.942,36.733 38.014,36.805C38.086,36.949 37.942,36.877 38.158,36.949C38.302,36.661 38.302,35.941 38.518,35.725C38.518,36.085 38.59,36.157 38.662,36.373L38.878,36.373C38.95,36.085 39.022,35.365 39.022,35.005L39.166,35.005C39.166,35.365 39.238,35.365 39.31,35.653C39.526,35.581 39.454,35.581 39.526,35.365C39.67,34.933 39.742,34.357 39.742,33.853C39.814,33.925 39.742,33.853 39.814,33.997L39.958,34.501L40.174,34.501L40.318,33.421C40.39,33.133 40.246,33.205 40.534,33.133C40.534,33.925 40.822,34.213 41.038,33.709C41.11,33.637 41.182,33.421 41.182,33.349C41.254,33.205 41.254,33.133 41.326,32.917L41.47,32.485C41.47,32.773 41.398,32.917 41.542,33.061C41.902,33.061 41.83,32.629 41.902,32.269C42.046,31.981 42.046,31.549 42.262,31.405C42.334,31.621 42.406,31.837 42.406,31.981C42.478,32.341 42.406,32.413 42.694,32.485C42.694,32.197 42.838,31.045 43.054,30.901C43.054,31.189 43.126,31.837 43.198,32.053C43.63,31.765 43.63,30.901 43.702,30.469C44.062,30.685 43.774,31.117 44.134,31.333C44.35,31.189 44.278,30.901 44.35,30.541C44.35,30.325 44.494,29.965 44.638,29.821C44.638,30.181 44.566,30.757 44.71,31.045C44.926,30.829 45.142,30.037 45.142,29.749C45.502,29.965 45.07,30.109 45.43,30.397C45.502,29.893 45.79,29.533 45.862,29.029L46.006,29.029C46.006,29.461 45.934,29.605 45.934,29.749C45.934,30.109 46.222,29.821 46.51,29.749C46.438,29.893 46.438,29.893 46.438,30.109C46.726,30.109 47.014,29.893 47.23,29.749C47.59,29.533 47.734,29.389 48.238,29.389C48.166,29.605 48.166,29.605 47.95,29.677C47.374,29.893 45.862,30.541 45.862,31.261C45.862,31.477 46.006,31.333 46.222,31.333C46.15,31.693 45.862,31.621 45.862,32.197L46.006,32.197Z" style="fill:rgb(0,126,58);"/>
                    <path d="M63.717,82.162C64.149,82.306 64.221,82.378 64.077,82.882C63.861,82.882 63.717,82.81 63.645,82.666C63.501,82.45 63.645,82.306 63.717,82.162ZM39.958,81.586C40.03,82.522 40.39,81.73 40.318,82.522C39.814,82.666 39.814,81.874 39.886,81.73C39.958,81.514 39.886,81.658 39.958,81.586ZM43.774,81.73C43.918,81.514 43.918,81.514 44.134,81.586C44.206,81.73 44.206,81.658 44.134,81.946C43.918,81.874 43.918,81.874 43.774,81.73ZM46.582,82.018C46.654,81.658 46.942,81.514 47.302,81.514C47.23,81.802 46.942,82.018 46.582,82.018ZM59.901,82.09C59.757,81.874 59.901,81.874 59.901,81.73C59.973,81.586 59.901,81.586 59.829,81.442C60.189,81.586 60.261,82.018 59.901,82.09ZM45.43,81.154L45.574,81.37L45.43,81.658L45.214,81.514C45.07,81.586 44.998,81.658 44.926,81.73L44.566,81.514C44.638,81.226 44.71,81.226 44.782,81.082C44.926,81.226 44.926,81.226 45.07,81.298C45.286,81.226 45.214,81.226 45.43,81.154ZM51.477,81.514C51.405,81.298 51.405,81.586 51.333,81.226C51.621,81.082 51.765,81.01 51.837,81.298C51.909,81.514 51.765,81.37 51.909,81.586C51.981,81.658 51.909,81.514 52.053,81.73C52.053,81.946 52.053,82.018 51.837,82.018C51.477,82.09 51.477,81.514 51.477,81.514ZM65.733,81.082C65.733,81.73 65.373,82.954 64.869,82.81L64.869,82.45C64.941,82.234 65.157,82.018 65.229,81.37C65.301,80.794 65.229,79.858 65.373,79.499C65.805,79.57 65.949,80.362 66.021,80.938C65.877,81.01 66.021,81.01 65.877,81.01C65.733,81.082 65.805,81.01 65.733,81.082ZM42.334,79.858C42.19,80.074 42.406,79.93 42.19,80.074C42.118,80.002 42.118,80.002 42.118,79.93C41.902,79.642 41.758,79.858 42.046,79.499C42.19,79.642 42.118,79.427 42.19,79.786C42.478,79.57 42.406,79.57 42.622,79.642L42.406,79.786C42.334,79.786 42.406,79.786 42.334,79.858ZM37.726,79.211L38.374,79.427C38.302,79.93 38.158,80.218 37.51,80.074L37.654,79.714L37.51,79.642C37.366,79.642 37.51,79.786 37.366,79.57L37.726,79.211ZM38.662,82.018C39.166,81.514 38.878,80.578 39.382,80.29C40.102,80.074 40.75,80.938 41.254,81.01C42.262,81.082 42.622,80.434 42.982,80.074C43.63,80.146 43.342,80.722 44.062,80.434C44.206,79.858 43.558,79.427 43.918,78.851C44.062,78.995 44.494,80.002 44.71,80.218L45.07,80.218C45.142,80.002 45.07,80.002 45.07,79.786L45.142,79.642C45.358,79.858 45.646,80.218 45.358,80.578C45.142,81.01 44.71,80.65 44.494,80.65C44.278,80.794 44.35,81.082 43.918,81.154C43.486,81.154 43.342,81.01 42.982,80.938C42.622,81.442 42.118,81.658 41.254,81.658C40.174,81.658 40.39,80.866 39.598,80.866C39.094,81.514 39.526,82.306 38.518,82.666C38.158,82.522 37.51,81.874 37.582,81.37C38.086,81.514 38.158,82.018 38.662,82.018ZM39.526,79.139C39.67,79.283 39.742,79.283 39.67,79.499C39.31,79.714 39.454,79.283 39.166,79.786L38.734,79.499L38.95,79.211C39.094,79.283 39.022,79.283 39.238,79.355L39.526,79.139ZM61.413,79.499C61.413,79.139 61.485,78.779 61.629,78.635C62.133,78.707 61.989,79.211 62.133,79.57C62.349,79.355 62.349,79.067 62.637,78.923C62.925,78.779 63.069,79.067 63.141,79.283C62.637,79.786 62.853,78.779 62.349,80.146C62.133,80.722 62.205,80.722 61.989,80.722C61.989,80.722 61.773,79.714 61.773,79.57C61.557,79.499 61.629,79.642 61.413,79.499ZM56.157,79.642C55.941,79.211 56.373,79.57 56.157,78.923C56.301,78.995 56.373,79.067 56.373,79.355C56.373,79.57 56.373,79.642 56.157,79.642ZM54.645,78.779C54.717,78.563 54.717,78.635 54.933,78.491L55.293,78.779L55.005,79.067L54.645,78.923C54.357,79.067 54.429,79.139 54.141,78.923L54.357,78.707C54.501,78.635 54.357,78.707 54.645,78.779ZM49.533,79.57C49.605,79.283 49.605,79.283 49.893,79.139C50.037,79.067 50.181,78.995 50.325,78.923C51.117,78.491 51.045,78.419 51.261,78.707C51.189,78.851 51.333,78.707 50.829,78.995C50.469,79.139 49.893,79.427 49.533,79.57ZM57.741,79.499C57.309,77.915 58.677,78.203 58.893,79.642C59.037,80.722 58.173,80.506 58.245,81.226C58.677,81.37 59.253,81.082 59.613,80.866C60.333,80.218 59.613,79.067 59.541,78.779C59.469,78.419 59.685,78.347 59.901,78.491C60.261,78.779 60.261,79.499 60.333,79.93C60.405,80.794 60.549,80.722 61.053,81.082C61.413,81.298 62.133,81.37 62.637,81.37C64.581,81.37 63.213,79.786 63.933,78.995C64.221,79.067 64.293,79.355 64.437,79.642C64.653,80.218 64.437,80.146 64.149,80.362C64.005,82.306 62.781,82.234 61.053,81.73C60.333,81.514 60.117,80.722 59.397,81.37C59.109,81.658 59.037,81.802 58.461,81.73C57.597,81.658 57.885,81.514 57.813,81.154C57.525,81.298 57.669,81.442 57.021,81.442C56.589,81.442 56.157,81.514 56.013,81.226C56.517,80.938 57.741,81.082 58.533,79.858C57.957,79.93 57.885,80.074 57.741,79.499ZM40.462,79.714C40.39,79.283 40.462,79.427 41.254,78.923C41.542,78.707 41.974,78.419 42.406,78.347C42.334,78.779 42.334,78.707 42.046,78.923L40.462,79.714ZM60.837,79.283C60.621,78.779 61.053,79.139 60.765,78.563C60.909,78.707 60.981,78.707 61.053,78.923C61.125,79.211 61.053,79.283 60.837,79.283ZM45.07,78.563C44.926,78.275 45.142,78.203 45.43,78.059L45.934,78.275C45.862,78.851 45.646,79.067 45.07,78.995L45.214,78.563C45.07,78.491 45.286,78.563 45.07,78.563ZM47.59,78.779C47.518,78.707 47.518,78.923 47.518,78.563C47.518,78.275 47.734,78.491 47.518,78.059C47.662,78.131 47.734,78.203 47.806,78.347C47.878,78.635 47.806,78.707 47.59,78.779ZM53.205,77.627C53.925,78.275 53.421,78.419 53.565,78.851C53.637,79.139 53.853,79.067 53.709,79.499C53.565,79.786 53.565,79.93 53.349,80.002C53.133,79.714 53.133,79.067 53.061,78.635C52.917,78.059 52.629,77.771 53.205,77.627ZM50.613,80.146C50.613,79.427 51.261,79.355 51.765,79.067C52.413,78.707 51.549,78.059 51.981,77.339C52.125,77.411 52.557,77.915 52.557,77.987C52.413,78.275 52.413,78.059 52.413,78.347L52.485,78.851C52.557,79.283 52.845,79.067 52.845,79.57C52.485,79.57 52.269,79.139 51.693,79.57C52.125,79.858 52.773,79.858 53.205,80.146C53.061,80.506 53.061,80.434 52.629,80.434L52.629,80.938C52.773,81.01 52.917,81.082 53.133,81.154C53.565,80.794 53.781,79.786 54.429,79.642C54.789,79.858 54.717,80.362 55.293,80.434C55.797,80.434 56.229,80.218 56.517,80.074C57.525,79.427 56.157,78.419 56.805,77.627C56.949,77.771 57.021,77.843 57.165,78.059C57.093,78.419 56.949,78.059 57.165,78.635C57.381,79.283 57.309,80.218 56.805,80.578C56.661,80.722 55.653,80.938 55.437,80.938C55.149,80.938 54.933,80.794 54.789,80.722C54.573,80.578 54.501,80.434 54.501,80.218L54.429,80.146C54.213,80.362 53.853,80.65 53.709,80.866C53.493,81.154 53.277,81.586 53.061,81.73C52.413,81.658 52.557,81.082 52.485,80.578C51.765,80.29 51.621,80.506 51.045,80.794C49.821,81.226 49.605,80.794 49.461,80.794C49.101,80.938 49.101,81.226 48.526,81.226C47.734,81.298 48.022,81.082 47.662,80.794C47.302,80.938 46.654,81.802 46.006,81.37C45.358,80.866 45.862,79.93 46.15,79.714C46.222,80.218 45.934,80.218 46.078,80.722C46.582,80.938 47.23,80.578 47.446,80.218C47.518,79.858 46.942,79.067 46.87,78.851L46.942,78.635C47.662,78.491 47.878,80.362 48.454,80.722C48.67,79.499 47.518,77.699 48.382,77.411C49.029,77.987 48.382,78.995 49.389,80.218C49.605,80.506 50.829,80.434 51.189,80.218L50.613,80.146ZM49.101,78.779C49.173,78.491 49.101,78.491 49.389,78.419C49.749,78.203 50.397,77.843 50.685,77.771L50.829,77.915C50.685,78.131 49.389,78.707 49.101,78.779ZM58.821,78.563C58.605,78.131 58.965,78.419 58.749,77.843C58.965,77.987 58.965,77.987 59.037,78.203C59.109,78.491 58.965,78.563 58.821,78.563ZM54.285,78.347C54.285,77.843 54.501,78.203 54.357,77.699C54.429,77.771 54.573,77.843 54.573,78.059C54.645,78.347 54.501,78.347 54.285,78.347ZM34.99,78.779L37.366,84.826C37.87,84.754 39.454,84.25 40.534,84.034C47.014,82.594 56.085,82.666 62.637,83.962C63.213,84.106 63.717,84.25 64.293,84.394C64.797,84.538 65.373,84.682 65.877,84.826L68.253,78.779C62.781,77.123 57.957,76.259 51.621,76.259C45.43,76.259 40.318,77.123 34.99,78.779Z" style="fill:rgb(198,195,225);"/>
                    <path d="M19.727,60.275C19.511,59.987 19.367,59.628 19.223,59.34C18.575,58.188 18.071,57.828 17.495,56.82C16.919,55.812 16.991,55.884 17.567,54.948C18.503,53.508 19.007,52.932 20.087,51.78C20.735,51.06 22.319,49.62 22.895,48.9L24.119,47.316C24.263,47.46 24.551,48.324 24.623,48.612C25.055,49.476 26.207,51.132 26.783,51.636C26.783,52.14 25.847,53.364 25.415,53.796L24.695,54.588C24.551,54.732 24.407,54.804 24.191,55.02L22.319,57.108C21.743,57.756 21.095,58.404 20.519,59.196C20.303,59.484 19.943,59.987 19.727,60.275ZM30.886,51.924L30.814,51.78L30.742,51.708C30.598,51.564 30.454,51.348 30.31,51.132C28.871,49.404 27.575,47.172 26.567,45.156C26.207,44.364 25.415,42.492 25.271,41.628L25.271,41.556L25.199,41.484C25.127,41.34 25.199,41.412 25.055,41.268C24.695,41.772 24.335,42.276 23.903,42.852C23.255,43.644 23.039,43.86 22.679,44.364C22.103,45.084 20.591,46.524 19.943,47.172L17.927,49.188L17.207,49.98C15.983,51.276 14.687,53.076 13.679,54.66C13.463,54.948 13.319,55.164 13.175,55.452C12.815,56.028 12.959,55.884 13.175,56.388C13.895,58.116 16.343,61.499 17.423,63.227C17.855,63.947 18.071,64.451 18.431,65.027C18.647,65.315 18.719,65.531 18.863,65.891C18.935,66.107 19.007,66.251 19.079,66.395C19.151,66.539 19.223,66.755 19.295,66.899C19.439,66.755 19.799,66.179 19.943,65.963C20.231,65.603 20.447,65.315 20.663,64.955L25.559,59.052C26.855,57.612 30.526,53.58 30.886,51.924Z" style="fill:rgb(209,17,52);"/>
                    <path d="M76.82,51.636C77.036,51.42 77.396,50.988 77.612,50.7C79.268,48.612 79.052,47.892 79.484,47.316C79.628,47.46 79.916,47.892 80.06,48.108C81.284,49.692 82.292,50.412 83.516,51.78C83.948,52.284 84.452,52.716 84.884,53.292C85.1,53.508 86.54,55.524 86.54,55.812C86.612,56.316 85.172,58.116 84.956,58.476C84.308,59.34 84.308,59.7 83.948,60.275C83.66,59.987 83.372,59.484 83.084,59.124C82.22,58.116 82.004,57.828 81.212,57.036L80.276,56.028C79.628,55.308 76.892,52.572 76.82,51.636ZM78.404,41.484L78.332,41.556L78.332,41.628C77.828,44.004 75.884,47.532 74.516,49.476C74.3,49.764 73.076,51.564 72.86,51.708L72.788,51.78L72.716,51.924C73.004,53.076 74.66,55.092 75.308,55.956L76.82,57.756C79.772,60.995 80.852,62.147 83.588,65.891C83.804,66.179 84.164,66.755 84.308,66.899C84.38,66.611 84.596,66.179 84.74,65.963C84.884,65.603 84.956,65.387 85.172,65.027L86.18,63.299C87.188,61.643 89.707,58.116 90.427,56.46C90.643,55.812 90.931,56.1 89.995,54.732C89.131,53.436 88.627,52.644 87.692,51.492L84.452,47.892C84.308,47.748 84.236,47.676 84.092,47.532C83.66,47.244 81.284,44.796 80.996,44.436C80.42,43.644 79.844,43.14 79.124,42.132C78.908,41.844 78.764,41.556 78.548,41.268C78.404,41.412 78.476,41.34 78.404,41.484Z" style="fill:rgb(209,17,52);"/>
                    <path d="M38.302,62.579C38.95,65.027 39.67,66.755 41.398,68.555C41.614,68.843 41.83,69.059 41.974,69.275C42.118,69.275 42.118,69.275 42.118,69.347L42.406,69.635C42.838,69.419 43.99,68.267 44.422,67.835C44.71,67.619 44.998,67.547 45.07,67.187C45.142,67.331 45.358,67.403 45.502,67.547C45.79,67.691 45.79,67.619 45.934,67.907C46.078,67.979 46.726,68.339 46.87,68.555C47.014,68.627 47.086,68.627 47.23,68.699L47.662,68.987L48.886,69.491C49.173,69.563 50.181,69.779 50.325,69.923L52.557,70.211L55.005,70.139C56.301,70.067 57.237,69.707 58.317,69.419C58.749,69.203 59.253,69.059 59.685,68.771C62.925,67.115 65.229,63.443 65.517,59.772C65.229,59.916 65.013,60.491 64.869,60.779L63.357,63.443C63.213,63.587 63.141,63.803 62.997,63.875L62.997,63.947C62.709,64.523 61.341,65.747 60.765,66.107C59.181,67.115 57.957,67.475 55.941,67.619C54.717,67.691 53.565,67.475 52.557,67.403C52.197,67.331 51.333,67.115 51.045,66.899C49.677,66.611 47.878,65.243 46.942,64.091C46.798,63.875 46.726,63.659 46.438,63.515C46.51,63.803 46.438,63.731 45.862,64.019L44.278,64.811C44.134,64.883 44.062,64.955 43.846,65.027C43.63,65.099 43.558,65.099 43.414,65.171C43.198,64.955 42.91,64.523 42.766,64.235C42.622,63.731 42.19,63.299 42.046,62.723C41.902,62.435 41.686,61.931 41.686,61.571C41.47,61.211 41.326,60.347 41.254,59.916C41.182,59.556 41.038,58.116 41.182,57.756C41.11,57.54 41.182,57.036 41.254,56.82L41.326,56.46C41.254,56.1 41.614,54.732 41.83,54.444L42.55,52.716C42.622,52.644 42.622,52.572 42.694,52.5L42.91,52.212C42.982,51.708 44.062,50.412 44.422,49.98C44.566,49.836 44.638,49.764 44.782,49.62C45.07,49.404 44.926,49.404 45.43,49.044C47.374,47.46 49.245,46.236 52.053,45.948C54.285,45.732 54.789,46.092 56.589,46.524L56.373,46.596C56.517,46.668 56.805,46.668 57.021,46.668C56.733,46.38 55.365,45.948 54.933,45.804C54.357,45.66 52.917,45.372 52.269,45.444L51.333,45.444C49.533,45.3 46.87,46.236 45.286,47.028C41.11,49.116 39.022,52.716 38.23,57.252C38.014,58.404 37.942,59.7 38.086,60.851L38.302,62.579Z" style="fill:rgb(254,191,15);"/>
                    <path d="M50.037,83.458L48.238,83.53C48.31,83.818 49.245,85.474 49.461,85.906L49.893,86.698C50.685,88.138 51.117,88.354 50.325,90.298C49.749,91.738 48.814,92.89 47.374,93.25C46.15,93.538 45.934,93.106 45.934,94.33C45.934,94.834 45.862,95.05 46.006,95.41C46.51,95.482 46.87,95.338 47.518,95.41L50.325,95.914C51.477,96.13 51.477,96.13 52.485,96.058L55.293,95.554C56.229,95.338 57.309,95.482 57.597,95.41C57.669,95.122 57.885,93.61 57.381,93.466C57.021,93.322 54.645,93.682 53.277,90.37C52.557,88.57 52.845,88.21 53.709,86.698C53.853,86.482 53.925,86.194 54.069,85.978C54.357,85.546 55.293,83.746 55.365,83.53L53.565,83.458L52.845,84.754L52.773,83.458C52.557,83.386 50.973,83.386 50.829,83.458L50.757,84.754C50.685,84.682 50.757,84.826 50.685,84.682L50.037,83.458Z" style="fill:rgb(86,61,46);"/>
                    <path d="M29.375,83.53L29.375,83.458C30.598,82.738 34.198,81.37 35.35,81.082C35.782,82.234 36.214,83.386 36.718,84.538C37.078,85.618 36.862,85.402 37.942,85.69C38.446,85.834 39.382,86.05 39.814,86.194C39.166,86.482 38.302,86.626 37.582,86.914C35.206,87.706 33.622,88.282 31.318,89.29L33.19,84.826L29.231,83.602L29.375,83.53ZM63.429,86.194C64.005,85.978 64.725,85.834 65.373,85.69C65.877,85.546 66.093,85.546 66.237,85.33L67.893,81.082C68.972,81.37 70.052,81.802 71.06,82.234L73.868,83.458C74.012,83.602 73.94,83.53 74.012,83.602L70.052,84.826C70.124,85.186 70.34,85.618 70.484,85.978L71.42,88.138C71.564,88.426 71.852,88.93 71.924,89.218L67.749,87.634L63.429,86.194ZM34.99,78.779C40.318,77.123 45.43,76.259 51.621,76.259C57.957,76.259 62.781,77.123 68.253,78.779L65.877,84.826C65.373,84.682 64.797,84.538 64.293,84.394C63.717,84.25 63.213,84.106 62.637,83.962C56.085,82.666 47.014,82.594 40.534,84.034C39.454,84.25 37.87,84.754 37.366,84.826L34.99,78.779ZM45.862,76.115L44.206,76.259C42.91,76.403 40.462,76.835 39.094,77.123L34.414,78.419C34.414,78.779 34.63,79.283 34.774,79.57L35.134,80.722C34.846,80.794 34.486,80.866 34.198,81.01L31.39,82.018C30.814,82.306 28.295,83.458 28.007,83.818C28.367,83.89 28.799,84.034 29.159,84.106L31.39,84.754C31.678,84.898 32.254,85.042 32.47,85.186C32.47,85.402 32.11,86.194 32.038,86.41L30.454,90.154L32.902,89.146C34.486,88.426 37.726,87.274 39.454,86.842C39.886,86.698 40.534,86.482 40.894,86.482C40.822,86.194 40.678,85.834 40.606,85.546C40.462,85.186 40.318,84.898 40.246,84.538L42.118,84.178C43.27,83.962 46.006,83.602 47.158,83.602C47.374,83.602 47.95,83.53 48.238,83.53L50.037,83.458L50.829,83.458C50.973,83.386 52.557,83.386 52.773,83.458L53.565,83.458L55.365,83.53L56.805,83.674C57.597,83.746 58.317,83.746 59.325,83.89C59.973,83.962 60.621,84.106 61.197,84.178C61.701,84.25 62.637,84.394 62.997,84.61C62.853,84.826 62.349,86.194 62.349,86.482C62.781,86.482 63.357,86.698 63.789,86.842C64.797,87.058 66.741,87.706 67.749,88.138C68.181,88.282 68.613,88.426 69.044,88.57L72.788,90.154C72.572,89.794 72.428,89.29 72.284,88.93C72.068,88.498 71.924,88.066 71.78,87.706C71.564,87.274 70.772,85.546 70.7,85.186C71.492,84.826 75.092,83.89 75.164,83.818C74.732,83.17 69.62,81.082 68.037,80.722C68.253,80.29 68.684,78.923 68.9,78.491C67.893,77.987 63.069,76.907 61.917,76.691L59.397,76.331C58.965,76.331 58.029,76.259 57.741,76.115L52.701,75.827L50.901,75.827C49.893,75.827 47.014,75.971 45.862,76.115Z"/>
                    <path d="M81.068,54.948C80.204,54.084 80.348,51.996 81.788,52.212C82.148,52.284 82.58,52.5 82.724,52.788C80.78,52.788 81.14,53.508 81.068,54.948ZM76.82,51.636C76.892,52.572 79.628,55.308 80.276,56.028L81.212,57.036C82.004,57.828 82.22,58.116 83.084,59.124C83.372,59.484 83.66,59.987 83.948,60.275C84.308,59.7 84.308,59.34 84.956,58.476C85.172,58.116 86.612,56.316 86.54,55.812C86.54,55.524 85.1,53.508 84.884,53.292C84.452,52.716 83.948,52.284 83.516,51.78C82.292,50.412 81.284,49.692 80.06,48.108C79.916,47.892 79.628,47.46 79.484,47.316C79.052,47.892 79.268,48.612 77.612,50.7C77.396,50.988 77.036,51.42 76.82,51.636Z" style="fill:rgb(0,126,58);"/>
                    <path d="M22.535,54.948C22.463,53.58 22.823,52.788 20.879,52.788C21.167,52.284 22.247,51.852 22.823,52.644C23.327,53.292 22.967,54.516 22.535,54.948ZM19.727,60.275C19.943,59.987 20.303,59.484 20.519,59.196C21.095,58.404 21.743,57.756 22.319,57.108L24.191,55.02C24.407,54.804 24.551,54.732 24.695,54.588L25.415,53.796C25.847,53.364 26.783,52.14 26.783,51.636C26.207,51.132 25.055,49.476 24.623,48.612C24.551,48.324 24.263,47.46 24.119,47.316L22.895,48.9C22.319,49.62 20.735,51.06 20.087,51.78C19.007,52.932 18.503,53.508 17.567,54.948C16.991,55.884 16.919,55.812 17.495,56.82C18.071,57.828 18.575,58.188 19.223,59.34C19.367,59.628 19.511,59.987 19.727,60.275Z" style="fill:rgb(0,126,58);"/>
                    <path d="M25.055,41.268C25.199,41.412 25.127,41.34 25.199,41.484L25.271,41.556L25.271,41.628C25.415,41.772 25.487,41.988 25.631,42.276C25.775,42.492 25.847,42.636 25.991,42.852L30.094,50.412C30.238,50.628 30.31,50.772 30.454,51.06C30.526,51.276 30.67,51.492 30.742,51.708L30.814,51.78L30.886,51.924C30.958,52.068 31.03,52.14 31.102,52.284C31.174,52.428 31.246,52.5 31.318,52.644C31.462,52.932 31.606,53.148 31.75,53.436C31.894,53.652 31.966,53.94 32.11,54.156C32.326,54.444 32.398,54.66 32.542,54.948L43.99,75.827C44.134,76.043 44.134,76.115 44.206,76.259L45.862,76.115C45.358,75.107 44.134,73.019 43.486,71.939L42.118,69.347L41.974,69.275C41.83,69.059 41.614,68.843 41.398,68.555C39.67,66.755 38.95,65.027 38.302,62.579L28.943,46.02C28.655,45.516 28.439,45.156 28.151,44.652C27.575,43.716 26.279,41.196 25.775,40.476C26.063,40.261 26.423,39.613 25.991,39.253C25.631,38.965 24.911,39.181 24.551,39.397C23.471,40.045 23.327,41.412 24.983,40.98L25.055,41.268Z" style="fill:rgb(87,63,47);"/>
                    <path d="M65.445,62.363L65.445,62.435C65.301,64.235 63.861,66.827 62.709,68.195L61.413,69.635L61.341,69.707L58.677,74.459C58.389,75.035 58.029,75.539 57.741,76.115C58.029,76.259 58.965,76.331 59.397,76.331C59.829,75.395 60.909,73.595 61.413,72.515L64.149,67.547C64.221,67.403 64.293,67.331 64.365,67.187L65.805,64.523C65.877,64.379 65.949,64.235 66.021,64.091L72.284,52.716C72.356,52.572 72.428,52.428 72.428,52.356C72.5,52.284 72.5,52.212 72.572,52.14C72.644,52.068 72.644,51.996 72.716,51.924L72.788,51.78L72.86,51.708C72.932,51.42 74.084,49.476 74.228,49.188L75.596,46.668C75.884,46.092 78.188,41.772 78.332,41.628L78.332,41.556L78.404,41.484C78.476,41.34 78.404,41.412 78.548,41.268L78.62,40.98C79.196,41.124 79.844,41.196 79.844,40.476C79.844,39.613 78.26,38.749 77.612,39.253C77.18,39.613 77.54,40.261 77.828,40.476C77.684,40.692 77.54,40.908 77.468,41.124L74.012,47.316C73.724,47.748 73.508,48.18 73.22,48.684C72.212,50.34 71.132,52.428 70.124,54.156L67.821,58.26C67.677,58.476 67.605,58.692 67.461,58.908L66.669,60.275C66.525,60.491 66.453,60.707 66.309,60.995L65.589,62.291C65.445,62.363 65.517,62.291 65.445,62.363Z" style="fill:rgb(87,63,47);"/>
                    <path d="M29.231,83.602L33.19,84.826L31.318,89.29C33.622,88.282 35.206,87.706 37.582,86.914C38.302,86.626 39.166,86.482 39.814,86.194C39.382,86.05 38.446,85.834 37.942,85.69C36.862,85.402 37.078,85.618 36.718,84.538C36.214,83.386 35.782,82.234 35.35,81.082C34.198,81.37 30.598,82.738 29.375,83.458L29.375,83.53L29.231,83.602Z" style="fill:rgb(198,195,225);"/>
                    <path d="M63.429,86.194L67.749,87.634L71.924,89.218C71.852,88.93 71.564,88.426 71.42,88.138L70.484,85.978C70.34,85.618 70.124,85.186 70.052,84.826L74.012,83.602C73.94,83.53 74.012,83.602 73.868,83.458L71.06,82.234C70.052,81.802 68.972,81.37 67.893,81.082L66.237,85.33C66.093,85.546 65.877,85.546 65.373,85.69C64.725,85.834 64.005,85.978 63.429,86.194Z" style="fill:rgb(198,195,225);"/>
                    <path d="M54.285,55.812C54.285,56.316 54.645,56.82 54.645,57.324C53.997,56.892 53.061,55.956 52.413,55.812C52.269,55.74 52.197,55.74 52.125,55.668L51.837,55.524C51.693,55.452 51.477,55.38 51.333,55.308C51.045,55.164 51.045,55.236 50.901,55.092L50.901,55.02L50.829,55.02L49.389,55.452C49.605,55.524 49.821,55.524 49.965,55.668C50.253,55.74 49.965,55.668 50.253,55.812C50.325,55.812 50.397,55.812 50.541,55.884L53.277,57.036C53.853,57.252 53.709,57.18 53.781,57.324L54.645,57.396L52.629,58.764C52.341,58.908 52.413,58.764 51.477,59.412L51.333,59.556L51.333,62.291C51.405,62.075 53.493,59.772 53.781,59.34C53.925,59.484 53.853,59.34 53.853,59.556C54.069,59.34 54.213,58.836 54.285,58.548C54.429,58.116 54.501,57.684 54.717,57.468L55.869,61.355C56.157,61.355 56.733,61.643 57.021,61.715C57.309,61.859 58.029,62.147 58.317,62.147C58.245,61.787 57.021,59.987 56.805,59.628C56.661,59.412 56.373,58.836 56.229,58.764C56.301,58.62 56.229,58.692 56.373,58.692L56.301,58.62L55.581,58.044C55.293,57.828 55.005,57.612 54.789,57.396L58.821,57.396C58.965,57.252 59.037,57.108 59.181,56.964C59.325,56.748 59.469,56.604 59.613,56.46C59.901,56.1 60.117,55.74 60.405,55.38C59.685,55.596 59.037,55.74 58.317,55.956C57.957,56.028 57.597,56.1 57.237,56.172C57.021,56.244 56.877,56.244 56.661,56.316C56.157,56.46 56.301,56.532 56.229,56.316C55.797,56.46 55.293,57.108 54.789,57.252C54.861,56.892 55.005,56.46 55.077,56.172L55.221,52.14C55.005,51.852 54.789,51.348 54.501,51.132L54.285,55.812Z" style="fill:rgb(245,182,29);"/>
                    <path d="M42.91,52.212C43.054,52.5 43.846,51.852 43.99,51.78C44.062,51.708 44.134,51.78 44.206,51.708C44.422,51.636 45.79,50.844 46.582,50.484C46.726,50.484 46.51,50.628 46.654,50.484L47.518,49.548C48.526,48.612 48.742,48.54 49.893,47.82C50.181,47.676 51.045,47.244 51.333,47.244C51.477,47.1 51.549,47.1 51.765,47.028L51.765,47.964L51.837,47.172L53.493,53.004C53.709,52.716 53.493,51.852 53.565,51.42C53.565,50.988 53.709,50.34 53.709,49.836C53.637,49.62 53.205,49.044 52.989,48.828C52.845,48.612 52.773,48.468 52.629,48.252C52.557,48.108 52.341,47.82 52.341,47.676C52.125,47.532 51.909,47.172 51.837,46.956L52.341,46.884C52.773,46.668 53.637,46.596 54.213,46.524C54.933,46.452 55.797,46.524 56.373,46.596L56.589,46.524C54.789,46.092 54.285,45.732 52.053,45.948C49.245,46.236 47.374,47.46 45.43,49.044C44.926,49.404 45.07,49.404 44.782,49.62C44.638,49.764 44.566,49.836 44.422,49.98C44.062,50.412 42.982,51.708 42.91,52.212Z" style="fill:rgb(217,153,73);"/>
                    <path d="M65.517,59.772C65.229,63.443 62.925,67.115 59.685,68.771C59.253,69.059 58.749,69.203 58.317,69.419L58.389,69.563C58.101,69.707 58.173,69.635 57.957,69.923C57.669,70.211 57.669,70.139 57.453,70.355C57.237,70.499 57.237,70.571 56.949,70.787C56.661,71.003 56.733,71.003 56.517,71.219C56.301,71.435 56.229,71.291 56.013,71.579C55.653,72.011 55.869,71.795 55.581,72.011C55.365,72.155 55.293,72.299 55.077,72.443L54.645,72.875L54.933,72.875C55.293,73.019 56.373,72.515 56.805,72.371C58.389,71.795 59.685,71.003 60.981,69.995C61.125,69.851 61.197,69.779 61.341,69.707C61.341,69.563 61.341,69.635 61.413,69.635L62.709,68.195C63.861,66.827 65.301,64.235 65.445,62.435L65.445,62.363C65.445,61.859 65.589,61.427 65.589,60.923L65.589,60.131C65.589,59.987 65.517,59.34 65.517,59.772Z" style="fill:rgb(220,156,69);"/>
                    <path d="M55.221,52.14L55.077,56.172C55.005,56.46 54.861,56.892 54.789,57.252C55.293,57.108 55.797,56.46 56.229,56.316C56.661,56.1 57.669,55.236 58.101,55.092C58.893,54.516 59.829,53.94 60.693,53.364C61.125,53.004 61.557,52.716 61.989,52.428C62.421,52.14 62.925,51.78 63.357,51.564C63.429,51.564 63.429,51.636 63.429,51.492C62.853,51.636 62.277,51.78 61.629,51.996L57.957,53.004C57.669,53.076 57.309,53.148 57.021,53.22C56.805,53.292 56.229,53.436 56.085,53.508C55.869,53.004 55.509,52.572 55.221,52.14Z" style="fill:rgb(254,191,15);"/>
                    <path d="M51.765,47.964L51.477,54.804L51.261,54.876C51.117,54.876 50.973,54.948 50.829,55.02L50.901,55.02L50.901,55.092C51.045,55.236 51.045,55.164 51.333,55.308C51.477,55.38 51.693,55.452 51.837,55.524L52.125,55.668C52.197,55.74 52.269,55.74 52.413,55.812C53.061,55.956 53.997,56.892 54.645,57.324C54.645,56.82 54.285,56.316 54.285,55.812L53.493,53.004L51.837,47.172L51.765,47.964Z" style="fill:rgb(254,191,15);"/>
                    <path d="M50.613,80.146L51.189,80.218C50.829,80.434 49.605,80.506 49.389,80.218C48.382,78.995 49.029,77.987 48.382,77.411C47.518,77.699 48.67,79.499 48.454,80.722C47.878,80.362 47.662,78.491 46.942,78.635L46.87,78.851C46.942,79.067 47.518,79.858 47.446,80.218C47.23,80.578 46.582,80.938 46.078,80.722C45.934,80.218 46.222,80.218 46.15,79.714C45.862,79.93 45.358,80.866 46.006,81.37C46.654,81.802 47.302,80.938 47.662,80.794C48.022,81.082 47.734,81.298 48.526,81.226C49.101,81.226 49.101,80.938 49.461,80.794C49.605,80.794 49.821,81.226 51.045,80.794C51.621,80.506 51.765,80.29 52.485,80.578C52.557,81.082 52.413,81.658 53.061,81.73C53.277,81.586 53.493,81.154 53.709,80.866C53.853,80.65 54.213,80.362 54.429,80.146L54.501,80.218C54.501,80.434 54.573,80.578 54.789,80.722C54.933,80.794 55.149,80.938 55.437,80.938C55.653,80.938 56.661,80.722 56.805,80.578C57.309,80.218 57.381,79.283 57.165,78.635C56.949,78.059 57.093,78.419 57.165,78.059C57.021,77.843 56.949,77.771 56.805,77.627C56.157,78.419 57.525,79.427 56.517,80.074C56.229,80.218 55.797,80.434 55.293,80.434C54.717,80.362 54.789,79.858 54.429,79.642C53.781,79.786 53.565,80.794 53.133,81.154C52.917,81.082 52.773,81.01 52.629,80.938L52.629,80.434C53.061,80.434 53.061,80.506 53.205,80.146C52.773,79.858 52.125,79.858 51.693,79.57C52.269,79.139 52.485,79.57 52.845,79.57C52.845,79.067 52.557,79.283 52.485,78.851L52.413,78.347C52.413,78.059 52.413,78.275 52.557,77.987C52.557,77.915 52.125,77.411 51.981,77.339C51.549,78.059 52.413,78.707 51.765,79.067C51.261,79.355 50.613,79.427 50.613,80.146Z"/>
                    <path d="M56.373,58.692C56.661,58.908 59.181,60.851 59.469,61.139L62.853,63.803C62.781,63.515 62.061,62.507 61.917,62.219C61.485,61.571 58.965,57.756 58.821,57.396L54.789,57.396C55.005,57.612 55.293,57.828 55.581,58.044L56.301,58.62L56.373,58.692Z" style="fill:rgb(254,191,15);"/>
                    <path d="M53.853,59.556L53.205,61.499L51.261,66.755C51.405,66.539 51.693,66.251 51.909,66.035C52.053,65.747 52.413,65.387 52.557,65.243L55.365,61.787C55.509,61.715 55.509,61.643 55.581,61.571C55.725,61.355 55.653,61.427 55.869,61.355L54.717,57.468C54.501,57.684 54.429,58.116 54.285,58.548C54.213,58.836 54.069,59.34 53.853,59.556Z" style="fill:rgb(254,191,15);"/>
                    <path d="M51.189,59.556L51.333,59.556L51.477,59.412C52.413,58.764 52.341,58.908 52.629,58.764L54.645,57.396L53.781,57.324L52.125,57.252C51.621,57.252 48.526,57.18 48.31,57.036C47.662,57.18 45.358,56.964 44.566,56.964L50.901,59.484C51.189,59.556 50.973,59.556 51.189,59.556Z" style="fill:rgb(254,191,15);"/>
                    <path d="M52.557,70.211C52.125,70.355 52.269,70.139 51.981,70.427C51.477,70.787 50.397,71.867 49.893,72.227C49.605,72.515 49.389,72.803 49.029,72.947C49.173,72.947 49.101,72.875 49.245,72.947C49.389,73.019 49.317,73.019 49.389,73.091C49.605,73.235 50.613,73.307 50.973,73.307L52.629,73.307L52.557,73.307C52.269,73.163 52.485,73.163 51.693,73.163C52.125,72.947 52.701,72.371 52.989,72.083C53.349,71.723 54.933,70.427 55.005,70.139L52.557,70.211Z" style="fill:rgb(230,167,53);"/>
                    <path d="M58.245,81.226C58.173,80.506 59.037,80.722 58.893,79.642C58.677,78.203 57.309,77.915 57.741,79.499C57.885,80.074 57.957,79.93 58.533,79.858C57.741,81.082 56.517,80.938 56.013,81.226C56.157,81.514 56.589,81.442 57.021,81.442C57.669,81.442 57.525,81.298 57.813,81.154C57.885,81.514 57.597,81.658 58.461,81.73C59.037,81.802 59.109,81.658 59.397,81.37C60.117,80.722 60.333,81.514 61.053,81.73C62.781,82.234 64.005,82.306 64.149,80.362C64.437,80.146 64.653,80.218 64.437,79.642C64.293,79.355 64.221,79.067 63.933,78.995C63.213,79.786 64.581,81.37 62.637,81.37C62.133,81.37 61.413,81.298 61.053,81.082C60.549,80.722 60.405,80.794 60.333,79.93C60.261,79.499 60.261,78.779 59.901,78.491C59.685,78.347 59.469,78.419 59.541,78.779C59.613,79.067 60.333,80.218 59.613,80.866C59.253,81.082 58.677,81.37 58.245,81.226Z"/>
                    <path d="M55.005,70.139C54.933,70.427 53.349,71.723 52.989,72.083C52.701,72.371 52.125,72.947 51.693,73.163C52.485,73.163 52.269,73.163 52.557,73.307L52.701,73.307C52.989,73.307 54.645,73.163 54.933,72.875L54.645,72.875L55.077,72.443C55.293,72.299 55.365,72.155 55.581,72.011C55.869,71.795 55.653,72.011 56.013,71.579C56.229,71.291 56.301,71.435 56.517,71.219C56.733,71.003 56.661,71.003 56.949,70.787C57.237,70.571 57.237,70.499 57.453,70.355C57.669,70.139 57.669,70.211 57.957,69.923C58.173,69.635 58.101,69.707 58.389,69.563L58.317,69.419C57.237,69.707 56.301,70.067 55.005,70.139Z" style="fill:rgb(225,161,61);"/>
                    <path d="M47.302,72.515C47.374,72.587 47.302,72.587 47.518,72.659C47.806,72.803 49.029,73.091 49.389,73.091C49.317,73.019 49.389,73.019 49.245,72.947C49.101,72.875 49.173,72.947 49.029,72.947C49.389,72.803 49.605,72.515 49.893,72.227C50.397,71.867 51.477,70.787 51.981,70.427C52.269,70.139 52.125,70.355 52.557,70.211L50.325,69.923C49.965,69.923 50.037,69.923 49.821,70.139L47.302,72.443L47.302,72.515Z" style="fill:rgb(235,171,45);"/>
                    <path d="M41.182,57.756C41.038,58.116 41.182,59.556 41.254,59.916L41.47,60.059C41.83,59.916 43.486,59.052 43.846,58.764L43.918,58.764C43.99,58.692 43.99,58.692 44.062,58.692C44.134,58.62 44.278,58.548 44.494,58.548C44.494,58.26 44.494,58.044 44.422,57.756L44.422,57.108C44.422,56.892 44.422,57.036 44.494,56.964L44.494,56.892C44.422,56.82 44.494,56.82 44.494,56.748L44.494,56.1L44.422,56.244L44.422,56.316L44.35,56.316L44.35,56.604C44.062,56.748 43.918,56.748 43.558,56.964L41.254,58.188L41.182,57.756Z" style="fill:rgb(234,171,47);"/>
                    <path d="M41.83,54.444C41.614,54.732 41.254,56.1 41.326,56.46C41.47,56.532 41.974,56.244 42.118,56.172C42.406,56.028 42.622,55.884 42.982,55.74C43.558,55.452 44.062,55.164 44.71,54.876C44.782,54.732 44.782,54.516 44.854,54.372C44.926,54.084 44.926,54.012 44.998,53.796L45.43,52.572C45.358,52.572 45.358,52.644 45.358,52.644L45.286,52.644L44.926,52.932C44.206,53.22 42.19,54.372 41.83,54.444Z" style="fill:rgb(226,162,60);"/>
                    <path d="M44.062,80.434C43.342,80.722 43.63,80.146 42.982,80.074C42.622,80.434 42.262,81.082 41.254,81.01C40.75,80.938 40.102,80.074 39.382,80.29C38.878,80.578 39.166,81.514 38.662,82.018C38.158,82.018 38.086,81.514 37.582,81.37C37.51,81.874 38.158,82.522 38.518,82.666C39.526,82.306 39.094,81.514 39.598,80.866C40.39,80.866 40.174,81.658 41.254,81.658C42.118,81.658 42.622,81.442 42.982,80.938C43.342,81.01 43.486,81.154 43.918,81.154C44.35,81.082 44.278,80.794 44.494,80.65C44.71,80.65 45.142,81.01 45.358,80.578C45.646,80.218 45.358,79.858 45.142,79.642L45.07,79.786C45.07,80.002 45.142,80.002 45.07,80.218L44.71,80.218C44.494,80.002 44.062,78.995 43.918,78.851C43.558,79.427 44.206,79.858 44.062,80.434Z"/>
                    <path d="M42.046,62.723C42.19,63.299 42.622,63.731 42.766,64.235C43.198,64.235 44.71,63.371 45.142,63.083C45.574,62.939 45.862,62.867 45.862,62.651C45.934,62.363 45.574,62.075 45.358,61.427C45.214,61.139 45.286,61.211 45.07,61.067C45.142,61.355 45.214,61.211 44.854,61.427C44.71,61.499 44.638,61.499 44.494,61.571L42.046,62.723Z" style="fill:rgb(247,184,27);"/>
                    <path d="M41.254,59.916C41.326,60.347 41.47,61.211 41.686,61.571L41.83,61.715C42.118,61.643 42.406,61.571 42.622,61.427C42.838,61.283 42.694,61.283 42.91,61.139C43.054,61.067 43.198,60.995 43.342,60.923C43.63,60.779 43.846,60.707 44.134,60.563C44.278,60.491 44.35,60.419 44.494,60.347C44.638,60.275 44.71,60.275 44.782,60.131C44.854,59.844 44.638,59.484 44.566,58.98L44.494,58.548C44.278,58.548 44.134,58.62 44.062,58.692C43.99,58.692 43.99,58.692 43.918,58.764L43.846,58.764C43.486,59.052 41.83,59.916 41.47,60.059L41.254,59.916Z" style="fill:rgb(239,176,39);"/>
                    <path d="M42.91,52.212L42.694,52.5C42.622,52.572 42.622,52.644 42.55,52.716L41.83,54.444C42.19,54.372 44.206,53.22 44.926,52.932L45.286,52.644L45.358,52.644C45.358,52.644 45.358,52.572 45.43,52.572L45.934,51.564C46.15,51.204 46.438,50.916 46.582,50.484C45.79,50.844 44.422,51.636 44.206,51.708C44.134,51.78 44.062,51.708 43.99,51.78C43.846,51.852 43.054,52.5 42.91,52.212Z" style="fill:rgb(221,158,66);"/>
                    <path d="M41.326,56.46L41.254,56.82C41.182,57.036 41.11,57.54 41.182,57.756L41.254,58.188L43.558,56.964C43.918,56.748 44.062,56.748 44.35,56.604L44.35,56.316L44.422,56.316L44.422,56.244L44.494,56.1C44.566,55.956 44.71,55.092 44.71,54.876C44.062,55.164 43.558,55.452 42.982,55.74C42.622,55.884 42.406,56.028 42.118,56.172C41.974,56.244 41.47,56.532 41.326,56.46Z" style="fill:rgb(229,166,54);"/>
                    <path d="M58.317,62.147L58.317,62.219L60.477,63.011C60.405,62.795 59.613,61.427 59.397,61.283C59.397,61.067 59.325,61.211 59.469,61.139C59.181,60.851 56.661,58.908 56.373,58.692C56.229,58.692 56.301,58.62 56.229,58.764C56.373,58.836 56.661,59.412 56.805,59.628C57.021,59.987 58.245,61.787 58.317,62.147Z" style="fill:rgb(237,174,41);"/>
                    <path d="M45.07,71.507C45.07,71.579 44.998,71.507 45.214,71.651C45.358,71.723 45.43,71.795 45.502,71.795C45.718,71.939 45.934,72.083 46.222,72.083C46.222,71.867 46.15,72.011 46.294,71.867L47.878,70.427C48.094,70.283 48.094,70.283 48.238,70.139C48.598,69.779 48.742,69.779 48.886,69.491L47.662,68.987C47.374,69.203 47.23,69.347 47.014,69.563C46.582,69.995 45.214,71.075 44.998,71.363C45.07,71.363 44.998,71.363 45.07,71.507Z" style="fill:rgb(242,179,34);"/>
                    <path d="M50.901,75.827L52.701,75.827L52.701,73.307L50.973,73.307C50.901,73.739 50.901,74.027 50.901,74.531L50.901,75.827Z" style="fill:rgb(87,63,47);"/>
                    <path d="M51.117,66.395L51.117,66.899C51.333,66.827 51.189,66.899 51.261,66.755L53.205,61.499C52.989,61.571 52.989,61.643 52.917,61.715L51.261,63.587L51.333,61.715L51.333,59.556L51.189,59.556C51.189,60.635 51.189,61.931 51.117,62.939C51.045,63.587 51.045,65.747 51.117,66.395Z" style="fill:rgb(229,166,54);"/>
                    <path d="M46.222,72.083C46.294,72.155 46.15,72.083 46.366,72.227C46.51,72.299 46.582,72.299 46.654,72.371C46.87,72.443 47.014,72.515 47.302,72.515L47.302,72.443L49.821,70.139C50.037,69.923 49.965,69.923 50.325,69.923C50.181,69.779 49.173,69.563 48.886,69.491C48.742,69.779 48.598,69.779 48.238,70.139C48.094,70.283 48.094,70.283 47.878,70.427L46.294,71.867C46.15,72.011 46.222,71.867 46.222,72.083Z" style="fill:rgb(239,176,39);"/>
                    <path d="M58.101,55.092C58.173,55.164 58.245,55.164 58.389,55.092L60.333,54.66C60.405,54.588 60.549,54.588 60.693,54.516C60.837,54.516 60.981,54.444 61.053,54.516C61.197,54.3 61.485,54.012 61.629,53.796C61.917,53.508 63.285,51.924 63.357,51.564C62.925,51.78 62.421,52.14 61.989,52.428C61.557,52.716 61.125,53.004 60.693,53.364C59.829,53.94 58.893,54.516 58.101,55.092Z" style="fill:rgb(230,167,53);"/>
                    <path d="M43.342,70.355C43.342,70.499 43.558,70.571 43.63,70.643C43.702,70.643 43.846,70.787 43.846,70.787C44.134,70.931 43.846,70.859 44.134,70.931C44.206,70.715 44.926,70.139 45.142,69.995C45.286,69.851 45.286,69.779 45.43,69.707L46.51,68.771C46.654,68.627 46.582,68.555 46.87,68.555C46.726,68.339 46.078,67.979 45.934,67.907C45.718,67.907 45.718,67.979 45.574,68.123C44.998,68.555 44.206,69.419 43.486,69.923C43.342,70.067 43.27,70.139 43.342,70.355Z" style="fill:rgb(248,186,24);"/>
                    <path d="M42.766,64.235C42.91,64.523 43.198,64.955 43.414,65.171C43.558,65.099 43.63,65.099 43.846,65.027C44.062,64.955 44.134,64.883 44.278,64.811L45.862,64.019C46.438,63.731 46.51,63.803 46.438,63.515C46.438,63.299 46.078,62.795 45.862,62.651C45.862,62.867 45.574,62.939 45.142,63.083C44.71,63.371 43.198,64.235 42.766,64.235Z" style="fill:rgb(251,188,21);"/>
                    <path d="M41.686,61.571C41.686,61.931 41.902,62.435 42.046,62.723L44.494,61.571C44.638,61.499 44.71,61.499 44.854,61.427C45.214,61.211 45.142,61.355 45.07,61.067C45.142,60.851 45.07,60.779 44.998,60.563L44.926,60.347C44.854,60.131 44.854,60.203 44.782,60.131C44.71,60.275 44.638,60.275 44.494,60.347C44.35,60.419 44.278,60.491 44.134,60.563C43.846,60.707 43.63,60.779 43.342,60.923C43.198,60.995 43.054,61.067 42.91,61.139C42.694,61.283 42.838,61.283 42.622,61.427C42.406,61.571 42.118,61.643 41.83,61.715L41.686,61.571Z" style="fill:rgb(243,180,33);"/>
                    <path d="M53.493,53.004L54.285,55.812L54.501,51.132C54.429,50.916 54.285,50.7 54.141,50.484C53.997,50.34 53.853,49.98 53.709,49.836C53.709,50.34 53.565,50.988 53.565,51.42C53.493,51.852 53.709,52.716 53.493,53.004Z" style="fill:rgb(233,169,49);"/>
                    <path d="M44.134,70.931C44.206,71.075 44.134,70.931 44.278,71.075C44.35,71.147 44.422,71.147 44.494,71.219C44.782,71.363 44.782,71.435 45.07,71.507C44.998,71.363 45.07,71.363 44.998,71.363C45.214,71.075 46.582,69.995 47.014,69.563C47.23,69.347 47.374,69.203 47.662,68.987L47.23,68.699C47.086,68.627 47.014,68.627 46.87,68.555C46.582,68.555 46.654,68.627 46.51,68.771L45.43,69.707C45.286,69.779 45.286,69.851 45.142,69.995C44.926,70.139 44.206,70.715 44.134,70.931Z" style="fill:rgb(245,182,29);"/>
                    <path d="M42.406,69.635C42.55,69.779 42.694,69.851 42.838,69.995C42.91,70.067 42.91,70.067 43.054,70.139C43.198,70.283 43.126,70.211 43.342,70.355C43.27,70.139 43.342,70.067 43.486,69.923C44.206,69.419 44.998,68.555 45.574,68.123C45.718,67.979 45.718,67.907 45.934,67.907C45.79,67.619 45.79,67.691 45.502,67.547C45.358,67.403 45.142,67.331 45.07,67.187C44.998,67.547 44.71,67.619 44.422,67.835C43.99,68.267 42.838,69.419 42.406,69.635Z" style="fill:rgb(251,189,19);"/>
                    <path d="M47.086,56.1C47.23,56.316 47.086,56.172 47.446,56.316L48.094,56.604C48.238,56.676 48.454,56.748 48.67,56.82L49.173,57.036C48.886,57.036 48.598,56.964 48.31,57.036C48.526,57.18 51.621,57.252 52.125,57.252C51.909,57.036 51.909,57.18 51.549,56.964C51.045,56.748 51.189,56.82 50.757,56.676L48.526,55.74C48.166,55.74 47.446,56.028 47.086,56.1Z" style="fill:rgb(227,164,57);"/>
                    <path d="M58.101,55.092C57.669,55.236 56.661,56.1 56.229,56.316C56.301,56.532 56.157,56.46 56.661,56.316C56.877,56.244 57.021,56.244 57.237,56.172C57.597,56.1 57.957,56.028 58.317,55.956C59.037,55.74 59.685,55.596 60.405,55.38C60.477,55.236 60.621,55.092 60.765,54.948C60.837,54.804 60.981,54.66 61.053,54.516C60.981,54.444 60.837,54.516 60.693,54.516C60.549,54.588 60.405,54.588 60.333,54.66L58.389,55.092C58.245,55.164 58.173,55.164 58.101,55.092Z" style="fill:rgb(238,176,40);"/>
                    <path d="M51.333,61.715L51.261,63.587L52.917,61.715C52.989,61.643 52.989,61.571 53.205,61.499L53.853,59.556C53.853,59.34 53.925,59.484 53.781,59.34C53.493,59.772 51.405,62.075 51.333,62.291L51.333,61.715Z" style="fill:rgb(238,176,40);"/>
                    <path d="M48.526,55.74L50.757,56.676C51.189,56.82 51.045,56.748 51.549,56.964C51.909,57.18 51.909,57.036 52.125,57.252L53.781,57.324C53.709,57.18 53.853,57.252 53.277,57.036L50.541,55.884C50.397,55.812 50.325,55.812 50.253,55.812C49.965,55.668 50.253,55.74 49.965,55.668C49.821,55.524 49.605,55.524 49.389,55.452L48.526,55.74Z" style="fill:rgb(236,173,43);"/>
                    <path d="M51.333,47.244C51.261,48.396 51.405,49.836 51.261,50.988C51.189,52.14 51.261,53.652 51.261,54.876L51.477,54.804L51.765,47.964L51.765,47.028C51.549,47.1 51.477,47.1 51.333,47.244Z" style="fill:rgb(87,63,47);"/>
                    <path d="M44.494,56.892L44.494,56.964L44.566,56.964C45.358,56.964 47.662,57.18 48.31,57.036C48.598,56.964 48.886,57.036 49.173,57.036L48.67,56.82C48.454,56.748 48.238,56.676 48.094,56.604L47.446,56.316C47.086,56.172 47.23,56.316 47.086,56.1C46.942,56.172 46.582,56.244 46.438,56.316C46.222,56.316 46.006,56.388 45.79,56.46C45.43,56.604 44.782,56.748 44.494,56.892Z" style="fill:rgb(215,150,78);"/>
                    <path d="M81.068,54.948C81.14,53.508 80.78,52.788 82.724,52.788C82.58,52.5 82.148,52.284 81.788,52.212C80.348,51.996 80.204,54.084 81.068,54.948Z" style="fill:rgb(254,254,254);"/>
                    <path d="M60.477,63.011C60.837,63.155 61.341,63.371 61.701,63.443C61.917,63.587 62.061,63.587 62.349,63.731C62.565,63.803 62.709,63.875 62.997,63.947L62.997,63.875L62.853,63.803L59.469,61.139C59.325,61.211 59.397,61.067 59.397,61.283C59.613,61.427 60.405,62.795 60.477,63.011Z" style="fill:rgb(230,167,53);"/>
                    <path d="M22.535,54.948C22.967,54.516 23.327,53.292 22.823,52.644C22.247,51.852 21.167,52.284 20.879,52.788C22.823,52.788 22.463,53.58 22.535,54.948Z" style="fill:rgb(254,254,254);"/>
                    <path d="M65.733,81.082C65.805,81.01 65.733,81.082 65.877,81.01C66.021,81.01 65.877,81.01 66.021,80.938C65.949,80.362 65.805,79.57 65.373,79.499C65.229,79.858 65.301,80.794 65.229,81.37C65.157,82.018 64.941,82.234 64.869,82.45L64.869,82.81C65.373,82.954 65.733,81.73 65.733,81.082Z"/>
                    <path d="M51.405,43.14L51.405,44.292C51.405,44.796 51.333,45.012 51.333,45.444L52.269,45.444L52.269,44.076C52.197,43.716 51.981,43.356 51.909,43.14C51.477,43.212 51.909,43.212 51.549,43.356C51.477,43.14 51.477,43.212 51.405,43.14Z" style="fill:rgb(87,63,47);"/>
                    <path d="M51.261,66.755C51.189,66.899 51.333,66.827 51.117,66.899L51.117,66.395C50.973,66.539 51.045,66.251 51.045,66.611L51.045,66.899C51.333,67.115 52.197,67.331 52.557,67.403L52.557,65.243C52.413,65.387 52.053,65.747 51.909,66.035C51.693,66.251 51.405,66.539 51.261,66.755Z" style="fill:rgb(87,63,47);"/>
                    <path d="M61.413,79.499C61.629,79.642 61.557,79.499 61.773,79.57C61.773,79.714 61.989,80.722 61.989,80.722C62.205,80.722 62.133,80.722 62.349,80.146C62.853,78.779 62.637,79.786 63.141,79.283C63.069,79.067 62.925,78.779 62.637,78.923C62.349,79.067 62.349,79.355 62.133,79.57C61.989,79.211 62.133,78.707 61.629,78.635C61.485,78.779 61.413,79.139 61.413,79.499Z"/>
                    <path d="M53.349,80.002C53.565,79.93 53.565,79.786 53.709,79.499C53.853,79.067 53.637,79.139 53.565,78.851C53.421,78.419 53.925,78.275 53.205,77.627C52.629,77.771 52.917,78.059 53.061,78.635C53.133,79.067 53.133,79.714 53.349,80.002Z"/>
                    <path d="M40.462,79.714L42.046,78.923C42.334,78.707 42.334,78.779 42.406,78.347C41.974,78.419 41.542,78.707 41.254,78.923C40.462,79.427 40.39,79.283 40.462,79.714Z"/>
                    <path d="M37.366,79.57C37.51,79.786 37.366,79.642 37.51,79.642L37.654,79.714L37.51,80.074C38.158,80.218 38.302,79.93 38.374,79.427L37.726,79.211L37.366,79.57Z"/>
                    <path d="M45.07,78.563C45.286,78.563 45.07,78.491 45.214,78.563L45.07,78.995C45.646,79.067 45.862,78.851 45.934,78.275L45.43,78.059C45.142,78.203 44.926,78.275 45.07,78.563Z"/>
                    <path d="M49.101,78.779C49.389,78.707 50.685,78.131 50.829,77.915L50.685,77.771C50.397,77.843 49.749,78.203 49.389,78.419C49.101,78.491 49.173,78.491 49.101,78.779Z"/>
                    <path d="M49.533,79.57C49.893,79.427 50.469,79.139 50.829,78.995C51.333,78.707 51.189,78.851 51.261,78.707C51.045,78.419 51.117,78.491 50.325,78.923C50.181,78.995 50.037,79.067 49.893,79.139C49.605,79.283 49.605,79.283 49.533,79.57Z"/>
                    <path d="M51.333,81.226C51.405,81.586 51.405,81.298 51.477,81.514C51.477,81.514 51.477,82.09 51.837,82.018C52.053,82.018 52.053,81.946 52.053,81.73C51.909,81.514 51.981,81.658 51.909,81.586C51.765,81.37 51.909,81.514 51.837,81.298C51.765,81.01 51.621,81.082 51.333,81.226Z"/>
                    <path d="M54.645,78.779C54.357,78.707 54.501,78.635 54.357,78.707L54.141,78.923C54.429,79.139 54.357,79.067 54.645,78.923L55.005,79.067L55.293,78.779L54.933,78.491C54.717,78.635 54.717,78.563 54.645,78.779Z"/>
                    <path d="M44.566,81.514L44.926,81.73C44.998,81.658 45.07,81.586 45.214,81.514L45.43,81.658L45.574,81.37L45.43,81.154C45.214,81.226 45.286,81.226 45.07,81.298C44.926,81.226 44.926,81.226 44.782,81.082C44.71,81.226 44.638,81.226 44.566,81.514Z"/>
                    <path d="M39.238,79.355C39.022,79.283 39.094,79.283 38.95,79.211L38.734,79.499L39.166,79.786C39.454,79.283 39.31,79.714 39.67,79.499C39.742,79.283 39.67,79.283 39.526,79.139L39.238,79.355Z"/>
                    <path d="M63.717,82.162C63.645,82.306 63.501,82.45 63.645,82.666C63.717,82.81 63.861,82.882 64.077,82.882C64.221,82.378 64.149,82.306 63.717,82.162Z"/>
                    <path d="M39.958,81.586C39.886,81.658 39.958,81.514 39.886,81.73C39.814,81.874 39.814,82.666 40.318,82.522C40.39,81.73 40.03,82.522 39.958,81.586Z"/>
                    <path d="M52.341,47.676L52.341,46.884L51.837,46.956C51.909,47.172 52.125,47.532 52.341,47.676Z" style="fill:rgb(87,63,47);"/>
                    <path d="M46.582,82.018C46.942,82.018 47.23,81.802 47.302,81.514C46.942,81.514 46.654,81.658 46.582,82.018Z"/>
                    <path d="M42.19,80.074C42.406,79.93 42.19,80.074 42.334,79.858C42.406,79.786 42.334,79.786 42.406,79.786L42.622,79.642C42.406,79.57 42.478,79.57 42.19,79.786C42.118,79.427 42.19,79.642 42.046,79.499C41.758,79.858 41.902,79.642 42.118,79.93C42.118,80.002 42.118,80.002 42.19,80.074Z" style="fill:rgb(9,7,7);"/>
                    <path d="M58.821,78.563C58.965,78.563 59.109,78.491 59.037,78.203C58.965,77.987 58.965,77.987 58.749,77.843C58.965,78.419 58.605,78.131 58.821,78.563Z" style="fill:rgb(5,4,5);"/>
                    <path d="M47.59,78.779C47.806,78.707 47.878,78.635 47.806,78.347C47.734,78.203 47.662,78.131 47.518,78.059C47.734,78.491 47.518,78.275 47.518,78.563C47.518,78.923 47.518,78.707 47.59,78.779Z" style="fill:rgb(2,2,2);"/>
                    <path d="M56.157,79.642C56.373,79.642 56.373,79.57 56.373,79.355C56.373,79.067 56.301,78.995 56.157,78.923C56.373,79.57 55.941,79.211 56.157,79.642Z" style="fill:rgb(5,4,5);"/>
                    <path d="M54.285,78.347C54.501,78.347 54.645,78.347 54.573,78.059C54.573,77.843 54.429,77.771 54.357,77.699C54.501,78.203 54.285,77.843 54.285,78.347Z" style="fill:rgb(5,4,5);"/>
                    <path d="M60.837,79.283C61.053,79.283 61.125,79.211 61.053,78.923C60.981,78.707 60.909,78.707 60.765,78.563C61.053,79.139 60.621,78.779 60.837,79.283Z" style="fill:rgb(9,7,7);"/>
                    <path d="M59.901,82.09C60.261,82.018 60.189,81.586 59.829,81.442C59.901,81.586 59.973,81.586 59.901,81.73C59.901,81.874 59.757,81.874 59.901,82.09Z" style="fill:rgb(2,2,2);"/>
                    <path d="M43.774,81.73C43.918,81.874 43.918,81.874 44.134,81.946C44.206,81.658 44.206,81.73 44.134,81.586C43.918,81.514 43.918,81.514 43.774,81.73Z"/>
                </g>
            </g>
        </g>
    </g>
</svg>
