<svg width="52" height="51" viewBox="0 0 52 51" fill="none" xmlns="http://www.w3.org/2000/svg">
<path d="M4.36028 29.599C4.15463 29.394 3.94898 29.1071 3.78447 28.7381C3.57882 28.2051 3.37317 27.7132 3.08527 27.3032C3.08527 27.2622 3.04414 27.2212 3.00301 27.1802C2.79736 26.9342 2.59172 26.7292 2.34494 26.5652C2.59172 32.1408 4.8127 37.1834 8.30869 41.0371C8.34982 40.9142 8.34982 40.7912 8.34982 40.6272C8.34982 40.5042 8.34982 40.3812 8.34982 40.2582C8.30869 40.2172 8.30869 40.1762 8.30869 40.0942C8.22644 39.6433 8.02079 39.1513 7.81514 38.6183C7.6095 38.2084 7.56837 37.7984 7.56837 37.5114C7.56837 37.3064 7.6095 37.1834 7.6095 37.1424C7.6095 37.1424 7.6095 37.1424 7.6095 37.1834V37.1424C6.16997 34.9286 5.14174 32.4688 4.60705 29.804C4.52479 29.763 4.44254 29.681 4.36028 29.599Z" fill="#309AA7"/>
<path d="M8.34982 10.7009C8.34982 10.5369 8.34982 10.4139 8.34982 10.2909C8.34982 10.1679 8.34982 10.0449 8.34982 9.92194C4.8127 13.7756 2.59172 18.8593 2.34494 24.4348C2.59172 24.2299 2.79736 24.0249 3.00301 23.7789C3.04414 23.7379 3.04414 23.6969 3.08527 23.6559C3.37317 23.2869 3.57882 22.795 3.78447 22.262C3.94898 21.893 4.15463 21.606 4.36028 21.4011C4.44254 21.2781 4.52479 21.1961 4.60705 21.1551C5.14174 18.4903 6.16997 16.0305 7.6095 13.8166C7.6095 13.8166 7.6095 13.8166 7.6095 13.7756C7.6095 13.7756 7.56837 13.6117 7.56837 13.4067C7.56837 13.1607 7.6095 12.7507 7.81514 12.2998C8.02079 11.8078 8.22644 11.3158 8.30869 10.8239C8.30869 10.7829 8.30869 10.7419 8.34982 10.7009Z" fill="#309AA7"/>
<path d="M46.8459 21.4011C47.0516 21.606 47.2572 21.893 47.4218 22.262C47.6274 22.795 47.7919 23.2869 48.0798 23.6559H48.121C48.121 23.6969 48.1621 23.7379 48.2032 23.7789C48.3677 24.0249 48.6145 24.2299 48.8613 24.4348C48.6145 18.8593 46.3935 13.7756 42.8564 9.92194C42.8564 10.0449 42.8564 10.1679 42.8564 10.2909C42.8564 10.4139 42.8564 10.5369 42.8564 10.7009C42.8564 10.7419 42.8564 10.7829 42.8975 10.8239C42.9386 11.3158 43.1854 11.8078 43.3911 12.2998C43.5967 12.7507 43.5967 13.1607 43.5967 13.4067C43.5967 13.6117 43.5967 13.7756 43.5967 13.7756C43.5967 13.8166 43.5967 13.8166 43.5967 13.8166C45.0362 16.0305 46.0645 18.4903 46.5992 21.1551C46.6814 21.1961 46.7637 21.2781 46.8459 21.4011Z" fill="#309AA7"/>
<path d="M10.7347 8.28022C10.7758 8.28022 10.858 8.28022 10.8992 8.23923C11.3927 8.19823 11.8451 7.95225 12.3798 7.74726C12.8322 7.54228 13.2024 7.54228 13.4903 7.54228C13.696 7.54228 13.8194 7.54228 13.8605 7.54228H13.9016C16.1226 6.10739 18.5904 5.08247 21.2638 4.54951C21.3049 4.46751 21.3871 4.38552 21.5105 4.30353C21.6751 4.09854 21.963 3.89356 22.3743 3.72957C22.8678 3.52458 23.3614 3.3606 23.7726 3.07362C23.8138 3.03262 23.8549 2.99162 23.896 2.95063C24.1428 2.78664 24.3485 2.54066 24.513 2.29468C18.9194 2.54066 13.8605 4.75449 9.99432 8.28022C10.1177 8.28022 10.2411 8.28022 10.3645 8.28022C10.4879 8.28022 10.6113 8.28022 10.7347 8.28022Z" fill="#309AA7"/>
<path d="M40.4296 42.6766C40.3885 42.6766 40.3473 42.6766 40.3062 42.6766C39.8126 42.7586 39.3602 42.9636 38.8255 43.2095C38.3731 43.3735 37.9618 43.4145 37.715 43.4145C37.5094 43.4145 37.3449 43.3735 37.3449 43.3735C35.1239 44.8494 32.615 45.8743 29.9416 46.4073C29.9005 46.4893 29.8182 46.5713 29.6948 46.6533C29.4892 46.8583 29.2013 47.0633 28.8311 47.2272C28.2964 47.4322 27.8029 47.6372 27.4327 47.9242C27.3916 47.9652 27.3504 47.9652 27.3093 48.0062C27.0625 48.2112 26.8569 48.4162 26.6512 48.6621C32.286 48.4162 37.3449 46.2023 41.2522 42.6766C41.1288 42.6356 40.9643 42.6356 40.8409 42.6356C40.7175 42.6356 40.5941 42.6356 40.4296 42.6766Z" fill="#309AA7"/>
<path d="M23.8969 48.0062C23.8557 47.9652 23.8146 47.9652 23.7735 47.9242C23.3622 47.6372 22.8686 47.4322 22.3751 47.2272C21.9638 47.0633 21.6759 46.8583 21.5114 46.6533C21.388 46.5713 21.3057 46.4893 21.2646 46.4483C18.5912 45.8743 16.0823 44.8494 13.8613 43.3735C13.8202 43.3735 13.6968 43.4145 13.4911 43.4145C13.2032 43.4145 12.8331 43.3735 12.3806 43.2095C11.846 42.9636 11.3935 42.7586 10.9 42.6766C10.8589 42.6766 10.7766 42.6766 10.7355 42.6766C10.6121 42.6356 10.4887 42.6356 10.3653 42.6356C10.2419 42.6356 10.0774 42.6356 9.95401 42.6766C13.8202 46.2023 18.9202 48.4162 24.5138 48.6621C24.3493 48.4162 24.1436 48.2112 23.8969 48.0062Z" fill="#309AA7"/>
<path d="M42.8564 40.2582C42.8564 40.3812 42.8564 40.5042 42.8564 40.6272C42.8564 40.7912 42.8564 40.9142 42.8564 41.0371C46.3935 37.1834 48.6145 32.1408 48.8613 26.5652C48.6145 26.7292 48.3677 26.9342 48.2032 27.1802C48.1621 27.2212 48.121 27.2622 48.0798 27.3032C47.7919 27.7132 47.6274 28.2051 47.4218 28.6971C47.2572 29.1071 47.0516 29.394 46.8459 29.558C46.7637 29.681 46.6814 29.763 46.5992 29.804C46.0645 32.4688 45.0362 34.9286 43.5967 37.1424V37.1834C43.5967 37.1424 43.5967 37.1424 43.5967 37.1424C43.5967 37.1834 43.5967 37.3064 43.5967 37.5114C43.5967 37.7984 43.5967 38.2084 43.3911 38.6183C43.1854 39.1513 42.9386 39.6433 42.8975 40.0942C42.8564 40.1762 42.8564 40.2172 42.8564 40.2582Z" fill="#309AA7"/>
<path d="M27.3093 2.95063C27.3504 2.99162 27.3916 3.03262 27.4327 3.07362C27.8029 3.3606 28.2964 3.52458 28.8311 3.72957C29.2013 3.89356 29.4892 4.09854 29.6948 4.30353C29.8182 4.38552 29.9005 4.46751 29.9416 4.54951C32.615 5.08247 35.0828 6.10739 37.3037 7.54228C37.3037 7.54228 37.3037 7.54228 37.3449 7.54228C37.3449 7.54228 37.5094 7.54228 37.715 7.54228C37.9618 7.54228 38.3731 7.54228 38.8255 7.74726C39.3602 7.95225 39.8126 8.19823 40.3062 8.23923C40.3473 8.28022 40.3884 8.28022 40.4296 8.28022C40.5941 8.28022 40.7175 8.28022 40.8409 8.28022C40.9643 8.28022 41.0876 8.28022 41.211 8.28022C37.3449 4.75449 32.2448 2.54066 26.6512 2.29468C26.8569 2.54066 27.0625 2.78664 27.3093 2.95063Z" fill="#309AA7"/>
<path d="M43.0619 15.0039C44.1312 16.7258 44.9127 18.6116 45.4062 20.5795C45.5707 20.6205 45.7353 20.6615 45.8998 20.7435C45.3651 18.5296 44.5014 16.4388 43.3498 14.5939C43.2675 14.7579 43.1852 14.8809 43.0619 15.0039Z" fill="#309AA7"/>
<path d="M8.10142 35.9533C7.07319 34.2315 6.29173 32.3866 5.79818 30.3778C5.63366 30.3368 5.46914 30.2958 5.30463 30.2138C5.79818 32.4276 6.66189 34.5185 7.85464 36.3633C7.9369 36.1993 8.01916 36.0763 8.10142 35.9533Z" fill="#309AA7"/>
<path d="M5.79818 20.5795C6.29173 18.6116 7.07319 16.7258 8.10142 15.0039C8.01916 14.8809 7.9369 14.7579 7.85464 14.5939C6.70302 16.4388 5.79818 18.5296 5.30463 20.7435C5.46914 20.6615 5.63366 20.6205 5.79818 20.5795Z" fill="#309AA7"/>
<path d="M15.0522 42.8832C14.9288 43.0062 14.8054 43.0882 14.6409 43.1702C16.5328 44.3181 18.5893 45.2201 20.8514 45.712C20.7692 45.548 20.728 45.3841 20.6869 45.2201C18.6716 44.7281 16.7796 43.9492 15.0522 42.8832Z" fill="#309AA7"/>
<path d="M20.8514 5.2475C18.6304 5.78046 16.5328 6.64139 14.6409 7.7893C14.8054 7.8713 14.9699 7.95329 15.0933 8.07628C16.8208 7.01036 18.6716 6.23142 20.6869 5.73946C20.728 5.57547 20.7692 5.41149 20.8514 5.2475Z" fill="#309AA7"/>
<path d="M30.3541 45.712C32.5751 45.2201 34.6727 44.3181 36.5647 43.1702C36.4001 43.0882 36.2356 43.0062 36.1122 42.8832C34.3848 43.9492 32.534 44.7281 30.5186 45.2201C30.4775 45.3841 30.4364 45.548 30.3541 45.712Z" fill="#309AA7"/>
<path d="M45.4079 30.3778C44.9144 32.3866 44.1329 34.2315 43.1047 35.9533C43.1869 36.0763 43.2692 36.1993 43.3515 36.3633C44.5031 34.5185 45.3668 32.4276 45.9015 30.2138C45.737 30.2958 45.5724 30.3368 45.4079 30.3778Z" fill="#309AA7"/>
<path d="M36.1122 8.07628C36.2356 7.95329 36.359 7.8713 36.5235 7.7893C34.6727 6.64139 32.5751 5.78046 30.3541 5.2475C30.4364 5.41149 30.4775 5.57547 30.5186 5.73946C32.4929 6.23142 34.3848 7.01036 36.1122 8.07628Z" fill="#309AA7"/>
<path d="M29.3249 19.2685L29.2015 19.5555C29.2015 19.5555 28.5434 19.1455 27.6797 19.1865C26.816 19.1455 26.0757 19.4325 26.0757 19.4325C26.0757 19.4325 25.7055 19.4735 25.7466 19.2685C25.7466 19.1455 25.7877 19.0635 25.7877 19.0635C25.7877 19.0635 26.1579 18.6945 26.1168 18.3666C26.0757 18.0796 25.7466 17.9566 25.6644 17.2597V17.0137H25.4587C25.4587 17.9156 25.0885 18.0386 25.0063 18.3666C24.9652 18.6945 25.3353 19.0225 25.3353 19.0225C25.3353 19.0225 25.4176 19.1455 25.4176 19.2685C25.4176 19.4735 25.0474 19.4325 25.0474 19.4325C25.0474 19.4325 24.3482 19.1455 23.4434 19.1455C22.5797 19.1455 21.9216 19.5555 21.9216 19.5555L21.8393 19.2685H21.4692L20.8934 25.254L25.6232 23.3272L30.2709 25.213L29.6539 19.2685H29.3249ZM22.991 26.402L25.6232 27.4269L28.2144 26.402V27.9598C28.2144 27.9598 28.091 28.9028 25.5821 28.9028C23.0321 28.9028 22.991 27.9188 22.991 27.9188V26.402ZM20.8934 25.254L20.1942 32.3875H20.6054C20.6054 32.3875 20.77 32.1415 21.099 32.0185C21.4692 31.9775 21.4692 31.9775 21.7571 32.1005C22.0861 32.2235 23.0321 32.3875 23.0321 32.3875C23.0321 32.3875 23.7313 32.5515 24.4716 32.2645C25.0474 32.0595 25.4176 31.8545 25.5821 31.7725C25.7055 31.8545 26.1168 32.0595 26.7337 32.3055C27.4741 32.5515 28.1733 32.3875 28.1733 32.3875C28.1733 32.3875 29.1192 32.2235 29.4483 32.1005C29.7362 31.9775 29.695 31.9775 30.1063 32.0185C30.4354 32.1415 30.5999 32.3875 30.5999 32.3875L31.0112 32.3465L30.2709 25.213L29.7362 25.459V26.402C29.7773 26.402 29.8184 26.484 29.8184 26.5659C29.8184 26.6069 29.8184 26.6479 29.7773 26.6889L30.0241 27.1809H29.3249L29.5717 26.6889C29.5305 26.6479 29.4894 26.6069 29.4894 26.5659C29.4894 26.484 29.5305 26.402 29.6128 26.402V25.5L25.6644 27.0989L20.8934 25.254Z" fill="#309AA7"/>
<path d="M9.00632 29.3124C9.12971 29.3944 9.29423 29.4354 9.45874 29.4354C9.49987 29.4354 9.58213 29.3944 9.62326 29.3944C9.82891 29.3124 9.9523 29.1074 9.99343 28.9024V28.8614C9.99343 28.7794 10.0346 28.7384 9.99343 28.6564C9.99343 28.5744 9.99343 28.4514 9.9523 28.3694C9.91117 28.3694 9.91117 28.3284 9.91117 28.3284C9.91117 28.2875 9.91117 28.2875 9.87004 28.2875V28.2465L9.82891 28.2055C9.82891 28.2055 9.82891 28.2055 9.82891 28.1645C9.78778 28.1645 9.78778 28.1645 9.78778 28.1645C9.78778 28.1235 9.74665 28.1235 9.74665 28.1235C9.74665 28.0825 9.74665 28.0825 9.74665 28.0825C9.70552 28.0825 9.70552 28.0415 9.66439 28.0415C9.66439 28.0415 9.66439 28.0415 9.66439 28.0005C9.62326 28.0005 9.62326 28.0005 9.62326 28.0005C9.58213 27.9595 9.58213 27.9595 9.58213 27.9595H9.541C9.541 27.9185 9.49987 27.9185 9.49987 27.9185H9.45874C9.45874 27.8775 9.45874 27.8775 9.41761 27.8775H9.37648C9.33535 27.8775 9.33535 27.8775 9.33535 27.8365H9.29423C9.2531 27.8365 9.2531 27.8365 9.2531 27.8365C9.21197 27.8365 9.21197 27.8365 9.17084 27.8365C9.12971 27.8365 9.12971 27.8365 9.08858 27.8365C9.04745 27.8365 9.00632 27.8365 8.96519 27.8365H8.92406C8.88293 27.8365 8.88293 27.8365 8.88293 27.8365H8.8418C8.8418 27.8365 8.80067 27.8365 8.80067 27.8775H8.75954C8.75954 27.8775 8.75954 27.8775 8.71841 27.8775C8.71841 27.8775 8.71841 27.8775 8.67728 27.9185C8.63615 27.9185 8.63615 27.9185 8.63615 27.9185C8.59502 27.9595 8.59502 27.9595 8.59502 27.9595C8.59502 27.9595 8.55389 27.9595 8.55389 28.0005C8.51277 28.0005 8.51277 28.0005 8.47164 28.0415C8.43051 28.0415 8.43051 28.0825 8.43051 28.0825C8.43051 28.0825 8.43051 28.0825 8.38938 28.0825C8.38938 28.1235 8.38938 28.1235 8.38938 28.1235C8.34825 28.1235 8.34825 28.1645 8.34825 28.1645C8.34825 28.1645 8.34825 28.1645 8.30712 28.2055C8.30712 28.2465 8.30712 28.2465 8.26599 28.2465V28.2875C8.22486 28.3284 8.22486 28.3694 8.22486 28.4104C8.18373 28.4104 8.18373 28.4104 8.18373 28.4104C8.18373 28.4514 8.18373 28.4514 8.18373 28.4514C8.18373 28.4924 8.1426 28.5334 8.1426 28.6154C8.1426 28.6564 8.1426 28.6974 8.1426 28.7794C8.1426 28.8204 8.1426 28.8204 8.1426 28.8204C8.10147 28.8204 8.10147 28.8614 8.10147 28.8614C8.10147 28.9024 8.10147 28.9434 8.10147 28.9844V29.0254C8.10147 30.3373 8.8418 31.8132 10.1991 32.8791C11.0217 33.5351 11.9676 33.945 12.8314 34.068L13.1193 34.15C13.1193 34.15 13.2015 33.945 13.3249 33.658C13.4483 33.0021 13.4072 32.4691 13.2838 32.0182C13.2427 32.0592 13.2015 32.0592 13.1604 32.0592C13.0781 32.0592 13.037 32.1002 12.9547 32.1002C11.1039 32.2642 9.41761 31.0342 8.96519 29.3124C8.92406 29.1074 8.96519 28.9844 8.96519 28.9844C8.96519 29.1484 8.96519 29.2304 9.00632 29.3124Z" fill="#309AA7"/>
<path d="M18.9603 37.8822C18.9603 37.8002 19.0014 37.7592 19.0014 37.7592C18.549 37.5952 18.0143 37.5542 17.3563 37.6772C17.0683 37.8002 16.8627 37.8822 16.8627 37.8822L16.945 38.2102C17.1095 39.0711 17.4796 39.9731 18.1377 40.793C19.2482 42.1459 20.7289 42.9248 22.0039 42.8838C22.045 42.8838 22.045 42.8838 22.045 42.8838C22.0861 42.8838 22.1273 42.8838 22.1684 42.8838C22.2095 42.8838 22.2095 42.8838 22.2095 42.8838C22.2506 42.8838 22.2506 42.8838 22.2506 42.8838C22.3329 42.8838 22.4152 42.8428 22.4563 42.8428C22.4974 42.8428 22.5386 42.8428 22.5797 42.8018H22.6208C22.6619 42.7608 22.7442 42.7608 22.7853 42.7198L22.8265 42.6788C22.8265 42.6788 22.8265 42.6788 22.8676 42.6788V42.6378C22.9087 42.6378 22.9087 42.6378 22.9087 42.6378C22.9087 42.5969 22.9498 42.5969 22.9498 42.5969C22.9498 42.5969 22.9498 42.5969 22.9498 42.5559C22.991 42.5559 22.991 42.5559 22.991 42.5559C22.991 42.5149 22.991 42.5149 22.991 42.5149C23.0321 42.5149 23.0321 42.4739 23.0732 42.4739C23.0732 42.4329 23.0732 42.4329 23.1144 42.3919C23.1144 42.3509 23.1144 42.3509 23.1144 42.3509C23.1555 42.3099 23.1555 42.3099 23.1555 42.3099V42.2689C23.1555 42.2689 23.1555 42.2689 23.1555 42.2279C23.1966 42.2279 23.1966 42.2279 23.1966 42.1869C23.1966 42.1459 23.1966 42.1459 23.1966 42.1049C23.1966 42.0639 23.2378 42.0229 23.2378 42.0229C23.2378 41.9819 23.2378 41.9409 23.2378 41.9409C23.2378 41.8999 23.2378 41.8999 23.2378 41.8999V41.8589C23.2378 41.8179 23.2378 41.8179 23.2378 41.8179C23.2378 41.7769 23.1966 41.7769 23.1966 41.7359C23.1966 41.6949 23.1966 41.6949 23.1966 41.6539C23.1966 41.6129 23.1555 41.5719 23.1555 41.5719C23.1555 41.5719 23.1555 41.5719 23.1555 41.5309L23.1144 41.4899C23.1144 41.4899 23.1144 41.4899 23.1144 41.4489C23.1144 41.4489 23.0732 41.4489 23.0732 41.4079C23.0321 41.3669 23.0321 41.3669 23.0321 41.3669C23.0321 41.3259 23.0321 41.3259 22.991 41.3259C22.991 41.3259 22.991 41.285 22.9498 41.285C22.9498 41.244 22.9498 41.244 22.9498 41.244C22.9087 41.244 22.9087 41.244 22.9087 41.203H22.8676C22.8676 41.162 22.8265 41.162 22.8265 41.162C22.8265 41.162 22.8265 41.162 22.7853 41.162C22.7853 41.121 22.7853 41.121 22.7442 41.121C22.7031 41.08 22.7031 41.08 22.6619 41.08C22.5797 41.039 22.4974 40.998 22.374 40.998C22.3329 40.998 22.2506 40.998 22.2095 40.998C22.1684 40.998 22.1684 40.998 22.1684 40.998C22.1684 40.998 22.1684 40.998 22.1273 40.998C21.9216 41.039 21.7571 41.162 21.6748 41.3669C21.6337 41.4489 21.6337 41.4899 21.6337 41.5309C21.6337 41.5309 21.6337 41.5309 21.6337 41.5719C21.5926 41.6949 21.6337 41.8589 21.716 41.9819C21.716 41.9819 21.716 41.9819 21.7571 41.9819C21.7982 42.0229 21.8805 42.0639 22.045 42.0639C22.045 42.0639 21.9216 42.0639 21.7571 42.0229C19.9885 41.5719 18.7547 39.9321 18.9603 38.0462C18.9603 38.0052 18.9603 37.9232 18.9603 37.8822Z" fill="#309AA7"/>
<path d="M42.9798 28.4104C42.9798 28.3694 42.9386 28.3284 42.9386 28.2875L42.8975 28.2465C42.8975 28.2465 42.8975 28.2465 42.8975 28.2055H42.8564C42.8564 28.1645 42.8564 28.1645 42.8564 28.1645C42.8153 28.1645 42.8153 28.1235 42.8153 28.1235C42.8153 28.1235 42.8153 28.1235 42.7741 28.0825L42.733 28.0415C42.6919 28.0005 42.6919 28.0005 42.6507 28.0005C42.6507 27.9595 42.6096 27.9595 42.6096 27.9595C42.6096 27.9595 42.5685 27.9595 42.5685 27.9185H42.5274C42.5274 27.9185 42.5274 27.9185 42.4862 27.9185C42.4862 27.8775 42.4862 27.8775 42.4451 27.8775C42.404 27.8775 42.404 27.8775 42.404 27.8775C42.3628 27.8365 42.3628 27.8365 42.3628 27.8365H42.3217H42.2806C42.2806 27.8365 42.2394 27.8365 42.1983 27.8365C42.1983 27.8365 42.1572 27.8365 42.1161 27.8365C42.1161 27.8365 42.1161 27.8365 42.0749 27.8365H42.0338C42.0338 27.8365 42.0338 27.8365 41.9927 27.8365H41.9515H41.9104H41.8693C41.8282 27.8775 41.8282 27.8775 41.8282 27.8775C41.8282 27.8775 41.787 27.8775 41.7459 27.8775C41.7459 27.8775 41.7459 27.8775 41.7459 27.9185C41.7048 27.9185 41.7048 27.9185 41.7048 27.9185C41.6636 27.9185 41.6636 27.9185 41.6636 27.9595C41.6225 27.9595 41.6225 27.9595 41.6225 27.9595C41.6225 27.9595 41.5814 27.9595 41.5814 28.0005H41.5402C41.5402 28.0415 41.5402 28.0415 41.5402 28.0415C41.4991 28.0415 41.4991 28.0825 41.458 28.0825C41.458 28.0825 41.458 28.0825 41.458 28.1235C41.4169 28.1235 41.4169 28.1235 41.4169 28.1645H41.3757C41.3757 28.2055 41.3757 28.2055 41.3346 28.2055V28.2465C41.3346 28.2465 41.3346 28.2875 41.2935 28.2875C41.2935 28.2875 41.2935 28.2875 41.2935 28.3284L41.2523 28.3694C41.2112 28.4514 41.2112 28.5744 41.1701 28.6564C41.1701 28.7384 41.1701 28.7794 41.1701 28.8614C41.1701 28.8614 41.1701 28.8614 41.2112 28.8614V28.9024C41.2112 29.1074 41.3757 29.3124 41.5814 29.3944C41.6225 29.3944 41.6636 29.4354 41.7459 29.4354C41.9104 29.4354 42.0338 29.3944 42.1572 29.3124H42.1983C42.1983 29.2304 42.2394 29.1484 42.2394 28.9844C42.2394 28.9844 42.2806 29.1074 42.1983 29.3124C41.787 31.0342 40.1007 32.2642 38.2499 32.1002C38.1676 32.1002 38.1265 32.0592 38.0443 32.0592C38.0031 32.0592 37.962 32.0592 37.9209 32.0182C37.7975 32.4691 37.7564 33.0021 37.8797 33.658C37.962 33.945 38.0854 34.15 38.0854 34.15L38.3733 34.068C39.237 33.945 40.1419 33.5351 40.9644 32.8791C42.3628 31.8132 43.1032 30.3373 43.1032 29.0254C43.062 29.0254 43.062 28.9844 43.062 28.9844C43.062 28.9434 43.062 28.9024 43.062 28.8614V28.8204C43.062 28.8204 43.062 28.8204 43.062 28.7794C43.062 28.6974 43.062 28.6564 43.0209 28.6154C43.0209 28.5334 43.0209 28.4924 43.0209 28.4514C43.0209 28.4514 43.0209 28.4514 42.9798 28.4104Z" fill="#309AA7"/>
<path d="M29.0382 40.998H28.9971C28.956 40.998 28.8737 40.998 28.8326 40.998C28.7092 40.998 28.6269 41.039 28.5447 41.08C28.5036 41.08 28.5036 41.08 28.4624 41.121C28.4624 41.121 28.4624 41.121 28.4213 41.121C28.4213 41.121 28.4213 41.121 28.3802 41.162C28.339 41.162 28.339 41.162 28.339 41.203C28.2979 41.203 28.2979 41.203 28.2979 41.203C28.2979 41.244 28.2568 41.244 28.2568 41.244C28.2568 41.244 28.2568 41.244 28.2568 41.285C28.2156 41.285 28.2156 41.3259 28.1745 41.3259C28.1745 41.3259 28.1745 41.3259 28.1745 41.3669C28.1745 41.3669 28.1334 41.3669 28.1334 41.4079C28.0923 41.4489 28.0923 41.4489 28.0923 41.4489C28.0923 41.4899 28.0923 41.4899 28.0923 41.4899C28.0511 41.4899 28.0511 41.5309 28.0511 41.5309C28.0511 41.5719 28.0511 41.5719 28.0511 41.5719C28.01 41.5719 28.01 41.6129 28.01 41.6539C28.01 41.6949 28.01 41.6949 28.01 41.7359C27.9689 41.7359 27.9689 41.7359 27.9689 41.7359C27.9689 41.7769 27.9689 41.7769 27.9689 41.8179C27.9689 41.8179 27.9689 41.8179 27.9689 41.8589V41.8999C27.9689 41.8999 27.9689 41.8999 27.9689 41.9409C27.9689 41.9409 27.9689 41.9819 27.9689 42.0229C27.9689 42.0229 27.9689 42.0639 27.9689 42.1049C27.9689 42.1049 27.9689 42.1049 28.01 42.1049C28.01 42.1459 28.01 42.1459 28.01 42.1869C28.01 42.2279 28.01 42.2279 28.01 42.2279C28.01 42.2689 28.0511 42.2689 28.0511 42.2689V42.3099C28.0511 42.3099 28.0511 42.3099 28.0511 42.3509C28.0923 42.3509 28.0923 42.3509 28.0923 42.3919C28.1334 42.4329 28.1334 42.4329 28.1334 42.4739C28.1745 42.4739 28.1745 42.5149 28.1745 42.5149C28.1745 42.5149 28.2156 42.5149 28.2156 42.5559C28.2568 42.5969 28.2568 42.5969 28.2568 42.5969C28.2568 42.5969 28.2979 42.5969 28.2979 42.6378C28.339 42.6378 28.339 42.6788 28.339 42.6788H28.3802C28.3802 42.6788 28.3802 42.7198 28.4213 42.7198C28.4624 42.7608 28.5036 42.7608 28.5447 42.8018C28.5858 42.8018 28.5858 42.8018 28.5858 42.8018H28.6269C28.6681 42.8428 28.7092 42.8428 28.7503 42.8428C28.7915 42.8428 28.8737 42.8838 28.956 42.8838C28.9971 42.8838 28.9971 42.8838 28.9971 42.8838C29.0382 42.8838 29.0794 42.8838 29.1205 42.8838C29.1616 42.8838 29.1616 42.8838 29.2028 42.8838C30.4778 42.9248 31.9584 42.1459 33.0689 40.793C33.6859 39.9731 34.0971 39.0711 34.2617 38.2102L34.3439 37.8822C34.3439 37.8822 34.1383 37.8002 33.8092 37.6772C33.1923 37.5542 32.6576 37.5952 32.2052 37.7592C32.2052 37.7592 32.2052 37.8002 32.2463 37.8822C32.2463 37.9232 32.2463 38.0052 32.2463 38.0462C32.452 39.9321 31.2181 41.5719 29.4495 42.0229C29.285 42.0639 29.1616 42.0639 29.1616 42.0639C29.285 42.0639 29.4084 42.0229 29.4495 41.9819C29.5318 41.8589 29.614 41.6949 29.5729 41.5719C29.5729 41.5309 29.5729 41.5309 29.5729 41.5309C29.5729 41.4899 29.5729 41.4489 29.5318 41.3669C29.4495 41.162 29.285 41.039 29.0382 40.998Z" fill="#309AA7"/>
<path d="M8.96519 21.6461C9.41761 19.8832 11.1039 18.6533 12.9547 18.8583C13.037 18.8583 13.0781 18.8583 13.1604 18.8583C13.2015 18.8993 13.2427 18.8993 13.2838 18.8993C13.4072 18.4483 13.4483 17.9154 13.3249 17.3004C13.2015 16.9725 13.1193 16.8085 13.1193 16.8085L12.8314 16.8495C11.9676 17.0135 11.0217 17.4234 10.1991 18.0384C8.8418 19.1453 8.10147 20.6212 8.10147 21.8921C8.10147 21.9331 8.10147 21.9331 8.10147 21.9741C8.10147 22.0151 8.10147 22.0561 8.10147 22.0971C8.10147 22.0971 8.10147 22.0971 8.1426 22.1381C8.1426 22.2201 8.1426 22.3021 8.1426 22.3431C8.1426 22.384 8.18373 22.425 8.18373 22.466C8.18373 22.507 8.18373 22.507 8.18373 22.507C8.18373 22.507 8.18373 22.507 8.22486 22.548C8.22486 22.589 8.22486 22.63 8.26599 22.671C8.30712 22.712 8.30712 22.712 8.30712 22.712V22.753C8.34825 22.753 8.34825 22.753 8.34825 22.794C8.34825 22.794 8.34825 22.794 8.38938 22.794C8.38938 22.835 8.38938 22.835 8.38938 22.835C8.43051 22.835 8.43051 22.835 8.43051 22.876C8.43051 22.876 8.43051 22.876 8.47164 22.876C8.47164 22.917 8.47164 22.917 8.47164 22.917C8.51277 22.917 8.51277 22.917 8.55389 22.958L8.59502 22.999C8.59502 22.999 8.59502 22.999 8.63615 22.999C8.63615 22.999 8.63615 22.999 8.67728 23.04C8.71841 23.04 8.71841 23.04 8.71841 23.04C8.75954 23.081 8.75954 23.081 8.75954 23.081H8.80067H8.8418C8.8418 23.081 8.88293 23.081 8.88293 23.122C8.88293 23.122 8.88293 23.122 8.92406 23.122H8.96519C9.00632 23.122 9.04745 23.122 9.08858 23.122C9.12971 23.122 9.12971 23.122 9.17084 23.122C9.21197 23.122 9.21197 23.122 9.2531 23.122C9.2531 23.122 9.2531 23.122 9.29423 23.122C9.29423 23.081 9.33535 23.081 9.33535 23.081C9.33535 23.081 9.33535 23.081 9.37648 23.081C9.37648 23.081 9.41761 23.081 9.41761 23.04C9.45874 23.04 9.45874 23.04 9.45874 23.04C9.45874 23.04 9.49987 23.04 9.49987 22.999H9.541C9.541 22.999 9.58213 22.999 9.58213 22.958C9.58213 22.958 9.58213 22.958 9.62326 22.958C9.62326 22.958 9.62326 22.917 9.66439 22.917C9.70552 22.876 9.70552 22.876 9.74665 22.835L9.78778 22.794C9.78778 22.794 9.78778 22.794 9.82891 22.753C9.82891 22.753 9.82891 22.753 9.82891 22.712H9.87004C9.87004 22.671 9.87004 22.671 9.87004 22.671C9.91117 22.63 9.91117 22.63 9.91117 22.63C9.91117 22.589 9.91117 22.589 9.9523 22.548C9.99343 22.466 9.99343 22.384 9.99343 22.2611C10.0346 22.2201 9.99343 22.1381 9.99343 22.0971C9.99343 22.0971 9.99343 22.0971 9.99343 22.0561C9.9523 21.8101 9.82891 21.6461 9.62326 21.5641C9.58213 21.5231 9.49987 21.5231 9.45874 21.5231C9.29423 21.4821 9.12971 21.5641 9.00632 21.6461C8.96519 21.6871 8.96519 21.8101 8.96519 21.9331C8.96519 21.9331 8.92406 21.8101 8.96519 21.6461Z" fill="#309AA7"/>
<path d="M22.1684 9.96261C22.1684 9.96261 22.1684 9.96261 22.2095 9.96261C22.2506 9.96261 22.3329 9.96261 22.374 9.96261C22.4974 9.92162 22.5797 9.92162 22.6619 9.88062C22.7031 9.88062 22.7031 9.83962 22.7442 9.83962C22.7853 9.79862 22.7853 9.79862 22.7853 9.79862C22.8265 9.79862 22.8265 9.79862 22.8265 9.79862C22.8265 9.75763 22.8676 9.75763 22.8676 9.75763C22.8676 9.75763 22.9087 9.75763 22.9087 9.71663C22.9087 9.71663 22.9087 9.71663 22.9498 9.67563C22.991 9.67563 22.991 9.63464 22.991 9.63464C23.0321 9.59364 23.0321 9.59364 23.0321 9.59364C23.0321 9.59364 23.0321 9.55264 23.0732 9.55264C23.0732 9.55264 23.0732 9.55264 23.0732 9.51165C23.0732 9.51165 23.1144 9.51165 23.1144 9.47065C23.1144 9.42965 23.1555 9.42965 23.1555 9.38866C23.1555 9.34766 23.1966 9.30666 23.1966 9.30666C23.1966 9.30666 23.1966 9.30666 23.1966 9.26566V9.22467V9.18367L23.2378 9.14267V9.10168V9.06068C23.2378 9.01968 23.2378 9.01968 23.2378 9.01968C23.2378 8.97869 23.2378 8.93769 23.2378 8.93769C23.2378 8.89669 23.1966 8.89669 23.1966 8.8557V8.8147V8.7737C23.1966 8.7737 23.1966 8.7737 23.1966 8.73271C23.1966 8.73271 23.1966 8.73271 23.1555 8.69171C23.1555 8.65071 23.1555 8.65071 23.1555 8.65071C23.1555 8.60971 23.1555 8.60971 23.1144 8.60971V8.56872C23.1144 8.56872 23.1144 8.56872 23.1144 8.52772C23.0732 8.52772 23.0732 8.48672 23.0732 8.48672C23.0321 8.44573 23.0321 8.44573 22.991 8.40473C22.991 8.40473 22.991 8.36373 22.9498 8.36373C22.9498 8.32274 22.9087 8.32274 22.9087 8.32274C22.9087 8.32274 22.9087 8.32274 22.8676 8.28174C22.8265 8.28174 22.8265 8.24074 22.8265 8.24074H22.7853V8.19975C22.7442 8.19975 22.6619 8.15875 22.6208 8.15875L22.5797 8.11775C22.5386 8.11775 22.4974 8.11775 22.4563 8.11775C22.4152 8.07675 22.3329 8.07675 22.2506 8.07675C22.2506 8.07675 22.2506 8.07675 22.2095 8.07675C22.2095 8.07675 22.2095 8.07675 22.1684 8.07675C22.1273 8.07675 22.0861 8.07675 22.045 8.07675C22.045 8.07675 22.045 8.07675 22.0039 8.07675C20.7289 8.03576 19.2482 8.7737 18.1377 10.1676C17.4796 10.9875 17.1095 11.8895 16.945 12.7504L16.8627 13.0374C16.8627 13.0374 17.0683 13.1604 17.3563 13.2424C18.0143 13.3654 18.549 13.3244 19.0014 13.2014C19.0014 13.1604 18.9603 13.1194 18.9603 13.0784C18.9603 12.9964 18.9603 12.9554 18.9603 12.8734C18.7547 11.0285 19.9885 9.34766 21.7571 8.93769C21.9216 8.8557 22.045 8.89669 22.045 8.89669C21.8805 8.89669 21.7982 8.93769 21.7571 8.93769C21.716 8.97869 21.716 8.97869 21.716 8.97869C21.6337 9.10168 21.5926 9.22467 21.6337 9.38866C21.6337 9.47065 21.6337 9.51165 21.6748 9.55264C21.7571 9.75763 21.9216 9.92162 22.1273 9.92162C22.1684 9.92162 22.1684 9.92162 22.1684 9.96261Z" fill="#309AA7"/>
<path d="M42.1983 21.6461H42.1572C42.0338 21.5641 41.9104 21.4821 41.7459 21.5231C41.6636 21.5231 41.6225 21.5231 41.5814 21.5641C41.3757 21.6461 41.2112 21.8101 41.2112 22.0561C41.1701 22.0971 41.1701 22.0971 41.1701 22.0971C41.1701 22.1381 41.1701 22.2201 41.1701 22.2611C41.2112 22.384 41.2112 22.466 41.2523 22.548C41.2523 22.589 41.2935 22.589 41.2935 22.63C41.2935 22.63 41.2935 22.63 41.2935 22.671C41.3346 22.671 41.3346 22.671 41.3346 22.712C41.3757 22.753 41.3757 22.753 41.3757 22.753C41.3757 22.794 41.4169 22.794 41.4169 22.794C41.4169 22.794 41.4169 22.835 41.458 22.835C41.4991 22.876 41.4991 22.876 41.5402 22.917L41.5814 22.958H41.6225C41.6225 22.999 41.6225 22.999 41.6636 22.999C41.6636 22.999 41.6636 22.999 41.7048 22.999C41.7048 23.04 41.7048 23.04 41.7459 23.04C41.787 23.081 41.8282 23.081 41.8282 23.081C41.8282 23.081 41.8282 23.081 41.8693 23.081C41.8693 23.081 41.9104 23.081 41.9104 23.122H41.9515H41.9927C42.0338 23.122 42.0338 23.122 42.0338 23.122H42.0749C42.1161 23.122 42.1161 23.122 42.1161 23.122C42.1572 23.122 42.1983 23.122 42.1983 23.122C42.2394 23.122 42.2806 23.122 42.2806 23.122H42.3217C42.3217 23.081 42.3628 23.081 42.3628 23.081C42.3628 23.081 42.3628 23.081 42.404 23.081C42.404 23.081 42.404 23.081 42.4451 23.081C42.4451 23.081 42.4451 23.081 42.4451 23.04C42.4862 23.04 42.4862 23.04 42.4862 23.04C42.5274 23.04 42.5274 23.04 42.5274 23.04C42.5274 22.999 42.5685 22.999 42.5685 22.999H42.6096L42.6507 22.958C42.6919 22.917 42.6919 22.917 42.733 22.917C42.733 22.917 42.733 22.917 42.733 22.876H42.7741C42.7741 22.835 42.7741 22.835 42.7741 22.835C42.8153 22.835 42.8153 22.835 42.8153 22.794C42.8153 22.794 42.8153 22.794 42.8564 22.794C42.8564 22.753 42.8564 22.753 42.8564 22.753L42.8975 22.712C42.8975 22.712 42.8975 22.712 42.8975 22.671H42.9386C42.9386 22.63 42.9798 22.589 42.9798 22.548C42.9798 22.507 42.9798 22.507 42.9798 22.507C43.0209 22.507 43.0209 22.507 43.0209 22.466C43.0209 22.425 43.0209 22.384 43.0209 22.3431C43.062 22.3021 43.062 22.2201 43.062 22.1381C43.062 22.0971 43.062 22.0971 43.062 22.0971C43.062 22.0561 43.062 22.0151 43.062 21.9741C43.062 21.9331 43.062 21.9331 43.1032 21.8921C43.1032 20.6212 42.3628 19.1453 40.9644 18.0384C40.1419 17.4234 39.237 17.0135 38.3733 16.8495L38.0854 16.8085C38.0854 16.8085 37.962 16.9725 37.8797 17.3004C37.7564 17.9154 37.7975 18.4483 37.9209 18.8993C37.962 18.8993 38.0031 18.8993 38.0443 18.8583C38.1265 18.8583 38.1676 18.8583 38.2499 18.8583C40.1007 18.6533 41.787 19.8832 42.1983 21.6461C42.2806 21.8101 42.2394 21.9331 42.2394 21.9331C42.2394 21.8101 42.1983 21.6871 42.1983 21.6461Z" fill="#309AA7"/>
<path d="M32.2463 13.0784C32.2052 13.1194 32.2052 13.1604 32.2052 13.2014C32.6576 13.3244 33.1923 13.3654 33.8092 13.2424C34.1383 13.1604 34.3439 13.0374 34.3439 13.0374L34.2617 12.7504C34.0971 11.8895 33.6859 10.9875 33.0689 10.1676C31.9584 8.7737 30.4778 8.03576 29.2028 8.07675C29.1616 8.07675 29.1616 8.07675 29.1205 8.07675C29.0794 8.07675 29.0382 8.07675 28.9971 8.07675C28.9971 8.07675 28.9971 8.07675 28.956 8.07675C28.8737 8.07675 28.7915 8.07675 28.7503 8.11775C28.7092 8.11775 28.6681 8.11775 28.6269 8.11775L28.5858 8.15875C28.5858 8.15875 28.5858 8.15875 28.5447 8.15875C28.5036 8.15875 28.4624 8.19975 28.4213 8.19975V8.24074C28.3802 8.24074 28.3802 8.24074 28.3802 8.24074L28.339 8.28174C28.339 8.28174 28.339 8.28174 28.2979 8.28174C28.2979 8.32274 28.2979 8.32274 28.2979 8.32274C28.2979 8.32274 28.2568 8.32274 28.2568 8.36373C28.2568 8.36373 28.2568 8.36373 28.2156 8.36373V8.40473H28.1745C28.1745 8.44573 28.1745 8.44573 28.1334 8.48672C28.1334 8.48672 28.1334 8.52772 28.0923 8.52772C28.0923 8.56872 28.0923 8.56872 28.0923 8.56872C28.0923 8.56872 28.0923 8.60971 28.0511 8.60971C28.0511 8.60971 28.0511 8.60971 28.0511 8.65071C28.0511 8.65071 28.0511 8.65071 28.0511 8.69171H28.01C28.01 8.73271 28.01 8.73271 28.01 8.73271C28.01 8.7737 28.01 8.7737 28.01 8.7737V8.8147C27.9689 8.8147 27.9689 8.8557 27.9689 8.8557C27.9689 8.89669 27.9689 8.89669 27.9689 8.93769C27.9689 8.93769 27.9689 8.97869 27.9689 9.01968C27.9689 9.01968 27.9689 9.01968 27.9689 9.06068V9.10168V9.14267V9.18367C27.9689 9.18367 27.9689 9.22467 28.01 9.22467V9.26566C28.01 9.30666 28.01 9.30666 28.01 9.30666C28.01 9.30666 28.01 9.34766 28.0511 9.38866C28.0511 9.42965 28.0511 9.42965 28.0923 9.47065C28.0923 9.51165 28.0923 9.51165 28.1334 9.51165C28.1334 9.55264 28.1334 9.55264 28.1334 9.55264L28.1745 9.59364C28.1745 9.59364 28.1745 9.59364 28.1745 9.63464C28.2156 9.63464 28.2156 9.67563 28.2568 9.67563C28.2568 9.71663 28.2979 9.71663 28.2979 9.71663C28.2979 9.75763 28.2979 9.75763 28.339 9.75763C28.339 9.75763 28.339 9.75763 28.3802 9.79862C28.4213 9.79862 28.4213 9.79862 28.4213 9.83962C28.4624 9.83962 28.4624 9.83962 28.4624 9.83962C28.5036 9.83962 28.5036 9.88062 28.5447 9.88062C28.6269 9.92162 28.7092 9.92162 28.8326 9.96261C28.8737 9.96261 28.956 9.96261 28.9971 9.96261H29.0382C29.0382 9.92162 29.0382 9.92162 29.0382 9.92162C29.285 9.92162 29.4495 9.75763 29.5318 9.55264C29.5729 9.51165 29.5729 9.47065 29.5729 9.38866C29.614 9.22467 29.5318 9.10168 29.4495 8.97869C29.4495 8.97869 29.4495 8.97869 29.4495 8.93769C29.4084 8.93769 29.285 8.89669 29.1616 8.89669C29.1616 8.89669 29.285 8.8557 29.4495 8.93769C31.2181 9.34766 32.452 11.0285 32.2463 12.8734C32.2463 12.9554 32.2463 12.9964 32.2463 13.0784Z" fill="#309AA7"/>
<path d="M9.41928 41.5295C9.41928 41.5694 9.41928 41.5694 9.41928 41.5694C9.45937 41.5694 9.45937 41.5694 9.45937 41.5694C9.45937 41.5295 9.45937 41.5295 9.41928 41.5295Z" fill="#309AA7"/>
<path d="M2.83685 25.4991C2.87694 25.4991 2.87694 25.4991 2.87694 25.4991V25.4592C2.87694 25.4592 2.87694 25.4991 2.83685 25.4991Z" fill="#309AA7"/>
<path d="M25.5816 48.1707C25.6217 48.1307 25.6217 48.1307 25.6217 48.1307H25.5816C25.5816 48.1307 25.5816 48.1307 25.5816 48.1707Z" fill="#309AA7"/>
<path d="M24.1007 3.23875C24.0596 3.27975 24.0185 3.27975 23.9773 3.32075C23.5249 3.64872 22.9902 3.85371 22.4967 4.05869C21.8386 4.30467 21.4685 4.83763 21.4685 4.83763C20.8515 5.61657 20.9338 6.43651 21.016 6.80548C21.016 6.88748 21.016 6.92847 21.016 6.96947C21.016 7.01047 21.016 7.01047 21.016 7.01047C20.8515 7.05147 20.3991 7.33844 20.358 7.37944C20.1934 7.50243 20.0701 7.62542 19.9467 7.74841C19.5354 8.11738 19.1652 8.56835 18.8362 9.10131C19.7822 8.28137 20.9338 7.83041 21.962 7.83041H22.0031H22.0854C22.1265 7.83041 22.1677 7.83041 22.2088 7.83041H22.2499C22.3733 7.83041 22.4144 7.8714 22.4967 7.8714C22.5378 7.8714 22.579 7.8714 22.579 7.9124H22.6201H22.6612H22.7023V7.9534C22.7846 7.9534 22.8257 7.99439 22.8669 7.99439L22.908 8.03539L22.9491 8.07639H22.9902L23.0314 8.11738L23.0725 8.15838L23.1136 8.19938L23.1548 8.24037L23.1959 8.28137L23.237 8.36337L23.2782 8.40436L23.3193 8.44536V8.48636L23.3604 8.52735V8.56835L23.4015 8.60935V8.65034V8.69134V8.73234H23.4427V8.77333V8.81433C23.4427 8.81433 23.4427 8.85533 23.4427 8.89633C23.4427 8.93732 23.4427 8.97832 23.4427 9.01932V9.06031V9.10131C23.4427 9.10131 23.4427 9.1833 23.4427 9.2243V9.2653C23.4427 9.30629 23.4427 9.30629 23.4015 9.34729C23.4015 9.38829 23.4015 9.42928 23.3604 9.47028V9.51128L23.3193 9.55228V9.59327L23.2782 9.63427L23.237 9.67527C23.3604 10.2082 23.237 10.7822 22.9902 11.2741C22.9491 11.3151 22.9491 11.3151 22.9491 11.3561C23.0314 11.4381 23.1548 11.5611 23.237 11.6841C23.5661 12.1351 23.854 12.586 24.0185 13.078C24.5943 12.4221 24.9645 11.7661 25.0878 11.0282C25.3346 10.1262 25.129 9.1833 24.512 8.19938C25.3757 7.33844 25.5403 6.51851 25.0056 5.78056C24.6354 5.2886 24.4298 4.91963 24.3886 4.67365C24.3886 4.67365 24.3064 4.50966 24.3475 4.30467C24.3475 4.30467 24.3475 4.59165 24.5532 4.71464C24.5943 4.71464 24.6354 4.75564 24.6765 4.75564C24.7177 4.79664 24.7588 4.79664 24.7999 4.79664C25.0467 4.83763 25.3346 4.79664 25.5403 4.59165C25.5814 4.59165 25.5814 4.59165 25.5814 4.55065C25.6225 4.59165 25.6225 4.59165 25.6637 4.59165C25.8693 4.79664 26.1572 4.83763 26.404 4.79664C26.4451 4.79664 26.4862 4.79664 26.5274 4.75564C26.5685 4.75564 26.6096 4.71464 26.6508 4.71464C26.8564 4.59165 26.8564 4.30467 26.8564 4.30467C26.8975 4.50966 26.8153 4.67365 26.8153 4.67365C26.7741 4.91963 26.5685 5.2886 26.1983 5.78056C25.6637 6.51851 25.787 7.33844 26.6919 8.19938C26.0749 9.1833 25.8693 10.1262 26.0749 11.0282C26.2395 11.7661 26.6096 12.4221 27.1443 13.078C27.35 12.586 27.5967 12.1351 27.9669 11.6841C28.0492 11.5611 28.1314 11.4381 28.2548 11.3561C28.2548 11.3151 28.2137 11.3151 28.2137 11.2741C27.9669 10.7822 27.8435 10.2082 27.9258 9.67527V9.63427L27.8846 9.59327V9.55228H27.8435V9.51128V9.47028H27.8024C27.8024 9.42928 27.8024 9.38829 27.8024 9.34729H27.7612C27.7612 9.30629 27.7612 9.30629 27.7612 9.2653V9.2243C27.7612 9.1833 27.7201 9.10131 27.7201 9.10131V9.06031V9.01932C27.7201 8.97832 27.7201 8.93732 27.7201 8.89633H27.7612C27.7612 8.85533 27.7612 8.81433 27.7612 8.81433V8.77333V8.73234V8.69134H27.8024V8.60935V8.56835L27.8435 8.52735V8.48636L27.8846 8.44536V8.40436L27.9258 8.36337L27.9669 8.32237L28.008 8.28137V8.24037L28.0492 8.19938H28.0903V8.15838H28.1314V8.11738H28.1725L28.2137 8.07639H28.2548L28.2959 8.03539V7.99439C28.3782 7.99439 28.4193 7.9534 28.4604 7.9534L28.5016 7.9124H28.5838C28.625 7.8714 28.6661 7.8714 28.7072 7.8714C28.7484 7.8714 28.8306 7.83041 28.9129 7.83041H28.954H28.9951C29.0363 7.83041 29.0774 7.83041 29.1185 7.83041H29.1596H29.2419C30.2701 7.83041 31.3806 8.28137 32.3677 9.10131C32.0387 8.56835 31.6685 8.11738 31.2572 7.74841C31.1339 7.62542 30.9693 7.50243 30.8459 7.37944C30.8048 7.33844 30.3113 7.05147 30.1879 7.01047C30.1879 7.01047 30.1879 7.01047 30.1467 6.96947C30.1879 6.92847 30.1879 6.88748 30.1879 6.80548C30.2701 6.43651 30.3113 5.61657 29.7355 4.83763C29.7355 4.83763 29.3653 4.30467 28.7072 4.05869C28.2137 3.85371 27.679 3.64872 27.2266 3.32075C27.1854 3.27975 27.1443 3.27975 27.1032 3.23875C26.4862 2.74679 26.0338 2.09084 25.787 1.39389C25.7459 1.3119 25.7048 1.18891 25.6637 1.10692C25.6637 1.02492 25.6637 0.942928 25.6225 0.860935C25.6225 0.860935 25.6225 0.450966 25.6225 0C25.6225 0 25.5814 0.614953 25.5814 0.860935C25.5403 0.942928 25.5403 1.02492 25.5403 1.10692C25.4991 1.18891 25.458 1.3119 25.4169 1.39389C25.1701 2.09084 24.7177 2.74679 24.1007 3.23875ZM23.4427 7.21545C23.4427 7.21545 22.9902 6.92847 22.6612 6.84648C22.6612 6.84648 22.5378 6.27252 23.1136 5.90355C23.1136 5.90355 23.8128 6.5595 23.4427 7.21545ZM28.0903 5.90355C28.6661 6.27252 28.5427 6.84648 28.5427 6.84648C28.2137 6.92847 27.7612 7.21545 27.7612 7.21545C27.35 6.5595 28.0903 5.90355 28.0903 5.90355ZM25.2935 2.6648C25.4169 2.50081 25.4991 2.33682 25.5814 2.13184C25.5814 2.09084 25.5814 2.09084 25.5814 2.04984C25.6225 2.09084 25.6225 2.09084 25.6225 2.13184C25.7048 2.33682 25.787 2.50081 25.9104 2.6648C25.9516 2.74679 26.1572 2.99277 26.3217 2.99277C26.0338 2.99277 25.787 3.07477 25.5814 3.27975C25.4169 3.07477 25.129 2.99277 24.8822 2.99277C25.0056 2.99277 25.2112 2.74679 25.2935 2.6648Z" fill="#309AA7"/>
<path d="M27.1032 47.7613C27.1443 47.7203 27.1854 47.6793 27.2266 47.6383C27.679 47.3103 28.2137 47.1463 28.7072 46.9003C29.3653 46.6543 29.7355 46.1214 29.7355 46.1214C30.3113 45.3424 30.2701 44.5225 30.1879 44.1535C30.1879 44.1125 30.1879 44.0305 30.1467 43.9895C30.1879 43.9895 30.1879 43.9895 30.1879 43.9486C30.3113 43.9486 30.8048 43.6206 30.8459 43.5796C30.9693 43.4566 31.1339 43.3746 31.2572 43.2106C31.6685 42.8416 32.0387 42.3907 32.3677 41.8577C31.3806 42.6776 30.2701 43.1286 29.2419 43.1286H29.1596H29.1185C29.0774 43.1286 29.0363 43.1286 28.9951 43.1286H28.954H28.9129C28.8306 43.1286 28.7484 43.1286 28.7072 43.0876C28.6661 43.0876 28.625 43.0876 28.5838 43.0876L28.5427 43.0466H28.5016H28.4604C28.4193 43.0056 28.3782 43.0056 28.2959 42.9646V42.9236H28.2137V42.8826L28.1725 42.8416H28.1314L28.0903 42.8006L28.0492 42.7596L28.008 42.7186V42.6776L27.9258 42.6366V42.5957L27.8846 42.5547V42.5137L27.8435 42.4727V42.4317L27.8024 42.3907V42.3497V42.3087L27.7612 42.2677V42.2267V42.1857V42.1447C27.7612 42.1447 27.7612 42.1037 27.7612 42.0627H27.7201C27.7201 42.0217 27.7201 41.9807 27.7201 41.9807V41.9397V41.8987C27.7612 41.8167 27.7612 41.7347 27.7612 41.7347V41.6937V41.6527L27.8024 41.6117C27.8024 41.5707 27.8024 41.5297 27.8024 41.4887H27.8435L27.8846 41.4067V41.3657L27.9258 41.3247V41.2838C27.8435 40.7508 27.9669 40.1768 28.2137 39.6849L28.2548 39.6439C28.1314 39.5209 28.0492 39.3979 27.9669 39.2749C27.5967 38.8239 27.35 38.373 27.1443 37.881C26.6096 38.537 26.2395 39.2339 26.0749 39.9719C25.8693 40.8328 26.0749 41.7757 26.6919 42.8006C25.787 43.6206 25.6637 44.4405 26.1983 45.1785C26.5685 45.6704 26.7741 46.0394 26.8153 46.2854C26.8153 46.2854 26.8975 46.4494 26.8564 46.6543C26.8564 46.6543 26.8564 46.4084 26.6508 46.2444C26.6096 46.2444 26.5685 46.2034 26.5274 46.2034C26.4862 46.2034 26.4451 46.2034 26.404 46.1624C26.1572 46.1214 25.8693 46.2034 25.6637 46.3674C25.6225 46.3674 25.6225 46.4084 25.5814 46.4084C25.5814 46.4084 25.5814 46.3674 25.5403 46.3674C25.3346 46.2034 25.0467 46.1214 24.7999 46.1624C24.7588 46.2034 24.7177 46.2034 24.6765 46.2034C24.6354 46.2034 24.5943 46.2444 24.5532 46.2444C24.3475 46.4084 24.3475 46.6543 24.3475 46.6543C24.3064 46.4494 24.3886 46.2854 24.3886 46.2854C24.4298 46.0394 24.6354 45.6704 25.0056 45.1785C25.5403 44.4405 25.3757 43.6206 24.512 42.8006C25.129 41.7757 25.3346 40.8328 25.129 39.9719C24.9645 39.2339 24.5943 38.537 24.0185 37.881C23.854 38.373 23.5661 38.8239 23.237 39.2749C23.1548 39.3979 23.0314 39.5209 22.9491 39.6439C22.9491 39.6439 22.9491 39.6849 22.9902 39.6849C23.237 40.1768 23.3604 40.7508 23.237 41.2838L23.2782 41.3247L23.3193 41.3657V41.4067L23.3604 41.4887C23.4015 41.5297 23.4015 41.5707 23.4015 41.6117V41.6527C23.4427 41.6527 23.4427 41.6937 23.4427 41.6937V41.7347C23.4427 41.7347 23.4427 41.8167 23.4427 41.8987V41.9397V41.9807C23.4427 41.9807 23.4427 42.0217 23.4427 42.0627C23.4427 42.1037 23.4427 42.1447 23.4427 42.1447V42.1857L23.4015 42.2677V42.3087V42.3497L23.3604 42.3907V42.4317L23.3193 42.4727V42.5137L23.2782 42.5547L23.237 42.5957V42.6366L23.1959 42.7186H23.1548L23.1136 42.7596V42.8006L23.0725 42.8416H23.0314L22.9902 42.8826L22.9491 42.9236H22.908V42.9646H22.8669C22.8257 43.0056 22.7846 43.0056 22.7023 43.0466L22.6201 43.0876H22.579C22.579 43.0876 22.5378 43.0876 22.4967 43.0876C22.4144 43.1286 22.3733 43.1286 22.2499 43.1286H22.2088C22.1677 43.1286 22.1265 43.1286 22.0854 43.1286H22.0443H22.0031H21.962C20.9338 43.1286 19.7822 42.6776 18.8362 41.8577C19.1652 42.3907 19.5354 42.8416 19.9467 43.2106C20.0701 43.3746 20.1934 43.4566 20.358 43.5796C20.3991 43.6206 20.8515 43.9486 21.016 43.9486C21.016 43.9895 21.016 43.9895 21.016 43.9895C21.016 44.0305 21.016 44.1125 21.016 44.1535C20.9338 44.5225 20.8515 45.3424 21.4685 46.1214C21.4685 46.1214 21.8386 46.6543 22.4967 46.9003C22.9902 47.1463 23.5249 47.3103 23.9773 47.6383C24.0185 47.6793 24.0596 47.7203 24.1007 47.7613C24.7177 48.2122 25.1701 48.8682 25.4169 49.6061C25.458 49.6881 25.4991 49.7701 25.5403 49.8521C25.5403 49.9341 25.5403 50.0161 25.5814 50.0981C25.5403 50.0981 25.5403 50.0981 25.5403 50.0981C25.5403 50.0981 25.5814 50.5081 25.5403 51C25.5403 51 25.6225 50.3441 25.6225 50.0981C25.6637 50.0161 25.6637 49.9341 25.6637 49.8521C25.7048 49.7701 25.7459 49.6881 25.787 49.6061C26.0338 48.8682 26.4862 48.2122 27.1032 47.7613ZM27.7612 43.7846C27.7612 43.7846 28.2137 44.0305 28.5427 44.1125C28.5427 44.1125 28.6661 44.7275 28.0903 45.0555C28.0903 45.0555 27.35 44.3995 27.7612 43.7846ZM23.1136 45.0555C22.5378 44.7275 22.6612 44.1125 22.6612 44.1125C22.9902 44.0305 23.4427 43.7846 23.4427 43.7846C23.8128 44.3995 23.1136 45.0555 23.1136 45.0555ZM25.9104 48.3352C25.787 48.4582 25.7048 48.6632 25.6225 48.8272C25.6225 48.8682 25.6225 48.9092 25.5814 48.9092C25.5814 48.9092 25.5814 48.8682 25.5814 48.8272C25.4991 48.6632 25.4169 48.4582 25.2935 48.3352C25.2112 48.2122 25.0056 48.0072 24.8822 47.9662C25.129 47.9662 25.4169 47.8843 25.5814 47.7203C25.787 47.8843 26.0338 47.9662 26.3217 47.9662C26.1572 48.0072 25.9516 48.2122 25.9104 48.3352Z" fill="#309AA7"/>
<path d="M50.3012 25.4582C50.219 25.4582 50.1367 25.4173 50.0545 25.4173C49.9722 25.3763 49.8488 25.3353 49.7666 25.3353C49.0674 25.0483 48.4093 24.5973 47.9157 23.9824C47.8746 23.9414 47.8746 23.9004 47.8335 23.8594C47.5044 23.4084 47.2988 22.8754 47.0931 22.3835C46.8464 21.7275 46.3117 21.3586 46.3117 21.3586C45.5302 20.7846 44.7076 20.8256 44.3375 20.9076C44.2552 20.9076 44.2141 20.9486 44.173 20.9486C44.1318 20.9076 44.1318 20.9076 44.1318 20.9076C44.0907 20.7846 43.8028 20.2926 43.7617 20.2516C43.6383 20.1287 43.5149 19.9647 43.3915 19.8417C43.0213 19.4317 42.5689 19.0627 42.0342 18.7348C42.8568 19.7187 43.3092 20.8256 43.3092 21.8505V21.9325V21.9735C43.3092 22.0145 43.3092 22.0555 43.3092 22.0965V22.1375V22.1785C43.3092 22.2605 43.2681 22.3425 43.2681 22.3835C43.2681 22.4245 43.2681 22.4655 43.227 22.5065V22.5475V22.5885V22.6295C43.1858 22.6705 43.1447 22.7115 43.1447 22.7935H43.1036L43.0625 22.8754L43.0213 22.9164L42.9802 22.9574L42.9391 22.9984V23.0394L42.8979 23.0804H42.8568L42.7746 23.1624L42.7334 23.2034H42.6923L42.6512 23.2444H42.61L42.5689 23.2854H42.5278H42.4455V23.3264H42.4044H42.3633H42.3221C42.3221 23.3264 42.281 23.3264 42.2399 23.3674C42.1987 23.3674 42.1576 23.3674 42.1165 23.3674H42.0754H42.0342C41.952 23.3264 41.9108 23.3264 41.9108 23.3264H41.8697C41.8286 23.3264 41.8286 23.3264 41.7875 23.3264V23.2854C41.7463 23.2854 41.7052 23.2854 41.6641 23.2854V23.2444H41.6229H41.5818V23.2034H41.5407L41.4995 23.1624H41.4584C40.9237 23.2444 40.3479 23.1214 39.8544 22.8754C39.8132 22.8754 39.8132 22.8344 39.8132 22.8344C39.6899 22.9574 39.5665 23.0394 39.4431 23.1214C38.9907 23.4904 38.5382 23.7364 38.0447 23.9414C38.7027 24.4743 39.4019 24.8433 40.1011 25.0073C41.006 25.2123 41.952 25.0073 42.9391 24.3923C43.8028 25.2943 44.6254 25.4173 45.3657 24.8843C45.8593 24.5153 46.2294 24.3103 46.4762 24.2693C46.4762 24.2693 46.6407 24.1873 46.8464 24.2283C46.8464 24.2283 46.5996 24.2283 46.4351 24.4333C46.4351 24.4743 46.3939 24.5153 46.3939 24.5563C46.3528 24.5973 46.3528 24.6383 46.3528 24.6793C46.3117 24.9253 46.3528 25.2123 46.5585 25.4173C46.5585 25.4582 46.5585 25.4582 46.5996 25.4992C46.5585 25.4992 46.5585 25.5402 46.5585 25.5402C46.3528 25.7452 46.3117 26.0322 46.3528 26.2782C46.3528 26.3192 46.3528 26.3602 46.3939 26.4012C46.3939 26.4422 46.4351 26.4832 46.4351 26.5242C46.5996 26.7292 46.8464 26.7292 46.8464 26.7292C46.6407 26.7701 46.4762 26.6882 46.4762 26.6882C46.2294 26.6472 45.8593 26.4422 45.3657 26.1142C44.6254 25.5402 43.8028 25.7042 42.9391 26.5652C41.952 25.9502 41.006 25.7452 40.1011 25.9912C39.4019 26.1142 38.7027 26.4832 38.0447 27.0571C38.5382 27.2211 38.9907 27.5081 39.4431 27.8361C39.5665 27.9181 39.6899 28.0411 39.7721 28.123C39.8132 28.123 39.8132 28.123 39.8544 28.082C40.3479 27.8361 40.9237 27.7131 41.4584 27.8361L41.4995 27.7951L41.5407 27.7541H41.5818L41.6229 27.7131H41.6641C41.7052 27.6721 41.7463 27.6721 41.7875 27.6721C41.8286 27.6721 41.8286 27.6311 41.8697 27.6311H41.9108C41.9108 27.6311 41.9931 27.6311 42.0342 27.6311H42.0754H42.1165C42.1576 27.6311 42.1987 27.6311 42.2399 27.6311C42.281 27.6311 42.3221 27.6311 42.3221 27.6311H42.3633L42.4044 27.6721H42.4455H42.5278L42.5689 27.7131H42.61L42.6512 27.7541H42.6923L42.7334 27.7951L42.7746 27.8361H42.8157L42.8568 27.8771L42.8979 27.9181L42.9391 27.9591H42.9802V28.0001H43.0213V28.0411L43.0625 28.082V28.123L43.1036 28.164L43.1447 28.205C43.1447 28.246 43.1858 28.287 43.227 28.369V28.451V28.492C43.2681 28.492 43.2681 28.533 43.2681 28.574C43.2681 28.656 43.3092 28.697 43.3092 28.82V28.861C43.3092 28.902 43.3092 28.943 43.3092 28.984V29.025V29.066V29.107C43.3092 30.1319 42.8568 31.2388 42.0342 32.2227C42.0342 32.1817 42.0342 32.1817 42.0342 32.1817C41.8286 32.4277 41.2116 33.0837 40.3068 33.5756C40.3068 33.6166 40.3479 33.6576 40.3479 33.6986C40.3479 33.6986 40.3479 33.6986 40.3479 33.7396C40.3891 34.1496 40.2657 34.8055 39.9366 35.1335C39.731 35.2975 39.2786 35.3385 39.0318 35.2565C38.3326 35.0925 37.839 34.4366 37.5923 33.7396C37.1398 31.6898 38.5382 30.5419 38.5382 30.5419C38.3737 30.3369 38.1269 30.1319 37.8802 30.0089C37.7568 29.9269 37.6334 29.8859 37.5511 29.8449C37.4689 29.8039 37.3866 29.7629 37.3455 29.7219C37.3043 29.7219 37.3043 29.7219 37.3043 29.7219C37.1398 29.6809 36.9753 29.6399 36.8108 29.5989C36.8519 29.4759 36.8931 29.394 36.9342 29.271C37.1398 29.353 37.3455 29.394 37.5511 29.5169C38.3326 29.8449 39.114 30.5419 39.6487 31.5258C39.6899 31.5668 39.6899 31.6078 39.731 31.6488C40.3891 31.4028 40.9649 30.9928 41.3762 30.4599C41.335 30.4189 41.2939 30.3369 41.2528 30.2959C40.8826 29.5989 40.3891 28.984 39.8544 28.451C39.6899 28.287 39.4842 28.123 39.2786 28.0001C38.7027 27.5491 38.0858 27.2211 37.4277 27.0571C37.51 26.5652 37.5511 26.0322 37.5511 25.4992C37.5511 24.9253 37.51 24.3923 37.4277 23.9004C38.0858 23.7364 38.7027 23.4084 39.2786 22.9574C39.4842 22.7935 39.6899 22.6295 39.8544 22.4655C40.3891 21.9735 40.8826 21.3586 41.2528 20.6616C41.2939 20.5796 41.335 20.5386 41.3762 20.4566C40.9649 19.9237 40.3891 19.5137 39.731 19.2677C39.6899 19.3497 39.6899 19.3907 39.6487 19.4317C39.114 20.3746 38.3326 21.0716 37.5511 21.4406C37.3455 21.5225 37.1398 21.6045 36.9342 21.6455C36.8931 21.5635 36.8519 21.4406 36.8108 21.3586C36.9753 21.3176 37.1398 21.2766 37.3043 21.1946C37.3043 21.1946 37.3043 21.1946 37.3455 21.1946C37.3866 21.1536 37.4689 21.1536 37.5511 21.1126C37.6334 21.0716 37.7568 20.9896 37.8802 20.9486C38.1269 20.7846 38.3737 20.6206 38.5382 20.4156C38.5382 20.4156 37.1398 19.2677 37.5923 17.2179C37.839 16.4799 38.3326 15.824 39.0318 15.66C39.2786 15.619 39.731 15.66 39.9366 15.824C40.2657 16.152 40.3891 16.7669 40.3479 17.2179V17.2589C40.3479 17.2999 40.3068 17.2999 40.3068 17.3409C41.2116 17.8738 41.8286 18.4888 42.0342 18.7348C42.1987 18.0788 42.281 17.4639 42.281 16.8489C42.281 16.6439 42.2399 16.4799 42.2399 16.2749C42.1987 16.2339 42.1165 15.701 42.0342 15.578V15.537C42.0754 15.496 42.1165 15.455 42.1576 15.414C42.4867 15.209 43.1036 14.7171 43.2681 13.7331C43.2681 13.7331 43.3504 13.0772 43.1036 12.4212C42.8568 11.9293 42.61 11.4373 42.5278 10.8634C42.5278 10.8224 42.5278 10.7814 42.5278 10.6994C42.4455 9.96142 42.5689 9.18248 42.8979 8.48554C42.9391 8.40354 42.9802 8.28055 43.0213 8.19856C43.0625 8.15756 43.1036 8.07557 43.1858 8.03457C43.1858 8.03457 43.4738 7.74759 43.8028 7.41962C43.8028 7.41962 43.3092 7.82959 43.1036 7.95258C43.0625 8.03457 42.9802 8.07557 42.9391 8.11656C42.8568 8.15756 42.7334 8.19856 42.6512 8.23955C41.952 8.56753 41.1705 8.69052 40.4302 8.60853C40.3479 8.60853 40.3068 8.60853 40.2657 8.60853C39.6899 8.52653 39.1963 8.28055 38.7027 8.03457C38.0447 7.78859 37.3866 7.87058 37.3866 7.87058C36.3995 8.03457 35.9059 8.64952 35.7003 8.9775C35.6592 9.0185 35.618 9.05949 35.5769 9.10049H35.5358C35.4124 9.0185 34.8777 8.9365 34.8366 8.8955C34.6309 8.8955 34.4664 8.85451 34.2608 8.85451C33.6438 8.85451 33.0269 8.9365 32.3688 9.10049C32.6156 9.30547 33.2325 9.92043 33.7672 10.8224C33.8084 10.8224 33.8084 10.8224 33.8495 10.7814H33.8906C34.343 10.7404 35.0011 10.8634 35.289 11.1913C35.4535 11.3963 35.4947 11.8473 35.4535 12.0933C35.289 12.7902 34.6309 13.2822 33.8906 13.5282C31.8341 13.9791 30.6825 12.5852 30.6825 12.5852C30.4769 12.7492 30.3124 12.9952 30.1478 13.2412C30.1067 13.3642 30.0244 13.4872 29.9833 13.5692C29.9422 13.6511 29.9422 13.7331 29.9011 13.7741C29.9011 13.8151 29.9011 13.8151 29.9011 13.8151C29.8188 13.9791 29.7777 14.1431 29.7365 14.3071C29.6543 14.2661 29.5309 14.2251 29.4486 14.1841C29.4898 13.9791 29.572 13.7741 29.6543 13.5692C30.0244 12.7902 30.7236 12.0113 31.6696 11.4783C31.7108 11.4373 31.7519 11.4373 31.8341 11.3963C31.5874 10.7404 31.1761 10.2074 30.6414 9.75644C30.5591 9.79744 30.518 9.83843 30.4357 9.87943C29.7365 10.2894 29.1196 10.7404 28.626 11.2733C28.4615 11.4373 28.297 11.6423 28.1325 11.8473C27.6801 12.4212 27.3922 13.0772 27.2276 13.6921C26.693 13.6101 26.1583 13.5692 25.5825 13.5692C25.0478 13.5692 24.5131 13.6101 23.9784 13.6921C23.8139 13.0772 23.526 12.4212 23.0325 11.8473C22.9091 11.6423 22.7445 11.4373 22.58 11.2733C22.0865 10.7404 21.4695 10.2894 20.7292 9.87943C20.6881 9.83843 20.6058 9.79744 20.5647 9.75644C20.03 10.2074 19.6187 10.7404 19.3719 11.3963C19.4131 11.4373 19.4542 11.4373 19.5365 11.4783C20.4824 12.0113 21.1816 12.7902 21.5518 13.5692C21.6341 13.7741 21.7163 13.9791 21.7574 14.1841C21.6341 14.2251 21.5518 14.2661 21.4284 14.3071C21.4284 14.1431 21.3873 13.9791 21.305 13.8151C21.305 13.8151 21.305 13.8151 21.305 13.7741C21.2639 13.7331 21.2639 13.6511 21.2228 13.5692C21.1405 13.4872 21.0994 13.3642 21.0171 13.2412C20.8937 12.9952 20.7292 12.7492 20.5236 12.5852C20.5236 12.5852 19.3719 13.9791 17.3155 13.5282C16.5751 13.2822 15.9171 12.7902 15.7526 12.0933C15.6703 11.8473 15.7114 11.3963 15.9171 11.1913C16.205 10.8634 16.863 10.7404 17.3155 10.7814C17.3155 10.7814 17.3155 10.7814 17.3566 10.7814C17.3566 10.8224 17.3977 10.8224 17.4389 10.8224C17.9324 9.92043 18.5905 9.30547 18.8373 9.10049C18.1792 8.9365 17.5211 8.85451 16.9453 8.85451C16.7397 8.85451 16.5751 8.8955 16.3695 8.8955C16.3284 8.9365 15.7937 9.0185 15.6703 9.10049C15.6292 9.10049 15.6292 9.10049 15.6292 9.10049C15.588 9.05949 15.5469 9.0185 15.5058 8.9775C15.3001 8.64952 14.7654 8.03457 13.8195 7.87058C13.8195 7.87058 13.1614 7.78859 12.5033 8.03457C12.0098 8.28055 11.5162 8.52653 10.9404 8.60853C10.8993 8.60853 10.817 8.60853 10.7759 8.60853C10.0356 8.69052 9.21298 8.56753 8.51378 8.23955C8.47265 8.19856 8.34926 8.15756 8.26701 8.11656C8.18475 8.07557 8.14362 8.03457 8.06136 7.95258C7.85571 7.82959 7.40329 7.41962 7.40329 7.41962C7.73232 7.74759 8.02023 8.03457 8.02023 8.03457C8.06136 8.07557 8.10249 8.15756 8.18475 8.19856C8.22588 8.28055 8.26701 8.40354 8.30813 8.48554C8.59604 9.18248 8.76056 9.96142 8.6783 10.6994C8.6783 10.7814 8.63717 10.8224 8.63717 10.8634C8.55491 11.4373 8.30813 11.9293 8.10249 12.4212C7.85571 13.0772 7.93797 13.7331 7.93797 13.7331C8.10249 14.7171 8.71943 15.209 9.04846 15.414C9.08959 15.455 9.13072 15.496 9.17185 15.537V15.578C9.08959 15.701 8.9662 16.2339 8.9662 16.2749C8.92508 16.4799 8.92508 16.6439 8.92508 16.8489C8.92508 17.4639 8.9662 18.0788 9.17185 18.7348C9.3775 18.4888 9.99444 17.8738 10.8582 17.3409C10.8582 17.2999 10.8582 17.2999 10.8582 17.2589V17.2179C10.817 16.7669 10.9404 16.152 11.2695 15.824C11.4751 15.66 11.8864 15.619 12.1332 15.66C12.8735 15.824 13.3259 16.4799 13.5727 17.2179C14.0662 19.2677 12.6678 20.4156 12.6678 20.4156C12.8324 20.6206 13.0791 20.7846 13.3259 20.9486C13.4082 20.9896 13.5316 21.0716 13.655 21.1126C13.7372 21.1536 13.7783 21.1536 13.8606 21.1946C13.9017 21.1946 13.9017 21.1946 13.9017 21.1946C14.0662 21.2766 14.2308 21.3176 14.3953 21.3586C14.3542 21.4406 14.313 21.5635 14.2719 21.6455C14.0662 21.6045 13.8195 21.5225 13.6138 21.4406C12.8324 21.0716 12.092 20.3746 11.5574 19.4317C11.5162 19.3907 11.4751 19.3497 11.4751 19.2677C10.817 19.5137 10.2412 19.9237 9.82992 20.4566C9.87105 20.5386 9.91218 20.5796 9.91218 20.6616C10.3235 21.3586 10.817 21.9735 11.3517 22.4655C11.5162 22.6295 11.7219 22.7935 11.8864 22.9574C12.5033 23.4084 13.1203 23.7364 13.7372 23.9004C13.6961 24.3923 13.655 24.9253 13.655 25.4992C13.655 26.0322 13.6961 26.5652 13.7372 27.0571C13.1203 27.2211 12.5033 27.5491 11.8864 28.0001C11.7219 28.123 11.5162 28.287 11.3517 28.451C10.817 28.984 10.3235 29.5989 9.91218 30.2959C9.91218 30.3369 9.87105 30.4189 9.82992 30.4599C10.2412 30.9928 10.817 31.4028 11.4751 31.6488C11.4751 31.6078 11.5162 31.5668 11.5574 31.5258C12.092 30.5419 12.8324 29.8449 13.6138 29.5169C13.8195 29.394 14.0662 29.353 14.2719 29.271C14.313 29.394 14.3542 29.4759 14.3542 29.5989C14.2308 29.6399 14.0662 29.6809 13.9017 29.7219C13.9017 29.7219 13.9017 29.7219 13.8606 29.7219C13.7783 29.7629 13.7372 29.8039 13.655 29.8449C13.5316 29.8859 13.4082 29.9269 13.3259 30.0089C13.0791 30.1319 12.8324 30.3369 12.6678 30.5419C12.6678 30.5419 14.0662 31.6898 13.5727 33.7396C13.3259 34.4366 12.8735 35.0925 12.1332 35.2565C11.8864 35.3385 11.4751 35.2975 11.2695 35.1335C10.9404 34.8055 10.817 34.1496 10.8582 33.7396C10.8582 33.6986 10.8582 33.6986 10.8582 33.6986C10.8582 33.6576 10.8582 33.6166 10.8582 33.5756C9.99444 33.0837 9.3775 32.4277 9.17185 32.1817C9.13072 32.1817 9.13072 32.1817 9.13072 32.2227C8.34926 31.2388 7.89684 30.1319 7.89684 29.107V29.066V29.025V28.984C7.89684 28.943 7.89684 28.902 7.89684 28.861V28.82C7.89684 28.697 7.89684 28.656 7.93797 28.574C7.93797 28.533 7.93797 28.492 7.93797 28.492V28.451L7.9791 28.41V28.369C8.02023 28.287 8.02023 28.246 8.06136 28.205V28.164H8.10249V28.123L8.14362 28.082L8.18475 28.0411V28.0001L8.22588 27.9591H8.26701L8.30813 27.9181V27.8771H8.34926L8.39039 27.8361H8.43152L8.47265 27.7951L8.51378 27.7541H8.55491L8.59604 27.7131H8.63717L8.6783 27.6721H8.71943H8.76056H8.80169L8.84282 27.6311H8.88395C8.88395 27.6311 8.92508 27.6311 8.9662 27.6311C9.00733 27.6311 9.04846 27.6311 9.08959 27.6311H9.13072C9.13072 27.6311 9.21298 27.6311 9.29524 27.6311H9.33637L9.3775 27.6721H9.41863C9.45976 27.6721 9.50089 27.6721 9.54202 27.7131L9.62428 27.7541H9.6654L9.70653 27.7951L9.74766 27.8361C10.2823 27.7131 10.8582 27.8361 11.3517 28.082C11.3517 28.123 11.3928 28.123 11.3928 28.123C11.5162 28.0411 11.6396 27.9181 11.763 27.8361C12.2154 27.5081 12.6678 27.2211 13.1614 27.0571C12.5033 26.4832 11.8041 26.1142 11.0638 25.9912C10.2001 25.7452 9.25411 25.9502 8.22588 26.5652C7.40329 25.7042 6.5807 25.5402 5.84037 26.1142C5.34682 26.4422 4.97666 26.6472 4.72988 26.6882C4.72988 26.6882 4.56536 26.7701 4.35971 26.7292C4.35971 26.7292 4.60649 26.7292 4.77101 26.5242C4.77101 26.4832 4.81214 26.4422 4.81214 26.4012C4.81214 26.3602 4.85327 26.3192 4.85327 26.2782C4.8944 26.0322 4.85327 25.7452 4.64762 25.5402L4.60649 25.4992C4.60649 25.4582 4.64762 25.4582 4.64762 25.4173C4.85327 25.2123 4.8944 24.9253 4.85327 24.6793C4.85327 24.6383 4.81214 24.5973 4.81214 24.5563C4.81214 24.5153 4.77101 24.4743 4.77101 24.4333C4.60649 24.2283 4.35971 24.2283 4.35971 24.2283C4.56536 24.1873 4.72988 24.2693 4.72988 24.2693C4.97666 24.3103 5.34682 24.5153 5.84037 24.8843C6.5807 25.4173 7.40329 25.2943 8.22588 24.3923C9.25411 25.0073 10.2001 25.2123 11.0638 25.0073C11.8041 24.8433 12.5033 24.4743 13.1614 23.9414C12.6678 23.7364 12.2154 23.4904 11.763 23.1214C11.6396 23.0394 11.5162 22.9574 11.3928 22.8344L11.3517 22.8754C10.8582 23.1214 10.2823 23.2444 9.74766 23.1624H9.70653L9.6654 23.2034L9.62428 23.2444H9.54202V23.2854C9.50089 23.2854 9.45976 23.2854 9.41863 23.2854V23.3264H9.3775H9.33637H9.29524C9.21298 23.3674 9.13072 23.3674 9.13072 23.3674H9.08959C9.04846 23.3674 9.00733 23.3674 8.9662 23.3674C8.92508 23.3264 8.88395 23.3264 8.88395 23.3264H8.84282H8.76056L8.71943 23.2854H8.6783H8.63717L8.59604 23.2444H8.55491L8.51378 23.2034H8.47265L8.43152 23.1624H8.39039V23.1214L8.30813 23.0804L8.26701 23.0394L8.22588 22.9984L8.18475 22.9574V22.9164L8.14362 22.8754H8.10249V22.8344V22.7935H8.06136C8.02023 22.7115 8.02023 22.6705 7.9791 22.6295V22.5885L7.93797 22.5065C7.93797 22.4655 7.93797 22.4245 7.93797 22.3835C7.89684 22.3425 7.89684 22.2605 7.89684 22.1785V22.1375V22.0965C7.89684 22.0555 7.89684 22.0145 7.89684 21.9735V21.9325V21.8505C7.89684 20.8256 8.34926 19.7187 9.17185 18.7348C8.63717 19.0627 8.18475 19.4317 7.81458 19.8417C7.69119 19.9647 7.56781 20.1287 7.44442 20.2516C7.40329 20.2926 7.07425 20.7846 7.07425 20.9076C7.03312 20.9076 7.03312 20.9076 7.03312 20.9486C6.99199 20.9486 6.90974 20.9076 6.86861 20.9076C6.49844 20.8256 5.67585 20.7846 4.8944 21.3586C4.8944 21.3586 4.35971 21.7275 4.11294 22.3835C3.86616 22.9164 3.70164 23.4084 3.37261 23.8594C3.33148 23.9004 3.29035 23.9414 3.24922 23.9824C2.7968 24.5973 2.13873 25.0483 1.3984 25.3353C1.31614 25.3353 1.23388 25.3763 1.15162 25.4173C1.06936 25.4173 0.987105 25.4582 0.904846 25.4582C0.904846 25.4582 0.493553 25.4582 0 25.4582C0 25.4582 0.65807 25.4992 0.904846 25.5402C0.987105 25.5402 1.06936 25.5402 1.15162 25.5402C1.23388 25.5812 1.31614 25.6222 1.3984 25.6632C2.13873 25.9092 2.7968 26.4012 3.24922 26.9751C3.29035 27.0161 3.33148 27.0571 3.37261 27.0981C3.70164 27.5491 3.86616 28.082 4.11294 28.574C4.35971 29.23 4.8944 29.5989 4.8944 29.5989C5.67585 30.2139 6.49844 30.1319 6.86861 30.0499C6.90974 30.0499 6.99199 30.0499 7.03312 30.0499C7.03312 30.0499 7.03312 30.0499 7.07425 30.0499C7.07425 30.2139 7.40329 30.6649 7.44442 30.7059C7.56781 30.8698 7.69119 30.9928 7.81458 31.1158C8.18475 31.5258 8.63717 31.8948 9.13072 32.2227C8.9662 32.8787 8.92508 33.4936 8.92508 34.1086C8.92508 34.2726 8.92508 34.4776 8.9662 34.6416C8.9662 34.7235 9.08959 35.2565 9.17185 35.3795C9.17185 35.3795 9.17185 35.3795 9.17185 35.4205C9.13072 35.4205 9.08959 35.4615 9.04846 35.5025C8.71943 35.7075 8.10249 36.2404 7.93797 37.2244C7.93797 37.2244 7.85571 37.8393 8.10249 38.4953C8.30813 39.0282 8.55491 39.5202 8.63717 40.0531C8.63717 40.1351 8.6783 40.1761 8.6783 40.2171C8.76056 40.9961 8.59604 41.775 8.30813 42.472C8.26701 42.554 8.22588 42.6359 8.18475 42.7179C8.10249 42.7999 8.06136 42.8409 8.02023 42.9229C8.02023 42.9229 7.73232 43.2099 7.40329 43.5379C7.40329 43.5379 7.85571 43.1279 8.06136 42.9639C8.14362 42.9229 8.18475 42.8819 8.26701 42.8409C8.34926 42.7999 8.47265 42.7589 8.51378 42.7179C9.21298 42.39 10.0356 42.267 10.7759 42.308C10.817 42.349 10.8993 42.349 10.9404 42.349C11.5162 42.431 12.0098 42.6769 12.5033 42.8819C13.1614 43.1689 13.8195 43.0459 13.8195 43.0459C14.7654 42.9229 15.3001 42.267 15.5058 41.98C15.5469 41.939 15.588 41.898 15.6292 41.816C15.6292 41.816 15.6292 41.857 15.6703 41.857C15.7937 41.898 16.3284 42.021 16.3695 42.021C16.5751 42.062 16.7397 42.062 16.9453 42.062C17.5211 42.103 18.1792 42.021 18.8373 41.857C18.5905 41.652 17.9324 41.0371 17.4389 40.1351C17.3977 40.1351 17.3566 40.1351 17.3566 40.1351C17.3155 40.1351 17.3155 40.1351 17.3155 40.1351C16.863 40.2171 16.205 40.0941 15.9171 39.7252C15.7114 39.5612 15.6703 39.1102 15.7526 38.8642C15.9171 38.1263 16.5751 37.6753 17.3155 37.4293C19.3719 36.9784 20.5236 38.3313 20.5236 38.3313C20.7292 38.2083 20.8937 37.9213 21.0171 37.7163C21.0994 37.5933 21.1405 37.4703 21.2228 37.3473C21.2639 37.2654 21.2639 37.2244 21.305 37.1424V37.1014C21.3461 36.9784 21.4284 36.8144 21.4284 36.6504C21.5518 36.6914 21.6341 36.7324 21.7574 36.7734C21.7163 36.9784 21.6341 37.1834 21.5518 37.3883C21.1816 38.1673 20.4824 38.9462 19.5365 39.4792C19.4542 39.4792 19.4131 39.5202 19.3719 39.5612C19.6187 40.1761 20.03 40.7501 20.5647 41.1601C20.6058 41.1601 20.6881 41.1191 20.7292 41.0781C21.4695 40.6681 22.0865 40.1761 22.58 39.6432C22.7445 39.4792 22.9091 39.3152 23.0325 39.1102C23.4849 38.5363 23.8139 37.9213 23.9784 37.3063C24.5131 37.3473 25.0478 37.3883 25.5825 37.3883C26.1583 37.3883 26.693 37.3473 27.2276 37.3063C27.3922 37.9213 27.6801 38.5363 28.1325 39.1102C28.297 39.3152 28.4615 39.4792 28.626 39.6432C29.1196 40.1761 29.7365 40.6681 30.4357 41.0781C30.518 41.1191 30.5591 41.1601 30.6414 41.1601C31.1761 40.7501 31.5874 40.1761 31.8341 39.5612C31.7519 39.5202 31.7108 39.4792 31.6696 39.4792C30.7236 38.9462 30.0244 38.1673 29.6543 37.3883C29.572 37.1834 29.4898 36.9784 29.4486 36.7734C29.5309 36.7324 29.6543 36.6914 29.7365 36.6504C29.7777 36.8144 29.8188 36.9784 29.9011 37.1014V37.1424C29.9422 37.2244 29.9422 37.2654 29.9833 37.3473C30.0244 37.4703 30.1067 37.5933 30.1478 37.7163C30.3124 37.9213 30.4769 38.2083 30.6825 38.3313C30.6825 38.3313 31.8341 36.9784 33.8906 37.4293C34.6309 37.6753 35.289 38.1263 35.4535 38.8642C35.4947 39.1102 35.4535 39.5612 35.289 39.7252C35.0011 40.0941 34.343 40.2171 33.8906 40.1351H33.8495C33.8084 40.1351 33.8084 40.1351 33.7672 40.1351C33.2325 41.0371 32.6156 41.652 32.3688 41.857C33.0269 42.021 33.6438 42.103 34.2608 42.062C34.4664 42.062 34.6309 42.062 34.8366 42.021C34.8777 42.021 35.4124 41.898 35.5358 41.857L35.5769 41.816C35.618 41.898 35.6592 41.939 35.7003 41.98C35.9059 42.267 36.3995 42.9229 37.3866 43.0459C37.3866 43.0459 38.0447 43.1689 38.7027 42.8819C39.1963 42.6769 39.6899 42.431 40.2657 42.349C40.3068 42.349 40.3479 42.349 40.4302 42.308C41.1705 42.267 41.952 42.39 42.6512 42.7179C42.7334 42.7589 42.8568 42.7999 42.9391 42.8409C42.9802 42.8819 43.0625 42.9229 43.1036 42.9639C43.3092 43.1279 43.8028 43.5379 43.8028 43.5379C43.4738 43.2099 43.1858 42.9229 43.1858 42.9229C43.1036 42.8409 43.0625 42.7999 43.0213 42.7179C42.9802 42.6359 42.9391 42.554 42.8979 42.472C42.5689 41.775 42.4455 40.9961 42.5278 40.2171C42.5278 40.1761 42.5278 40.1351 42.5278 40.0531C42.61 39.5202 42.8568 39.0282 43.1036 38.4953C43.3504 37.8393 43.2681 37.2244 43.2681 37.2244C43.1036 36.2404 42.4867 35.7075 42.1576 35.5025C42.1165 35.4615 42.0754 35.4205 42.0342 35.4205C42.0342 35.3795 42.0342 35.3795 42.0342 35.3795C42.1165 35.2565 42.1987 34.7235 42.2399 34.6416C42.2399 34.4776 42.281 34.2726 42.281 34.1086C42.281 33.4936 42.1987 32.8787 42.0342 32.2227C42.5689 31.8948 43.0213 31.5258 43.3915 31.1158C43.5149 30.9928 43.6383 30.8698 43.7617 30.7059C43.8028 30.6649 44.0907 30.2139 44.1318 30.0499C44.1318 30.0499 44.1318 30.0499 44.173 30.0499C44.2141 30.0499 44.2552 30.0499 44.3375 30.0499C44.7076 30.1319 45.5302 30.2139 46.3117 29.5989C46.3117 29.5989 46.8464 29.23 47.0931 28.574C47.2988 28.082 47.5044 27.5491 47.8335 27.0981C47.8746 27.0571 47.8746 27.0161 47.9157 26.9751C48.4093 26.4012 49.0674 25.9092 49.7666 25.6632C49.8488 25.6222 49.9722 25.5812 50.0545 25.5402C50.1367 25.5402 50.219 25.5402 50.3012 25.5402C50.3012 25.5402 50.7125 25.4992 51.1649 25.5402C51.1649 25.5402 50.548 25.4992 50.3012 25.4582ZM43.9262 23.3264C43.9262 23.3264 44.2141 22.8754 44.2963 22.5475C44.2963 22.5475 44.8722 22.4245 45.2423 22.9984C45.2423 22.9984 44.5842 23.7364 43.9262 23.3264ZM6.90974 22.5475C6.99199 22.8754 7.23877 23.3264 7.23877 23.3264C6.62183 23.7364 5.96376 22.9984 5.96376 22.9984C6.2928 22.4245 6.90974 22.5475 6.90974 22.5475ZM3.04357 26.1962C3.00244 26.0732 2.7968 25.8682 2.67341 25.7862C2.55002 25.6632 2.34437 25.5812 2.17986 25.4992C2.13873 25.4992 2.0976 25.4992 2.0976 25.4992C2.0976 25.4582 2.13873 25.4582 2.17986 25.4582C2.34437 25.4173 2.55002 25.2943 2.67341 25.1713C2.7968 25.1303 3.00244 24.9253 3.04357 24.7613C3.04357 25.0483 3.12583 25.2943 3.29035 25.4992C3.12583 25.6632 3.04357 25.9502 3.04357 26.1962ZM6.90974 28.41C6.90974 28.41 6.2928 28.533 5.96376 27.9591C5.96376 27.9591 6.62183 27.2621 7.23877 27.6311C7.23877 27.6311 6.99199 28.082 6.90974 28.41ZM40.9649 36.6504C40.9649 36.6504 41.4995 36.9784 41.335 37.6343C41.335 37.6343 40.3479 37.6753 40.1834 36.9374C40.1834 36.9374 40.677 36.8144 40.9649 36.6504ZM40.9649 14.3071C40.677 14.1021 40.1834 13.9791 40.1834 13.9791C40.3479 13.2412 41.335 13.3232 41.335 13.3232C41.4995 13.9791 40.9649 14.3071 40.9649 14.3071ZM41.6641 9.05949C41.8697 9.0185 42.0342 8.9775 42.2399 8.8955C42.2399 8.85451 42.281 8.85451 42.3221 8.81351C42.281 8.85451 42.281 8.8955 42.281 8.8955C42.1576 9.10049 42.1165 9.26448 42.0754 9.46946C42.0754 9.59245 42.0342 9.87943 42.1165 10.0024C41.952 9.79744 41.7052 9.67445 41.4584 9.67445C41.4584 9.42846 41.335 9.18248 41.1294 9.0185C41.2528 9.10049 41.5407 9.05949 41.6641 9.05949ZM37.7979 9.79744C37.7979 9.79744 37.8802 10.7814 37.1398 10.9453C37.1398 10.9453 37.0164 10.4534 36.8108 10.1664C36.8108 10.1664 37.1398 9.63345 37.7979 9.79744ZM32.7801 15.537C33.8495 15.537 34.8366 15.332 35.618 14.8401C36.3995 14.3481 36.8931 13.5282 37.181 12.4212C38.4148 12.4212 39.0729 11.9703 39.2374 11.0273C39.3197 10.4534 39.4431 10.0434 39.5665 9.83843C39.5665 9.83843 39.6487 9.67445 39.8132 9.55146C39.8132 9.55146 39.6076 9.71544 39.6899 9.96142C39.6899 10.0024 39.6899 10.0434 39.731 10.1254C39.731 10.1254 39.7721 10.1664 39.7721 10.2074C39.9366 10.4124 40.1834 10.5764 40.4713 10.6174H40.5124C40.5124 10.6174 40.5124 10.6584 40.5124 10.6994C40.5536 10.9453 40.7181 11.1913 40.9237 11.3553C40.9649 11.3553 41.006 11.3963 41.006 11.3963C41.0883 11.4373 41.1294 11.4373 41.1705 11.4373C41.4173 11.5193 41.5818 11.3143 41.5818 11.3143C41.4584 11.4783 41.2939 11.5603 41.2939 11.5603C41.0883 11.6833 40.677 11.8063 40.1011 11.8883C39.1552 12.0523 38.7027 12.7082 38.7027 13.9381C37.5923 14.2251 36.7697 14.7171 36.2761 15.496C35.7826 16.2749 35.5769 17.2589 35.5769 18.3248C35.5769 18.5298 35.5769 18.7758 35.618 18.9807C35.4947 18.8168 35.4124 18.6528 35.289 18.5298C35.289 17.8738 35.3301 17.0539 35.4947 16.8079C35.4947 16.8079 34.9188 16.9719 34.3842 17.3819C34.1785 17.1769 33.9317 16.9719 33.7261 16.7669C34.1374 16.193 34.343 15.619 34.343 15.619C34.0551 15.783 33.2325 15.824 32.5745 15.824C32.4511 15.701 32.2866 15.619 32.122 15.496C32.3277 15.537 32.5745 15.537 32.7801 15.537ZM13.4082 9.79744C14.0251 9.63345 14.3542 10.1664 14.3542 10.1664C14.1896 10.4534 14.0662 10.9453 14.0662 10.9453C13.3259 10.7814 13.4082 9.79744 13.4082 9.79744ZM9.08959 10.0024C9.13072 9.87943 9.13072 9.59245 9.08959 9.46946C9.08959 9.26448 9.00733 9.10049 8.92508 8.8955C8.92508 8.8955 8.88395 8.85451 8.88395 8.81351C8.92508 8.85451 8.92508 8.85451 8.9662 8.8955C9.13072 8.9775 9.33637 9.0185 9.54202 9.05949C9.62428 9.05949 9.95331 9.10049 10.0767 9.0185C9.87105 9.18248 9.74766 9.42846 9.74766 9.67445C9.50089 9.67445 9.25411 9.79744 9.08959 10.0024ZM10.2412 14.3071C10.2412 14.3071 9.70653 13.9791 9.87105 13.3232C9.87105 13.3232 10.817 13.2412 11.0227 13.9791C11.0227 13.9791 10.5291 14.1021 10.2412 14.3071ZM12.4622 13.9381C12.5033 12.7082 12.0509 12.0523 11.1049 11.8883C10.488 11.8063 10.0767 11.6833 9.87105 11.5603C9.87105 11.5603 9.70653 11.4783 9.58315 11.3143C9.58315 11.3143 9.78879 11.5193 10.0356 11.4373C10.0767 11.4373 10.1178 11.4373 10.159 11.3963C10.2001 11.3963 10.2412 11.3553 10.2823 11.3553C10.488 11.1913 10.6525 10.9453 10.6525 10.6994C10.6525 10.6584 10.6525 10.6174 10.6525 10.6174C10.6936 10.6174 10.7348 10.6174 10.7348 10.6174C11.0227 10.5764 11.2695 10.4124 11.3928 10.2074C11.434 10.1664 11.434 10.1254 11.4751 10.1254C11.4751 10.0434 11.5162 10.0024 11.5162 9.96142C11.5574 9.71544 11.3928 9.55146 11.3928 9.55146C11.5574 9.67445 11.5985 9.83843 11.5985 9.83843C11.763 10.0434 11.8864 10.4534 11.9686 11.0273C12.092 11.9703 12.7912 12.4212 14.0251 12.4212C14.2719 13.5282 14.8066 14.3481 15.588 14.8401C16.3695 15.332 17.3566 15.537 18.426 15.537C18.6316 15.537 18.8373 15.537 19.0429 15.496C18.9195 15.619 18.755 15.701 18.5905 15.824C17.9735 15.824 17.151 15.783 16.863 15.619C16.863 15.619 17.0687 16.193 17.48 16.7669C17.2332 16.9719 17.0276 17.1769 16.8219 17.3819C16.2872 16.9719 15.7114 16.8079 15.7114 16.8079C15.8759 17.0539 15.9171 17.8738 15.9171 18.5298C15.7937 18.6528 15.7114 18.8168 15.588 18.9807C15.6292 18.7758 15.6292 18.5298 15.6292 18.3248C15.6292 17.2589 15.4235 16.2749 14.8888 15.496C14.4364 14.7171 13.6138 14.2251 12.4622 13.9381ZM10.2412 36.6504C10.5291 36.8144 11.0227 36.9374 11.0227 36.9374C10.817 37.6753 9.87105 37.6343 9.87105 37.6343C9.70653 36.9784 10.2412 36.6504 10.2412 36.6504ZM9.54202 41.898C9.33637 41.898 9.13072 41.98 8.9662 42.062C8.92508 42.062 8.92508 42.103 8.88395 42.103C8.88395 42.103 8.92508 42.062 8.92508 42.021C9.00733 41.857 9.08959 41.652 9.08959 41.488C9.13072 41.365 9.13072 41.0371 9.08959 40.9141C9.25411 41.1191 9.50089 41.2421 9.74766 41.2421C9.74766 41.529 9.87105 41.775 10.0767 41.939C9.95331 41.857 9.62428 41.898 9.54202 41.898ZM13.4082 41.1191C13.4082 41.1191 13.3259 40.1761 14.0662 39.9711C14.0662 39.9711 14.1896 40.5041 14.3542 40.7911C14.3542 40.7911 14.0251 41.283 13.4082 41.1191ZM18.426 35.3795C17.3566 35.3795 16.3695 35.6255 15.588 36.1174C14.8066 36.6094 14.2719 37.3883 14.0251 38.5363C12.7912 38.5363 12.092 38.9872 11.9686 39.8892C11.8864 40.5041 11.763 40.9141 11.5985 41.1191C11.5985 41.1191 11.5574 41.283 11.3928 41.406C11.3928 41.406 11.5574 41.2011 11.5162 40.9551C11.5162 40.9141 11.4751 40.8731 11.4751 40.8321C11.434 40.7911 11.434 40.7501 11.3928 40.7501C11.2695 40.5041 11.0227 40.3811 10.7348 40.3401C10.7348 40.3401 10.6936 40.3401 10.6525 40.3401C10.6525 40.2991 10.6525 40.2991 10.6525 40.2581C10.6525 39.9711 10.488 39.7252 10.2823 39.6022C10.2412 39.5612 10.2001 39.5612 10.159 39.5612C10.1178 39.5202 10.0767 39.4792 10.0356 39.4792C9.78879 39.4382 9.58315 39.6022 9.58315 39.6022C9.70653 39.4382 9.87105 39.3972 9.87105 39.3972C10.0767 39.2742 10.488 39.1512 11.1049 39.0282C12.0509 38.9052 12.5033 38.2083 12.4622 37.0194C13.6138 36.7324 14.4364 36.1994 14.8888 35.4205C15.4235 34.6416 15.6292 33.6986 15.6292 32.5917C15.6292 32.3867 15.6292 32.2227 15.588 32.0178C15.7114 32.1407 15.7937 32.3047 15.9171 32.4687C15.9171 33.0837 15.8759 33.9036 15.7114 34.1496C15.7114 34.1496 16.2461 33.9856 16.8219 33.5756C17.0276 33.7806 17.2332 33.9856 17.4389 34.1906C17.0687 34.7645 16.863 35.2975 16.863 35.2975C17.151 35.1335 17.9324 35.1335 18.5494 35.1335C18.7139 35.2155 18.8373 35.3385 19.0018 35.4205C18.7961 35.4205 18.6316 35.3795 18.426 35.3795ZM30.7236 35.4205H30.6825C30.4769 35.5025 30.2712 35.6255 30.0656 35.7075C29.9833 35.7485 29.9011 35.7895 29.8188 35.8305C29.7365 35.8305 29.6543 35.8715 29.6132 35.9125C29.5309 35.9125 29.4486 35.9535 29.4075 35.9944C28.6672 36.2404 27.8857 36.4454 27.1043 36.5274C26.8986 36.5684 26.693 36.5684 26.4873 36.6094C26.4051 36.6094 26.3639 36.6094 26.2817 36.6094C26.1994 36.6094 26.1583 36.6094 26.076 36.6094C25.9115 36.6504 25.747 36.6504 25.5825 36.6504C25.418 36.6504 25.2946 36.6504 25.1301 36.6094C25.0478 36.6094 24.9655 36.6094 24.9244 36.6094C24.8421 36.6094 24.7599 36.6094 24.7188 36.6094C24.5131 36.5684 24.3075 36.5684 24.1018 36.5274C23.3204 36.4454 22.5389 36.2404 21.7986 35.9944C21.7163 35.9535 21.6752 35.9125 21.5929 35.9125C21.5107 35.8715 21.4695 35.8305 21.3873 35.8305C21.305 35.7895 21.2228 35.7485 21.1405 35.7075C20.8937 35.6255 20.6881 35.5025 20.4824 35.4205C18.3848 34.3546 16.6985 32.6327 15.6292 30.5419C15.4235 30.1319 15.2179 29.6809 15.0534 29.23C14.8066 28.492 14.6009 27.7541 14.5187 26.9341C14.4775 26.7292 14.4775 26.5652 14.4364 26.3602C14.4364 26.2782 14.4364 26.2372 14.4364 26.1552C14.4364 26.1142 14.4364 26.0322 14.4364 25.9502C14.3953 25.7862 14.3953 25.6632 14.3953 25.4992C14.3953 25.3353 14.3953 25.1713 14.4364 25.0073C14.4364 24.9253 14.4364 24.8843 14.4364 24.8023C14.4364 24.7203 14.4364 24.6793 14.4364 24.5973C14.4775 24.3923 14.4775 24.1873 14.5187 24.0234V23.9824C14.6009 23.2034 14.8066 22.4245 15.0534 21.6865C15.2179 21.2766 15.4235 20.8256 15.6292 20.4156C16.1227 19.4317 16.7808 18.5298 17.5622 17.7098C17.6034 17.6688 17.6445 17.6278 17.6856 17.5868C17.7268 17.5458 17.7679 17.5049 17.809 17.4639C18.5905 16.7259 19.5365 16.07 20.5236 15.537C20.9349 15.332 21.3461 15.168 21.7986 15.004C22.5389 14.7171 23.3204 14.5531 24.1018 14.4301C24.3075 14.3891 24.5131 14.3891 24.7188 14.3891C24.7599 14.3481 24.8421 14.3481 24.9244 14.3481C24.9655 14.3481 25.0478 14.3481 25.1301 14.3481C25.2946 14.3481 25.418 14.3481 25.5825 14.3481C25.747 14.3481 25.9115 14.3481 26.076 14.3481C26.1583 14.3481 26.1994 14.3481 26.2817 14.3481C26.3639 14.3481 26.4051 14.3481 26.4873 14.3891C26.693 14.3891 26.8986 14.3891 27.0631 14.4301H27.1043C27.8857 14.5531 28.6672 14.7171 29.4075 15.004C29.8188 15.168 30.2712 15.332 30.6825 15.537C31.7108 16.07 32.6156 16.7259 33.4382 17.5049C33.4382 17.5458 33.4793 17.5868 33.5204 17.5868C33.5204 17.6278 33.5616 17.6278 33.6027 17.6688C34.3842 18.4888 35.0422 19.3907 35.5769 20.4156C35.7826 20.8256 35.9882 21.2766 36.1116 21.6865C36.3995 22.4245 36.564 23.2034 36.6874 23.9824V24.0234C36.7285 24.1873 36.7285 24.3923 36.7697 24.5973C36.7697 24.6793 36.7697 24.7203 36.7697 24.8023C36.7697 24.8843 36.7697 24.9253 36.7697 25.0073C36.7697 25.1713 36.7697 25.3353 36.7697 25.4992C36.7697 25.6632 36.7697 25.7862 36.7697 25.9502C36.7697 26.0322 36.7697 26.1142 36.7697 26.1552C36.7697 26.2372 36.7697 26.2782 36.7697 26.3602C36.7285 26.5652 36.7285 26.7292 36.6874 26.9341C36.6051 27.7541 36.3995 28.492 36.1527 29.23C35.9882 29.6809 35.7826 30.1319 35.5769 30.5419C34.5076 32.6327 32.7801 34.3546 30.7236 35.4205ZM37.7979 41.1191C37.1398 41.283 36.8108 40.7911 36.8108 40.7911C37.0164 40.5041 37.1398 39.9711 37.1398 39.9711C37.8802 40.1761 37.7979 41.1191 37.7979 41.1191ZM40.9237 39.6022C40.7181 39.7252 40.5536 39.9711 40.5124 40.2581C40.5124 40.2991 40.5124 40.2991 40.5124 40.3401H40.4713C40.1834 40.3811 39.9366 40.5041 39.7721 40.7501C39.7721 40.7501 39.731 40.7911 39.731 40.8321C39.6899 40.8731 39.6899 40.9141 39.6899 40.9551C39.6076 41.2011 39.8132 41.406 39.8132 41.406C39.6487 41.283 39.5665 41.1191 39.5665 41.1191C39.4431 40.9141 39.3197 40.5041 39.2374 39.8892C39.0729 38.9872 38.4148 38.5363 37.181 38.5363C36.8931 37.3883 36.3995 36.6094 35.618 36.1174C34.8366 35.6255 33.8495 35.3795 32.7801 35.3795C32.5745 35.3795 32.3688 35.4205 32.2043 35.4205C32.3277 35.3385 32.4922 35.2155 32.6567 35.1335C33.2737 35.1335 34.0551 35.1335 34.343 35.2975C34.343 35.2975 34.1374 34.7645 33.7261 34.1906C33.9729 33.9856 34.1785 33.7806 34.3842 33.5756C34.9188 33.9856 35.4947 34.1496 35.4947 34.1496C35.3301 33.9036 35.289 33.0837 35.289 32.4687C35.4124 32.3047 35.4947 32.1407 35.618 32.0178C35.5769 32.2227 35.5769 32.3867 35.5769 32.5917C35.5769 33.6986 35.7826 34.6416 36.2761 35.4205C36.7697 36.1994 37.5923 36.7324 38.7027 37.0194C38.7027 38.2083 39.1552 38.9052 40.1011 39.0282C40.677 39.1512 41.0883 39.2742 41.2939 39.3972C41.2939 39.3972 41.4584 39.4382 41.5818 39.6022C41.5818 39.6022 41.4173 39.4382 41.1705 39.4792C41.1294 39.4792 41.0883 39.5202 41.006 39.5612C41.006 39.5612 40.9649 39.5612 40.9237 39.6022ZM42.1165 40.9141C42.0342 41.0371 42.0754 41.365 42.0754 41.488C42.1165 41.652 42.1576 41.857 42.281 42.021C42.281 42.062 42.281 42.103 42.3221 42.103C42.281 42.103 42.2399 42.062 42.2399 42.062C42.0342 41.98 41.8697 41.898 41.6641 41.898C41.5407 41.898 41.2528 41.857 41.1294 41.939C41.335 41.775 41.4584 41.529 41.4584 41.2421C41.7052 41.2421 41.952 41.1191 42.1165 40.9141ZM44.2963 28.41C44.2141 28.082 43.9262 27.6311 43.9262 27.6311C44.5842 27.2621 45.2423 27.9591 45.2423 27.9591C44.8722 28.533 44.2963 28.41 44.2963 28.41ZM49.0262 25.4992C48.8206 25.5812 48.6561 25.6632 48.4915 25.7862C48.4093 25.8682 48.1625 26.0732 48.1625 26.1962C48.1625 25.9502 48.0802 25.6632 47.8746 25.4992C48.0802 25.2943 48.1625 25.0483 48.1625 24.7613C48.1625 24.9253 48.4093 25.1303 48.4915 25.1713C48.6561 25.2943 48.8206 25.4173 49.0262 25.4582C49.0674 25.4582 49.0674 25.4582 49.1085 25.4992C49.0674 25.4992 49.0674 25.4992 49.0262 25.4992Z" fill="#309AA7"/>
</svg>
