<?xml version="1.0" encoding="UTF-8"?>
<!DOCTYPE svg PUBLIC "-//W3C//DTD SVG 1.1//EN" "http://www.w3.org/Graphics/SVG/1.1/DTD/svg11.dtd">
<!-- Creator: CorelDRAW X8 -->
<svg xmlns="http://www.w3.org/2000/svg" xml:space="preserve" width="6.66666in" height="1.45833in" version="1.1" style="shape-rendering:geometricPrecision; text-rendering:geometricPrecision; image-rendering:optimizeQuality; fill-rule:evenodd; clip-rule:evenodd"
viewBox="0 0 6667 1458"
 xmlns:xlink="http://www.w3.org/1999/xlink">
 <defs>
  <style type="text/css">
   <![CDATA[
    .fil5 {fill:black}
    .fil0 {fill:#007E3A}
    .fil33 {fill:#020202}
    .fil32 {fill:#050405}
    .fil31 {fill:#090707}
    .fil4 {fill:#563D2E}
    .fil6 {fill:#573F2F}
    .fil1 {fill:#C6C3E1}
    .fil2 {fill:#D11134}
    .fil29 {fill:#D7964E}
    .fil8 {fill:#D99949}
    .fil9 {fill:#DC9C45}
    .fil17 {fill:#DD9E42}
    .fil11 {fill:#E1A13D}
    .fil14 {fill:#E2A23C}
    .fil26 {fill:#E3A439}
    .fil18 {fill:#E5A636}
    .fil10 {fill:#E6A735}
    .fil24 {fill:#E9A931}
    .fil13 {fill:#EAAB2F}
    .fil12 {fill:#EBAB2D}
    .fil28 {fill:#ECAD2B}
    .fil19 {fill:#EDAE29}
    .fil27 {fill:#EEB028}
    .fil16 {fill:#EFB027}
    .fil20 {fill:#F2B322}
    .fil23 {fill:#F3B421}
    .fil7 {fill:#F5B61D}
    .fil15 {fill:#F7B81B}
    .fil21 {fill:#F8BA18}
    .fil22 {fill:#FBBC15}
    .fil25 {fill:#FBBD13}
    .fil3 {fill:#FEBF0F}
    .fil30 {fill:#FEFEFE}
    .fil34 {fill:#BDBFC1;fill-rule:nonzero}
    .fil35 {fill:#309AA7;fill-rule:nonzero}
   ]]>
  </style>
 </defs>
 <g id="Layer_x0020_1">
  <metadata id="CorelCorpID_0Corel-Layer"/>
  <g id="_2926258248080">
   <g>
    <path class="fil0" d="M779 556l0 0zm-148 -8l0 0zm149 -8l0 0zm-146 -6l0 0zm1 -1l-1 1 1 -1zm0 0c2,-2 4,-4 7,-4l0 2c-3,0 -4,1 -7,2zm-9 -19l-1 1 1 -1zm149 0l0 0zm-148 -1l-1 1 1 -1zm181 17l-1 -1c-12,-18 -14,-9 -14,-22 3,2 7,7 9,10 2,3 5,7 6,13zm-120 -24l0 0zm1 -2l0 0c0,0 0,0 0,0zm-62 9c1,-5 9,-12 17,-13 0,5 -3,7 -7,8 -2,1 -3,2 -5,3 -2,1 -2,2 -5,2zm2 -13l-1 1 1 -1zm0 0c4,-6 10,-12 18,-13 -2,6 -5,5 -13,10 -3,2 -2,2 -5,3zm7 -28l0 0zm1 -1l-1 1 1 -1zm1 -1l-1 1 1 -1zm0 0c2,-3 9,-11 15,-9 -1,5 -3,3 -7,5 -4,1 -5,3 -8,4zm1 -23l0 0zm3 -2l0 0zm2 -1l-2 1 2 -1zm1 -1l-1 1 1 -1zm0 0c3,-5 11,-9 19,-10 -3,4 -14,9 -19,10zm-56 -107l0 1c0,0 0,-1 0,-1zm300 -2l0 0zm-366 -14l0 0c0,0 -1,0 0,0zm173 -100l6 -19c0,4 0,8 0,12 -1,5 -2,6 -6,7zm6 -25l0 0 0 5 0 0 0 -5zm-16 -4l-3 0c0,-7 2,-5 2,-18l1 0c1,4 2,14 0,18zm-47 256l-7 5c-2,3 -4,4 -4,9 7,0 5,-2 14,-8 3,-2 11,-7 15,-7 -1,3 0,3 -3,5 -1,1 -4,1 -6,2 -4,1 -7,4 -10,6 -9,7 -9,8 -15,18 3,2 2,1 6,1 -2,3 -3,4 -4,8 6,-3 8,0 12,-6 3,-5 6,-8 12,-5 -1,5 -4,4 -9,6 -6,3 -13,8 -16,14 -5,8 -2,6 4,6 -3,4 -9,7 -9,15 3,0 3,0 6,-1 -2,3 -5,6 -6,10 -2,7 4,4 6,1 4,-5 5,-12 19,-12 -1,2 -6,6 -8,7 -10,8 -14,9 -12,21 1,4 -2,-1 -2,11 5,-1 5,-3 9,-5 -2,4 -4,7 -4,13 6,0 8,-6 10,-11l4 4c-2,2 -3,2 -4,4 -3,3 -10,13 -11,17 3,1 5,-1 6,4 1,3 -2,5 0,8 5,8 7,-8 7,12 7,0 5,-2 5,-9 2,1 8,7 7,0 -1,-5 -3,-7 -3,-13 10,7 2,-2 2,-11 5,3 1,4 6,6 1,-3 1,-10 1,-14 3,2 -1,1 3,4 0,-10 -3,-17 -3,-27 3,2 4,4 9,5 0,-8 -7,-14 -7,-24 6,2 1,2 7,6 0,-5 0,-6 0,-10 3,1 2,1 6,2 3,-12 -4,-7 -5,-18 2,0 0,0 2,0 0,0 2,0 2,0l0 -6c2,1 3,1 4,2 0,-13 -4,-8 -4,-20 2,2 2,2 5,4 1,-1 1,-2 1,-3l2 -3c0,6 -3,7 -3,14l6 0c-1,2 -3,6 -3,9 0,6 3,2 6,2 -1,4 -4,12 -2,17 3,-1 1,0 3,-3l2 -3c0,7 -4,8 -4,16 4,0 4,0 7,-6 5,-8 9,-23 16,-25 -8,15 -13,23 -17,40 -2,8 -2,11 5,6 -1,5 -3,9 -3,14 3,-1 1,-1 4,-2 0,5 0,9 1,14 1,6 -1,7 0,12 5,2 4,-4 6,4 0,6 1,6 6,5 0,2 0,2 1,4l2 0c0,10 0,5 2,11 1,1 1,0 2,3 5,-2 -1,-2 5,-3 1,3 4,8 5,13l3 0c1,-4 0,-10 -1,-14 1,0 8,6 5,-2 -1,-5 -4,-4 -5,-9 3,2 8,2 5,-3 -1,-3 -4,-4 -5,-8 2,-1 3,-1 5,-2 0,-6 -2,-7 -4,-10 6,0 4,1 9,2 0,-10 -7,-10 -8,-19 3,0 3,1 7,1 0,-7 -4,-8 -8,-15 2,0 7,3 9,4 0,-7 -6,-14 -9,-21 5,0 9,1 7,-4 -2,-5 -5,-4 -5,-10 4,0 3,1 6,0 -3,-6 -6,-6 -7,-12 3,0 4,0 6,-1 0,-5 -3,-6 -4,-11 4,1 10,7 8,-2 -2,-6 -6,-7 -6,-12l5 0c0,-3 0,-3 -1,-5 2,-1 3,-1 5,-2 0,-6 -4,-7 -7,-12 -2,-3 -2,0 -2,-4l4 0c0,-5 -1,-5 -2,-9 -1,-2 -2,-5 -3,-8 10,1 3,11 17,11 1,2 1,-1 0,3 9,-1 8,-9 14,-11 -2,7 -5,10 -9,15 -3,4 -8,10 -6,16 8,-6 4,-8 16,-14 -1,9 -8,13 -8,23l12 -11c-1,9 -9,11 -9,21 5,-1 10,-11 15,-14 -2,9 -9,19 -13,27 3,0 8,-4 11,-5 -3,10 -13,10 -9,19 5,-1 6,-7 12,-9 -1,6 -4,9 -7,13 -2,3 -7,8 -7,13 6,-1 8,-5 13,-7 -2,5 -6,11 -7,17 6,-1 6,-7 12,-9 -2,9 -15,15 -15,26 6,0 9,-5 15,-8 -1,8 -9,9 -14,19 -7,16 11,-2 13,-3 -1,7 -6,8 -6,15l4 0c-1,5 -4,5 -4,13 2,1 1,1 5,1 0,4 -1,7 2,8 4,1 4,-4 4,-7l6 0c-1,-4 -3,-4 -2,-7 1,-3 3,-1 5,0 0,0 12,10 9,-2 -2,-10 -11,-15 -11,-26 3,1 3,2 6,7 1,3 4,7 4,10 7,-1 2,-12 0,-16 -3,-5 -8,-9 -9,-15 7,4 9,12 12,20 1,2 3,4 6,4 0,-10 -2,-15 -6,-21 -5,-7 -11,-10 -11,-17 9,3 10,17 16,18 2,-5 -1,-6 -1,-11 5,6 5,-10 -8,-26 -2,-3 -6,-5 -7,-9 7,1 12,15 16,20 3,2 6,1 5,-4 -2,-14 -18,-20 -18,-29 6,4 8,13 15,14 0,-9 -6,-15 -13,-20 -4,-3 -3,-1 -5,-7 9,1 15,19 24,20 -1,-14 -11,-19 -11,-20 2,-2 1,-1 5,-1 -1,-4 -4,-7 -7,-9 -7,-5 -3,-3 4,-3 0,-8 -7,-8 -7,-15 3,2 4,5 8,7 6,3 4,-4 2,-7 -2,-3 -6,-7 -7,-9 -1,-3 0,-1 1,-4 0,-3 -1,-4 -1,-7 4,2 5,5 6,10 4,-1 5,-4 6,-8 3,2 2,7 5,16 1,4 0,4 4,4 0,-4 -1,-4 1,-7 5,4 3,13 5,19 0,4 1,5 4,5 0,-3 1,-9 3,-10 0,4 0,15 5,15 4,-1 3,-5 3,-10l2 0c2,8 3,9 1,17 -1,7 -2,12 1,17 6,-4 5,-14 10,-20 0,8 2,14 3,20 5,0 2,-2 6,-5 1,3 -1,12 1,19l4 0c1,-2 1,-3 1,-6 6,4 3,12 3,20 1,1 3,1 4,2 3,1 4,7 7,9l0 -5c6,2 2,6 10,6 1,4 0,3 3,4 2,-6 2,-6 2,-14 2,1 4,4 6,6 10,4 -3,-22 -3,-23 16,11 2,-6 1,-10 -1,-4 3,-5 6,-6 -2,-5 -9,-6 -12,-11l6 0c0,-5 -4,-6 -7,-8 -3,-3 -6,-4 -7,-8 3,-2 5,-1 7,-4 -2,-8 -17,-5 -21,-11 2,0 4,-1 6,-2 3,0 4,0 5,-2 -4,-2 -7,-2 -11,-3 0,-5 0,-6 1,-10 -6,-3 -8,-3 -17,-3l6 -3c1,0 4,-2 3,-4 -2,-4 -8,1 -12,-5 3,-1 2,-1 3,-3 -5,-5 -8,-4 -16,-6 2,-6 4,-2 6,-7 -5,-3 -12,-2 -16,-4 3,-4 3,0 4,-4 -4,-2 -10,-3 -14,-3l0 -2c3,0 2,-1 6,-2l0 -2c-5,-1 -14,-2 -15,-3 -2,-3 -5,-11 -5,-15 5,4 11,12 17,14 0,-5 -4,-9 -5,-14 5,2 7,8 10,13 2,3 1,3 4,4l-2 -15c6,3 10,11 11,17 5,-1 5,-7 5,-11 3,2 3,6 8,7l1 -6c1,3 3,10 5,11 5,1 4,-8 4,-12 5,3 3,12 9,14 1,-2 2,-5 2,-7 5,0 5,3 6,8 1,4 2,6 6,7 1,-6 0,-4 0,-10 3,1 4,4 5,7 1,5 0,7 6,7l0 -14c5,1 5,5 6,9 1,3 1,4 2,6 1,3 1,4 4,4 1,-2 1,-7 2,-11 6,4 6,19 13,23 2,-3 2,-2 2,-7 0,-3 0,-6 0,-9l2 4c1,2 1,2 2,4 1,2 1,3 2,4 1,2 2,3 3,4 2,-4 0,-7 2,-11 3,2 4,6 5,10 0,4 0,9 4,10 0,-3 1,-7 2,-10 4,3 1,7 6,10 4,2 7,1 7,-3 0,-1 0,-1 1,-3 11,2 3,-7 2,-9 4,-3 4,-1 7,-3 -3,-8 -7,-10 -14,-14 0,-3 1,-3 1,-7l-6 -2c0,-4 4,-7 -3,-7 -4,0 -2,1 -6,1 -3,0 -3,-1 -6,-1 4,-5 8,-1 8,-9 -4,-1 -5,-1 -10,-1 0,-3 3,-3 2,-6 -3,-6 -20,1 -24,1 2,-2 2,-2 4,-4 4,-3 3,-6 -1,-6 -4,0 -11,2 -16,3 2,-2 3,-3 5,-5 11,-10 -12,-4 -15,-3l4 -5c11,-11 -13,-4 -14,-4 -2,-8 -7,-2 -13,-5 3,-5 5,-1 8,-5 -8,-2 -18,1 -28,1 3,-3 8,-2 8,-7 -6,-3 -16,3 -22,5 2,-4 8,-9 -5,-5 -2,1 -6,3 -9,2 -5,-1 0,-1 1,-5 -5,-2 -4,0 -8,1 -6,1 -3,-3 -2,-5 -8,1 -11,6 -19,6l0 -2c-11,0 -14,11 -20,0 2,-3 1,-1 3,-4 -1,-2 -4,-3 -6,-5 7,0 6,4 12,4 0,-11 -5,-7 -6,-13 7,0 9,1 15,1 -1,-5 -3,-3 -4,-9 2,1 17,7 17,1 0,-4 -1,-2 -2,-6 5,1 5,3 10,3 0,-3 -1,-4 -1,-7 6,1 6,11 16,6 -2,-6 -3,-4 -5,-8 4,0 8,5 11,3 2,-1 0,-3 -1,-4 -1,-3 -2,-1 -3,-6 6,1 7,4 11,6 5,1 5,-2 3,-4 -2,-3 -2,-1 -3,-4 9,2 7,10 15,11 2,-4 0,-5 0,-9 2,1 12,18 10,0 7,0 5,5 10,8 8,5 2,-7 3,-8 1,-4 8,11 13,9 3,-1 2,-3 1,-6 8,1 2,4 12,4 0,-4 0,-4 -2,-7 9,1 4,9 14,9l0 -3c4,3 7,10 12,7 0,0 0,-1 1,-1 0,0 0,0 0,0l5 -3c0,-6 -3,-11 -3,-17 -3,0 -5,-1 -7,-2l1 -1c1,-3 0,1 1,-4 -8,-5 -9,1 -18,-2 3,-4 7,-2 10,-7 -2,-1 -3,-1 -6,-2 1,-2 1,-2 1,-4 -7,0 -11,1 -17,1 3,-3 5,-1 5,-6 -7,-3 -24,11 -35,11 4,-5 19,-9 23,-15 -5,-2 -18,5 -24,5 2,-4 10,-5 10,-10 -9,0 -17,7 -26,9 2,-2 10,-6 8,-10 -2,-4 -20,13 -22,15 -2,2 -3,3 -5,5 -2,2 -3,3 -6,4 2,-4 5,-6 8,-10 2,-3 6,-6 6,-11 -16,1 -22,20 -27,26 -2,-5 -5,-11 1,-14 5,-4 11,-2 11,-10 -7,0 -12,5 -16,9 -6,8 -2,13 -5,20 -4,-2 -4,-2 -3,-7 1,-3 1,-7 2,-10 3,-9 6,-9 10,-15 -5,1 -9,3 -12,5 -4,3 -5,6 -9,9l0 -5c-5,1 -8,6 -18,6 5,-8 12,-6 18,-9 -3,-6 -9,-2 -14,-5 2,-5 5,1 18,-7 -2,-4 -3,-1 -4,-4 4,-1 9,-2 12,-5 2,-1 2,0 2,-4 -3,0 -6,-1 -9,-1l0 -3c3,0 7,-1 10,-1 4,-1 6,-2 9,-3l0 -3c-2,-1 -1,0 -2,-2 4,0 5,0 8,-1 -2,-5 -4,-2 -7,-6 6,-2 18,-2 20,-5 2,-3 -1,-1 -2,-4 8,0 13,1 18,-2 -1,-4 -3,0 -3,-5 3,-1 6,-1 9,-2 6,-1 3,-1 2,-5 6,0 21,0 24,-3 -3,-1 -7,-2 -9,-4 -4,-4 10,-1 -8,-9 -3,-1 -7,-5 -8,-5 -6,0 -2,2 -11,2l0 -3c-11,5 -5,2 -12,2 -4,-1 -7,5 -10,7 -4,-3 0,-5 -8,-5 0,6 -3,9 -3,13 -1,0 -1,-1 -1,-1 0,2 0,-5 -4,-7 -2,1 -3,3 -4,6 -1,6 1,8 -3,9 0,-5 1,-6 1,-12l-4 -3c-4,3 -5,7 -5,12 -1,4 2,10 2,15 -8,-5 -3,-10 -6,-16 -6,1 -4,10 -4,18l-1 0c0,-5 -2,-12 -3,-17 -5,2 -5,8 -5,13 -1,6 1,10 1,16l-2 -3c-2,-4 -1,-9 -3,-13 -7,1 -6,11 -6,19l-1 -3c-1,-1 -1,-1 -1,-3l-3 0c-1,4 -2,6 -1,10 1,5 1,4 1,10 -2,0 -2,1 -4,1 -4,-5 -2,-8 -5,-12 -3,2 -1,3 -3,6 -2,3 -3,2 -7,3l-5 20c-5,0 -2,-1 -6,-2 -3,3 -2,1 -3,6 -1,5 -1,4 -4,7 -3,-2 -1,-2 -4,-4 -3,-1 -3,0 -4,-5 -7,1 -2,6 -7,10 -2,-5 2,-20 2,-27 -4,0 -5,4 -6,-3 0,-3 0,-9 0,-12 -1,0 -2,1 -3,1 -1,-4 0,-2 0,-7 0,-3 0,-5 -1,-7 -3,1 -2,1 -3,5l-2 2c0,-5 1,-11 -1,-16 -1,-3 0,-3 -3,-4 -5,11 6,30 -8,34 0,-12 8,-18 2,-35 -1,-3 -2,-6 -5,-7l-1 0c0,-4 1,-10 -4,-12 -1,0 0,0 -1,0 -6,-1 2,1 -2,0 0,-5 1,-11 -2,-15 -2,-4 1,-1 -2,-2 -1,2 -2,5 -2,7l-2 0c-1,-5 0,-17 -2,-20 -4,3 -1,6 -6,9 -1,-4 -1,-8 -2,-11 0,0 0,-2 0,-2 -3,-3 -1,-1 -2,-1l-5 1c-1,-2 -1,-2 -1,-4l-3 4c-5,-1 -2,-3 -5,-2 -2,2 -2,4 -2,7 -5,0 -6,-5 -7,-1 0,5 4,1 4,8 -2,1 -1,0 -5,0 1,5 5,1 5,9l-3 0c0,5 1,6 4,8 3,1 6,2 7,4l-2 0c-2,1 -1,0 -3,2 1,5 3,6 7,8 4,2 7,1 7,6 -6,0 -8,-1 -10,3 1,3 3,3 6,4 3,1 6,2 9,3l0 2c-6,1 -11,-1 -14,1 1,7 11,3 12,9 -2,2 -6,1 -8,4 1,3 0,2 3,3 1,1 3,2 4,3 4,1 8,0 8,5 -4,0 -8,-1 -10,0 1,5 6,8 11,9 -1,6 -4,-1 -5,7 4,1 4,1 6,3 -4,6 -1,6 7,8 0,2 0,2 -1,4 4,0 4,1 7,1 -3,9 -13,-7 -14,5 4,1 11,1 12,6 -7,0 -4,-2 -9,-1 0,6 5,9 -1,10 -1,-4 0,-8 -3,-11 -2,-2 -2,-2 -3,-4 -2,-4 0,-3 -3,-6 -4,6 -1,4 -1,10 -2,-1 -1,0 -3,-2 -3,-4 -2,-10 -8,-10 -3,8 4,17 8,24 2,4 3,5 -2,6 -2,-6 -5,-13 -8,-19 -3,-7 -5,-12 -11,-16 0,10 8,14 5,24 -5,-2 -3,-7 -9,-19 -2,-4 -3,-6 -5,-9 -3,-3 -4,-6 -8,-7 0,9 8,12 10,20 0,1 0,5 0,6 -1,4 1,1 -2,3 -3,-12 -14,-37 -26,-38 0,7 5,7 8,13 4,5 5,8 5,17 -4,-3 -7,-22 -20,-31 -1,-1 -7,-6 -5,0 1,6 16,10 12,26l-2 0c-1,-7 -7,-16 -11,-20 -2,-3 -5,-5 -8,-7 -5,-4 -5,-3 -12,-3 -2,-4 -4,-4 -9,-4 1,4 1,3 1,7 -5,-4 -6,-7 -14,-7 1,6 7,7 11,10 6,3 8,5 8,13 -9,-6 -11,-19 -26,-19 0,5 2,5 6,7 3,2 6,6 0,5 -5,-1 -4,-11 -14,-12 -1,2 -1,2 -1,3l0 2c-3,-2 -4,-1 -7,-1 -2,2 -2,2 -2,5 -7,-2 -4,0 -9,2 -2,1 -2,1 -4,2 2,2 2,3 6,3 -1,5 -4,3 -2,10 7,0 7,-3 15,-3 -9,13 9,3 14,0 0,1 0,1 1,2 0,1 1,1 1,2 -2,3 -3,2 -3,6 8,5 10,-3 21,-1 -1,4 -4,3 -5,8 5,0 7,-1 12,-1 7,-1 7,-2 10,2 -4,1 -5,2 -5,7 10,0 11,-5 22,-2 -1,4 -4,3 -7,6 1,5 3,4 8,3 4,-1 3,-2 9,-2 -2,4 -6,3 -6,8 5,0 3,1 9,1 6,-1 5,0 10,0 -3,3 -6,1 -6,6l18 2c-1,2 -6,4 -1,5 3,1 6,0 10,1 -1,3 -3,3 -5,4 0,8 10,16 17,25 0,1 3,5 3,5 1,1 0,2 -2,3 -5,-1 -4,-1 -6,-5 -1,-3 -3,-6 -5,-8l-12 -12c-3,-4 -10,-3 2,8 5,5 8,8 8,16 -3,-1 -3,0 -5,-3 -4,-9 -10,-18 -18,-24 -4,-2 -8,-5 -12,-3 2,9 24,15 18,27 -2,-1 -2,-1 -4,-3 -6,-11 -14,-24 -29,-24 0,3 0,4 1,6 -4,0 -10,-8 -14,-4 -2,2 -1,1 0,5 -4,-2 -14,-7 -15,0 -3,-1 -5,-2 -9,-3 -4,-1 -7,-1 -12,-1 0,3 1,3 2,6 -3,0 -8,1 -10,2l0 3c9,2 18,4 20,15 -7,-2 -10,-9 -17,-12 -3,-1 -8,-3 -11,-3 -2,-1 -5,-1 -7,0 -2,0 -2,1 -3,4 7,1 22,5 24,12 -3,0 -6,-1 -8,-3 -8,-5 -17,-5 -26,-4 1,4 4,4 8,6 4,2 8,2 10,5 -5,0 -10,-2 -16,-3 -6,0 -11,-1 -16,1l4 4c1,1 0,0 2,1 -4,-1 -9,-2 -12,0 -4,2 -3,6 0,8 0,0 0,0 -1,0l0 1c-2,2 -1,0 -1,2l0 1c0,0 0,0 0,1 0,1 0,-1 -1,2 4,0 2,-1 4,2l-9 3c0,0 0,0 0,0 0,0 0,1 0,1 1,1 1,1 0,3 -1,2 -1,1 -2,5 5,0 5,-1 8,-1l0 1c1,2 0,2 2,3 4,-1 6,-7 11,-11l0 8c5,-1 6,-7 11,-9 0,5 -1,4 -1,9 3,1 5,1 6,2 1,1 -1,0 2,2 1,-2 1,-1 2,-4 3,-5 4,-11 10,-12 0,5 -3,6 -1,12 6,-2 7,-9 12,-12 0,4 -2,5 0,8 6,-2 4,-7 10,-8 -1,2 -1,3 -1,6 2,0 6,-2 7,-3l0 4c6,-4 8,-14 15,-15 -2,5 -5,8 -5,13 8,0 11,-11 19,-12 -1,2 -7,12 -4,14 2,1 6,-2 7,-3 2,-2 3,-4 5,-6 -1,5 -2,4 -2,11 10,-3 11,-15 21,-17 0,5 -2,5 -2,11 8,0 6,-6 14,-8 -1,4 -9,11 0,9 5,-1 8,-6 12,-7 -1,2 -1,3 -3,5 -1,3 -2,4 -2,7 3,-1 17,-10 13,-1 -2,2 -3,2 -6,3 1,4 2,3 2,9 -4,0 -4,-1 -7,-1 -1,2 -1,1 -1,4 -7,1 -16,2 -22,5 1,4 5,4 7,6 -2,0 -10,-2 -13,3 -1,1 -1,-1 0,1 0,0 0,1 0,1l1 1c-5,0 -13,1 -18,3 -3,1 -3,1 -4,4 7,0 32,-2 35,-1 4,1 6,4 0,4 -5,1 -8,-1 -11,-1 -10,0 -25,3 -35,4l0 2c9,0 19,2 29,2 -4,2 -14,2 -19,2 -4,1 -14,1 -17,5 5,1 8,-1 10,2 -5,1 -15,3 -16,8 8,0 18,1 27,1 -7,6 -24,2 -32,4 -4,1 -8,2 -9,5 11,1 22,2 34,2l0 1c-6,0 -5,1 -9,2 -11,1 -21,0 -31,4 -5,2 -5,3 -8,8 -1,1 -2,2 -3,3 -7,8 11,4 15,4 -1,1 -1,1 -3,2l-11 4c-5,1 -10,5 -11,10 9,0 21,-8 29,-10l-5 6c0,0 0,0 0,0 -5,5 -12,6 -18,8 -4,1 -6,1 -8,4 6,9 14,-7 20,-4 0,4 -2,4 -5,6 -3,1 -5,1 -8,3 -4,1 -10,5 -12,9 10,0 15,-5 25,-7 -5,7 -17,9 -23,14 -6,5 -13,23 4,12 -1,7 -11,19 1,22 0,-4 1,-3 1,-7 1,-4 0,-6 4,-7 0,4 0,3 1,6 4,-3 3,-6 4,-11l3 0c0,1 0,2 1,3 1,2 -1,1 2,2 2,-4 2,-14 5,-17 0,5 1,6 2,9l3 0c1,-4 2,-14 2,-19l2 0c0,5 1,5 2,9 3,-1 2,-1 3,-4 2,-6 3,-14 3,-21 1,1 0,0 1,2l2 7 3 0 2 -15c1,-4 -1,-3 3,-4 0,11 4,15 7,8 1,-1 2,-4 2,-5 1,-2 1,-3 2,-6l2 -6c0,4 -1,6 1,8 5,0 4,-6 5,-11 2,-4 2,-10 5,-12 1,3 2,6 2,8 1,5 0,6 4,7 0,-4 2,-20 5,-22 0,4 1,13 2,16 6,-4 6,-16 7,-22 5,3 1,9 6,12 3,-2 2,-6 3,-11 0,-3 2,-8 4,-10 0,5 -1,13 1,17 3,-3 6,-14 6,-18 5,3 -1,5 4,9 1,-7 5,-12 6,-19l2 0c0,6 -1,8 -1,10 0,5 4,1 8,0 -1,2 -1,2 -1,5 4,0 8,-3 11,-5 5,-3 7,-5 14,-5 -1,3 -1,3 -4,4 -8,3 -29,12 -29,22 0,3 2,1 5,1 -1,5 -5,4 -5,12l2 0z"/>
    <path class="fil1" d="M885 1141c6,2 7,3 5,10 -3,0 -5,-1 -6,-3 -2,-3 0,-5 1,-7zm-330 -8c1,13 6,2 5,13 -7,2 -7,-9 -6,-11 1,-3 0,-1 1,-2zm53 2c2,-3 2,-3 5,-2 1,2 1,1 0,5 -3,-1 -3,-1 -5,-3zm39 4c1,-5 5,-7 10,-7 -1,4 -5,7 -10,7zm185 1c-2,-3 0,-3 0,-5 1,-2 0,-2 -1,-4 5,2 6,8 1,9zm-201 -13l2 3 -2 4 -3 -2c-2,1 -3,2 -4,3l-5 -3c1,-4 2,-4 3,-6 2,2 2,2 4,3 3,-1 2,-1 5,-2zm84 5c-1,-3 -1,1 -2,-4 4,-2 6,-3 7,1 1,3 -1,1 1,4 1,1 0,-1 2,2 0,3 0,4 -3,4 -5,1 -5,-7 -5,-7zm198 -6c0,9 -5,26 -12,24l0 -5c1,-3 4,-6 5,-15 1,-8 0,-21 2,-26 6,1 8,12 9,20 -2,1 0,1 -2,1 -2,1 -1,0 -2,1zm-325 -17c-2,3 1,1 -2,3 -1,-1 -1,-1 -1,-2 -3,-4 -5,-1 -1,-6 2,2 1,-1 2,4 4,-3 3,-3 6,-2l-3 2c-1,0 0,0 -1,1zm-64 -9l9 3c-1,7 -3,11 -12,9l2 -5 -2 -1c-2,0 0,2 -2,-1l5 -5zm13 39c7,-7 3,-20 10,-24 10,-3 19,9 26,10 14,1 19,-8 24,-13 9,1 5,9 15,5 2,-8 -7,-14 -2,-22 2,2 8,16 11,19l5 0c1,-3 0,-3 0,-6 1,-2 1,-2 1,-2 3,3 7,8 3,13 -3,6 -9,1 -12,1 -3,2 -2,6 -8,7 -6,0 -8,-2 -13,-3 -5,7 -12,10 -24,10 -15,0 -12,-11 -23,-11 -7,9 -1,20 -15,25 -5,-2 -14,-11 -13,-18 7,2 8,9 15,9zm12 -40c2,2 3,2 2,5 -5,3 -3,-3 -7,4l-6 -4 3 -4c2,1 1,1 4,2l4 -3zm304 5c0,-5 1,-10 3,-12 7,1 5,8 7,13 3,-3 3,-7 7,-9 4,-2 6,2 7,5 -7,7 -4,-7 -11,12 -3,8 -2,8 -5,8 0,0 -3,-14 -3,-16 -3,-1 -2,1 -5,-1zm-73 2c-3,-6 3,-1 0,-10 2,1 3,2 3,6 0,3 0,4 -3,4zm-21 -12c1,-3 1,-2 4,-4l5 4 -4 4 -5 -2c-4,2 -3,3 -7,0l3 -3c2,-1 0,0 4,1zm-71 11c1,-4 1,-4 5,-6 2,-1 4,-2 6,-3 11,-6 10,-7 13,-3 -1,2 1,0 -6,4 -5,2 -13,6 -18,8zm114 -1c-6,-22 13,-18 16,2 2,15 -10,12 -9,22 6,2 14,-2 19,-5 10,-9 0,-25 -1,-29 -1,-5 2,-6 5,-4 5,4 5,14 6,20 1,12 3,11 10,16 5,3 15,4 22,4 27,0 8,-22 18,-33 4,1 5,5 7,9 3,8 0,7 -4,10 -2,27 -19,26 -43,19 -10,-3 -13,-14 -23,-5 -4,4 -5,6 -13,5 -12,-1 -8,-3 -9,-8 -4,2 -2,4 -11,4 -6,0 -12,1 -14,-3 7,-4 24,-2 35,-19 -8,1 -9,3 -11,-5zm-240 3c-1,-6 0,-4 11,-11 4,-3 10,-7 16,-8 -1,6 -1,5 -5,8l-22 11zm283 -6c-3,-7 3,-2 -1,-10 2,2 3,2 4,5 1,4 0,5 -3,5zm-219 -10c-2,-4 1,-5 5,-7l7 3c-1,8 -4,11 -12,10l2 -6c-2,-1 1,0 -2,0zm35 3c-1,-1 -1,2 -1,-3 0,-4 3,-1 0,-7 2,1 3,2 4,4 1,4 0,5 -3,6zm78 -16c10,9 3,11 5,17 1,4 4,3 2,9 -2,4 -2,6 -5,7 -3,-4 -3,-13 -4,-19 -2,-8 -6,-12 2,-14zm-36 35c0,-10 9,-11 16,-15 9,-5 -3,-14 3,-24 2,1 8,8 8,9 -2,4 -2,1 -2,5 0,0 1,7 1,7 1,6 5,3 5,10 -5,0 -8,-6 -16,0 6,4 15,4 21,8 -2,5 -2,4 -8,4l0 7c2,1 4,2 7,3 6,-5 9,-19 18,-21 5,3 4,10 12,11 7,0 13,-3 17,-5 14,-9 -5,-23 4,-34 2,2 3,3 5,6 -1,5 -3,0 0,8 3,9 2,22 -5,27 -2,2 -16,5 -19,5 -4,0 -7,-2 -9,-3 -3,-2 -4,-4 -4,-7 0,0 0,0 -1,-1 -3,3 -8,7 -10,10 -3,4 -6,10 -9,12 -9,-1 -7,-9 -8,-16 -10,-4 -12,-1 -20,3 -17,6 -20,0 -22,0 -5,2 -5,6 -13,6 -11,1 -7,-2 -12,-6 -5,2 -14,14 -23,8 -9,-7 -2,-20 2,-23 1,7 -3,7 -1,14 7,3 16,-2 19,-7 1,-5 -7,-16 -8,-19l1 -3c10,-2 13,24 21,29 3,-17 -13,-42 -1,-46 9,8 0,22 14,39 3,4 20,3 25,0l-8 -1zm-21 -19c1,-4 0,-4 4,-5 5,-3 14,-8 18,-9l2 2c-2,3 -20,11 -24,12zm135 -3c-3,-6 2,-2 -1,-10 3,2 3,2 4,5 1,4 -1,5 -3,5zm-63 -3c0,-7 3,-2 1,-9 1,1 3,2 3,5 1,4 -1,4 -4,4zm-268 6l33 84c7,-1 29,-8 44,-11 90,-20 216,-19 307,-1 8,2 15,4 23,6 7,2 15,4 22,6l33 -84c-76,-23 -143,-35 -231,-35 -86,0 -157,12 -231,35z"/>
    <path class="fil2" d="M274 837c-3,-4 -5,-9 -7,-13 -9,-16 -16,-21 -24,-35 -8,-14 -7,-13 1,-26 13,-20 20,-28 35,-44 9,-10 31,-30 39,-40l17 -22c2,2 6,14 7,18 6,12 22,35 30,42 0,7 -13,24 -19,30l-10 11c-2,2 -4,3 -7,6l-26 29c-8,9 -17,18 -25,29 -3,4 -8,11 -11,15zm155 -116l-1 -2 -1 -1c-2,-2 -4,-5 -6,-8 -20,-24 -38,-55 -52,-83 -5,-11 -16,-37 -18,-49l0 -1 -1 -1c-1,-2 0,-1 -2,-3 -5,7 -10,14 -16,22 -9,11 -12,14 -17,21 -8,10 -29,30 -38,39l-23 23c-2,2 -3,3 -5,5l-10 11c-17,18 -35,43 -49,65 -3,4 -5,7 -7,11 -5,8 -3,6 0,13 10,24 44,71 59,95 6,10 9,17 14,25 3,4 4,7 6,12 1,3 2,5 3,7 1,2 2,5 3,7 2,-2 7,-10 9,-13 4,-5 7,-9 10,-14l68 -82c18,-20 69,-76 74,-99z"/>
    <path class="fil2" d="M1067 717c3,-3 8,-9 11,-13 23,-29 20,-39 26,-47 2,2 6,8 8,11 17,22 31,32 48,51 6,7 13,13 19,21 3,3 23,31 23,35 1,7 -19,32 -22,37 -9,12 -9,17 -14,25 -4,-4 -8,-11 -12,-16 -12,-14 -15,-18 -26,-29l-13 -14c-9,-10 -47,-48 -48,-61zm22 -141l-1 1 0 1c-7,33 -34,82 -53,109 -3,4 -20,29 -23,31l-1 1 -1 2c4,16 27,44 36,56l21 25c41,45 56,61 94,113 3,4 8,12 10,14 1,-4 4,-10 6,-13 2,-5 3,-8 6,-13l14 -24c14,-23 49,-72 59,-95 3,-9 7,-5 -6,-24 -12,-18 -19,-29 -32,-45l-45 -50c-2,-2 -3,-3 -5,-5 -6,-4 -39,-38 -43,-43 -8,-11 -16,-18 -26,-32 -3,-4 -5,-8 -8,-12 -2,2 -1,1 -2,3z"/>
    <path class="fil3" d="M532 869c9,34 19,58 43,83 3,4 6,7 8,10 2,0 2,0 2,1l4 4c6,-3 22,-19 28,-25 4,-3 8,-4 9,-9 1,2 4,3 6,5 4,2 4,1 6,5 2,1 11,6 13,9 2,1 3,1 5,2l6 4 17 7c4,1 18,4 20,6l31 4 34 -1c18,-1 31,-6 46,-10 6,-3 13,-5 19,-9 45,-23 77,-74 81,-125 -4,2 -7,10 -9,14l-21 37c-2,2 -3,5 -5,6l0 1c-4,8 -23,25 -31,30 -22,14 -39,19 -67,21 -17,1 -33,-2 -47,-3 -5,-1 -17,-4 -21,-7 -19,-4 -44,-23 -57,-39 -2,-3 -3,-6 -7,-8 1,4 0,3 -8,7l-22 11c-2,1 -3,2 -6,3 -3,1 -4,1 -6,2 -3,-3 -7,-9 -9,-13 -2,-7 -8,-13 -10,-21 -2,-4 -5,-11 -5,-16 -3,-5 -5,-17 -6,-23 -1,-5 -3,-25 -1,-30 -1,-3 0,-10 1,-13l1 -5c-1,-5 4,-24 7,-28l10 -24c1,-1 1,-2 2,-3l3 -4c1,-7 16,-25 21,-31 2,-2 3,-3 5,-5 4,-3 2,-3 9,-8 27,-22 53,-39 92,-43 31,-3 38,2 63,8l-3 1c2,1 6,1 9,1 -4,-4 -23,-10 -29,-12 -8,-2 -28,-6 -37,-5l-13 0c-25,-2 -62,11 -84,22 -58,29 -87,79 -98,142 -3,16 -4,34 -2,50l3 24z"/>
    <path class="fil4" d="M695 1159l-25 1c1,4 14,27 17,33l6 11c11,20 17,23 6,50 -8,20 -21,36 -41,41 -17,4 -20,-2 -20,15 0,7 -1,10 1,15 7,1 12,-1 21,0l39 7c16,3 16,3 30,2l39 -7c13,-3 28,-1 32,-2 1,-4 4,-25 -3,-27 -5,-2 -38,3 -57,-43 -10,-25 -6,-30 6,-51 2,-3 3,-7 5,-10 4,-6 17,-31 18,-34l-25 -1 -10 18 -1 -18c-3,-1 -25,-1 -27,0l-1 18c-1,-1 0,1 -1,-1l-9 -17z"/>
    <path class="fil5" d="M408 1160c0,-1 0,-1 0,-1 17,-10 67,-29 83,-33 6,16 12,32 19,48 5,15 2,12 17,16 7,2 20,5 26,7 -9,4 -21,6 -31,10 -33,11 -55,19 -87,33l26 -62 -55 -17 2 -1zm473 37c8,-3 18,-5 27,-7 7,-2 10,-2 12,-5l23 -59c15,4 30,10 44,16l39 17c2,2 1,1 2,2l-55 17c1,5 4,11 6,16l13 30c2,4 6,11 7,15l-58 -22 -60 -20zm-395 -103c74,-23 145,-35 231,-35 88,0 155,12 231,35l-33 84c-7,-2 -15,-4 -22,-6 -8,-2 -15,-4 -23,-6 -91,-18 -217,-19 -307,1 -15,3 -37,10 -44,11l-33 -84zm151 -37l-23 2c-18,2 -52,8 -71,12l-65 18c0,5 3,12 5,16l5 16c-4,1 -9,2 -13,4l-39 14c-8,4 -43,20 -47,25 5,1 11,3 16,4l31 9c4,2 12,4 15,6 0,3 -5,14 -6,17l-22 52 34 -14c22,-10 67,-26 91,-32 6,-2 15,-5 20,-5 -1,-4 -3,-9 -4,-13 -2,-5 -4,-9 -5,-14l26 -5c16,-3 54,-8 70,-8 3,0 11,-1 15,-1l25 -1 11 0c2,-1 24,-1 27,0l11 0 25 1 20 2c11,1 21,1 35,3 9,1 18,3 26,4 7,1 20,3 25,6 -2,3 -9,22 -9,26 6,0 14,3 20,5 14,3 41,12 55,18 6,2 12,4 18,6l52 22c-3,-5 -5,-12 -7,-17 -3,-6 -5,-12 -7,-17 -3,-6 -14,-30 -15,-35 11,-5 61,-18 62,-19 -6,-9 -77,-38 -99,-43 3,-6 9,-25 12,-31 -14,-7 -81,-22 -97,-25l-35 -5c-6,0 -19,-1 -23,-3l-70 -4 -25 0c-14,0 -54,2 -70,4z"/>
    <path class="fil0" d="M1126 763c-12,-12 -10,-41 10,-38 5,1 11,4 13,8 -27,0 -22,10 -23,30zm-59 -46c1,13 39,51 48,61l13 14c11,11 14,15 26,29 4,5 8,12 12,16 5,-8 5,-13 14,-25 3,-5 23,-30 22,-37 0,-4 -20,-32 -23,-35 -6,-8 -13,-14 -19,-21 -17,-19 -31,-29 -48,-51 -2,-3 -6,-9 -8,-11 -6,8 -3,18 -26,47 -3,4 -8,10 -11,13z"/>
    <path class="fil0" d="M313 763c-1,-19 4,-30 -23,-30 4,-7 19,-13 27,-2 7,9 2,26 -4,32zm-39 74c3,-4 8,-11 11,-15 8,-11 17,-20 25,-29l26 -29c3,-3 5,-4 7,-6l10 -11c6,-6 19,-23 19,-30 -8,-7 -24,-30 -30,-42 -1,-4 -5,-16 -7,-18l-17 22c-8,10 -30,30 -39,40 -15,16 -22,24 -35,44 -8,13 -9,12 -1,26 8,14 15,19 24,35 2,4 4,9 7,13z"/>
    <path class="fil6" d="M348 573c2,2 1,1 2,3l1 1 0 1c2,2 3,5 5,9 2,3 3,5 5,8l57 105c2,3 3,5 5,9 1,3 3,6 4,9l1 1 1 2c1,2 2,3 3,5 1,2 2,3 3,5 2,4 4,7 6,11 2,3 3,7 5,10 3,4 4,7 6,11l159 290c2,3 2,4 3,6l23 -2c-7,-14 -24,-43 -33,-58l-19 -36 -2 -1c-2,-3 -5,-6 -8,-10 -24,-25 -34,-49 -43,-83l-130 -230c-4,-7 -7,-12 -11,-19 -8,-13 -26,-48 -33,-58 4,-3 9,-12 3,-17 -5,-4 -15,-1 -20,2 -15,9 -17,28 6,22l1 4z"/>
    <path class="fil6" d="M909 866l0 1c-2,25 -22,61 -38,80l-18 20 -1 1 -37 66c-4,8 -9,15 -13,23 4,2 17,3 23,3 6,-13 21,-38 28,-53l38 -69c1,-2 2,-3 3,-5l20 -37c1,-2 2,-4 3,-6l87 -158c1,-2 2,-4 2,-5 1,-1 1,-2 2,-3 1,-1 1,-2 2,-3l1 -2 1 -1c1,-4 17,-31 19,-35l19 -35c4,-8 36,-68 38,-70l0 -1 1 -1c1,-2 0,-1 2,-3l1 -4c8,2 17,3 17,-7 0,-12 -22,-24 -31,-17 -6,5 -1,14 3,17 -2,3 -4,6 -5,9l-48 86c-4,6 -7,12 -11,19 -14,23 -29,52 -43,76l-32 57c-2,3 -3,6 -5,9l-11 19c-2,3 -3,6 -5,10l-10 18c-2,1 -1,0 -2,1z"/>
    <path class="fil1" d="M406 1161l55 17 -26 62c32,-14 54,-22 87,-33 10,-4 22,-6 31,-10 -6,-2 -19,-5 -26,-7 -15,-4 -12,-1 -17,-16 -7,-16 -13,-32 -19,-48 -16,4 -66,23 -83,33 0,0 0,0 0,1l-2 1z"/>
    <path class="fil1" d="M881 1197l60 20 58 22c-1,-4 -5,-11 -7,-15l-13 -30c-2,-5 -5,-11 -6,-16l55 -17c-1,-1 0,0 -2,-2l-39 -17c-14,-6 -29,-12 -44,-16l-23 59c-2,3 -5,3 -12,5 -9,2 -19,4 -27,7z"/>
    <path class="fil7" d="M754 775c0,7 5,14 5,21 -9,-6 -22,-19 -31,-21 -2,-1 -3,-1 -4,-2l-4 -2c-2,-1 -5,-2 -7,-3 -4,-2 -4,-1 -6,-3 0,0 0,0 0,-1 0,0 -1,0 -1,0l-20 6c3,1 6,1 8,3 4,1 0,0 4,2 1,0 2,0 4,1l38 16c8,3 6,2 7,4l12 1 -28 19c-4,2 -3,0 -16,9l-2 2 0 30 0 8c1,-3 30,-35 34,-41 2,2 1,0 1,3 3,-3 5,-10 6,-14 2,-6 3,-12 6,-15l16 54c4,0 12,4 16,5 4,2 14,6 18,6 -1,-5 -18,-30 -21,-35 -2,-3 -6,-11 -8,-12 1,-2 0,-1 2,-1 0,0 -1,-1 -1,-1l-10 -8c-4,-3 -8,-6 -11,-9l56 0c2,-2 3,-4 5,-6 2,-3 4,-5 6,-7 4,-5 7,-10 11,-15 -10,3 -19,5 -29,8 -5,1 -10,2 -15,3 -3,1 -5,1 -8,2 -7,2 -5,3 -6,0 -6,2 -13,11 -20,13 1,-5 3,-11 4,-15l2 -56c-3,-4 -6,-11 -10,-14l-3 65z"/>
    <path class="fil8" d="M596 725c2,4 13,-5 15,-6 1,-1 2,0 3,-1 3,-1 22,-12 33,-17 2,0 -1,2 1,0l12 -13c14,-13 17,-14 33,-24 4,-2 16,-8 20,-8 2,-2 3,-2 6,-3l0 13 1 -11 23 81c3,-4 0,-16 1,-22 0,-6 2,-15 2,-22 -1,-3 -7,-11 -10,-14 -2,-3 -3,-5 -5,-8 -1,-2 -4,-6 -4,-8 -3,-2 -6,-7 -7,-10l7 -1c6,-3 18,-4 26,-5 10,-1 22,0 30,1l3 -1c-25,-6 -32,-11 -63,-8 -39,4 -65,21 -92,43 -7,5 -5,5 -9,8 -2,2 -3,3 -5,5 -5,6 -20,24 -21,31z"/>
    <path class="fil9" d="M910 830c-4,51 -36,102 -81,125 -6,4 -13,6 -19,9l1 2c-4,2 -3,1 -6,5 -4,4 -4,3 -7,6 -3,2 -3,3 -7,6 -4,3 -3,3 -6,6 -3,3 -4,1 -7,5 -5,6 -2,3 -6,6 -3,2 -4,4 -7,6l-6 6 4 0c5,2 20,-5 26,-7 22,-8 40,-19 58,-33 2,-2 3,-3 5,-4 0,-2 0,-1 1,-1l18 -20c16,-19 36,-55 38,-80l0 -1c0,-7 2,-13 2,-20 0,-3 0,-7 0,-11 0,-2 -1,-11 -1,-5z"/>
    <path class="fil3" d="M767 724l-2 56c-1,4 -3,10 -4,15 7,-2 14,-11 20,-13 6,-3 20,-15 26,-17 11,-8 24,-16 36,-24 6,-5 12,-9 18,-13 6,-4 13,-9 19,-12 1,0 1,1 1,-1 -8,2 -16,4 -25,7l-51 14c-4,1 -9,2 -13,3 -3,1 -11,3 -13,4 -3,-7 -8,-13 -12,-19z"/>
    <path class="fil3" d="M719 666l-4 95 -3 1c-2,0 -4,1 -6,2 0,0 1,0 1,0 0,1 0,1 0,1 2,2 2,1 6,3 2,1 5,2 7,3l4 2c1,1 2,1 4,2 9,2 22,15 31,21 0,-7 -5,-14 -5,-21l-11 -39 -23 -81 -1 11z"/>
    <path class="fil5" d="M703 1113l8 1c-5,3 -22,4 -25,0 -14,-17 -5,-31 -14,-39 -12,4 4,29 1,46 -8,-5 -11,-31 -21,-29l-1 3c1,3 9,14 8,19 -3,5 -12,10 -19,7 -2,-7 2,-7 1,-14 -4,3 -11,16 -2,23 9,6 18,-6 23,-8 5,4 1,7 12,6 8,0 8,-4 13,-6 2,0 5,6 22,0 8,-4 10,-7 20,-3 1,7 -1,15 8,16 3,-2 6,-8 9,-12 2,-3 7,-7 10,-10 1,1 1,1 1,1 0,3 1,5 4,7 2,1 5,3 9,3 3,0 17,-3 19,-5 7,-5 8,-18 5,-27 -3,-8 -1,-3 0,-8 -2,-3 -3,-4 -5,-6 -9,11 10,25 -4,34 -4,2 -10,5 -17,5 -8,-1 -7,-8 -12,-11 -9,2 -12,16 -18,21 -3,-1 -5,-2 -7,-3l0 -7c6,0 6,1 8,-4 -6,-4 -15,-4 -21,-8 8,-6 11,0 16,0 0,-7 -4,-4 -5,-10 0,0 -1,-7 -1,-7 0,-4 0,-1 2,-5 0,-1 -6,-8 -8,-9 -6,10 6,19 -3,24 -7,4 -16,5 -16,15z"/>
    <path class="fil3" d="M783 815c4,3 39,30 43,34l47 37c-1,-4 -11,-18 -13,-22 -6,-9 -41,-62 -43,-67l-56 0c3,3 7,6 11,9l10 8c0,0 1,1 1,1z"/>
    <path class="fil3" d="M748 827l-9 27 -27 73c2,-3 6,-7 9,-10 2,-4 7,-9 9,-11l39 -48c2,-1 2,-2 3,-3 2,-3 1,-2 4,-3l-16 -54c-3,3 -4,9 -6,15 -1,4 -3,11 -6,14z"/>
    <path class="fil3" d="M711 827l2 0 2 -2c13,-9 12,-7 16,-9l28 -19 -12 -1 -23 -1c-7,0 -50,-1 -53,-3 -9,2 -41,-1 -52,-1l88 35c4,1 1,1 4,1z"/>
    <path class="fil10" d="M730 975c-6,2 -4,-1 -8,3 -7,5 -22,20 -29,25 -4,4 -7,8 -12,10 2,0 1,-1 3,0 2,1 1,1 2,2 3,2 17,3 22,3l23 0c-1,0 -1,0 -1,0 -4,-2 -1,-2 -12,-2 6,-3 14,-11 18,-15 5,-5 27,-23 28,-27l-34 1z"/>
    <path class="fil5" d="M809 1128c-1,-10 11,-7 9,-22 -3,-20 -22,-24 -16,-2 2,8 3,6 11,5 -11,17 -28,15 -35,19 2,4 8,3 14,3 9,0 7,-2 11,-4 1,5 -3,7 9,8 8,1 9,-1 13,-5 10,-9 13,2 23,5 24,7 41,8 43,-19 4,-3 7,-2 4,-10 -2,-4 -3,-8 -7,-9 -10,11 9,33 -18,33 -7,0 -17,-1 -22,-4 -7,-5 -9,-4 -10,-16 -1,-6 -1,-16 -6,-20 -3,-2 -6,-1 -5,4 1,4 11,20 1,29 -5,3 -13,7 -19,5z"/>
    <path class="fil11" d="M764 974c-1,4 -23,22 -28,27 -4,4 -12,12 -18,15 11,0 8,0 12,2 0,0 0,0 1,0l1 0c4,0 27,-2 31,-6l-4 0 6 -6c3,-2 4,-4 7,-6 4,-3 1,0 6,-6 3,-4 4,-2 7,-5 3,-3 2,-3 6,-6 4,-3 4,-4 7,-6 3,-3 3,-2 7,-6 3,-4 2,-3 6,-5l-1 -2c-15,4 -28,9 -46,10z"/>
    <path class="fil12" d="M657 1007c1,1 0,1 3,2 4,2 21,6 26,6 -1,-1 0,-1 -2,-2 -2,-1 -1,0 -3,0 5,-2 8,-6 12,-10 7,-5 22,-20 29,-25 4,-4 2,-1 8,-3l-31 -4c-5,0 -4,0 -7,3l-35 32c0,0 0,0 0,0 0,0 0,0 0,0 0,0 0,1 0,1z"/>
    <path class="fil13" d="M572 802c-2,5 0,25 1,30l3 2c5,-2 28,-14 33,-18 1,0 1,0 1,0 1,-1 1,-1 2,-1 1,-1 3,-2 6,-2 0,-4 0,-7 -1,-11l0 -9c0,-3 0,-1 1,-2l0 -1c-1,-1 0,-1 0,-2 0,0 0,-1 0,-2 0,-2 0,-4 0,-7l-1 2c0,0 0,0 0,1 -1,0 -1,0 -1,0 0,2 0,3 0,4 -4,2 -6,2 -11,5l-32 17 -1 -6z"/>
    <path class="fil14" d="M581 756c-3,4 -8,23 -7,28 2,1 9,-3 11,-4 4,-2 7,-4 12,-6 8,-4 15,-8 24,-12 1,-2 1,-5 2,-7 1,-4 1,-5 2,-8l6 -17c-1,0 -1,1 -1,1 0,0 -1,0 -1,0l-5 4c-10,4 -38,20 -43,21z"/>
    <path class="fil5" d="M612 1117c-10,4 -6,-4 -15,-5 -5,5 -10,14 -24,13 -7,-1 -16,-13 -26,-10 -7,4 -3,17 -10,24 -7,0 -8,-7 -15,-9 -1,7 8,16 13,18 14,-5 8,-16 15,-25 11,0 8,11 23,11 12,0 19,-3 24,-10 5,1 7,3 13,3 6,-1 5,-5 8,-7 3,0 9,5 12,-1 4,-5 0,-10 -3,-13 0,0 0,0 -1,2 0,3 1,3 0,6l-5 0c-3,-3 -9,-17 -11,-19 -5,8 4,14 2,22z"/>
    <path class="fil15" d="M584 871c2,8 8,14 10,21 6,0 27,-12 33,-16 6,-2 10,-3 10,-6 1,-4 -4,-8 -7,-17 -2,-4 -1,-3 -4,-5 1,4 2,2 -3,5 -2,1 -3,1 -5,2l-34 16z"/>
    <path class="fil16" d="M573 832c1,6 3,18 6,23l1 1c0,0 1,1 1,1 4,-1 8,-2 11,-4 3,-2 1,-2 4,-4 2,-1 4,-2 6,-3 4,-2 7,-3 11,-5 2,-1 3,-2 5,-3 2,-1 3,-1 4,-3 1,-4 -2,-9 -3,-16l-1 -6c-3,0 -5,1 -6,2 -1,0 -1,0 -2,1 0,0 0,0 -1,0 -5,4 -28,16 -33,18l-3 -2z"/>
    <path class="fil17" d="M596 725l-3 4c-1,1 -1,2 -2,3l-10 24c5,-1 33,-17 43,-21l5 -4c0,0 1,0 1,0 0,0 0,-1 1,-1l7 -14c3,-5 7,-9 9,-15 -11,5 -30,16 -33,17 -1,1 -2,0 -3,1 -2,1 -13,10 -15,6z"/>
    <path class="fil18" d="M574 784l-1 5c-1,3 -2,10 -1,13l1 6 32 -17c5,-3 7,-3 11,-5 0,-1 0,-2 0,-4 0,0 0,0 1,0 0,-1 0,-1 0,-1l1 -2c1,-2 3,-14 3,-17 -9,4 -16,8 -24,12 -5,2 -8,4 -12,6 -2,1 -9,5 -11,4z"/>
    <path class="fil19" d="M810 863c0,1 0,0 0,1l30 11c-1,-3 -12,-22 -15,-24 0,-3 -1,-1 1,-2 -4,-4 -39,-31 -43,-34 -2,0 -1,-1 -2,1 2,1 6,9 8,12 3,5 20,30 21,35z"/>
    <path class="fil20" d="M626 993c0,1 -1,0 2,2 2,1 3,2 4,2 3,2 6,4 10,4 0,-3 -1,-1 1,-3l22 -20c3,-2 3,-2 5,-4 5,-5 7,-5 9,-9l-17 -7c-4,3 -6,5 -9,8 -6,6 -25,21 -28,25 1,0 0,0 1,2z"/>
    <path class="fil6" d="M707 1053l25 0 0 -35 -1 0 -23 0c-1,6 -1,10 -1,17 0,6 0,12 0,18z"/>
    <path class="fil18" d="M710 922l0 7c3,-1 1,0 2,-2l27 -73c-3,1 -3,2 -4,3l-23 26 1 -26 0 -30 -2 0c0,15 0,33 -1,47 -1,9 -1,39 0,48z"/>
    <path class="fil16" d="M642 1001c1,1 -1,0 2,2 2,1 3,1 4,2 3,1 5,2 9,2 0,0 0,-1 0,-1 0,0 0,0 0,0 0,0 0,0 0,0l35 -32c3,-3 2,-3 7,-3 -2,-2 -16,-5 -20,-6 -2,4 -4,4 -9,9 -2,2 -2,2 -5,4l-22 20c-2,2 -1,0 -1,3z"/>
    <path class="fil10" d="M807 765c1,1 2,1 4,0l27 -6c1,-1 3,-1 5,-2 2,0 4,-1 5,0 2,-3 6,-7 8,-10 4,-4 23,-26 24,-31 -6,3 -13,8 -19,12 -6,4 -12,8 -18,13 -12,8 -25,16 -36,24z"/>
    <path class="fil21" d="M602 977c0,2 3,3 4,4 1,0 3,2 3,2 4,2 0,1 4,2 1,-3 11,-11 14,-13 2,-2 2,-3 4,-4l15 -13c2,-2 1,-3 5,-3 -2,-3 -11,-8 -13,-9 -3,0 -3,1 -5,3 -8,6 -19,18 -29,25 -2,2 -3,3 -2,6z"/>
    <path class="fil22" d="M594 892c2,4 6,10 9,13 2,-1 3,-1 6,-2 3,-1 4,-2 6,-3l22 -11c8,-4 9,-3 8,-7 0,-3 -5,-10 -8,-12 0,3 -4,4 -10,6 -6,4 -27,16 -33,16z"/>
    <path class="fil23" d="M579 855c0,5 3,12 5,16l34 -16c2,-1 3,-1 5,-2 5,-3 4,-1 3,-5 1,-3 0,-4 -1,-7 0,0 -1,-3 -1,-3 -1,-3 -1,-2 -2,-3 -1,2 -2,2 -4,3 -2,1 -3,2 -5,3 -4,2 -7,3 -11,5 -2,1 -4,2 -6,3 -3,2 -1,2 -4,4 -3,2 -7,3 -11,4 0,0 -1,-1 -1,-1l-1 -1z"/>
    <path class="fil24" d="M743 736l11 39 3 -65c-1,-3 -3,-6 -5,-9 -2,-2 -4,-7 -6,-9 0,7 -2,16 -2,22 -1,6 2,18 -1,22z"/>
    <path class="fil7" d="M613 985c1,2 0,0 2,2 1,1 2,1 3,2 4,2 4,3 8,4 -1,-2 0,-2 -1,-2 3,-4 22,-19 28,-25 3,-3 5,-5 9,-8l-6 -4c-2,-1 -3,-1 -5,-2 -4,0 -3,1 -5,3l-15 13c-2,1 -2,2 -4,4 -3,2 -13,10 -14,13z"/>
    <path class="fil25" d="M589 967c2,2 4,3 6,5 1,1 1,1 3,2 2,2 1,1 4,3 -1,-3 0,-4 2,-6 10,-7 21,-19 29,-25 2,-2 2,-3 5,-3 -2,-4 -2,-3 -6,-5 -2,-2 -5,-3 -6,-5 -1,5 -5,6 -9,9 -6,6 -22,22 -28,25z"/>
    <path class="fil26" d="M654 779c2,3 0,1 5,3l9 4c2,1 5,2 8,3l7 3c-4,0 -8,-1 -12,0 3,2 46,3 53,3 -3,-3 -3,-1 -8,-4 -7,-3 -5,-2 -11,-4l-31 -13c-5,0 -15,4 -20,5z"/>
    <path class="fil27" d="M807 765c-6,2 -20,14 -26,17 1,3 -1,2 6,0 3,-1 5,-1 8,-2 5,-1 10,-2 15,-3 10,-3 19,-5 29,-8 1,-2 3,-4 5,-6 1,-2 3,-4 4,-6 -1,-1 -3,0 -5,0 -2,1 -4,1 -5,2l-27 6c-2,1 -3,1 -4,0z"/>
    <path class="fil27" d="M713 857l-1 26 23 -26c1,-1 1,-2 4,-3l9 -27c0,-3 1,-1 -1,-3 -4,6 -33,38 -34,41l0 -8z"/>
    <path class="fil28" d="M674 774l31 13c6,2 4,1 11,4 5,3 5,1 8,4l23 1c-1,-2 1,-1 -7,-4l-38 -16c-2,-1 -3,-1 -4,-1 -4,-2 0,-1 -4,-2 -2,-2 -5,-2 -8,-3l-12 4z"/>
    <path class="fil6" d="M713 656c-1,16 1,36 -1,52 -1,16 0,37 0,54l3 -1 4 -95 0 -13c-3,1 -4,1 -6,3z"/>
    <path class="fil29" d="M618 790l0 1 1 0c11,0 43,3 52,1 4,-1 8,0 12,0l-7 -3c-3,-1 -6,-2 -8,-3l-9 -4c-5,-2 -3,0 -5,-3 -2,1 -7,2 -9,3 -3,0 -6,1 -9,2 -5,2 -14,4 -18,6z"/>
    <path class="fil30" d="M1126 763c1,-20 -4,-30 23,-30 -2,-4 -8,-7 -13,-8 -20,-3 -22,26 -10,38z"/>
    <path class="fil10" d="M840 875c5,2 12,5 17,6 3,2 5,2 9,4 3,1 5,2 9,3l0 -1 -2 -1 -47 -37c-2,1 -1,-1 -1,2 3,2 14,21 15,24z"/>
    <path class="fil30" d="M313 763c6,-6 11,-23 4,-32 -8,-11 -23,-5 -27,2 27,0 22,11 23,30z"/>
    <path class="fil5" d="M913 1126c1,-1 0,0 2,-1 2,0 0,0 2,-1 -1,-8 -3,-19 -9,-20 -2,5 -1,18 -2,26 -1,9 -4,12 -5,15l0 5c7,2 12,-15 12,-24z"/>
    <path class="fil6" d="M714 599c0,6 0,11 0,16 0,7 -1,10 -1,16l13 0 0 -19c-1,-5 -4,-10 -5,-13 -6,1 0,1 -5,3 -1,-3 -1,-2 -2,-3z"/>
    <path class="fil6" d="M712 927c-1,2 1,1 -2,2l0 -7c-2,2 -1,-2 -1,3 0,2 0,2 0,4 4,3 16,6 21,7l0 -30c-2,2 -7,7 -9,11 -3,3 -7,7 -9,10z"/>
    <path class="fil5" d="M853 1104c3,2 2,0 5,1 0,2 3,16 3,16 3,0 2,0 5,-8 7,-19 4,-5 11,-12 -1,-3 -3,-7 -7,-5 -4,2 -4,6 -7,9 -2,-5 0,-12 -7,-13 -2,2 -3,7 -3,12z"/>
    <path class="fil5" d="M741 1111c3,-1 3,-3 5,-7 2,-6 -1,-5 -2,-9 -2,-6 5,-8 -5,-17 -8,2 -4,6 -2,14 1,6 1,15 4,19z"/>
    <path class="fil5" d="M562 1107l22 -11c4,-3 4,-2 5,-8 -6,1 -12,5 -16,8 -11,7 -12,5 -11,11z"/>
    <path class="fil5" d="M519 1105c2,3 0,1 2,1l2 1 -2 5c9,2 11,-2 12,-9l-9 -3 -5 5z"/>
    <path class="fil5" d="M626 1091c3,0 0,-1 2,0l-2 6c8,1 11,-2 12,-10l-7 -3c-4,2 -7,3 -5,7z"/>
    <path class="fil5" d="M682 1094c4,-1 22,-9 24,-12l-2 -2c-4,1 -13,6 -18,9 -4,1 -3,1 -4,5z"/>
    <path class="fil5" d="M688 1105c5,-2 13,-6 18,-8 7,-4 5,-2 6,-4 -3,-4 -2,-3 -13,3 -2,1 -4,2 -6,3 -4,2 -4,2 -5,6z"/>
    <path class="fil5" d="M713 1128c1,5 1,1 2,4 0,0 0,8 5,7 3,0 3,-1 3,-4 -2,-3 -1,-1 -2,-2 -2,-3 0,-1 -1,-4 -1,-4 -3,-3 -7,-1z"/>
    <path class="fil5" d="M759 1094c-4,-1 -2,-2 -4,-1l-3 3c4,3 3,2 7,0l5 2 4 -4 -5 -4c-3,2 -3,1 -4,4z"/>
    <path class="fil5" d="M619 1132l5 3c1,-1 2,-2 4,-3l3 2 2 -4 -2 -3c-3,1 -2,1 -5,2 -2,-1 -2,-1 -4,-3 -1,2 -2,2 -3,6z"/>
    <path class="fil5" d="M545 1102c-3,-1 -2,-1 -4,-2l-3 4 6 4c4,-7 2,-1 7,-4 1,-3 0,-3 -2,-5l-4 3z"/>
    <path class="fil5" d="M885 1141c-1,2 -3,4 -1,7 1,2 3,3 6,3 2,-7 1,-8 -5,-10z"/>
    <path class="fil5" d="M555 1133c-1,1 0,-1 -1,2 -1,2 -1,13 6,11 1,-11 -4,0 -5,-13z"/>
    <path class="fil6" d="M727 662l0 -11 -7 1c1,3 4,8 7,10z"/>
    <path class="fil5" d="M647 1139c5,0 9,-3 10,-7 -5,0 -9,2 -10,7z"/>
    <path class="fil31" d="M586 1112c3,-2 0,0 2,-3 1,-1 0,-1 1,-1l3 -2c-3,-1 -2,-1 -6,2 -1,-5 0,-2 -2,-4 -4,5 -2,2 1,6 0,1 0,1 1,2z"/>
    <path class="fil32" d="M817 1091c2,0 4,-1 3,-5 -1,-3 -1,-3 -4,-5 3,8 -2,4 1,10z"/>
    <path class="fil33" d="M661 1094c3,-1 4,-2 3,-6 -1,-2 -2,-3 -4,-4 3,6 0,3 0,7 0,5 0,2 1,3z"/>
    <path class="fil32" d="M780 1106c3,0 3,-1 3,-4 0,-4 -1,-5 -3,-6 3,9 -3,4 0,10z"/>
    <path class="fil32" d="M754 1088c3,0 5,0 4,-4 0,-3 -2,-4 -3,-5 2,7 -1,2 -1,9z"/>
    <path class="fil31" d="M845 1101c3,0 4,-1 3,-5 -1,-3 -2,-3 -4,-5 4,8 -2,3 1,10z"/>
    <path class="fil33" d="M832 1140c5,-1 4,-7 -1,-9 1,2 2,2 1,4 0,2 -2,2 0,5z"/>
    <path class="fil5" d="M608 1135c2,2 2,2 5,3 1,-4 1,-3 0,-5 -3,-1 -3,-1 -5,2z"/>
   </g>
   <g>
    <path class="fil34" d="M2620 108c0,-8 -1,-11 -4,-11 -3,0 -4,3 -6,6l-113 242 -117 -242c-2,-4 -4,-6 -6,-6 -3,0 -4,3 -4,7l-28 251c-2,14 -3,29 -16,32 -5,1 -8,1 -11,1 -2,0 -4,1 -4,2 0,2 3,3 7,3 10,0 28,-1 32,-1 3,0 21,1 36,1 4,0 7,-1 7,-3 0,-1 -2,-2 -3,-2 -3,0 -9,-1 -15,-2 -6,-1 -10,-6 -10,-12 0,-7 0,-14 0,-20l16 -178 1 0c4,10 47,103 51,110 2,3 35,70 45,89 7,14 9,17 12,17 3,0 4,-3 12,-20l95 -200 1 0 18 198c1,7 1,14 -1,14 -2,1 -3,1 -3,3 0,2 2,3 11,4 14,1 55,2 64,2 5,0 8,-1 8,-3 0,-2 -1,-2 -3,-2 -4,0 -14,0 -25,-4 -17,-5 -19,-27 -21,-40l-26 -236zm115 249c-6,17 -13,28 -28,30 -3,0 -8,1 -10,1 -2,0 -3,1 -3,2 0,2 2,3 6,3 14,0 31,-1 35,-1 3,0 22,1 30,1 3,0 5,-1 5,-3 0,-1 -1,-2 -4,-2l-3 0c-5,0 -11,-3 -11,-9 0,-6 2,-14 5,-22l19 -52c1,-2 2,-3 3,-3l78 0c2,0 3,0 4,2l30 75c2,5 -1,8 -3,9 -2,1 -2,1 -2,2 0,2 5,2 11,2 24,1 49,1 54,1 4,0 8,-1 8,-3 0,-1 -3,-2 -5,-2 -3,0 -8,-1 -13,-2 -7,-2 -17,-7 -29,-36 -21,-49 -75,-184 -81,-198 -3,-7 -5,-12 -8,-12 -2,0 -4,2 -8,13l-80 204zm49 -68c-1,0 -1,-1 -1,-3l31 -89c2,-5 4,-5 6,0l34 89c0,2 0,3 -2,3l-68 0zm250 -48c0,-51 0,-60 0,-71 1,-11 3,-16 13,-18 4,-1 9,-1 11,-1 1,0 3,-1 3,-2 0,-2 -2,-3 -6,-3 -10,0 -35,1 -37,1 -2,0 -23,-1 -38,-1 -4,0 -6,1 -6,3 0,1 2,2 3,2 3,0 9,1 12,1 11,2 13,7 13,18 1,11 1,20 1,71l0 57c0,32 0,58 -2,71 -1,10 -2,16 -9,17 -3,1 -7,2 -10,2 -2,0 -3,1 -3,2 0,2 2,3 6,3 5,0 12,0 19,-1 7,0 13,0 14,0 10,0 22,0 37,1 16,1 35,1 59,1 18,0 19,-1 21,-9 3,-10 5,-29 5,-33 0,-3 0,-5 -2,-5 -2,0 -3,2 -3,5 -2,6 -4,13 -9,18 -8,10 -23,10 -40,10 -27,0 -40,-2 -45,-8 -6,-5 -7,-25 -7,-73l0 -58zm175 57c0,32 0,58 -2,71 -2,10 -3,16 -9,17 -3,1 -7,2 -10,2 -2,0 -3,1 -3,2 0,2 2,3 5,3 6,0 14,0 21,-1 7,0 13,0 13,0 2,0 13,1 28,2 15,1 33,2 47,2 58,0 88,-23 103,-38 19,-19 36,-51 36,-92 0,-38 -16,-66 -33,-83 -40,-40 -101,-37 -135,-37 -20,0 -42,1 -46,1 -1,0 -23,-1 -39,-1 -4,0 -5,1 -5,3 0,1 1,2 3,2 3,0 8,1 11,1 11,2 13,7 14,18 1,11 1,20 1,71l0 57zm30 -131c0,-4 2,-6 5,-7 3,-1 13,-2 20,-2 40,0 78,4 110,37 13,13 31,40 31,81 0,30 -8,61 -26,78 -20,19 -48,30 -79,30 -40,0 -52,-7 -56,-14 -3,-3 -4,-15 -4,-23 -1,-6 -1,-36 -1,-71l0 -109zm308 74c0,-51 0,-60 0,-71 1,-11 3,-16 12,-18 4,-1 6,-1 9,-1 1,0 2,-1 2,-2 0,-2 -1,-3 -5,-3 -11,0 -32,1 -34,1 -2,0 -23,-1 -34,-1 -4,0 -6,1 -6,3 0,1 2,2 3,2 2,0 7,1 11,2 7,1 10,6 10,17 1,11 1,20 1,71l0 57c0,32 0,58 -2,71 -1,10 -2,16 -9,17 -3,1 -7,2 -10,2 -2,0 -3,1 -3,2 0,2 2,3 6,3 10,0 31,-1 33,-1 2,0 23,1 42,1 4,0 6,-1 6,-3 0,-1 -1,-2 -3,-2 -3,0 -10,-1 -15,-2 -10,-1 -12,-7 -13,-17 -1,-13 -1,-39 -1,-71l0 -57zm129 -55c-5,-13 -9,-23 -9,-27 0,-3 0,-4 4,-6 3,-1 8,-2 12,-2 2,0 3,-1 3,-3 0,-1 -3,-2 -9,-2 -13,0 -28,1 -31,1 -5,0 -24,-1 -40,-1 -5,0 -9,0 -9,2 0,2 1,3 3,3 2,0 7,0 13,2 11,2 16,6 23,24l83 200c7,16 9,20 13,20 3,0 5,-5 15,-24 7,-16 22,-52 43,-99 17,-40 34,-79 38,-89 8,-22 14,-27 18,-30 7,-4 14,-4 17,-4 2,0 3,-1 3,-3 0,-1 -1,-2 -5,-2 -10,0 -25,1 -26,1 -5,0 -20,-1 -33,-1 -6,0 -8,1 -8,3 0,1 2,2 4,2 4,0 7,0 11,2 4,1 5,4 5,7 0,2 -2,7 -3,12 -8,23 -52,135 -71,179l-64 -165zm240 112c0,32 0,58 -2,71 -1,10 -2,16 -8,17 -3,1 -8,2 -11,2 -2,0 -2,1 -2,2 0,2 2,3 5,3 5,0 13,0 20,-1 7,0 13,0 14,0 5,0 14,0 28,1 14,0 34,1 59,1 13,0 17,0 19,-9 2,-6 4,-29 4,-31 0,-2 0,-5 -2,-5 -2,0 -3,1 -3,5 -2,13 -7,19 -16,23 -9,3 -25,3 -34,3 -33,0 -39,-4 -40,-26 0,-7 0,-45 0,-56l0 -27c0,-1 1,-2 2,-2 6,0 42,0 52,1 13,2 16,6 17,10 1,4 1,8 1,11 0,2 1,3 3,3 2,0 3,-3 3,-6 0,-2 1,-15 1,-21 1,-11 3,-16 3,-18 0,-2 -1,-3 -2,-3 -1,0 -3,2 -5,4 -3,4 -8,4 -16,5 -8,1 -53,1 -57,1 -2,0 -2,-2 -2,-4l0 -89c0,-2 1,-3 2,-3 4,0 43,0 49,1 18,2 22,5 24,10 2,4 2,9 2,12 0,2 1,4 3,4 1,0 2,-2 3,-4 1,-3 1,-18 2,-21 0,-9 2,-13 2,-16 0,-1 0,-3 -1,-3 -2,0 -3,2 -5,2 -2,0 -9,1 -15,2 -8,0 -79,0 -81,0 -2,0 -24,-1 -39,-1 -4,0 -5,1 -5,3 0,1 1,2 2,2 3,0 9,1 12,1 11,2 13,7 14,18 0,11 0,20 0,71l0 57zm233 99c18,0 39,-2 54,-11 24,-16 31,-37 31,-56 0,-28 -14,-51 -55,-79l-10 -6c-33,-23 -44,-35 -44,-55 0,-24 21,-36 45,-36 31,0 42,12 44,16 2,4 5,13 5,16 1,3 1,5 3,5 3,0 3,-2 3,-7 0,-23 1,-33 1,-35 0,-2 0,-2 -3,-2 -3,0 -5,0 -12,-2 -8,-2 -21,-4 -35,-4 -44,0 -75,23 -75,62 0,22 12,42 49,70l15 11c30,22 43,33 43,57 0,24 -18,43 -51,43 -23,0 -48,-8 -53,-32 -2,-5 -2,-9 -2,-12 0,-3 -1,-4 -3,-4 -2,0 -2,2 -2,6 -1,5 -2,18 -2,34 0,9 0,10 5,13 14,6 33,8 49,8zm-2197 506c62,34 111,51 158,51 57,0 100,-16 122,-26 2,-1 3,-3 3,-4 0,-1 -1,-2 -2,-2 -2,0 -4,0 -6,1 -26,11 -56,15 -76,15 -19,0 -77,-2 -161,-45l-79 -41c25,-16 68,-61 68,-129 0,-89 -65,-144 -151,-144 -106,0 -151,88 -151,150 0,70 43,151 150,151 20,0 46,-5 60,-13l65 36zm-239 -184c0,-85 48,-127 112,-127 61,0 117,50 117,142 0,112 -71,132 -106,132 -69,0 -123,-58 -123,-147zm335 51c0,48 13,71 29,86 24,22 59,23 71,23 20,0 46,-2 70,-24 27,-23 32,-62 32,-98l0 -35c0,-50 -1,-59 0,-70 1,-11 3,-16 12,-18 4,-1 6,-1 9,-1 1,0 2,-1 2,-2 0,-2 -1,-3 -5,-3 -10,0 -26,1 -29,1 -1,0 -21,-1 -36,-1 -4,0 -5,1 -5,3 0,1 1,2 2,2 3,0 9,1 12,1 11,2 13,8 13,18 1,11 1,20 1,70l0 42c0,33 -3,60 -19,79 -12,14 -32,23 -52,23 -20,0 -34,-3 -51,-18 -14,-13 -25,-33 -25,-80l0 -46c0,-50 0,-59 1,-70 1,-11 3,-16 12,-18 4,-1 6,-1 8,-1 2,0 3,-1 3,-2 0,-2 -2,-3 -6,-3 -10,0 -31,1 -34,1 -3,0 -23,-1 -39,-1 -4,0 -5,1 -5,3 0,1 1,2 3,2 3,0 8,1 11,1 11,2 13,8 14,18 1,11 1,20 1,70l0 48zm264 69c-6,16 -13,28 -28,30 -3,0 -8,1 -10,1 -2,0 -3,1 -3,2 0,2 2,3 6,3 14,0 31,-1 34,-1 4,0 23,1 31,1 3,0 5,-1 5,-3 0,-1 -1,-2 -4,-2l-3 0c-6,0 -11,-3 -11,-9 0,-6 2,-14 5,-22l19 -52c1,-2 2,-3 3,-3l78 0c2,0 3,0 3,2l31 75c2,5 -1,8 -3,9 -2,0 -3,0 -3,2 0,2 6,2 12,2 24,1 49,1 54,1 3,0 7,-1 7,-3 0,-2 -2,-2 -4,-2 -3,0 -8,-1 -13,-2 -8,-3 -17,-7 -29,-36 -21,-50 -75,-184 -81,-198 -4,-8 -5,-12 -8,-12 -3,0 -4,2 -8,12l-80 205zm49 -69c-1,0 -2,0 -1,-2l31 -89c2,-5 4,-5 6,0l33 89c1,2 1,2 -1,2l-68 0zm250 -48c0,-50 0,-59 0,-70 1,-11 3,-16 13,-18 4,-1 9,-1 11,-1 1,0 3,-1 3,-2 0,-2 -2,-3 -6,-3 -10,0 -36,1 -37,1 -2,0 -23,-1 -39,-1 -3,0 -5,1 -5,3 0,1 2,2 3,2 3,0 9,1 11,1 11,2 13,7 14,18 1,11 1,20 1,70l0 58c0,32 0,57 -2,71 -2,9 -2,16 -9,17 -3,1 -7,2 -10,2 -2,0 -3,1 -3,2 0,2 2,3 5,3 6,0 13,0 20,-1 7,0 12,0 14,0 10,0 21,0 37,1 16,0 34,1 59,1 18,0 19,-1 21,-9 3,-10 5,-29 5,-33 0,-3 -1,-5 -2,-5 -2,0 -3,2 -4,4 -1,7 -4,14 -8,19 -8,10 -23,10 -40,10 -27,0 -40,-2 -45,-8 -7,-6 -7,-25 -7,-73l0 -59zm205 0c0,-50 0,-59 1,-70 0,-11 2,-16 11,-18 4,-1 7,-1 9,-1 1,0 3,-1 3,-2 0,-2 -2,-3 -6,-3 -10,0 -32,1 -34,1 -1,0 -23,-1 -34,-1 -4,0 -5,1 -5,3 0,1 1,2 3,2 2,0 6,1 10,1 7,2 10,7 11,18 0,11 0,20 0,70l0 58c0,32 0,57 -1,71 -2,9 -3,16 -9,17 -3,1 -8,2 -11,2 -2,0 -2,1 -2,2 0,2 2,3 5,3 10,0 32,-1 33,-1 2,0 24,1 43,1 4,0 5,-1 5,-3 0,-1 -1,-2 -3,-2 -3,0 -10,-1 -15,-2 -10,-1 -11,-8 -12,-17 -2,-14 -2,-39 -2,-71l0 -58zm111 58c0,32 0,57 -2,71 -1,9 -2,16 -9,17 -3,0 -7,2 -10,2 -2,0 -3,1 -3,2 0,2 2,3 6,3 10,0 31,-1 33,-1 2,0 24,1 42,1 4,0 6,-1 6,-3 0,-1 -1,-2 -3,-2 -3,0 -10,-1 -15,-2 -9,-1 -11,-8 -12,-17 -2,-13 -2,-39 -2,-71l0 -26c0,-2 0,-3 2,-3 6,0 46,-1 54,1 11,1 16,5 18,10 1,4 2,8 2,12 0,1 0,3 2,3 3,0 3,-3 3,-7 0,-2 1,-15 2,-21 0,-11 3,-17 3,-18 0,-2 -1,-3 -2,-3 -1,0 -3,1 -4,3 -4,4 -8,5 -16,6 -5,0 -10,0 -16,0l-46 1c-2,0 -2,-1 -2,-3l0 -89c0,-3 1,-4 3,-4l55 1c13,0 21,5 23,10 2,4 3,9 3,12 0,2 1,4 3,4 1,0 2,-2 3,-4 1,-4 1,-18 1,-21 2,-10 3,-13 3,-16 0,-1 -1,-3 -2,-3 -1,0 -3,2 -5,2 -3,1 -9,1 -15,2 -8,0 -81,0 -88,0 -2,0 -23,-1 -38,-1 -4,0 -6,1 -6,3 0,1 2,2 3,2 3,0 9,1 12,1 11,2 13,7 13,18 1,11 1,20 1,70l0 58zm237 -58c0,-50 0,-59 0,-70 1,-11 3,-16 12,-18 4,-1 6,-1 8,-1 1,0 3,-1 3,-2 0,-2 -2,-3 -5,-3 -11,0 -33,1 -34,1 -2,0 -23,-1 -34,-1 -4,0 -6,1 -6,3 0,1 1,2 3,2 2,0 6,1 10,1 8,2 10,7 11,18 1,11 1,20 1,70l0 58c0,32 -1,57 -2,71 -1,9 -2,16 -9,17 -3,1 -7,2 -10,2 -2,0 -3,1 -3,2 0,2 2,3 5,3 11,0 32,-1 34,-1 1,0 23,1 42,1 4,0 5,-1 5,-3 0,-1 0,-2 -2,-2 -3,0 -11,-1 -16,-2 -10,-1 -11,-8 -12,-17 -1,-14 -1,-39 -1,-71l0 -58zm232 157c22,0 48,-2 61,-7 6,-2 7,-4 9,-10 3,-11 8,-39 8,-42 0,-2 -2,-4 -3,-4 -2,0 -3,1 -4,4 -1,7 -5,20 -13,28 -13,13 -30,15 -55,15 -73,0 -122,-56 -122,-118 0,-33 5,-63 30,-86 12,-11 33,-22 76,-22 30,0 55,8 67,18 9,7 14,20 14,32 0,5 0,7 3,7 2,0 3,-2 4,-7 0,-4 0,-22 0,-33 1,-12 2,-16 2,-18 0,-2 -1,-4 -4,-4 -12,0 -22,-3 -35,-5 -16,-3 -36,-4 -49,-4 -52,0 -83,16 -103,35 -30,29 -38,68 -38,89 0,32 8,69 41,97 26,23 61,35 111,35zm130 -40c-6,16 -13,28 -28,30 -3,0 -8,1 -10,1 -2,0 -3,1 -3,2 0,2 2,3 6,3 14,0 31,-1 34,-1 4,0 23,1 31,1 3,0 5,-1 5,-3 0,-1 -1,-2 -4,-2l-3 0c-5,0 -11,-3 -11,-9 0,-6 2,-14 5,-22l19 -52c1,-2 2,-3 3,-3l78 0c2,0 3,0 3,2l31 75c2,5 -1,8 -3,9 -2,0 -3,0 -3,2 0,2 6,2 12,2 24,1 49,1 54,1 4,0 7,-1 7,-3 0,-2 -2,-2 -4,-2 -3,0 -8,-1 -13,-2 -7,-3 -17,-7 -29,-36 -21,-50 -75,-184 -81,-198 -4,-8 -5,-12 -8,-12 -2,0 -4,2 -8,12l-80 205zm49 -69c-1,0 -1,0 -1,-2l31 -89c2,-5 4,-5 6,0l34 89c0,2 0,2 -2,2l-68 0z"/>
    <path class="fil34" d="M3843 643l42 1c33,0 40,8 41,18l0 3c1,5 2,6 3,6 2,0 3,-2 3,-4 0,-4 1,-28 1,-38 0,-1 0,-3 -1,-3 -2,0 -5,0 -10,1 -5,1 -13,2 -24,2l-127 0c-4,0 -17,-1 -27,-2 -9,-1 -13,-4 -15,-4 -1,0 -3,5 -3,6 -1,3 -8,32 -8,36 0,2 2,3 3,3 1,0 2,-1 3,-4 1,-2 2,-4 5,-10 5,-8 14,-10 35,-10l48 -1 0 137c0,32 0,57 -1,71 -1,9 -3,16 -10,17 -3,1 -7,2 -10,2 -2,0 -3,1 -3,2 0,2 2,3 6,3 10,0 33,-1 35,-1 2,0 23,1 41,1 4,0 6,-1 6,-3 0,-1 -1,-2 -3,-2 -3,0 -11,-1 -15,-2 -11,-1 -12,-8 -13,-17 -2,-14 -2,-39 -2,-71l0 -137zm192 79c0,-50 0,-59 0,-70 1,-11 3,-16 12,-18 4,-1 6,-1 8,-1 1,0 3,-1 3,-2 0,-2 -2,-3 -5,-3 -11,0 -33,1 -34,1 -2,0 -23,-1 -34,-1 -4,0 -6,1 -6,3 0,1 1,2 3,2 2,0 6,1 10,1 8,2 10,7 11,18 1,11 1,20 1,70l0 58c0,32 -1,57 -2,71 -1,9 -2,16 -9,17 -3,1 -7,2 -10,2 -2,0 -3,1 -3,2 0,2 2,3 5,3 11,0 32,-1 34,-1 1,0 23,1 42,1 4,0 5,-1 5,-3 0,-1 0,-2 -2,-2 -3,0 -11,-1 -16,-2 -10,-1 -11,-8 -12,-17 -1,-14 -1,-39 -1,-71l0 -58zm74 29c0,59 40,128 133,128 81,0 135,-60 135,-133 0,-76 -57,-123 -133,-123 -94,0 -135,75 -135,128zm35 -9c0,-71 41,-106 98,-106 53,0 101,41 101,119 0,95 -61,111 -92,111 -61,0 -107,-48 -107,-124zm314 -66c11,12 49,52 88,93 36,37 84,85 88,88 19,18 22,20 26,20 2,0 2,-2 2,-23l1 -191c0,-20 1,-27 12,-29 4,-1 7,-1 8,-1 2,0 4,-2 4,-3 0,-2 -3,-2 -6,-2 -14,0 -25,1 -29,1 -4,0 -20,-1 -35,-1 -4,0 -7,0 -7,2 0,1 0,3 3,3 2,0 10,1 16,2 11,2 13,9 13,30l3 164c-10,-11 -46,-50 -79,-84 -53,-54 -102,-106 -107,-112 -4,-3 -9,-10 -13,-10 -3,0 -5,4 -5,17l0 187c0,30 -1,38 -10,41 -5,1 -11,2 -13,2 -2,0 -3,1 -3,2 0,3 2,3 5,3 16,0 30,-1 33,-1 3,0 17,1 36,1 3,0 6,-1 6,-3 0,-1 -1,-2 -3,-2 -3,0 -11,-1 -17,-2 -9,-3 -12,-11 -13,-38l-4 -154zm331 203c18,0 39,-2 54,-11 24,-16 31,-37 31,-56 0,-28 -14,-51 -55,-79l-10 -6c-33,-23 -44,-35 -44,-56 0,-23 21,-35 45,-35 31,0 42,12 44,16 2,4 5,12 5,16 0,3 1,4 3,4 2,1 3,-1 3,-6 0,-23 1,-33 1,-35 0,-2 0,-2 -3,-2 -3,0 -5,0 -12,-2 -8,-2 -21,-4 -35,-4 -44,0 -75,23 -75,61 0,23 12,43 49,70l15 12c30,22 43,33 43,57 0,24 -18,43 -51,43 -23,0 -48,-8 -54,-32 -1,-5 -1,-9 -1,-12 0,-3 -1,-4 -3,-4 -2,0 -2,2 -2,5 -1,6 -2,19 -2,35 0,9 0,10 5,12 13,7 33,9 49,9zm-2609 436c-7,19 -15,33 -33,36 -3,0 -8,0 -11,0 -2,0 -3,1 -3,3 0,2 2,3 7,3 18,0 39,-1 43,-1 5,0 21,1 30,1 4,0 6,-1 6,-3 0,-2 -1,-3 -4,-3l-4 0c-6,0 -14,-3 -14,-11 0,-7 2,-16 5,-25l23 -68c1,-2 2,-4 4,-4l83 0c2,0 2,1 3,3l36 94c2,6 0,10 -2,11 -2,0 -3,1 -3,2 0,3 4,3 11,3 27,1 55,1 61,1 4,0 7,-1 7,-3 0,-2 -1,-3 -3,-3 -4,0 -10,0 -16,-2 -8,-2 -19,-8 -33,-43 -23,-58 -84,-217 -89,-231 -5,-12 -6,-14 -9,-14 -2,0 -4,2 -8,15l-87 239zm53 -85c-1,0 -2,-1 -1,-3l34 -104c2,-6 4,-6 6,0l36 104c1,1 1,3 -1,3l-74 0zm221 22c0,48 13,71 30,86 24,22 59,23 70,23 20,0 46,-3 71,-24 27,-23 31,-62 31,-98l0 -35c0,-50 0,-60 1,-70 1,-11 2,-16 12,-18 4,-1 6,-1 8,-1 2,0 3,-1 3,-3 0,-1 -2,-2 -6,-2 -10,0 -26,1 -28,1 -2,0 -22,-1 -37,-1 -3,0 -5,1 -5,2 0,2 1,3 3,3 3,0 9,1 11,1 11,1 13,8 14,18 0,10 1,20 1,70l0 41c0,34 -4,61 -20,80 -11,13 -31,23 -52,23 -19,0 -34,-3 -50,-18 -15,-13 -25,-33 -25,-80l0 -46c0,-50 0,-60 1,-70 0,-11 2,-17 11,-18 4,-1 6,-1 9,-1 1,0 3,-1 3,-3 0,-1 -2,-2 -6,-2 -10,0 -31,1 -34,1 -3,0 -24,-1 -39,-1 -4,0 -6,1 -6,2 0,2 2,3 3,3 3,0 9,1 12,1 11,1 13,8 13,18 1,10 1,20 1,70l0 48zm373 -127l42 0c32,1 39,9 40,19l1 3c0,5 1,6 3,6 1,0 3,-2 3,-4 0,-4 1,-28 1,-38 0,-2 0,-4 -2,-4 -1,0 -4,1 -9,2 -6,1 -13,2 -25,2l-127 0c-4,0 -17,-1 -27,-2 -9,-1 -12,-4 -15,-4 -1,0 -2,4 -3,6 0,3 -7,32 -7,36 0,2 1,2 2,2 2,0 3,0 3,-3 2,-2 2,-4 6,-10 5,-8 13,-10 34,-11l49 0 0 137c0,31 0,57 -2,71 -1,9 -3,16 -10,17 -3,1 -7,2 -10,2 -2,0 -2,1 -2,2 0,2 1,3 5,3 10,0 33,-1 35,-1 2,0 23,1 42,1 4,0 5,-1 5,-3 0,-1 0,-3 -3,-3 -3,0 -10,0 -15,-1 -10,-2 -12,-8 -13,-17 -1,-14 -1,-40 -1,-71l0 -137zm366 79c0,-50 0,-60 1,-70 1,-12 3,-16 12,-18 4,-1 6,-1 8,-1 2,0 3,-1 3,-3 0,-1 -2,-2 -5,-2 -10,0 -32,1 -34,1 -1,0 -23,-1 -38,-1 -4,0 -6,1 -6,2 0,2 1,3 3,3 3,0 9,1 12,1 11,1 12,7 13,18 0,10 1,20 1,71l0 7c0,2 -1,2 -2,2l-141 0c-1,0 -2,0 -2,-2l0 -7c0,-51 0,-61 0,-71 1,-12 3,-16 12,-18 4,-1 6,-1 9,-1 1,0 2,-1 2,-3 0,-1 -1,-2 -5,-2 -10,0 -32,1 -33,1 -2,0 -24,-1 -39,-1 -4,0 -6,1 -6,2 0,2 2,3 3,3 3,0 9,1 12,1 11,1 13,7 13,18 1,10 1,20 1,70l0 58c0,31 0,57 -2,71 -1,9 -2,15 -9,17 -3,1 -7,1 -10,1 -2,0 -3,2 -3,3 0,2 2,3 6,3 10,0 32,-1 34,-1 1,0 23,1 41,1 4,0 6,-1 6,-3 0,-1 -1,-3 -3,-3 -3,0 -10,0 -15,-1 -10,-2 -11,-8 -13,-17 -1,-14 -1,-39 -1,-70l0 -33c0,-2 1,-2 2,-2l141 0c1,0 2,0 2,2l0 33c0,31 0,56 -2,69 -1,10 -2,16 -9,18 -3,1 -7,1 -10,1 -2,0 -3,2 -3,3 0,2 2,3 6,3 10,0 32,-1 33,-1 2,0 24,1 42,1 4,0 6,-1 6,-3 0,-1 -1,-3 -3,-3 -3,0 -11,0 -15,-1 -11,-2 -11,-8 -13,-17 -1,-14 -2,-40 -2,-71l0 -58zm76 29c0,58 39,128 132,128 81,0 136,-60 136,-133 0,-76 -58,-123 -134,-123 -93,0 -134,75 -134,128zm35 -9c0,-71 40,-107 97,-107 53,0 101,42 101,120 0,94 -61,111 -91,111 -62,0 -107,-48 -107,-124zm303 38c0,31 0,57 -2,71 -1,9 -2,15 -8,17 -4,1 -8,1 -11,1 -2,0 -3,2 -3,3 0,2 2,3 6,3 10,0 33,-1 33,-1 2,0 23,1 42,1 4,0 5,-1 5,-3 0,-1 0,-3 -3,-3 -3,0 -10,0 -15,-1 -10,-2 -12,-8 -13,-17 -1,-14 -1,-39 -1,-71l0 -7c0,-2 0,-3 2,-3l43 1c2,0 3,0 4,2 8,8 23,30 37,47 19,25 31,41 46,48 9,5 17,7 36,7l21 0c6,0 8,-1 8,-3 0,-1 -1,-3 -3,-3 -2,0 -5,0 -12,-1 -8,-1 -19,-4 -37,-22 -20,-21 -43,-50 -71,-85 32,-27 42,-50 42,-74 0,-23 -15,-39 -24,-45 -18,-12 -41,-14 -63,-14 -10,0 -39,1 -42,1 -2,0 -25,-1 -40,-1 -4,0 -6,1 -6,2 0,2 2,3 3,3 3,0 9,1 12,1 11,1 13,7 14,18 0,10 0,20 0,70l0 58zm30 -135c0,-2 1,-3 2,-4 4,-1 14,-2 24,-2 37,0 59,24 59,64 0,25 -9,43 -21,50 -8,6 -17,6 -25,6 -15,0 -32,-2 -37,-5 -2,-1 -2,-2 -2,-4l0 -105zm259 77c0,-50 0,-60 1,-70 0,-12 2,-16 12,-18 3,-1 6,-1 8,-1 1,0 3,-1 3,-3 0,-1 -2,-2 -6,-2 -10,0 -32,1 -34,1 -1,0 -23,-1 -34,-1 -4,0 -5,1 -5,2 0,2 1,3 3,3 2,0 6,1 10,1 7,2 10,7 11,18 1,10 1,20 1,70l0 58c0,31 -1,57 -2,71 -2,9 -3,15 -9,17 -3,1 -8,1 -11,1 -2,0 -2,2 -2,3 0,2 2,3 5,3 10,0 32,-1 33,-1 2,0 24,1 43,1 4,0 5,-1 5,-3 0,-1 -1,-3 -3,-3 -3,0 -10,0 -15,-1 -10,-2 -11,-8 -12,-17 -2,-14 -2,-40 -2,-71l0 -58zm193 -79l42 0c32,1 39,9 41,19l0 3c0,5 1,6 3,6 1,0 3,-2 3,-4 0,-4 1,-28 1,-38 0,-2 0,-4 -2,-4 -1,0 -4,1 -9,2 -6,1 -13,2 -24,2l-128 0c-4,0 -17,-1 -26,-2 -10,-1 -13,-4 -15,-4 -2,0 -3,4 -4,6 0,3 -7,32 -7,36 0,2 1,2 2,2 2,0 3,0 4,-3 1,-2 1,-4 5,-10 5,-8 13,-10 34,-11l49 0 0 137c0,31 0,57 -2,71 -1,9 -3,16 -10,17 -3,1 -6,2 -10,2 -1,0 -2,1 -2,2 0,2 1,3 5,3 10,0 34,-1 35,-1 2,0 24,1 42,1 4,0 5,-1 5,-3 0,-1 0,-3 -2,-3 -3,0 -11,0 -16,-1 -10,-2 -12,-8 -13,-17 -1,-14 -1,-40 -1,-71l0 -137zm206 175c0,5 0,19 0,33 -1,9 -3,15 -10,17 -3,1 -7,1 -10,1 -2,0 -3,2 -3,3 0,2 2,3 5,3 10,0 32,-1 33,-1 2,0 24,1 43,1 4,0 5,-1 5,-3 0,-1 0,-3 -2,-3 -3,0 -11,0 -16,-1 -10,-2 -12,-8 -13,-17 -1,-14 -1,-28 -1,-33l0 -28c0,-11 -1,-21 4,-33 7,-14 55,-90 66,-104 7,-8 10,-12 17,-16 5,-3 12,-4 16,-4 2,0 4,-2 4,-3 0,-1 -2,-2 -4,-2 -7,0 -31,1 -33,1 -3,0 -15,-1 -24,-1 -3,0 -5,1 -5,2 0,1 2,3 5,4 4,1 5,3 5,8 0,4 -1,10 -5,17 -7,11 -49,81 -56,94l-61 -101c-3,-5 -5,-9 -5,-13 0,-3 2,-4 4,-5 3,-2 6,-3 6,-4 0,-1 -1,-2 -5,-2 -13,0 -27,1 -29,1 -2,0 -27,-1 -34,-1 -3,0 -4,1 -4,2 0,2 2,3 4,3 2,0 9,2 14,5 6,4 14,11 22,24 12,17 57,89 60,94 5,10 7,16 7,34l0 28z"/>
   </g>
   <g>
    <path class="fil35" d="M5360 843c-5,-5 -10,-12 -14,-21 -5,-13 -10,-25 -17,-35l0 0 0 0c0,-1 -1,-2 -2,-3 -5,-6 -10,-11 -16,-15 6,136 60,259 145,353 1,-3 1,-6 1,-10 0,-3 0,-6 0,-9l0 0 0 0c-1,-1 -1,-2 -1,-4 -2,-11 -7,-23 -12,-36l0 0c-5,-10 -6,-20 -6,-27 0,-5 1,-8 1,-9 0,0 0,0 0,1l0 -1c0,0 0,0 0,0 0,0 0,0 0,0 -35,-54 -60,-114 -73,-179 -2,-1 -4,-3 -6,-5z"/>
    <path class="fil35" d="M5457 382l0 0 0 0c0,-4 0,-7 0,-10 0,-3 0,-6 0,-9 -86,94 -140,218 -146,354 6,-5 11,-10 16,-16l0 0 0 0c1,-1 1,-2 2,-3 7,-9 12,-21 17,-34l0 0c4,-9 9,-16 14,-21 2,-3 4,-5 6,-6 13,-65 38,-125 73,-179 0,0 0,0 0,-1l0 0c0,0 0,0 0,0 0,0 0,0 0,0l0 0c0,0 -1,-4 -1,-9 0,-6 1,-16 6,-27l0 0c5,-12 10,-24 12,-36 0,-1 0,-2 1,-3z"/>
    <path class="fil35" d="M6393 643c5,5 10,12 14,21 5,13 9,25 16,34l0 0 1 0c0,1 1,2 2,3 4,6 10,11 16,16 -6,-136 -60,-260 -146,-354 0,3 0,6 0,9 0,3 0,6 0,10l0 0c0,1 0,2 1,3 1,12 7,24 12,36l0 0c5,11 5,21 5,27 0,5 0,9 0,9 0,0 0,0 0,0l0 0c0,0 0,0 0,0 0,1 0,1 0,1 35,54 60,114 73,179 2,1 4,3 6,6z"/>
    <path class="fil35" d="M5515 323c1,0 3,0 4,-1l0 0 0 0c12,-1 23,-7 36,-12 11,-5 20,-5 27,-5 5,0 8,0 9,0 0,0 0,0 0,0l0 0c0,0 0,0 0,0 0,0 1,0 1,0 54,-35 114,-60 179,-73 1,-2 3,-4 6,-6 4,-5 11,-10 21,-14 12,-5 24,-9 34,-16l0 0 0 0c1,-1 2,-2 3,-3 6,-4 11,-10 15,-16 -136,6 -259,60 -353,146 3,0 6,0 9,0 3,0 6,0 9,0z"/>
    <path class="fil35" d="M6237 1162c-1,0 -2,0 -3,0l0 0 0 0c-12,2 -23,7 -36,13 -11,4 -21,5 -27,5 -5,0 -9,-1 -9,-1 0,0 0,0 0,0l0 0c0,0 0,0 0,0 0,0 0,0 0,0 -54,36 -115,61 -180,74 -1,2 -3,4 -6,6 -5,5 -12,10 -21,14 -13,5 -25,10 -34,17l0 0 0 0c-1,1 -2,1 -3,2 -6,5 -11,10 -16,16 137,-6 260,-60 355,-146 -3,-1 -7,-1 -10,-1 -3,0 -6,0 -10,1z"/>
    <path class="fil35" d="M5835 1292l0 0 0 0c-1,-1 -2,-1 -3,-2 -10,-7 -22,-12 -34,-17l0 0c-10,-4 -17,-9 -21,-14 -3,-2 -5,-4 -6,-5 -65,-14 -126,-39 -180,-75 0,0 0,0 0,0 0,0 0,0 0,0l0 0c0,0 0,0 0,0 -1,0 -4,1 -9,1 -7,0 -16,-1 -27,-5 -13,-6 -24,-11 -36,-13l0 0 0 0c-1,0 -3,0 -4,0 -3,-1 -6,-1 -9,-1 -3,0 -7,0 -10,1 94,86 218,140 354,146 -4,-6 -9,-11 -15,-16z"/>
    <path class="fil35" d="M6296 1103l0 0 0 0c0,3 0,6 0,9 0,4 0,7 0,10 86,-94 140,-217 146,-353 -6,4 -12,9 -16,15l0 0c-1,1 -2,2 -3,3 -7,10 -11,22 -16,34l0 0c-4,10 -9,17 -14,21 -2,3 -4,5 -6,6 -13,65 -38,125 -73,179 0,0 0,0 0,0 0,0 0,0 0,0l0 1c0,-1 0,-1 0,-1 0,1 0,4 0,9 0,7 0,17 -5,27l0 0c-5,13 -11,25 -12,36 -1,2 -1,3 -1,4z"/>
    <path class="fil35" d="M5918 193l0 0 0 0c1,1 2,2 3,3 9,7 21,11 34,16l0 0c9,4 16,9 21,14 3,2 5,4 6,6 65,13 125,38 179,73 0,0 0,0 1,0 0,0 0,0 0,0l0 0c0,0 0,0 0,0 0,0 4,0 9,0 6,0 16,0 27,5 13,5 24,11 36,12l0 0 0 0c1,1 2,1 3,1 4,0 7,0 10,0 3,0 6,0 9,0 -94,-86 -218,-140 -354,-146 5,6 10,12 16,16z"/>
    <path class="fil35" d="M6301 487c26,42 45,88 57,136 4,1 8,2 12,4 -13,-54 -34,-105 -62,-150 -2,4 -4,7 -7,10z"/>
    <path class="fil35" d="M5451 998c-25,-42 -44,-87 -56,-136 -4,-1 -8,-2 -12,-4 12,54 33,105 62,150 2,-4 4,-7 6,-10z"/>
    <path class="fil35" d="M5395 623c12,-48 31,-94 56,-136 -2,-3 -4,-6 -6,-10 -28,45 -50,96 -62,150 4,-2 8,-3 12,-4z"/>
    <path class="fil35" d="M5620 1167c-3,3 -6,5 -10,7 46,28 96,50 151,62 -2,-4 -3,-8 -4,-12 -49,-12 -95,-31 -137,-57z"/>
    <path class="fil35" d="M5761 249c-54,13 -105,34 -151,62 4,2 8,4 11,7 42,-26 87,-45 136,-57 1,-4 2,-8 4,-12z"/>
    <path class="fil35" d="M5992 1236c54,-12 105,-34 151,-62 -4,-2 -8,-4 -11,-7 -42,26 -87,45 -136,57 -1,4 -2,8 -4,12z"/>
    <path class="fil35" d="M6358 862c-12,49 -31,94 -56,136 2,3 4,6 6,10 28,-45 49,-96 62,-150 -4,2 -8,3 -12,4z"/>
    <path class="fil35" d="M6132 318c3,-3 6,-5 10,-7 -45,-28 -96,-49 -150,-62 2,4 3,8 4,12 48,12 94,31 136,57z"/>
    <path class="fil35" d="M5876 190c0,0 0,0 0,0 0,0 0,0 0,0 0,0 1,0 1,0 0,0 -1,0 -1,0z"/>
    <path class="fil35" d="M5967 591l-3 7c0,0 -16,-10 -37,-9 -21,-1 -39,6 -39,6 0,0 -9,1 -8,-4 0,-3 1,-5 1,-5 0,0 9,-9 8,-17 -1,-7 -9,-10 -11,-27l0 -6 -5 0c0,22 -9,25 -11,33 -1,8 8,16 8,16 0,0 2,3 2,6 0,5 -9,4 -9,4 0,0 -17,-7 -39,-7 -21,0 -37,10 -37,10l-2 -7 -9 0 -14 146 115 -47 113 46 -15 -145 -8 0zm-154 174l64 25 63 -25 0 38c0,0 -3,23 -64,23 -62,0 -63,-24 -63,-24l0 -37zm-51 -28l-17 174 10 0c0,0 4,-6 12,-9 9,-1 9,-1 16,2 8,3 31,7 31,7 0,0 17,4 35,-3 14,-5 23,-10 27,-12 3,2 13,7 28,13 18,6 35,2 35,2 0,0 23,-4 31,-7 7,-3 6,-3 16,-2 8,3 12,9 12,9l10 -1 -18 -174 -13 6 0 23c1,0 2,2 2,4 0,1 0,2 -1,3l6 12 -17 0 6 -12c-1,-1 -2,-2 -2,-3 0,-2 1,-4 3,-4l0 -22 -96 39 -116 -45z"/>
    <path class="fil35" d="M5473 836c0,0 0,0 0,0 3,2 7,3 11,3 0,0 0,0 0,0 1,0 3,-1 4,-1 5,-2 8,-7 9,-12l0 0c0,0 0,-1 0,-1 0,0 0,0 0,0 0,-2 1,-3 0,-5 0,-2 0,-5 -1,-7 -1,0 -1,-1 -1,-1 0,-1 0,-1 -1,-1 0,0 0,-1 0,-1 0,0 -1,-1 -1,-1 0,0 0,0 0,-1 -1,0 -1,0 -1,0 0,-1 -1,-1 -1,-1 0,-1 0,-1 0,-1 -1,0 -1,-1 -2,-1 0,0 0,0 0,-1 -1,0 -1,0 -1,0 -1,-1 -1,-1 -1,-1 0,0 -1,0 -1,0 0,-1 -1,-1 -1,-1 0,0 -1,0 -1,0 0,-1 0,-1 -1,-1 0,0 -1,0 -1,0 -1,0 -1,0 -1,-1 0,0 -1,0 -1,0 -1,0 -1,0 -1,0 -1,0 -1,0 -2,0 0,0 0,0 0,0 -1,0 -1,0 -2,0 0,0 0,0 0,0 -1,0 -2,0 -3,0 0,0 -1,0 -1,0 -1,0 -1,0 -1,0 0,0 -1,0 -1,0 0,0 -1,0 -1,1 0,0 -1,0 -1,0 0,0 0,0 -1,0 0,0 0,0 -1,1 0,0 0,0 0,0 -1,0 -1,0 -1,0 -1,1 -1,1 -1,1 0,0 -1,0 -1,1 0,0 0,0 0,0 -1,0 -1,0 -2,1 0,0 0,0 0,0 -1,0 -1,1 -1,1 0,0 0,0 -1,0 0,1 0,1 0,1 -1,0 -1,1 -1,1 0,0 0,0 -1,1 0,0 0,0 0,0 0,1 0,1 -1,1 0,0 0,1 0,1 -1,1 -1,2 -1,3 -1,0 -1,0 -1,0 0,1 0,1 0,1 0,0 0,0 0,0 0,1 -1,2 -1,4 0,1 0,2 0,4 0,1 0,1 0,1 -1,0 -1,1 -1,1 0,1 0,2 0,3 0,0 0,1 0,1 0,32 18,68 51,94 20,16 43,26 64,29l7 2c0,0 2,-5 5,-12 3,-16 2,-29 -1,-40 -1,1 -2,1 -3,1 -2,0 -3,1 -5,1 -45,4 -86,-26 -97,-68 -1,-5 0,-8 0,-8 0,4 0,6 1,8z"/>
    <path class="fil35" d="M5715 1045c0,-2 1,-3 1,-3 -11,-4 -24,-5 -40,-2 -7,3 -12,5 -12,5l2 8c4,21 13,43 29,63 27,33 63,52 94,51 1,0 1,0 1,0 1,0 2,0 3,0 1,0 1,0 1,0 1,0 1,0 1,0 2,0 4,-1 5,-1 1,0 2,0 3,-1 0,0 0,0 0,0 0,0 1,0 1,0 0,0 0,0 0,0 1,-1 3,-1 4,-2 0,0 0,0 0,0 0,0 1,-1 1,-1 0,0 0,0 1,0 0,0 0,-1 0,-1 1,0 1,0 1,0 0,-1 1,-1 1,-1 0,0 0,0 0,-1 1,0 1,0 1,0 0,-1 0,-1 0,-1 1,0 1,-1 2,-1 0,0 0,0 0,0 0,-1 0,-1 1,-2 0,0 0,0 0,0 0,-1 0,-1 0,-1 1,-1 1,-1 1,-1 0,0 0,-1 0,-1 0,0 0,0 0,-1 1,0 1,0 1,-1 0,0 0,0 0,0 0,-1 0,-1 0,-2 0,0 0,0 0,0 0,-1 1,-2 1,-2 0,-1 0,-2 0,-2 0,-1 0,-1 0,-1 0,0 0,-1 0,-1 0,-1 0,-1 0,-1 0,-1 -1,-1 -1,-2 0,0 0,0 0,0 0,-1 0,-1 0,-2 0,0 0,0 0,0 0,-1 -1,-2 -1,-2 0,0 0,0 0,-1 0,0 -1,-1 -1,-1 0,0 0,0 0,-1 0,0 -1,0 -1,-1 0,0 0,0 0,0 -1,-1 -1,-1 -1,-1 0,-1 0,-1 -1,-1 0,0 0,-1 -1,-1 0,-1 0,-1 0,-1 -1,0 -1,0 -1,-1 0,0 -1,0 -1,0 0,-1 -1,-1 -1,-1 0,0 0,0 -1,0 0,-1 0,-1 -1,-1 0,0 0,0 0,0 -1,-1 -1,-1 -2,-1 -2,-1 -4,-2 -7,-2 -1,0 -3,0 -4,0 -1,0 -1,0 -1,0 0,0 0,0 -1,0l0 0c-5,1 -9,4 -11,9 -1,2 -1,3 -1,4 0,0 0,0 0,1 -1,3 0,7 2,10 0,0 0,0 1,0 1,1 3,2 7,2 0,0 -3,0 -7,-1 -43,-11 -73,-51 -68,-97 0,-1 0,-3 0,-4z"/>
    <path class="fil35" d="M6299 814c0,0 0,0 0,0 0,-1 -1,-2 -1,-3 0,0 -1,-1 -1,-1 0,0 0,0 0,-1 0,0 -1,0 -1,0 0,-1 0,-1 0,-1 -1,0 -1,-1 -1,-1 0,0 0,0 -1,-1 0,0 0,0 0,0 0,0 -1,-1 -1,-1 0,0 0,0 0,0 -1,-1 -1,-1 -2,-1 0,0 0,0 0,0 0,-1 -1,-1 -1,-1 0,0 -1,0 -1,-1 0,0 -1,0 -1,0 0,0 0,0 -1,0 0,-1 0,-1 -1,-1 0,0 0,0 0,0 -1,0 -1,0 -1,0 -1,-1 -1,-1 -1,-1 0,0 -1,0 -1,0 0,0 -1,0 -1,0 0,0 -1,0 -2,0 0,0 -1,0 -2,0 0,0 0,0 -1,0 0,0 -1,0 -1,0 0,0 0,0 -1,0 0,0 -1,0 -1,0 0,0 -1,0 -1,0 0,0 -1,0 -1,0 -1,1 -1,1 -1,1 0,0 -1,0 -2,0 0,0 0,0 0,1 -1,0 -1,0 -1,0 -1,0 -1,0 -1,1 -1,0 -1,0 -1,0 0,0 -1,0 -1,1 0,0 -1,0 -1,0 0,1 0,1 0,1 -1,0 -1,1 -2,1 0,0 0,0 0,1 -1,0 -1,0 -1,1 0,0 -1,0 -1,0 0,1 0,1 -1,1 0,0 0,1 0,1 0,0 0,1 -1,1 0,0 0,0 0,1 0,0 -1,1 -1,1 -1,2 -1,5 -2,7 0,2 0,3 0,5 0,0 0,0 1,0 0,0 0,1 0,1l0 0c0,5 4,10 9,12 1,0 2,1 4,1 0,0 0,0 0,0 4,0 7,-1 10,-3 0,0 1,0 1,0 0,-2 1,-4 1,-8 0,0 1,3 -1,8 -10,42 -51,72 -96,68 -2,0 -3,-1 -5,-1 -1,0 -2,0 -3,-1 -3,11 -4,24 -1,40 2,7 5,12 5,12l7 -2c21,-3 43,-13 63,-29 34,-26 52,-62 52,-94 -1,0 -1,-1 -1,-1 0,-1 0,-2 0,-3 0,0 0,-1 0,-1 0,0 0,0 0,-1 0,-2 0,-3 -1,-4 0,-2 0,-3 0,-4 0,0 0,0 0,0 0,0 0,0 -1,-1z"/>
    <path class="fil35" d="M5960 1121c0,0 -1,0 -1,0 -1,0 -3,0 -4,0 -3,0 -5,1 -7,2 -1,0 -1,0 -2,1 0,0 0,0 -1,0 0,0 0,0 -1,1 0,0 0,0 0,0 -1,0 -1,0 -1,1 -1,0 -1,0 -1,0 0,1 -1,1 -1,1 0,0 0,0 0,1 -1,0 -1,1 -2,1 0,0 0,0 0,1 0,0 -1,0 -1,1 0,0 0,0 0,0 -1,1 -1,1 -1,1 0,1 0,1 0,1 -1,0 -1,1 -1,1 0,1 0,1 0,1 -1,0 -1,1 -1,2 0,0 0,0 0,0 0,1 0,1 0,2 -1,0 -1,0 -1,0 0,1 0,1 0,2 0,0 0,0 0,1 0,0 0,1 0,1 0,0 0,0 0,1 0,0 0,1 0,2 0,0 0,1 0,2 0,0 0,0 1,0 0,1 0,1 0,2 0,0 0,0 0,0 0,1 0,1 0,1 0,1 1,1 1,1 0,0 0,1 0,1 0,0 0,0 0,1 1,0 1,0 1,1 0,0 0,0 0,0 1,1 1,1 1,2 0,0 0,0 0,0 1,0 1,1 1,1 0,0 1,0 1,1 0,0 0,0 0,0 1,1 1,1 1,1 0,0 1,0 1,1 0,0 0,0 0,0 1,0 1,1 1,1 0,0 1,0 1,0 0,0 0,1 1,1 0,0 0,0 0,0 1,1 2,1 3,2 1,0 1,0 1,0 0,0 1,0 1,0 0,0 0,0 0,0 1,1 2,1 3,1 1,0 3,1 5,1 0,0 0,0 0,0 1,0 1,0 1,0 1,0 2,0 3,0 1,0 1,0 2,0 31,1 67,-18 94,-51 15,-20 25,-42 29,-63l2 -8c0,0 -5,-2 -13,-5 -15,-3 -28,-2 -39,2 0,0 0,1 1,3 0,1 0,3 0,4 5,46 -25,86 -68,97 -4,1 -7,1 -7,1 3,0 6,-1 7,-2 0,0 0,0 0,0 2,-3 4,-7 3,-10 0,-1 0,-1 0,-1 0,-1 0,-2 -1,-4 -2,-5 -6,-8 -12,-9l0 0c0,0 0,0 0,0z"/>
    <path class="fil35" d="M5472 649c11,-43 52,-73 97,-68 2,0 3,0 5,0 1,1 2,1 3,1 3,-11 4,-24 1,-39 -3,-8 -5,-12 -5,-12l-7 1c-21,4 -44,14 -64,29 -33,27 -51,63 -51,94 0,1 0,1 0,2 0,1 0,2 0,3 0,0 0,0 1,1 0,0 0,0 0,0 0,2 0,4 0,5 0,1 1,2 1,3 0,0 0,0 0,0 0,1 0,1 0,1 0,0 0,0 1,1 0,1 0,2 1,3 0,0 0,0 0,0 1,1 1,1 1,1 0,0 0,1 0,1 1,0 1,0 1,1 0,0 0,0 1,0 0,1 0,1 0,1 1,0 1,0 1,1 0,0 0,0 1,0 0,1 0,1 0,1 1,0 1,0 2,1 0,0 0,0 0,0 0,0 1,1 1,1 0,0 0,0 1,0 0,0 0,0 1,1 0,0 0,0 0,0 1,0 1,0 1,0 1,1 1,1 1,1 0,0 1,0 1,0 0,0 1,0 1,0 0,0 1,0 1,1 0,0 0,0 1,0 0,0 1,0 1,0 1,0 2,0 3,0 0,0 0,0 0,0 1,0 1,0 2,0 0,0 0,0 0,0 1,0 1,0 2,0 0,0 0,0 1,0 0,-1 1,-1 1,-1 0,0 0,0 1,0 0,0 1,0 1,-1 1,0 1,0 1,0 0,0 1,0 1,-1 0,0 1,0 1,0 0,0 1,0 1,-1 0,0 0,0 1,0 0,0 0,-1 1,-1 0,0 0,0 0,0 1,-1 1,-1 2,-2 0,0 0,0 0,0 0,0 1,-1 1,-1 0,0 0,0 1,-1 0,0 0,0 0,-1 0,0 1,0 1,0 0,-1 0,-1 0,-1 1,-1 1,-1 1,-1 0,-1 0,-1 1,-2 1,-2 1,-4 1,-7 1,-1 0,-3 0,-4 0,0 0,0 0,-1 0,0 0,0 0,0l0 0c-1,-6 -4,-10 -9,-12 -1,-1 -3,-1 -4,-1 0,0 0,0 0,0 -4,-1 -8,1 -11,3 0,0 0,0 0,0 -1,1 -1,4 -1,7 0,0 -1,-3 0,-7z"/>
    <path class="fil35" d="M5793 364c0,0 0,0 1,0 1,0 3,0 4,0 3,-1 5,-1 7,-2 1,0 1,-1 2,-1 0,0 0,0 0,0 1,-1 1,-1 1,-1 1,0 1,0 1,0 0,-1 1,-1 1,-1 0,0 1,0 1,-1 0,0 0,0 1,-1 0,0 0,0 0,0 1,0 1,-1 1,-1 1,-1 1,-1 1,-1 0,0 0,-1 1,-1 0,0 0,0 0,-1 0,0 1,0 1,-1 0,0 0,0 0,0 0,-1 1,-1 1,-2 0,0 0,0 0,0 0,-1 1,-2 1,-2 0,0 0,0 0,-1 0,0 0,-1 0,-1 0,0 0,-1 0,-1 0,0 1,-1 1,-1 0,0 0,-1 0,-1 0,0 0,-1 0,-1 0,-1 0,-1 0,-1 0,-1 0,-2 0,-2 0,-1 -1,-1 -1,-2 0,0 0,-1 0,-1 0,0 0,-1 0,-1 0,0 0,0 0,-1 0,0 0,0 -1,-1 0,0 0,0 0,0 0,-1 0,-1 0,-1 0,-1 0,-1 -1,-1 0,0 0,-1 0,-1 0,0 0,0 0,-1 -1,0 -1,-1 -1,-1 0,0 0,0 0,0 -1,-1 -1,-1 -2,-2 0,0 0,0 0,0 0,0 0,-1 -1,-1 0,0 0,0 0,0 0,-1 -1,-1 -1,-1 0,0 0,0 -1,-1 0,0 0,0 0,0 -1,0 -1,-1 -1,-1 0,0 -1,0 -1,0 0,0 0,-1 0,-1 -1,0 -3,-1 -4,-1 0,0 0,0 0,0 0,0 -1,-1 -1,-1 0,0 0,0 0,0 -1,0 -2,0 -3,0 -1,-1 -3,-1 -5,-1 0,0 0,0 -1,0 0,0 0,0 -1,0 -1,0 -2,0 -3,0 0,0 0,0 -1,0 -31,-1 -67,17 -94,51 -16,20 -25,42 -29,63l-2 7c0,0 5,3 12,5 16,3 29,2 40,-1 0,-1 -1,-2 -1,-3 0,-2 0,-3 0,-5 -5,-45 25,-86 68,-96 4,-2 7,-1 7,-1 -4,0 -6,1 -7,1 -1,1 -1,1 -1,1 -2,3 -3,6 -2,10 0,0 0,0 0,0 0,2 0,3 1,4 2,5 6,9 11,9l0 0c1,0 1,0 1,1z"/>
    <path class="fil35" d="M6280 649c0,0 -1,0 -1,0 -3,-2 -6,-4 -10,-3 0,0 0,0 0,0 -2,0 -3,0 -4,1 -5,2 -9,6 -9,12l0 0c0,0 0,0 0,0 -1,1 -1,1 -1,1 0,1 0,3 0,4 1,3 1,5 2,7 0,1 1,1 1,2 0,0 0,0 0,1 1,0 1,0 1,1 0,0 0,0 0,0 1,1 1,1 1,1 0,1 1,1 1,1 0,0 0,1 1,1 0,0 0,0 0,0 1,1 1,1 2,2 0,0 0,0 0,0 0,0 1,1 1,1 0,0 1,0 1,0 0,1 0,1 1,1 0,0 0,0 1,0 0,1 0,1 1,1 0,0 0,0 0,0 1,1 2,1 2,1 0,0 0,0 1,0 0,0 1,0 1,1 0,0 1,0 1,0 0,0 1,0 1,0 1,0 1,0 1,0 0,0 1,0 1,0 1,0 1,0 1,0 1,0 2,0 2,0 1,0 2,0 2,0 0,0 1,0 1,0 0,-1 1,-1 1,-1 0,0 0,0 1,0 0,0 0,0 1,0 0,0 0,0 0,-1 1,0 1,0 1,0 1,0 1,0 1,0 0,-1 1,-1 1,-1 0,0 1,0 1,0 0,0 1,-1 1,-1 0,0 0,0 0,0 1,-1 1,-1 2,-1 0,0 0,0 0,-1 0,0 1,0 1,0 0,-1 0,-1 0,-1 1,0 1,0 1,-1 0,0 0,0 1,0 0,-1 0,-1 0,-1 0,0 1,-1 1,-1 0,0 0,0 0,-1 0,0 1,0 1,0 0,-1 1,-2 1,-3 0,-1 0,-1 0,-1 1,0 1,0 1,-1 0,0 0,0 0,0 0,-1 0,-2 0,-3 1,-1 1,-3 1,-5 0,0 0,0 0,0 0,-1 0,-1 0,-1 0,-1 0,-2 0,-3 0,-1 0,-1 1,-2 0,-31 -18,-67 -52,-94 -20,-15 -42,-25 -63,-29l-7 -1c0,0 -3,4 -5,12 -3,15 -2,28 1,39 1,0 2,0 3,-1 2,0 3,0 5,0 45,-5 86,25 96,68 2,4 1,7 1,7 0,-3 -1,-6 -1,-7z"/>
    <path class="fil35" d="M6038 440c-1,1 -1,2 -1,3 11,3 24,4 39,1 8,-2 13,-5 13,-5l-2 -7c-4,-21 -14,-43 -29,-63 -27,-34 -63,-52 -94,-51 -1,0 -1,0 -2,0 -1,0 -2,0 -3,0 0,0 0,0 -1,0 0,0 0,0 0,0 -2,0 -4,0 -5,1 -1,0 -2,0 -3,0 0,0 0,0 0,0 0,0 -1,1 -1,1 0,0 0,0 -1,0 -1,0 -2,1 -3,1 0,0 0,1 0,1 -1,0 -1,0 -1,0 0,0 -1,1 -1,1 0,0 0,0 -1,0 0,1 0,1 0,1 0,0 -1,0 -1,1 0,0 0,0 -1,0 0,0 0,1 0,1 0,0 -1,0 -1,0 0,1 0,1 -1,2 0,0 0,0 0,0 0,0 0,1 -1,1 0,1 0,1 0,1 0,0 0,1 -1,1 0,0 0,0 0,1 0,0 0,0 0,1 0,0 -1,0 -1,0 0,1 0,1 0,1 0,1 0,1 0,1 0,0 0,1 0,1 -1,0 -1,1 -1,1 0,1 0,1 0,2 0,0 0,1 0,2 0,0 0,0 0,1 0,0 0,1 0,1 0,0 0,1 0,1 0,0 0,1 0,1 0,0 0,1 1,1 0,0 0,1 0,1 0,1 0,1 0,1 0,0 0,1 1,2 0,0 0,0 0,0 0,1 0,1 1,2 0,0 0,0 0,0 0,1 0,1 1,1 0,1 0,1 0,1 0,0 1,1 1,1 0,0 0,0 0,1 1,0 1,1 2,1 0,0 0,0 0,0 0,1 1,1 1,1 0,1 0,1 1,1 0,0 0,0 1,1 0,0 0,0 0,0 1,0 1,0 1,1 1,0 1,0 1,0 1,0 1,1 2,1 2,1 4,1 7,2 1,0 3,0 4,0 0,0 1,0 1,0 0,-1 0,-1 0,-1l0 0c6,0 10,-4 12,-9 1,-1 1,-2 1,-4 0,0 0,0 0,0 1,-4 -1,-7 -3,-10 0,0 0,0 0,-1 -1,0 -4,-1 -7,-1 0,0 3,-1 7,1 43,10 73,51 68,96 0,2 0,3 0,5z"/>
    <path class="fil35" d="M5483 1134c0,1 0,1 0,1 1,0 1,0 1,0 0,0 0,0 0,0 0,-1 0,-1 -1,-1z"/>
    <path class="fil35" d="M5483 350c1,0 1,0 1,0 0,0 0,0 0,0 0,0 0,0 -1,0 0,0 0,0 0,0z"/>
    <path class="fil35" d="M6269 1134c0,0 0,0 0,1 0,0 0,0 0,0 0,0 0,0 0,0 0,0 0,0 0,-1z"/>
    <path class="fil35" d="M6269 350c0,0 0,0 0,0 0,0 0,0 0,0 0,0 0,0 0,0 0,0 0,0 0,0z"/>
    <path class="fil35" d="M5323 743c1,0 1,0 1,0 0,0 0,0 0,0 0,0 0,-1 0,-1 0,0 0,1 -1,1z"/>
    <path class="fil35" d="M5876 1296c1,-1 1,-1 1,-1 0,0 -1,0 -1,0 0,0 0,0 0,0 0,0 0,0 0,1z"/>
    <path class="fil35" d="M5380 721l0 0c0,0 0,0 0,0 0,0 0,0 0,0z"/>
    <path class="fil35" d="M5508 405l0 0c0,0 0,0 0,0 0,0 0,0 0,0l0 0z"/>
    <path class="fil35" d="M5508 1080c0,0 0,0 0,0l0 0c0,0 0,0 0,0z"/>
    <path class="fil35" d="M5855 1239l0 0 0 0c0,0 0,0 0,0l0 0z"/>
    <path class="fil35" d="M6245 1080c0,0 0,0 0,0l0 0c0,0 0,0 0,0z"/>
    <path class="fil35" d="M5898 246l0 0 0 0c0,0 0,0 0,0z"/>
    <path class="fil35" d="M6245 405c0,0 0,0 0,0l0 0c0,0 0,0 0,0z"/>
    <path class="fil35" d="M6373 764l0 0 0 0c0,0 0,0 0,0z"/>
    <path class="fil35" d="M5840 200c-1,1 -2,1 -3,2 -11,8 -24,13 -36,18 -16,6 -25,19 -25,19 -15,19 -13,39 -11,48 0,2 0,3 0,4 0,1 0,1 0,1 -4,1 -15,8 -16,9 -4,3 -7,6 -10,9 -10,9 -19,20 -27,33 23,-20 51,-31 76,-31l1 0 0 0 0 0 2 0 0 0c1,0 2,0 3,0l0 0 0 0 1 0 0 0 0 0 0 0c3,0 4,1 6,1l0 0c0,0 0,0 0,0 0,0 0,0 0,0l0 0c1,0 2,0 2,1l1 0 1 0 1 0 0 0 0 1 0 0c2,0 3,1 4,1l1 1 0 0 0 0 0 0 1 1 0 0 1 0 0 0 1 1 0 0 1 1 0 0 1 1 0 0 0 0 0 0 1 1 1 1 0 0 1 2 0 0 0 0 1 1 0 0 1 1 0 0 0 1 1 1 0 0 0 0 0 1 0 0 1 1 0 1 0 1 0 0 0 1 1 0 0 1 0 1 0 0c0,0 0,1 0,2l0 0c0,0 0,0 0,0 0,0 0,0 0,0l0 0c0,1 0,2 0,3l0 0 0 0 0 1 0 0 0 1c0,0 0,2 0,3l0 1 0 0c0,1 0,1 -1,2l0 0 0 0 0 0c0,1 0,2 -1,3l0 0 0 0 0 1 0 0 -1 1 0 0 0 1 0 0 -1 1 0 0 -1 1 0 0c3,13 0,27 -6,39 -1,1 -1,1 -1,2 2,2 5,5 7,8l0 0c0,0 0,0 0,0 0,0 0,0 0,0l0 0c8,11 15,22 19,34 14,-16 23,-32 26,-50 6,-22 1,-45 -14,-69 21,-21 25,-41 12,-59 -9,-12 -14,-21 -15,-27 0,0 -2,-4 -1,-9 0,0 0,7 5,10 1,0 2,1 3,1 1,1 2,1 3,1 6,1 13,0 18,-5 1,0 1,0 1,-1 1,1 1,1 2,1 5,5 12,6 18,5 1,0 2,0 3,-1 1,0 2,-1 3,-1 5,-3 5,-10 5,-10 1,5 -1,9 -1,9 -1,6 -6,15 -15,27 -13,18 -10,38 12,59 -15,24 -20,47 -15,69 4,18 13,34 26,50 5,-12 11,-23 20,-34l0 0c0,0 0,0 0,0 0,0 0,0 0,0l0 0c2,-3 4,-6 7,-8 0,-1 -1,-1 -1,-2 -6,-12 -9,-26 -7,-39l0 0 0 0 0 -1 0 0 -1 -1 0 0 0 -1 -1 0 0 -1 0 0 0 -1 -1 0c0,-1 0,-2 0,-3l0 0 0 0 -1 0 0 0c0,-1 0,-1 0,-2l0 0 0 0 0 -1c0,-1 -1,-3 -1,-3l0 -1 0 0 0 -1 0 0c0,-1 0,-2 0,-3l0 0c0,0 0,0 0,0 0,0 0,0 0,0l1 0c0,-1 0,-2 0,-2l0 0 0 0 0 -1 0 -1 0 -1 1 0 0 0 0 -2 0 0 0 -1 0 0 1 -1 0 0 0 -1 0 0 1 -1 0 0 0 -1 0 0 1 -1 0 0 1 -1 1 -1 0 0 0 -1 1 -1 0 0 1 0 0 -1 1 0 0 -1 1 0 0 0 1 -1 0 0 0 0 1 0 1 -1 0 0 0 0 0 -1c2,0 3,-1 4,-1l0 0 1 -1 0 0 2 0 0 0c1,-1 2,-1 3,-1l0 0c0,0 0,0 0,0 0,0 0,0 0,0l0 0c1,0 3,-1 5,-1l0 0 1 0 0 0 1 0 0 0c1,0 2,0 3,0l0 0 0 0 1 0 2 0c25,0 52,11 76,31 -8,-13 -17,-24 -27,-33 -3,-3 -7,-6 -10,-9 -1,-1 -13,-8 -16,-9 0,0 0,0 -1,-1 1,-1 1,-2 1,-4 2,-9 3,-29 -11,-48 0,0 -9,-13 -25,-19 -12,-5 -25,-10 -36,-18 -1,-1 -2,-1 -3,-2 -15,-12 -26,-28 -32,-45 -1,-2 -2,-5 -3,-7 0,-2 0,-4 -1,-6 0,0 0,0 0,0 0,0 0,-10 0,-21 0,0 -1,15 -1,21 -1,2 -1,4 -1,6 -1,2 -2,5 -3,7 -6,17 -17,33 -32,45zm-16 97l0 0c0,0 -11,-7 -19,-9 0,0 -3,-14 11,-23 0,0 17,16 8,32zm113 -32l0 0c14,9 11,23 11,23 -8,2 -19,9 -19,9 -10,-16 8,-32 8,-32zm-68 -79l0 0c3,-4 5,-8 7,-13 0,-1 0,-1 0,-2 1,1 1,1 1,2 2,5 4,9 7,13 1,2 6,8 10,8 -7,0 -13,2 -18,7 -4,-5 -11,-7 -17,-7 3,0 8,-6 10,-8z"/>
    <path class="fil35" d="M5913 1286c1,-1 2,-2 3,-3 11,-8 24,-12 36,-18 16,-6 25,-19 25,-19 14,-19 13,-39 11,-48 0,-1 0,-3 -1,-4 1,0 1,0 1,-1 3,0 15,-8 16,-9 3,-3 7,-5 10,-9 10,-9 19,-20 27,-33 -24,20 -51,31 -76,31l-2 0 0 0 0 0 -1 0 0 0c-1,0 -2,0 -3,0l0 0 0 0 -1 0 0 0 -1 0 0 0c-2,0 -4,0 -5,-1 0,0 0,0 0,0 0,0 0,0 0,0l0 0c-1,0 -2,0 -3,0l0 0 -1 -1 -1 0 0 0 -1 0 0 0c-1,-1 -2,-1 -4,-2l0 0 0 0 0 -1 0 0 -2 0 0 0 0 -1 0 0 -1 -1 0 0 -1 0 0 0 -1 -1 0 0 -1 -1 0 0 -1 -1 0 0 0 -1 -2 -1 0 -1 0 0 -1 -1 0 0 0 -1 0 0 -1 -1 0 0 0 -1 0 0 -1 -1 0 0 0 -1 0 0 0 -1 0 0 -1 -1 0 -1 0 -1 0 0 0 -1c0,0 0,-1 0,-2l-1 0c0,0 0,0 0,0 0,0 0,0 0,0l0 0c0,-1 0,-2 0,-2l0 -1 0 0 0 0 0 -1 0 0c1,-2 1,-4 1,-4l0 -1 0 0c0,0 0,-1 0,-1l0 0 1 -1 0 0c0,-1 0,-2 0,-3l1 0 0 0 0 0 0 0 1 -2 0 0 0 -1 0 0 1 -1 0 0 0 -1 0 0c-2,-13 1,-27 7,-39 0,0 1,-1 1,-1 -3,-3 -5,-6 -7,-9l0 0c0,0 0,0 0,0 0,0 0,0 0,0l0 0c-9,-11 -15,-22 -20,-34 -13,16 -22,33 -26,51 -5,21 0,44 15,69 -22,20 -25,40 -12,58 9,12 14,21 15,27 0,0 2,4 1,9 0,0 0,-6 -5,-10 -1,0 -2,-1 -3,-1 -1,0 -2,0 -3,-1 -6,-1 -13,1 -18,5 -1,0 -1,1 -2,1 0,0 0,-1 -1,-1 -5,-4 -12,-6 -18,-5 -1,1 -2,1 -3,1 -1,0 -2,1 -3,1 -5,4 -5,10 -5,10 -1,-5 1,-9 1,-9 1,-6 6,-15 15,-27 13,-18 9,-38 -12,-58 15,-25 20,-48 15,-69 -4,-18 -13,-35 -27,-51 -4,12 -11,23 -19,34l0 0c0,0 0,0 0,0 0,0 0,0 0,0l0 0c-2,3 -5,6 -7,9 0,0 0,1 1,1 6,12 9,26 6,39l0 0 0 0 1 1 0 0 1 1 0 0 0 1 0 0 1 2 0 0 0 0 0 0c1,1 1,2 1,3l0 0 0 0 0 1 0 0c1,0 1,1 1,1l0 0 0 1 0 0c0,0 0,2 0,4l0 1 0 0 0 0 0 1c0,0 0,1 0,2l0 0c0,0 0,0 0,0 0,0 0,0 0,0l0 0c0,1 0,2 0,2l0 1 0 0 0 0 -1 2 0 0 0 1 0 0 0 1 0 0 -1 1 0 0 0 1 0 0 -1 1 0 0 0 1 0 0 -1 1 0 0 -1 1 0 1 0 0 -1 2 0 0 -1 0 -1 1 0 0 0 1 0 0 -1 1 0 0 -1 0 0 0 -1 1 0 0 -1 1 0 0 -1 0 0 0 0 1 -1 0c-1,1 -2,1 -4,2l0 0 0 0 0 0 -2 1 -1 0c0,0 -1,0 -2,0l0 0c0,0 0,0 0,0 0,0 0,0 0,0 -2,1 -3,1 -6,1l0 0 0 0 0 0 -1 0 0 0c-1,0 -2,0 -3,0l0 0 -1 0 -1 0 -1 0c-25,0 -53,-11 -76,-31 8,13 17,24 27,33 3,4 6,6 10,9 1,1 12,9 16,9 0,1 0,1 0,1 0,1 0,3 0,4 -2,9 -4,29 11,48 0,0 9,13 25,19 12,6 25,10 36,18 1,1 2,2 3,3 15,11 26,27 32,45 1,2 2,4 3,6 0,2 0,4 1,6 -1,0 -1,0 -1,0 0,0 1,10 0,22 0,0 2,-16 2,-22 1,-2 1,-4 1,-6 1,-2 2,-4 3,-6 6,-18 17,-34 32,-45zm16 -97l0 0c0,0 11,6 19,8 0,0 3,15 -11,23 0,0 -18,-16 -8,-31zm-113 31l0 0c-14,-8 -11,-23 -11,-23 8,-2 19,-8 19,-8 9,15 -8,31 -8,31zm68 80l0 0c-3,3 -5,8 -7,12 0,1 0,2 -1,2 0,0 0,-1 0,-2 -2,-4 -4,-9 -7,-12 -2,-3 -7,-8 -10,-9 6,0 13,-2 17,-6 5,4 11,6 18,6 -4,1 -9,6 -10,9z"/>
    <path class="fil35" d="M6477 742c-2,0 -4,-1 -6,-1 -2,-1 -5,-2 -7,-2 -17,-7 -33,-18 -45,-33 -1,-1 -1,-2 -2,-3 -8,-11 -13,-24 -18,-36 -6,-16 -19,-25 -19,-25 -19,-14 -39,-13 -48,-11 -2,0 -3,1 -4,1 -1,-1 -1,-1 -1,-1 -1,-3 -8,-15 -9,-16 -3,-3 -6,-7 -9,-10 -9,-10 -20,-19 -33,-27 20,24 31,51 31,76l0 2 0 0 0 0 0 1 0 0c0,1 0,2 0,3l0 0 0 0 0 1 0 0 0 1 0 0c0,2 -1,4 -1,5l0 0c0,0 0,0 0,0 0,0 0,0 0,0l0 0c0,1 0,2 -1,3l0 0 0 1 0 1 0 0 0 1 0 0c-1,1 -2,2 -2,4l0 0 -1 0 0 0 0 0 -1 2 0 0 0 0 0 0 -1 1 0 0 -1 1 0 0 -1 1 0 0 0 1 0 0 -1 1 -1 0 0 0 -2 2 0 0 0 0 -1 1 0 0 -1 0 0 0 -1 1 0 0 -1 0 0 0 -1 1 0 0 -1 0 0 0 -2 0 0 1 -1 0 0 0 -1 0 -1 0 0 0c0,0 -1,0 -2,1l0 0c0,0 0,0 0,0 0,0 0,0 0,0l0 0c-1,0 -2,0 -3,0l0 0 0 0 -1 0 0 0 -1 0c-2,-1 -3,-1 -3,-1l-1 0 0 0c-1,0 -1,0 -2,0l0 0 0 0 0 -1c-1,0 -2,0 -3,0l0 0 0 -1 -1 0 0 0 -1 0 0 -1 -1 0 0 0 -1 -1 0 0 -1 0 0 0c-13,2 -27,-1 -39,-7 -1,0 -1,-1 -1,-1 -3,3 -6,5 -9,7l0 0c0,0 0,0 0,0 0,0 0,0 0,0l0 0c-11,9 -22,15 -34,20 16,13 33,22 50,26 22,5 45,0 69,-15 21,22 41,25 59,12 12,-9 21,-14 27,-15 0,0 4,-2 9,-1 0,0 -6,0 -10,5 0,1 -1,2 -1,3 -1,1 -1,2 -1,3 -1,6 0,13 5,18 0,1 0,1 1,2 -1,0 -1,1 -1,1 -5,5 -6,12 -5,18 0,1 0,2 1,3 0,1 1,2 1,3 4,5 10,5 10,5 -5,1 -9,-1 -9,-1 -6,-1 -15,-6 -27,-14 -18,-14 -38,-10 -59,11 -24,-15 -47,-20 -69,-14 -17,3 -34,12 -50,26 12,4 23,11 34,19l0 0c0,0 0,0 0,0 0,0 0,0 0,0l0 0c3,2 6,5 8,7 1,0 1,0 2,-1 12,-6 26,-9 39,-6l0 0 0 0 1 -1 0 0 1 -1 0 0 1 0 0 0 1 -1 0 0 1 0 0 0c1,-1 2,-1 3,-1l0 0 0 0 0 0 0 0c1,0 1,-1 2,-1l0 0 0 0 1 0c0,0 2,0 3,0l1 0 0 0 1 0 0 0c1,0 2,0 3,0l0 0c0,0 0,0 0,0 0,0 0,0 0,0l0 0c1,0 2,0 2,0l0 0 0 0 1 0 1 1 1 0 0 0 0 0 2 0 0 0 1 1 0 0 1 0 0 0 1 1 0 0 1 0 0 0 1 1 0 0 1 1 0 0 1 0 1 1 0 0 1 1 1 1 0 0 0 0 1 0 0 1 1 0 0 1 0 0 1 1 0 0 0 1 0 0 1 1 0 0 1 1 0 0c0,1 1,2 2,4l0 0 0 0 0 0 0 2 0 1c1,0 1,1 1,2l0 0c0,0 0,0 0,0 0,0 0,0 0,0l0 0c0,2 1,3 1,6l0 0 0 0 0 0 0 1 0 0c0,1 0,2 0,3l0 1 0 0 0 1 0 1c0,25 -11,52 -31,76 0,-1 0,-1 0,-1 -5,6 -20,22 -42,34 0,1 1,2 1,3 0,0 0,0 0,1 1,10 -2,26 -10,34 -5,4 -16,5 -22,3 -17,-4 -29,-20 -35,-37 -11,-50 23,-78 23,-78 -4,-5 -10,-10 -16,-13 -3,-2 -6,-3 -8,-4 -2,-1 -4,-2 -5,-3 -1,0 -1,0 -1,0l0 0c-4,-1 -8,-2 -12,-3 1,-3 2,-5 3,-8 5,2 10,3 15,6 19,8 38,25 51,49 1,1 1,2 2,3 16,-6 30,-16 40,-29 -1,-1 -2,-3 -3,-4 -9,-17 -21,-32 -34,-45 -4,-4 -9,-8 -14,-11 -14,-11 -29,-19 -45,-23 2,-12 3,-25 3,-38 0,-14 -1,-27 -3,-39 16,-4 31,-12 45,-23 5,-4 10,-8 14,-12 13,-12 25,-27 34,-44 1,-2 2,-3 3,-5 -10,-13 -24,-23 -40,-29 -1,2 -1,3 -2,4 -13,23 -32,40 -51,49 -5,2 -10,4 -15,5 -1,-2 -2,-5 -3,-7 4,-1 8,-2 12,-4l0 0c0,0 0,0 1,0 1,-1 3,-1 5,-2 2,-1 5,-3 8,-4 6,-4 12,-8 16,-13 0,0 -34,-28 -23,-78 6,-18 18,-34 35,-38 6,-1 17,0 22,4 8,8 11,23 10,34 0,0 0,1 0,1 0,1 -1,1 -1,2 22,13 37,28 42,34 4,-16 6,-31 6,-46 0,-5 -1,-9 -1,-14 -1,-1 -3,-14 -5,-17 0,0 0,-1 0,-1 1,-1 2,-2 3,-3 8,-5 23,-17 27,-41 0,0 2,-16 -4,-32 -6,-12 -12,-24 -14,-38 0,-1 0,-2 0,-4 -2,-18 1,-37 9,-54 1,-2 2,-5 3,-7 1,-1 2,-3 4,-4 0,0 0,0 0,0 0,0 7,-7 15,-15 0,0 -12,10 -17,13 -1,2 -3,3 -4,4 -2,1 -5,2 -7,3 -17,8 -36,11 -54,9 -2,0 -3,0 -4,0 -14,-2 -26,-8 -38,-14 -16,-6 -32,-4 -32,-4 -24,4 -36,19 -41,27 -1,1 -2,2 -3,3 0,0 -1,0 -1,0 -3,-2 -16,-4 -17,-5 -5,0 -9,-1 -14,-1 -15,0 -30,2 -46,6 6,5 21,20 34,42 1,0 1,0 2,-1 0,0 1,0 1,0 11,-1 27,2 34,10 4,5 5,16 4,22 -4,17 -20,29 -38,35 -50,11 -78,-23 -78,-23 -5,4 -9,10 -13,16 -1,3 -3,6 -4,8 -1,2 -1,4 -2,5 0,1 0,1 0,1 -2,4 -3,8 -4,12 -2,-1 -5,-2 -7,-3 1,-5 3,-10 5,-15 9,-19 26,-38 49,-51 1,-1 2,-1 4,-2 -6,-16 -16,-29 -29,-40 -2,1 -3,2 -5,3 -17,10 -32,21 -44,34 -4,4 -8,9 -12,14 -11,14 -18,30 -22,45 -13,-2 -26,-3 -40,-3 -13,0 -26,1 -39,3 -4,-15 -11,-31 -23,-45 -3,-5 -7,-10 -11,-14 -12,-13 -27,-24 -45,-34 -1,-1 -3,-2 -4,-3 -13,11 -23,24 -29,40 1,1 2,1 4,2 23,13 40,32 49,51 2,5 4,10 5,15 -3,1 -5,2 -8,3 0,-4 -1,-8 -3,-12 0,0 0,0 0,-1 -1,-1 -1,-3 -2,-5 -2,-2 -3,-5 -5,-8 -3,-6 -7,-12 -12,-16 0,0 -28,34 -78,23 -18,-6 -34,-18 -38,-35 -2,-6 -1,-17 4,-22 7,-8 23,-11 34,-10 0,0 0,0 1,0 0,1 1,1 2,1 12,-22 28,-37 34,-42 -16,-4 -32,-6 -46,-6 -5,0 -9,1 -14,1 -1,1 -14,3 -17,5 -1,0 -1,0 -1,0 -1,-1 -2,-2 -3,-3 -5,-8 -18,-23 -41,-27 0,0 -16,-2 -32,4 -12,6 -24,12 -38,14 -1,0 -3,0 -4,0 -18,2 -38,-1 -55,-9 -1,-1 -4,-2 -6,-3 -2,-1 -3,-2 -5,-4 -5,-3 -16,-13 -16,-13 8,8 15,15 15,15 0,0 0,0 0,0 1,1 2,3 4,4 1,2 2,5 3,7 7,17 11,36 9,54 0,2 -1,3 -1,4 -2,14 -8,26 -13,38 -6,16 -4,32 -4,32 4,24 19,36 27,41 1,1 2,2 3,3 0,0 0,1 0,1 -2,3 -5,16 -5,17 -1,5 -1,9 -1,14 0,15 1,30 6,46 5,-6 20,-21 41,-34 0,-1 0,-1 0,-2 0,0 0,-1 0,-1 -1,-11 2,-26 10,-34 5,-4 15,-5 21,-4 18,4 29,20 35,38 12,50 -22,78 -22,78 4,5 10,9 16,13 2,1 5,3 8,4 2,1 3,1 5,2 1,0 1,0 1,0l0 0c4,2 8,3 12,4 -1,2 -2,5 -3,7 -5,-1 -11,-3 -16,-5 -19,-9 -37,-26 -50,-49 -1,-1 -2,-2 -2,-4 -16,6 -30,16 -40,29 1,2 2,3 2,5 10,17 22,32 35,44 4,4 9,8 13,12 15,11 30,19 45,23 -1,12 -2,25 -2,39 0,13 1,26 2,38 -15,4 -30,12 -45,23 -4,3 -9,7 -13,11 -13,13 -25,28 -35,45 0,1 -1,3 -2,4 10,13 24,23 40,29 0,-1 1,-2 2,-3 13,-24 31,-41 50,-49 5,-3 11,-4 16,-6 1,3 2,5 2,8 -3,1 -7,2 -11,3l0 0c0,0 0,0 -1,0 -2,1 -3,2 -5,3 -3,1 -6,2 -8,4 -6,3 -12,8 -16,13 0,0 34,28 22,78 -6,17 -17,33 -35,37 -6,2 -16,1 -21,-3 -8,-8 -11,-24 -10,-34 0,-1 0,-1 0,-1 0,-1 0,-2 0,-3 -21,-12 -36,-28 -41,-34 -1,0 -1,0 -1,1 -19,-24 -30,-51 -30,-76l0 -1 0 0 0 -1 0 -1c0,-1 0,-2 0,-3l0 0 0 0 0 -1 0 0 0 0 0 0c0,-3 0,-4 1,-6l0 0c0,0 0,0 0,0 0,0 0,0 0,0l0 0c0,-1 0,-2 0,-2l0 -1 1 -1 0 -1 0 0 0 0 0 0c1,-2 1,-3 2,-4l0 0 0 -1 1 0 0 0 0 -1 0 0 1 -1 0 0 1 -1 0 0 0 -1 0 0 1 -1 0 0 1 0 0 0 1 -1 0 -1 1 0 1 -1 1 0 0 0 1 -1 0 0 1 -1 0 0 1 0 0 0 1 -1 0 0 1 0 0 0 1 -1 0 0 1 0 1 0 0 0 1 0 1 -1 0 0 1 0c0,0 1,0 2,0l0 0c0,0 0,0 0,0 0,0 0,0 0,0l0 0c1,0 2,0 3,0l0 0 0 0 0 0 1 0 0 0c0,0 2,0 4,0l1 0 0 0c0,0 1,1 1,1l0 0 1 0 0 0c1,0 2,0 3,1l0 0 0 0 0 0 0 0 2 1 0 0 1 0 0 0 1 1 0 0 1 1 0 0c13,-3 27,0 39,6 0,1 1,1 1,1 3,-2 6,-5 9,-7l0 0c0,0 0,0 0,0 0,0 0,0 0,0l0 0c11,-8 22,-15 34,-19 -16,-14 -33,-23 -51,-26 -21,-6 -44,-1 -69,14 -20,-21 -40,-25 -58,-11 -12,8 -21,13 -27,14 0,0 -4,2 -9,1 0,0 6,0 10,-5 0,-1 1,-2 1,-3 0,-1 1,-2 1,-3 1,-6 0,-13 -5,-18 0,0 -1,-1 -1,-1 0,-1 1,-1 1,-2 5,-5 6,-12 5,-18 0,-1 -1,-2 -1,-3 0,-1 -1,-2 -1,-3 -4,-5 -10,-5 -10,-5 5,-1 9,1 9,1 6,1 15,6 27,15 18,13 38,10 58,-12 25,15 48,20 69,15 18,-4 35,-13 51,-26 -12,-5 -23,-11 -34,-20l0 0c0,0 0,0 0,0 0,0 0,0 0,0l0 0c-3,-2 -6,-4 -9,-7 0,0 -1,1 -1,1 -12,6 -26,9 -39,7l0 0 0 0 -1 0 0 0 -1 1 0 0 -1 1 0 0 -2 0 0 0 0 1 0 0c-1,0 -2,0 -3,0l0 1 0 0 -1 0 0 0c0,0 -1,0 -1,0l0 0 0 0 -1 0c-2,1 -4,1 -4,1l-1 0 0 0 0 0 0 0c-1,0 -2,0 -3,0l0 0c0,0 0,0 0,0 0,0 0,0 0,0l0 0c-1,-1 -2,-1 -2,-1l-1 0 0 0 0 0 -2 0 0 0 -1 -1 0 0 -1 0 0 0 -1 0 0 0 -1 -1 0 0 -1 0 0 0 -1 -1 0 0 -1 0 0 0 -1 -1 -1 0 0 -1 -2 -1 0 0 0 0 -1 -1 0 0 -1 -1 0 0 -1 -1 0 0 0 -1 0 0 -1 -1 0 0 -1 0 0 -1 0 -1 0 0 -1 0 0 0c-1,-2 -1,-3 -2,-4l0 0 0 -1 0 0 -1 -2 0 0c0,-1 0,-2 0,-3l0 0c0,0 0,0 0,0 0,0 0,0 0,0l0 0c-1,-1 -1,-3 -1,-5l0 0 0 -1 0 0 0 -1 0 0c0,-1 0,-2 0,-3l0 0 0 0 0 -1 0 -2c0,-25 11,-52 31,-76 -13,8 -24,17 -33,27 -3,3 -6,7 -9,10 -1,1 -9,13 -9,16 -1,0 -1,0 -1,1 -1,0 -3,-1 -4,-1 -9,-2 -29,-3 -48,11 0,0 -13,9 -19,25 -6,13 -10,25 -18,36 -1,1 -2,2 -3,3 -11,15 -27,26 -45,33 -2,0 -4,1 -6,2 -2,0 -4,1 -6,1 0,0 0,0 0,0 0,0 -10,0 -22,0 0,0 16,1 22,2 2,0 4,0 6,0 2,1 4,2 6,3 18,6 34,18 45,32 1,1 2,2 3,3 8,11 12,24 18,36 6,16 19,25 19,25 19,15 39,13 48,11 1,0 3,0 4,0 0,0 0,0 1,0 0,4 8,15 9,16 3,4 6,7 9,10 9,10 20,19 32,27 -4,16 -5,31 -5,46 0,4 0,9 1,13 0,2 3,15 5,18 0,0 0,0 0,1 -1,0 -2,1 -3,2 -8,5 -23,18 -27,42 0,0 -2,15 4,31 5,13 11,25 13,38 0,2 1,3 1,4 2,19 -2,38 -9,55 -1,2 -2,4 -3,6 -2,2 -3,3 -4,5 0,0 0,0 0,0 0,0 -7,7 -15,15 0,0 11,-10 16,-14 2,-1 3,-2 5,-3 2,-1 5,-2 6,-3 17,-8 37,-11 55,-10 1,1 3,1 4,1 14,2 26,8 38,13 16,7 32,4 32,4 23,-3 36,-19 41,-26 1,-1 2,-2 3,-4 0,0 0,1 1,1 3,1 16,4 17,4 5,1 9,1 14,1 14,1 30,-1 46,-5 -6,-5 -22,-20 -34,-42 -1,0 -2,0 -2,0 -1,0 -1,0 -1,0 -11,2 -27,-1 -34,-10 -5,-4 -6,-15 -4,-21 4,-18 20,-29 38,-35 50,-11 78,22 78,22 5,-3 9,-10 12,-15 2,-3 3,-6 5,-9 1,-2 1,-3 2,-5 0,0 0,-1 0,-1 1,-3 3,-7 3,-11 3,1 5,2 8,3 -1,5 -3,10 -5,15 -9,19 -26,38 -49,51 -2,0 -3,1 -4,2 6,15 16,29 29,39 1,0 3,-1 4,-2 18,-10 33,-22 45,-35 4,-4 8,-8 11,-13 11,-14 19,-29 23,-44 13,1 26,2 39,2 14,0 27,-1 40,-2 4,15 11,30 22,44 4,5 8,9 12,13 12,13 27,25 44,35 2,1 3,2 5,2 13,-10 23,-24 29,-39 -2,-1 -3,-2 -4,-2 -23,-13 -40,-32 -49,-51 -2,-5 -4,-10 -5,-15 2,-1 5,-2 7,-3 1,4 2,8 4,11 0,0 0,1 0,1 1,2 1,3 2,5 1,3 3,6 4,9 4,5 8,12 13,15 0,0 28,-33 78,-22 18,6 34,17 38,35 1,6 0,17 -4,21 -7,9 -23,12 -34,10 0,0 -1,0 -1,0 -1,0 -1,0 -2,0 -13,22 -28,37 -34,42 16,4 31,6 46,5 5,0 9,0 14,-1 1,0 14,-3 17,-4 0,0 1,-1 1,-1 1,2 2,3 3,4 5,7 17,23 41,26 0,0 16,3 32,-4 12,-5 24,-11 38,-13 1,0 2,0 4,-1 18,-1 37,2 54,10 2,1 5,2 7,3 1,1 3,2 4,3 5,4 17,14 17,14 -8,-8 -15,-15 -15,-15 0,0 0,0 0,0 -2,-2 -3,-3 -4,-5 -1,-2 -2,-4 -3,-6 -8,-17 -11,-36 -9,-55 0,-1 0,-2 0,-4 2,-13 8,-25 14,-38 6,-16 4,-31 4,-31 -4,-24 -19,-37 -27,-42 -1,-1 -2,-2 -3,-2 0,-1 0,-1 0,-1 2,-3 4,-16 5,-18 0,-4 1,-9 1,-13 0,-15 -2,-30 -6,-46 13,-8 24,-17 33,-27 3,-3 6,-6 9,-10 1,-1 8,-12 9,-16 0,0 0,0 1,0 1,0 2,0 4,0 9,2 29,4 48,-11 0,0 13,-9 19,-25 5,-12 10,-25 18,-36 1,-1 1,-2 2,-3 12,-14 28,-26 45,-32 2,-1 5,-2 7,-3 2,0 4,0 6,0 0,0 0,0 0,0 0,0 10,-1 21,0 0,0 -15,-1 -21,-2zm-155 -52l0 0c0,0 7,-11 9,-19 0,0 14,-3 23,11 0,0 -16,18 -32,8zm-900 -19l0 0c2,8 8,19 8,19 -15,10 -31,-8 -31,-8 8,-14 23,-11 23,-11zm-94 89l0 0c-1,-3 -6,-8 -9,-10 -3,-3 -8,-5 -12,-7 -1,0 -2,0 -2,0 0,-1 1,-1 2,-1 4,-1 9,-4 12,-7 3,-1 8,-6 9,-10 0,7 2,13 6,18 -4,4 -6,11 -6,17zm94 54l0 0c0,0 -15,3 -23,-11 0,0 16,-17 31,-8 0,0 -6,11 -8,19zm828 201l0 0c0,0 13,8 9,24 0,0 -24,1 -28,-17 0,0 12,-3 19,-7zm0 -545l0 0c-7,-5 -19,-8 -19,-8 4,-18 28,-16 28,-16 4,16 -9,24 -9,24zm17 -128l0 0c5,-1 9,-2 14,-4 0,-1 1,-1 2,-2 -1,1 -1,2 -1,2 -3,5 -4,9 -5,14 0,3 -1,10 1,13 -4,-5 -10,-8 -16,-8 0,-6 -3,-12 -8,-16 3,2 10,1 13,1zm-94 18l0 0c0,0 2,24 -16,28 0,0 -3,-12 -8,-19 0,0 8,-13 24,-9zm-122 140l0 0c26,0 50,-5 69,-17 19,-12 31,-32 38,-59 30,0 46,-11 50,-34 2,-14 5,-24 8,-29 0,0 2,-4 6,-7 0,0 -5,4 -3,10 0,1 0,2 1,4 0,0 1,1 1,2 4,5 10,9 17,10 0,0 1,0 1,0 0,0 0,1 0,2 1,6 5,12 10,16 1,0 2,1 2,1 2,1 3,1 4,1 6,2 10,-3 10,-3 -3,4 -7,6 -7,6 -5,3 -15,6 -29,8 -23,4 -34,20 -34,50 -27,7 -47,19 -59,38 -12,19 -17,43 -17,69 0,5 0,11 1,16 -3,-4 -5,-8 -8,-11 0,-16 1,-36 5,-42 0,0 -14,4 -27,14 -5,-5 -11,-10 -16,-15 10,-14 15,-28 15,-28 -7,4 -27,5 -43,5 -3,-3 -7,-5 -11,-8 5,1 11,1 16,1zm-471 -140l0 0c15,-4 23,9 23,9 -4,7 -7,19 -7,19 -18,-4 -16,-28 -16,-28zm-105 5l0 0c1,-3 1,-10 0,-13 0,-5 -2,-9 -4,-14 0,0 -1,-1 -1,-2 1,1 1,1 2,2 4,2 9,3 14,4 2,0 10,1 13,-1 -5,4 -8,10 -8,16 -6,0 -12,3 -16,8zm28 105l0 0c0,0 -13,-8 -9,-24 0,0 23,-2 28,16 0,0 -12,3 -19,8zm54 -9l0 0c1,-30 -10,-46 -33,-50 -15,-2 -25,-5 -30,-8 0,0 -4,-2 -7,-6 0,0 5,5 11,3 1,0 2,0 3,-1 1,0 2,-1 3,-1 5,-4 9,-10 9,-16 0,-1 0,-2 0,-2 1,0 2,0 2,0 7,-1 13,-5 16,-10 1,-1 1,-2 2,-2 0,-2 1,-3 1,-4 1,-6 -3,-10 -3,-10 4,3 5,7 5,7 4,5 7,15 9,29 3,23 20,34 50,34 6,27 19,47 38,59 19,12 43,17 69,17 5,0 10,0 15,-1 -3,3 -7,5 -11,8 -15,0 -35,-1 -42,-5 0,0 5,14 15,28 -6,5 -11,10 -16,15 -13,-10 -27,-14 -27,-14 4,6 5,26 5,42 -3,3 -5,7 -8,11 1,-5 1,-11 1,-16 0,-26 -5,-50 -18,-69 -11,-19 -31,-31 -59,-38zm-54 554l0 0c7,4 19,7 19,7 -5,18 -28,17 -28,17 -4,-16 9,-24 9,-24zm-17 128l0 0c-5,0 -10,2 -14,4 -1,0 -1,1 -2,1 0,0 1,-1 1,-2 2,-4 4,-9 4,-13 1,-3 1,-11 0,-14 4,5 10,8 16,8 0,7 3,13 8,17 -3,-2 -11,-1 -13,-1zm94 -19l0 0c0,0 -2,-23 16,-28 0,0 3,13 7,20 0,0 -8,12 -23,8zm122 -140l0 0c-26,0 -50,6 -69,18 -19,12 -32,31 -38,59 -30,0 -47,11 -50,33 -2,15 -5,25 -9,30 0,0 -1,4 -5,7 0,0 4,-5 3,-11 0,-1 -1,-2 -1,-3 -1,-1 -1,-2 -2,-2 -3,-6 -9,-9 -16,-10 0,0 -1,0 -2,0 0,-1 0,-1 0,-2 0,-7 -4,-13 -9,-16 -1,-1 -2,-1 -3,-1 -1,-1 -2,-2 -3,-2 -6,-1 -11,3 -11,3 3,-4 7,-5 7,-5 5,-3 15,-6 30,-9 23,-3 34,-20 33,-49 28,-7 48,-20 59,-39 13,-19 18,-42 18,-69 0,-5 0,-9 -1,-14 3,3 5,7 8,11 0,15 -1,35 -5,41 0,0 13,-4 27,-14 5,5 10,10 15,15 -9,14 -14,27 -14,27 7,-4 26,-4 41,-4 4,2 7,5 11,7 -5,0 -9,-1 -14,-1zm299 1l0 0c0,0 -1,0 -1,0 -5,2 -10,5 -15,7 0,0 0,0 0,0 -2,1 -4,2 -6,3 -2,0 -4,1 -5,2 -2,0 -4,1 -5,2 0,0 0,0 0,0l0 0c-18,6 -37,11 -56,13l0 0c-5,1 -10,1 -15,2 -2,0 -3,0 -5,0 -2,0 -3,0 -5,0 -4,1 -8,1 -12,1 -4,0 -7,0 -11,-1 -2,0 -4,0 -5,0 -2,0 -4,0 -5,0 -5,-1 -10,-1 -15,-2l0 0c-19,-2 -38,-7 -56,-13l0 0c0,0 0,0 0,0 -2,-1 -3,-2 -5,-2 -2,-1 -3,-2 -5,-2 -2,-1 -4,-2 -6,-3 0,0 0,0 0,0 -6,-2 -11,-5 -16,-7 0,0 0,0 0,0l0 0c-51,-26 -92,-68 -118,-119l0 0c0,0 0,0 0,0 -5,-10 -10,-21 -14,-32 0,0 0,0 0,0l0 0c-6,-18 -11,-36 -13,-56 0,0 0,0 0,0 -1,-5 -1,-9 -2,-14 0,-2 0,-3 0,-5 0,-1 0,-3 0,-5 -1,-4 -1,-7 -1,-11 0,-4 0,-8 1,-12 0,-2 0,-3 0,-5 0,-2 0,-3 0,-5 1,-5 1,-10 2,-14 0,0 0,-1 0,-1 2,-19 7,-38 13,-56l0 0c0,0 0,0 0,0 4,-10 9,-21 14,-31 0,0 0,0 0,0l0 0c12,-24 28,-46 47,-66 1,-1 2,-2 3,-3 1,-1 2,-2 3,-3 19,-18 42,-34 66,-47l0 0c0,0 0,0 0,0 10,-5 20,-9 31,-13 0,0 0,0 0,0l0 0c18,-7 37,-11 56,-14l0 0c0,0 0,0 0,0 5,-1 10,-1 15,-1 1,-1 3,-1 5,-1 1,0 3,0 5,0 4,0 7,0 11,0 4,0 8,0 12,0 2,0 3,0 5,0 2,0 3,0 5,1 5,0 10,0 14,1 0,0 1,0 1,0l0 0c19,3 38,7 56,14l0 0c0,0 0,0 0,0 10,4 21,8 31,13 0,0 0,0 0,0l0 0c25,13 47,29 67,48 0,1 1,2 2,2 0,1 1,1 2,2 19,20 35,42 48,67l0 0c0,0 0,0 0,0 5,10 10,21 13,31 0,0 0,0 0,0l0 0c7,18 11,37 14,56l0 0c0,0 0,1 0,1 1,4 1,9 2,14 0,2 0,3 0,5 0,2 0,3 0,5 0,4 0,8 0,12 0,4 0,7 0,11 0,2 0,4 0,5 0,2 0,3 0,5 -1,5 -1,9 -2,14 0,0 0,0 0,0l0 0c-2,20 -7,38 -13,56l0 0c0,0 0,0 0,0 -4,11 -9,22 -14,32 0,0 0,0 0,0l0 0c-26,51 -68,93 -118,119l0 0zm172 139l0 0c-16,4 -24,-8 -24,-8 5,-7 8,-20 8,-20 18,5 16,28 16,28zm76 -37l0 0c-5,3 -9,9 -10,16 0,1 0,1 0,2 0,0 -1,0 -1,0 -7,1 -13,4 -17,10 0,0 -1,1 -1,2 -1,1 -1,2 -1,3 -2,6 3,11 3,11 -4,-3 -6,-7 -6,-7 -3,-5 -6,-15 -8,-30 -4,-22 -20,-33 -50,-33 -7,-28 -19,-47 -38,-59 -19,-12 -43,-18 -69,-18 -5,0 -10,1 -14,1 3,-2 7,-5 11,-7 15,0 34,0 41,4 0,0 -5,-13 -15,-27 6,-5 11,-10 16,-15 13,10 27,14 27,14 -4,-6 -5,-26 -5,-41 3,-4 5,-8 8,-11 -1,5 -1,9 -1,14 0,27 5,50 17,69 12,19 32,32 59,39 0,29 11,46 34,49 14,3 24,6 29,9 0,0 4,1 7,5 0,0 -4,-4 -10,-3 -1,0 -2,1 -4,2 0,0 -1,0 -2,1zm29 32l0 0c-2,3 -1,11 -1,14 1,4 2,9 5,13 0,1 0,2 1,2 -1,0 -2,-1 -2,-1 -5,-2 -9,-4 -14,-4 -3,0 -10,-1 -13,1 5,-4 8,-10 8,-17 6,0 12,-3 16,-8zm53 -305l0 0c-2,-8 -9,-19 -9,-19 16,-9 32,8 32,8 -9,14 -23,11 -23,11zm115 -71l0 0c-5,2 -9,4 -13,7 -2,2 -8,7 -8,10 0,-6 -2,-13 -7,-17 5,-5 7,-11 7,-18 0,4 6,9 8,10 4,3 8,6 13,7 1,0 1,0 2,1 -1,0 -1,0 -2,0z"/>
   </g>
  </g>
 </g>
</svg>
