<?xml version="1.0" encoding="UTF-8" standalone="no"?>
<!DOCTYPE svg PUBLIC "-//W3C//DTD SVG 1.1//EN" "http://www.w3.org/Graphics/SVG/1.1/DTD/svg11.dtd">
<svg width="100%" height="100%" viewBox="0 0 90 90" version="1.1" xmlns="http://www.w3.org/2000/svg" xmlns:xlink="http://www.w3.org/1999/xlink" xml:space="preserve" xmlns:serif="http://www.serif.com/" style="fill-rule:evenodd;clip-rule:evenodd;stroke-linejoin:round;stroke-miterlimit:2;">
    <g transform="matrix(1,0,0,1,-378.269,-8.72611)">
        <g id="Layer_x0020_1">
            <g id="_2926258248080">
                <g>
                    <path d="M385.9,60.707C385.54,60.347 385.18,59.844 384.892,59.196C384.532,58.26 384.172,57.396 383.668,56.676C383.668,56.604 383.596,56.532 383.524,56.46C383.164,56.028 382.804,55.668 382.372,55.38C382.804,65.171 386.692,74.027 392.812,80.794C392.884,80.578 392.884,80.362 392.884,80.074L392.884,79.427C392.812,79.355 392.812,79.283 392.812,79.139C392.668,78.347 392.308,77.483 391.948,76.547C391.588,75.827 391.516,75.107 391.516,74.603C391.516,74.243 391.588,74.027 391.588,73.955L391.588,74.027L391.588,73.955C389.068,70.067 387.268,65.747 386.332,61.067C386.188,60.995 386.044,60.851 385.9,60.707Z" style="fill:rgb(48,154,167);fill-rule:nonzero;"/>
                    <path d="M392.884,27.517L392.884,26.149C386.692,32.917 382.804,41.844 382.372,51.636C382.804,51.276 383.164,50.916 383.524,50.484C383.596,50.412 383.596,50.34 383.668,50.268C384.172,49.62 384.532,48.756 384.892,47.82C385.18,47.172 385.54,46.668 385.9,46.308C386.044,46.092 386.188,45.948 386.332,45.876C387.268,41.196 389.068,36.877 391.588,32.989L391.588,32.917C391.588,32.917 391.516,32.629 391.516,32.269C391.516,31.837 391.588,31.117 391.948,30.325C392.308,29.461 392.668,28.597 392.812,27.733C392.812,27.661 392.812,27.589 392.884,27.517Z" style="fill:rgb(48,154,167);fill-rule:nonzero;"/>
                    <path d="M460.273,46.308C460.633,46.668 460.992,47.172 461.28,47.82C461.64,48.756 461.928,49.62 462.432,50.268L462.504,50.268C462.504,50.34 462.576,50.412 462.648,50.484C462.936,50.916 463.368,51.276 463.8,51.636C463.368,41.844 459.481,32.917 453.289,26.149L453.289,27.517C453.289,27.589 453.289,27.661 453.361,27.733C453.433,28.597 453.865,29.461 454.225,30.325C454.585,31.117 454.585,31.837 454.585,32.269L454.585,32.989C457.105,36.877 458.905,41.196 459.841,45.876C459.985,45.948 460.129,46.092 460.273,46.308Z" style="fill:rgb(48,154,167);fill-rule:nonzero;"/>
                    <path d="M397.06,23.269C397.132,23.269 397.276,23.269 397.348,23.197C398.212,23.125 399.004,22.693 399.94,22.333C400.732,21.973 401.38,21.973 401.884,21.973L402.603,21.973C406.491,19.454 410.811,17.654 415.491,16.718C415.563,16.574 415.707,16.43 415.923,16.286C416.211,15.926 416.715,15.566 417.435,15.278C418.299,14.918 419.163,14.63 419.883,14.126C419.955,14.054 420.027,13.982 420.099,13.91C420.531,13.622 420.891,13.19 421.179,12.758C411.387,13.19 402.531,17.078 395.764,23.269L397.06,23.269Z" style="fill:rgb(48,154,167);fill-rule:nonzero;"/>
                    <path d="M449.041,83.674L448.825,83.674C447.961,83.818 447.169,84.178 446.233,84.61C445.441,84.898 444.721,84.97 444.289,84.97C443.929,84.97 443.641,84.898 443.641,84.898C439.754,87.49 435.362,89.29 430.682,90.226C430.61,90.37 430.466,90.514 430.25,90.658C429.89,91.018 429.386,91.378 428.738,91.666C427.802,92.026 426.938,92.386 426.29,92.89C426.218,92.962 426.146,92.962 426.074,93.034C425.642,93.394 425.282,93.754 424.922,94.186C434.786,93.754 443.641,89.866 450.481,83.674C450.265,83.602 449.977,83.602 449.761,83.602C449.545,83.602 449.329,83.602 449.041,83.674Z" style="fill:rgb(48,154,167);fill-rule:nonzero;"/>
                    <path d="M420.099,93.034C420.027,92.962 419.955,92.962 419.883,92.89C419.163,92.386 418.299,92.026 417.435,91.666C416.715,91.378 416.211,91.018 415.923,90.658C415.707,90.514 415.563,90.37 415.491,90.298C410.811,89.29 406.419,87.49 402.531,84.898C402.459,84.898 402.243,84.97 401.884,84.97C401.38,84.97 400.732,84.898 399.94,84.61C399.004,84.178 398.212,83.818 397.348,83.674L397.06,83.674C396.844,83.602 396.628,83.602 396.412,83.602C396.196,83.602 395.908,83.602 395.692,83.674C402.459,89.866 411.387,93.754 421.179,94.186C420.891,93.754 420.531,93.394 420.099,93.034Z" style="fill:rgb(48,154,167);fill-rule:nonzero;"/>
                    <path d="M453.289,79.427L453.289,80.794C459.481,74.027 463.368,65.171 463.8,55.38C463.368,55.668 462.936,56.028 462.648,56.46C462.576,56.532 462.504,56.604 462.432,56.676C461.928,57.396 461.64,58.26 461.28,59.124C460.992,59.844 460.633,60.347 460.273,60.635C460.129,60.851 459.985,60.995 459.841,61.067C458.905,65.747 457.105,70.067 454.585,73.955L454.585,74.027L454.585,73.955L454.585,74.603C454.585,75.107 454.585,75.827 454.225,76.547C453.865,77.483 453.433,78.347 453.361,79.139C453.289,79.283 453.289,79.355 453.289,79.427Z" style="fill:rgb(48,154,167);fill-rule:nonzero;"/>
                    <path d="M426.074,13.91C426.146,13.982 426.218,14.054 426.29,14.126C426.938,14.63 427.802,14.918 428.738,15.278C429.386,15.566 429.89,15.926 430.25,16.286C430.466,16.43 430.61,16.574 430.682,16.718C435.362,17.654 439.682,19.454 443.569,21.973L444.289,21.973C444.721,21.973 445.441,21.973 446.233,22.333C447.169,22.693 447.961,23.125 448.825,23.197C448.897,23.269 448.969,23.269 449.041,23.269L450.409,23.269C443.641,17.078 434.714,13.19 424.922,12.758C425.282,13.19 425.642,13.622 426.074,13.91Z" style="fill:rgb(48,154,167);fill-rule:nonzero;"/>
                    <path d="M453.649,35.077C455.521,38.101 456.889,41.412 457.753,44.868C458.041,44.94 458.329,45.012 458.617,45.156C457.681,41.268 456.169,37.597 454.153,34.357C454.009,34.645 453.865,34.861 453.649,35.077Z" style="fill:rgb(48,154,167);fill-rule:nonzero;"/>
                    <path d="M392.452,71.867C390.652,68.843 389.284,65.603 388.42,62.075C388.132,62.003 387.844,61.931 387.556,61.787C388.42,65.675 389.932,69.347 392.02,72.587C392.164,72.299 392.308,72.083 392.452,71.867Z" style="fill:rgb(48,154,167);fill-rule:nonzero;"/>
                    <path d="M388.42,44.868C389.284,41.412 390.652,38.101 392.452,35.077C392.308,34.861 392.164,34.645 392.02,34.357C390.004,37.597 388.42,41.268 387.556,45.156C387.844,45.012 388.132,44.94 388.42,44.868Z" style="fill:rgb(48,154,167);fill-rule:nonzero;"/>
                    <path d="M404.619,84.034C404.403,84.25 404.187,84.394 403.899,84.538C407.211,86.554 410.811,88.138 414.771,89.002C414.627,88.714 414.555,88.426 414.483,88.138C410.955,87.274 407.643,85.906 404.619,84.034Z" style="fill:rgb(48,154,167);fill-rule:nonzero;"/>
                    <path d="M414.771,17.942C410.883,18.878 407.211,20.39 403.899,22.405C404.187,22.549 404.475,22.693 404.691,22.909C407.715,21.037 410.955,19.67 414.483,18.806C414.555,18.518 414.627,18.23 414.771,17.942Z" style="fill:rgb(48,154,167);fill-rule:nonzero;"/>
                    <path d="M431.402,89.002C435.29,88.138 438.962,86.554 442.273,84.538C441.985,84.394 441.697,84.25 441.481,84.034C438.458,85.906 435.218,87.274 431.69,88.138C431.618,88.426 431.546,88.714 431.402,89.002Z" style="fill:rgb(48,154,167);fill-rule:nonzero;"/>
                    <path d="M457.753,62.075C456.889,65.603 455.521,68.843 453.721,71.867C453.865,72.083 454.009,72.299 454.153,72.587C456.169,69.347 457.681,65.675 458.617,61.787C458.329,61.931 458.041,62.003 457.753,62.075Z" style="fill:rgb(48,154,167);fill-rule:nonzero;"/>
                    <path d="M441.481,22.909C441.697,22.693 441.913,22.549 442.201,22.405C438.962,20.39 435.29,18.878 431.402,17.942C431.546,18.23 431.618,18.518 431.69,18.806C435.146,19.67 438.458,21.037 441.481,22.909Z" style="fill:rgb(48,154,167);fill-rule:nonzero;"/>
                    <path d="M423.05,13.694L423.122,13.694L423.05,13.694Z" style="fill:rgb(48,154,167);fill-rule:nonzero;"/>
                    <path d="M429.602,42.564L429.386,43.068C429.386,43.068 428.234,42.348 426.722,42.42C425.21,42.348 423.914,42.852 423.914,42.852C423.914,42.852 423.266,42.924 423.338,42.564C423.338,42.348 423.41,42.204 423.41,42.204C423.41,42.204 424.058,41.556 423.986,40.98C423.914,40.476 423.338,40.261 423.194,39.037L423.194,38.605L422.834,38.605C422.834,40.189 422.186,40.404 422.042,40.98C421.97,41.556 422.618,42.132 422.618,42.132C422.618,42.132 422.762,42.348 422.762,42.564C422.762,42.924 422.114,42.852 422.114,42.852C422.114,42.852 420.891,42.348 419.307,42.348C417.795,42.348 416.643,43.068 416.643,43.068L416.499,42.564L415.851,42.564L414.843,53.076L423.122,49.692L431.258,53.004L430.178,42.564L429.602,42.564ZM418.515,55.092L423.122,56.892L427.658,55.092L427.658,57.828C427.658,57.828 427.442,59.484 423.05,59.484C418.587,59.484 418.515,57.756 418.515,57.756L418.515,55.092ZM414.843,53.076L413.619,65.603L414.339,65.603C414.339,65.603 414.627,65.171 415.203,64.955C415.851,64.883 415.851,64.883 416.355,65.099C416.931,65.315 418.587,65.603 418.587,65.603C418.587,65.603 419.811,65.891 421.107,65.387C422.114,65.027 422.762,64.667 423.05,64.523C423.266,64.667 423.986,65.027 425.066,65.459C426.362,65.891 427.586,65.603 427.586,65.603C427.586,65.603 429.242,65.315 429.818,65.099C430.322,64.883 430.25,64.883 430.97,64.955C431.546,65.171 431.834,65.603 431.834,65.603L432.554,65.531L431.258,53.004L430.322,53.436L430.322,55.092C430.394,55.092 430.466,55.236 430.466,55.38C430.466,55.452 430.466,55.524 430.394,55.596L430.826,56.46L429.602,56.46L430.034,55.596C429.962,55.524 429.89,55.452 429.89,55.38C429.89,55.236 429.962,55.092 430.106,55.092L430.106,53.508L423.194,56.316L414.843,53.076Z" style="fill:rgb(48,154,167);fill-rule:nonzero;"/>
                    <path d="M394.036,60.203C394.252,60.347 394.54,60.419 394.828,60.419C394.9,60.419 395.044,60.347 395.116,60.347C395.476,60.203 395.692,59.844 395.764,59.484L395.764,59.412C395.764,59.268 395.836,59.196 395.764,59.052C395.764,58.908 395.764,58.692 395.692,58.548C395.62,58.548 395.62,58.476 395.62,58.476C395.62,58.404 395.62,58.404 395.548,58.404L395.548,58.332L395.476,58.26L395.476,58.188L395.404,58.188C395.404,58.116 395.332,58.116 395.332,58.116L395.332,58.044C395.26,58.044 395.26,57.972 395.188,57.972L395.188,57.9L395.116,57.9L395.044,57.828L394.972,57.828C394.972,57.756 394.9,57.756 394.9,57.756L394.828,57.756C394.828,57.684 394.828,57.684 394.756,57.684L394.684,57.684C394.612,57.684 394.612,57.684 394.612,57.612L393.748,57.612C393.748,57.612 393.676,57.612 393.676,57.684L393.532,57.684L393.46,57.756L393.388,57.756L393.316,57.828C393.316,57.828 393.244,57.828 393.244,57.9C393.172,57.9 393.172,57.9 393.1,57.972C393.028,57.972 393.028,58.044 393.028,58.044L392.956,58.044L392.956,58.116C392.884,58.116 392.884,58.188 392.884,58.188L392.74,58.332L392.74,58.404C392.668,58.476 392.668,58.548 392.668,58.62L392.596,58.62L392.596,58.692C392.596,58.764 392.524,58.836 392.524,58.98L392.524,59.34C392.452,59.34 392.452,59.412 392.452,59.412L392.452,59.7C392.452,62.003 393.748,64.595 396.124,66.467C397.564,67.619 399.22,68.339 400.732,68.555L401.236,68.699C401.236,68.699 401.38,68.339 401.596,67.835C401.812,66.683 401.74,65.747 401.524,64.955C401.452,65.027 401.38,65.027 401.308,65.027C401.164,65.027 401.092,65.099 400.948,65.099C397.708,65.387 394.756,63.227 393.964,60.203C393.892,59.844 393.964,59.628 393.964,59.628C393.964,59.916 393.964,60.059 394.036,60.203Z" style="fill:rgb(48,154,167);fill-rule:nonzero;"/>
                    <path d="M411.459,75.251C411.459,75.107 411.531,75.035 411.531,75.035C410.739,74.747 409.803,74.675 408.651,74.891C408.147,75.107 407.787,75.251 407.787,75.251L407.931,75.827C408.219,77.339 408.867,78.923 410.019,80.362C411.963,82.738 414.555,84.106 416.787,84.034L417.219,84.034C417.363,84.034 417.507,83.962 417.579,83.962C417.651,83.962 417.723,83.962 417.795,83.89L417.867,83.89C417.939,83.818 418.083,83.818 418.155,83.746L418.227,83.674L418.299,83.674L418.299,83.602L418.371,83.602C418.371,83.53 418.443,83.53 418.443,83.53L418.443,83.458L418.515,83.458L418.515,83.386C418.587,83.386 418.587,83.314 418.659,83.314C418.659,83.242 418.659,83.242 418.731,83.17L418.731,83.098L418.803,83.026L418.803,82.882C418.875,82.882 418.875,82.882 418.875,82.81L418.875,82.666C418.875,82.594 418.947,82.522 418.947,82.522L418.947,82.162C418.947,82.09 418.875,82.09 418.875,82.018L418.875,81.874C418.875,81.802 418.803,81.73 418.803,81.73L418.803,81.658L418.731,81.586L418.731,81.514C418.731,81.514 418.659,81.514 418.659,81.442L418.443,81.226L418.443,81.154C418.371,81.154 418.371,81.154 418.371,81.082L418.299,81.082C418.299,81.01 418.227,81.01 418.227,81.01L418.155,81.01C418.155,80.938 418.155,80.938 418.083,80.938C418.011,80.866 418.011,80.866 417.939,80.866C417.795,80.794 417.651,80.722 417.435,80.722L417.003,80.722C416.643,80.794 416.355,81.01 416.211,81.37C416.139,81.514 416.139,81.586 416.139,81.658L416.139,81.73C416.067,81.946 416.139,82.234 416.283,82.45L416.355,82.45C416.427,82.522 416.571,82.594 416.859,82.594C416.859,82.594 416.643,82.594 416.355,82.522C413.259,81.73 411.099,78.851 411.459,75.539L411.459,75.251Z" style="fill:rgb(48,154,167);fill-rule:nonzero;"/>
                    <path d="M453.505,58.62C453.505,58.548 453.433,58.476 453.433,58.404L453.361,58.332L453.361,58.26L453.289,58.26L453.289,58.188C453.217,58.188 453.217,58.116 453.217,58.116L453.073,57.972C453.001,57.9 453.001,57.9 452.929,57.9C452.929,57.828 452.857,57.828 452.857,57.828C452.857,57.828 452.785,57.828 452.785,57.756L452.641,57.756C452.641,57.684 452.641,57.684 452.569,57.684L452.497,57.684L452.425,57.612L451.561,57.612L451.489,57.684L451.345,57.684L451.345,57.756L451.273,57.756C451.201,57.756 451.201,57.756 451.201,57.828L451.129,57.828C451.129,57.828 451.057,57.828 451.057,57.9L450.985,57.9L450.985,57.972C450.913,57.972 450.913,58.044 450.841,58.044L450.841,58.116C450.769,58.116 450.769,58.116 450.769,58.188L450.697,58.188C450.697,58.26 450.697,58.26 450.625,58.26L450.625,58.332C450.625,58.332 450.625,58.404 450.553,58.404L450.553,58.476L450.481,58.548C450.409,58.692 450.409,58.908 450.337,59.052L450.337,59.412L450.409,59.412L450.409,59.484C450.409,59.844 450.697,60.203 451.057,60.347C451.129,60.347 451.201,60.419 451.345,60.419C451.633,60.419 451.849,60.347 452.065,60.203L452.137,60.203C452.137,60.059 452.209,59.916 452.209,59.628C452.209,59.628 452.281,59.844 452.137,60.203C451.417,63.227 448.465,65.387 445.225,65.099C445.081,65.099 445.009,65.027 444.865,65.027C444.793,65.027 444.721,65.027 444.649,64.955C444.433,65.747 444.361,66.683 444.577,67.835C444.721,68.339 444.937,68.699 444.937,68.699L445.441,68.555C446.953,68.339 448.537,67.619 449.977,66.467C452.425,64.595 453.721,62.003 453.721,59.7C453.649,59.7 453.649,59.628 453.649,59.628L453.649,59.268C453.649,59.124 453.649,59.052 453.577,58.98L453.577,58.692L453.505,58.62Z" style="fill:rgb(48,154,167);fill-rule:nonzero;"/>
                    <path d="M429.098,80.722L428.738,80.722C428.522,80.722 428.378,80.794 428.234,80.866C428.162,80.866 428.162,80.866 428.09,80.938L428.018,80.938L427.874,81.082L427.802,81.082C427.802,81.154 427.73,81.154 427.73,81.154L427.73,81.226C427.658,81.226 427.658,81.298 427.586,81.298L427.586,81.37C427.586,81.37 427.514,81.37 427.514,81.442L427.442,81.514L427.442,81.586C427.37,81.586 427.37,81.658 427.37,81.658L427.37,81.73C427.298,81.73 427.298,81.802 427.298,81.874L427.298,82.018L427.226,82.018L427.226,82.666L427.298,82.666L427.298,82.882C427.298,82.954 427.37,82.954 427.37,82.954L427.37,83.098C427.442,83.098 427.442,83.098 427.442,83.17C427.514,83.242 427.514,83.242 427.514,83.314C427.586,83.314 427.586,83.386 427.586,83.386C427.586,83.386 427.658,83.386 427.658,83.458L427.73,83.53C427.73,83.53 427.802,83.53 427.802,83.602C427.874,83.602 427.874,83.674 427.874,83.674L427.946,83.674C427.946,83.674 427.946,83.746 428.018,83.746C428.09,83.818 428.162,83.818 428.234,83.89L428.378,83.89C428.45,83.962 428.522,83.962 428.594,83.962C428.666,83.962 428.81,84.034 428.954,84.034L429.386,84.034C431.618,84.106 434.21,82.738 436.154,80.362C437.234,78.923 437.954,77.339 438.242,75.827L438.386,75.251C438.386,75.251 438.026,75.107 437.45,74.891C436.37,74.675 435.434,74.747 434.642,75.035C434.642,75.035 434.642,75.107 434.714,75.251L434.714,75.539C435.074,78.851 432.914,81.73 429.818,82.522C429.53,82.594 429.314,82.594 429.314,82.594C429.53,82.594 429.746,82.522 429.818,82.45C429.962,82.234 430.106,81.946 430.034,81.73L430.034,81.658C430.034,81.586 430.034,81.514 429.962,81.37C429.818,81.01 429.53,80.794 429.098,80.722Z" style="fill:rgb(48,154,167);fill-rule:nonzero;"/>
                    <path d="M393.964,46.74C394.756,43.644 397.708,41.484 400.948,41.844L401.308,41.844C401.38,41.916 401.452,41.916 401.524,41.916C401.74,41.124 401.812,40.189 401.596,39.109C401.38,38.533 401.236,38.245 401.236,38.245L400.732,38.317C399.22,38.605 397.564,39.325 396.124,40.404C393.748,42.348 392.452,44.94 392.452,47.172L392.452,47.532L392.524,47.604L392.524,47.964C392.524,48.036 392.596,48.108 392.596,48.18L392.596,48.252L392.668,48.324C392.668,48.396 392.668,48.468 392.74,48.54L392.812,48.612L392.812,48.684C392.884,48.684 392.884,48.684 392.884,48.756L392.956,48.756L392.956,48.828C393.028,48.828 393.028,48.828 393.028,48.9L393.1,48.9L393.1,48.972C393.172,48.972 393.172,48.972 393.244,49.044L393.316,49.116L393.388,49.116L393.46,49.188L393.532,49.188L393.604,49.26L393.748,49.26C393.748,49.26 393.82,49.26 393.82,49.332L394.54,49.332C394.54,49.26 394.612,49.26 394.612,49.26L394.684,49.26C394.684,49.26 394.756,49.26 394.756,49.188L394.828,49.188C394.828,49.188 394.9,49.188 394.9,49.116L394.972,49.116C394.972,49.116 395.044,49.116 395.044,49.044L395.116,49.044C395.116,49.044 395.116,48.972 395.188,48.972L395.476,48.684L395.476,48.612L395.548,48.612L395.548,48.54L395.62,48.468C395.62,48.396 395.62,48.396 395.692,48.324C395.764,48.18 395.764,48.036 395.764,47.82C395.836,47.748 395.764,47.604 395.764,47.532L395.764,47.46C395.692,47.028 395.476,46.74 395.116,46.596C395.044,46.524 394.9,46.524 394.828,46.524C394.54,46.452 394.252,46.596 394.036,46.74C393.964,46.812 393.964,47.028 393.964,47.244C393.964,47.244 393.892,47.028 393.964,46.74Z" style="fill:rgb(48,154,167);fill-rule:nonzero;"/>
                    <path d="M417.075,26.221L417.435,26.221C417.651,26.149 417.795,26.149 417.939,26.077C418.011,26.077 418.011,26.005 418.083,26.005L418.155,25.933L418.227,25.933C418.227,25.861 418.299,25.861 418.299,25.861C418.299,25.861 418.371,25.861 418.371,25.789L418.443,25.717C418.515,25.717 418.515,25.645 418.515,25.645L418.587,25.573C418.587,25.573 418.587,25.501 418.659,25.501L418.659,25.429C418.659,25.429 418.731,25.429 418.731,25.357C418.731,25.285 418.803,25.285 418.803,25.213C418.803,25.141 418.875,25.069 418.875,25.069L418.875,24.853L418.947,24.781L418.947,24.421C418.947,24.349 418.875,24.349 418.875,24.277L418.875,24.061L418.803,23.989L418.803,23.917C418.803,23.845 418.803,23.845 418.731,23.845L418.731,23.701C418.659,23.701 418.659,23.629 418.659,23.629C418.587,23.557 418.587,23.557 418.515,23.485C418.515,23.485 418.515,23.413 418.443,23.413C418.443,23.341 418.371,23.341 418.371,23.341L418.299,23.269C418.227,23.269 418.227,23.197 418.227,23.197L418.155,23.197L418.155,23.125C418.083,23.125 417.939,23.053 417.867,23.053L417.795,22.981L417.579,22.981C417.507,22.909 417.363,22.909 417.219,22.909L416.787,22.909C414.555,22.837 411.963,24.133 410.019,26.581C408.867,28.021 408.219,29.605 407.931,31.117L407.787,31.621C407.787,31.621 408.147,31.837 408.651,31.981C409.803,32.197 410.739,32.125 411.531,31.909C411.531,31.837 411.459,31.765 411.459,31.693L411.459,31.333C411.099,28.093 413.259,25.141 416.355,24.421C416.643,24.277 416.859,24.349 416.859,24.349C416.571,24.349 416.427,24.421 416.355,24.421L416.283,24.493C416.139,24.709 416.067,24.925 416.139,25.213C416.139,25.357 416.139,25.429 416.211,25.501C416.355,25.861 416.643,26.149 417.003,26.149C417.075,26.149 417.075,26.149 417.075,26.221Z" style="fill:rgb(48,154,167);fill-rule:nonzero;"/>
                    <path d="M452.137,46.74L452.065,46.74C451.849,46.596 451.633,46.452 451.345,46.524C451.201,46.524 451.129,46.524 451.057,46.596C450.697,46.74 450.409,47.028 450.409,47.46L450.337,47.532L450.337,47.82C450.409,48.036 450.409,48.18 450.481,48.324C450.481,48.396 450.553,48.396 450.553,48.468L450.553,48.54L450.697,48.684C450.697,48.756 450.769,48.756 450.769,48.756C450.769,48.756 450.769,48.828 450.841,48.828L451.057,49.044L451.129,49.044C451.129,49.116 451.129,49.116 451.201,49.116L451.273,49.116C451.273,49.188 451.273,49.188 451.345,49.188C451.417,49.26 451.489,49.26 451.489,49.26L451.561,49.26C451.561,49.26 451.633,49.26 451.633,49.332L452.353,49.332C452.353,49.26 452.425,49.26 452.425,49.26L452.569,49.26L452.569,49.188L452.713,49.188C452.713,49.116 452.785,49.116 452.785,49.116L452.857,49.116L452.929,49.044C453.001,48.972 453.001,48.972 453.073,48.972L453.073,48.9L453.145,48.9L453.145,48.828C453.217,48.828 453.217,48.828 453.217,48.756L453.289,48.756L453.289,48.684L453.361,48.612L453.361,48.54L453.433,48.54C453.433,48.468 453.505,48.396 453.505,48.324L453.505,48.252C453.577,48.252 453.577,48.252 453.577,48.18L453.577,47.964C453.649,47.892 453.649,47.748 453.649,47.604L453.649,47.316C453.649,47.244 453.649,47.244 453.721,47.172C453.721,44.94 452.425,42.348 449.977,40.404C448.537,39.325 446.953,38.605 445.441,38.317L444.937,38.245C444.937,38.245 444.721,38.533 444.577,39.109C444.361,40.189 444.433,41.124 444.649,41.916C444.721,41.916 444.793,41.916 444.865,41.844L445.225,41.844C448.465,41.484 451.417,43.644 452.137,46.74C452.281,47.028 452.209,47.244 452.209,47.244C452.209,47.028 452.137,46.812 452.137,46.74Z" style="fill:rgb(48,154,167);fill-rule:nonzero;"/>
                    <path d="M434.714,31.693C434.642,31.765 434.642,31.837 434.642,31.909C435.434,32.125 436.37,32.197 437.45,31.981C438.026,31.837 438.386,31.621 438.386,31.621L438.242,31.117C437.954,29.605 437.234,28.021 436.154,26.581C434.21,24.133 431.618,22.837 429.386,22.909L428.954,22.909C428.81,22.909 428.666,22.909 428.594,22.981L428.378,22.981L428.306,23.053L428.234,23.053C428.162,23.053 428.09,23.125 428.018,23.125L428.018,23.197L427.946,23.197L427.874,23.269L427.802,23.269L427.802,23.341C427.802,23.341 427.73,23.341 427.73,23.413L427.658,23.413L427.658,23.485L427.586,23.485C427.586,23.557 427.586,23.557 427.514,23.629C427.514,23.629 427.514,23.701 427.442,23.701L427.442,23.773C427.442,23.773 427.442,23.845 427.37,23.845L427.37,23.989L427.298,23.989L427.298,24.205C427.226,24.205 427.226,24.277 427.226,24.277L427.226,24.853C427.226,24.853 427.226,24.925 427.298,24.925L427.298,25.069C427.298,25.069 427.298,25.141 427.37,25.213C427.37,25.285 427.37,25.285 427.442,25.357C427.442,25.429 427.442,25.429 427.514,25.429L427.514,25.501L427.586,25.573L427.586,25.645C427.658,25.645 427.658,25.717 427.73,25.717C427.73,25.789 427.802,25.789 427.802,25.789L428.018,26.005L428.09,26.005C428.162,26.005 428.162,26.077 428.234,26.077C428.378,26.149 428.522,26.149 428.738,26.221L429.098,26.221L429.098,26.149C429.53,26.149 429.818,25.861 429.962,25.501C430.034,25.429 430.034,25.357 430.034,25.213C430.106,24.925 429.962,24.709 429.818,24.493L429.818,24.421C429.746,24.421 429.53,24.349 429.314,24.349C429.314,24.349 429.53,24.277 429.818,24.421C432.914,25.141 435.074,28.093 434.714,31.333L434.714,31.693Z" style="fill:rgb(48,154,167);fill-rule:nonzero;"/>
                    <path d="M394.756,81.658L394.756,81.73L394.828,81.73C394.828,81.658 394.828,81.658 394.756,81.658Z" style="fill:rgb(48,154,167);fill-rule:nonzero;"/>
                    <path d="M394.756,25.213L394.828,25.213L394.756,25.213Z" style="fill:rgb(48,154,167);fill-rule:nonzero;"/>
                    <path d="M451.345,81.658L451.345,81.73L451.345,81.658Z" style="fill:rgb(48,154,167);fill-rule:nonzero;"/>
                    <path d="M451.345,25.213L451.345,25.213Z" style="fill:rgb(48,154,167);fill-rule:nonzero;"/>
                    <path d="M383.236,53.508L383.308,53.508L383.308,53.436C383.308,53.436 383.308,53.508 383.236,53.508Z" style="fill:rgb(48,154,167);fill-rule:nonzero;"/>
                    <path d="M423.05,93.322L423.122,93.25L423.05,93.25L423.05,93.322Z" style="fill:rgb(48,154,167);fill-rule:nonzero;"/>
                    <path d="M387.34,51.924L387.34,51.924Z" style="fill:rgb(48,154,167);fill-rule:nonzero;"/>
                    <path d="M396.556,29.173L396.556,29.173Z" style="fill:rgb(48,154,167);fill-rule:nonzero;"/>
                    <path d="M396.556,77.771L396.556,77.771Z" style="fill:rgb(48,154,167);fill-rule:nonzero;"/>
                    <path d="M421.539,89.218L421.539,89.218Z" style="fill:rgb(48,154,167);fill-rule:nonzero;"/>
                    <path d="M449.617,77.771L449.617,77.771Z" style="fill:rgb(48,154,167);fill-rule:nonzero;"/>
                    <path d="M424.634,17.726L424.634,17.726Z" style="fill:rgb(48,154,167);fill-rule:nonzero;"/>
                    <path d="M449.617,29.173L449.617,29.173Z" style="fill:rgb(48,154,167);fill-rule:nonzero;"/>
                    <path d="M458.833,55.02L458.833,55.02Z" style="fill:rgb(48,154,167);fill-rule:nonzero;"/>
                    <path d="M420.459,14.414C420.387,14.486 420.315,14.486 420.243,14.558C419.451,15.134 418.515,15.494 417.651,15.854C416.499,16.286 415.851,17.222 415.851,17.222C414.771,18.59 414.915,20.03 415.059,20.678L415.059,21.037C414.771,21.109 413.979,21.613 413.907,21.685C413.619,21.901 413.403,22.117 413.187,22.333C412.467,22.981 411.819,23.773 411.243,24.709C412.899,23.269 414.915,22.477 416.715,22.477L417.219,22.477C417.435,22.477 417.507,22.549 417.651,22.549C417.723,22.549 417.795,22.549 417.795,22.621L418.011,22.621L418.011,22.693C418.155,22.693 418.227,22.765 418.299,22.765L418.443,22.909L418.515,22.909L418.875,23.269L418.947,23.413L419.091,23.557L419.091,23.629L419.163,23.701L419.163,23.773L419.235,23.845L419.235,24.061L419.307,24.061L419.307,24.997C419.307,25.069 419.307,25.069 419.235,25.141C419.235,25.213 419.235,25.285 419.163,25.357L419.163,25.429L419.091,25.501L419.091,25.573L418.947,25.717C419.163,26.653 418.947,27.661 418.515,28.525C418.443,28.597 418.443,28.597 418.443,28.669C418.587,28.813 418.803,29.029 418.947,29.245C419.523,30.037 420.027,30.829 420.315,31.693C421.323,30.541 421.97,29.389 422.186,28.093C422.618,26.509 422.258,24.853 421.179,23.125C422.69,21.613 422.978,20.174 422.042,18.878C421.395,18.014 421.035,17.366 420.963,16.934C420.963,16.934 420.819,16.646 420.891,16.286C420.891,16.286 420.891,16.79 421.251,17.006C421.323,17.006 421.395,17.078 421.467,17.078C421.539,17.15 421.61,17.15 421.682,17.15C422.114,17.222 422.618,17.15 422.978,16.79C423.05,16.79 423.05,16.79 423.05,16.718C423.122,16.79 423.122,16.79 423.194,16.79C423.554,17.15 424.058,17.222 424.49,17.15C424.562,17.15 424.634,17.15 424.706,17.078C424.778,17.078 424.85,17.006 424.922,17.006C425.282,16.79 425.282,16.286 425.282,16.286C425.354,16.646 425.21,16.934 425.21,16.934C425.138,17.366 424.778,18.014 424.13,18.878C423.194,20.174 423.41,21.613 424.994,23.125C423.914,24.853 423.554,26.509 423.914,28.093C424.202,29.389 424.85,30.541 425.786,31.693C426.146,30.829 426.578,30.037 427.226,29.245C427.37,29.029 427.514,28.813 427.73,28.669C427.73,28.597 427.658,28.597 427.658,28.525C427.226,27.661 427.01,26.653 427.154,25.717L427.154,25.645L427.082,25.573L427.082,25.501L427.01,25.501L427.01,25.357L426.938,25.357L426.938,25.141L426.866,25.141L426.866,24.925C426.866,24.853 426.794,24.709 426.794,24.709L426.794,24.349L426.866,24.349L426.866,23.989L426.938,23.989L426.938,23.773L427.01,23.701L427.01,23.629L427.082,23.557L427.082,23.485L427.298,23.269L427.298,23.197L427.37,23.125L427.442,23.125L427.442,23.053L427.514,23.053L427.514,22.981L427.586,22.981L427.658,22.909L427.73,22.909L427.802,22.837L427.802,22.765C427.946,22.765 428.018,22.693 428.09,22.693L428.162,22.621L428.306,22.621C428.378,22.549 428.45,22.549 428.522,22.549C428.594,22.549 428.738,22.477 428.882,22.477L429.458,22.477C431.258,22.477 433.202,23.269 434.93,24.709C434.354,23.773 433.706,22.981 432.986,22.333C432.77,22.117 432.482,21.901 432.266,21.685C432.194,21.613 431.33,21.109 431.114,21.037L431.042,20.965C431.114,20.893 431.114,20.821 431.114,20.678C431.258,20.03 431.33,18.59 430.322,17.222C430.322,17.222 429.674,16.286 428.522,15.854C427.658,15.494 426.722,15.134 425.93,14.558C425.858,14.486 425.786,14.486 425.714,14.414C424.634,13.55 423.842,12.398 423.41,11.174C423.338,11.03 423.266,10.814 423.194,10.67C423.194,10.526 423.194,10.382 423.122,10.238L423.122,8.726C423.122,8.726 423.05,9.806 423.05,10.238C422.978,10.382 422.978,10.526 422.978,10.67C422.906,10.814 422.834,11.03 422.762,11.174C422.33,12.398 421.539,13.55 420.459,14.414ZM419.307,21.397C419.307,21.397 418.515,20.893 417.939,20.749C417.939,20.749 417.723,19.742 418.731,19.094C418.731,19.094 419.955,20.246 419.307,21.397ZM427.442,19.094C428.45,19.742 428.234,20.749 428.234,20.749C427.658,20.893 426.866,21.397 426.866,21.397C426.146,20.246 427.442,19.094 427.442,19.094ZM422.546,13.406C422.762,13.118 422.906,12.83 423.05,12.47L423.05,12.326C423.122,12.398 423.122,12.398 423.122,12.47C423.266,12.83 423.41,13.118 423.626,13.406C423.698,13.55 424.058,13.982 424.346,13.982C423.842,13.982 423.41,14.126 423.05,14.486C422.762,14.126 422.258,13.982 421.826,13.982C422.042,13.982 422.402,13.55 422.546,13.406Z" style="fill:rgb(48,154,167);fill-rule:nonzero;"/>
                    <path d="M425.714,92.602C425.786,92.53 425.858,92.458 425.93,92.386C426.722,91.81 427.658,91.522 428.522,91.09C429.674,90.658 430.322,89.722 430.322,89.722C431.33,88.354 431.258,86.914 431.114,86.266C431.114,86.194 431.114,86.05 431.042,85.978C431.114,85.978 431.114,85.978 431.114,85.906C431.33,85.906 432.194,85.33 432.266,85.258C432.482,85.042 432.77,84.898 432.986,84.61C433.706,83.962 434.354,83.17 434.93,82.234C433.202,83.674 431.258,84.466 429.458,84.466L428.882,84.466C428.738,84.466 428.594,84.466 428.522,84.394L428.306,84.394L428.234,84.322L428.09,84.322C428.018,84.25 427.946,84.25 427.802,84.178L427.802,84.106L427.658,84.106L427.658,84.034L427.586,83.962L427.514,83.962L427.298,83.746L427.298,83.674L427.154,83.602L427.154,83.53L427.082,83.458L427.082,83.386L427.01,83.314L427.01,83.242L426.938,83.17L426.938,83.026L426.866,82.954L426.866,82.594L426.794,82.594L426.794,82.306C426.866,82.162 426.866,82.018 426.866,82.018L426.866,81.874L426.938,81.802L426.938,81.586L427.01,81.586L427.082,81.442L427.082,81.37L427.154,81.298L427.154,81.226C427.01,80.29 427.226,79.283 427.658,78.419L427.73,78.347C427.514,78.131 427.37,77.915 427.226,77.699C426.578,76.907 426.146,76.115 425.786,75.251C424.85,76.403 424.202,77.627 423.914,78.923C423.554,80.434 423.914,82.09 424.994,83.89C423.41,85.33 423.194,86.77 424.13,88.066C424.778,88.93 425.138,89.578 425.21,90.01C425.21,90.01 425.354,90.298 425.282,90.658C425.282,90.658 425.282,90.226 424.922,89.938C424.85,89.938 424.778,89.866 424.706,89.866C424.634,89.866 424.562,89.866 424.49,89.794C424.058,89.722 423.554,89.866 423.194,90.154C423.122,90.154 423.122,90.226 423.05,90.226C423.05,90.226 423.05,90.154 422.978,90.154C422.618,89.866 422.114,89.722 421.682,89.794C421.61,89.866 421.539,89.866 421.467,89.866C421.395,89.866 421.323,89.938 421.251,89.938C420.891,90.226 420.891,90.658 420.891,90.658C420.819,90.298 420.963,90.01 420.963,90.01C421.035,89.578 421.395,88.93 422.042,88.066C422.978,86.77 422.69,85.33 421.179,83.89C422.258,82.09 422.618,80.434 422.258,78.923C421.97,77.627 421.323,76.403 420.315,75.251C420.027,76.115 419.523,76.907 418.947,77.699C418.803,77.915 418.587,78.131 418.443,78.347C418.443,78.347 418.443,78.419 418.515,78.419C418.947,79.283 419.163,80.29 418.947,81.226L419.091,81.37L419.091,81.442L419.163,81.586C419.235,81.658 419.235,81.73 419.235,81.802L419.235,81.874C419.307,81.874 419.307,81.946 419.307,81.946L419.307,82.81L419.235,82.954L419.235,83.098L419.163,83.17L419.163,83.242L419.091,83.314L419.091,83.386L418.947,83.53L418.947,83.602L418.875,83.746L418.803,83.746L418.731,83.818L418.731,83.89L418.659,83.962L418.587,83.962L418.443,84.106L418.371,84.106L418.371,84.178L418.299,84.178C418.227,84.25 418.155,84.25 418.011,84.322L417.867,84.394L417.651,84.394C417.507,84.466 417.435,84.466 417.219,84.466L416.715,84.466C414.915,84.466 412.899,83.674 411.243,82.234C411.819,83.17 412.467,83.962 413.187,84.61C413.403,84.898 413.619,85.042 413.907,85.258C413.979,85.33 414.771,85.906 415.059,85.906L415.059,86.266C414.915,86.914 414.771,88.354 415.851,89.722C415.851,89.722 416.499,90.658 417.651,91.09C418.515,91.522 419.451,91.81 420.243,92.386C420.315,92.458 420.387,92.53 420.459,92.602C421.539,93.394 422.33,94.546 422.762,95.842C422.834,95.986 422.906,96.13 422.978,96.274C422.978,96.418 422.978,96.562 423.05,96.706L422.978,96.706C422.978,96.706 423.05,97.426 422.978,98.29C422.978,98.29 423.122,97.138 423.122,96.706C423.194,96.562 423.194,96.418 423.194,96.274C423.266,96.13 423.338,95.986 423.41,95.842C423.842,94.546 424.634,93.394 425.714,92.602ZM426.866,85.618C426.866,85.618 427.658,86.05 428.234,86.194C428.234,86.194 428.45,87.274 427.442,87.85C427.442,87.85 426.146,86.698 426.866,85.618ZM418.731,87.85C417.723,87.274 417.939,86.194 417.939,86.194C418.515,86.05 419.307,85.618 419.307,85.618C419.955,86.698 418.731,87.85 418.731,87.85ZM423.626,93.61C423.41,93.826 423.266,94.186 423.122,94.474C423.122,94.546 423.122,94.618 423.05,94.618L423.05,94.474C422.906,94.186 422.762,93.826 422.546,93.61C422.402,93.394 422.042,93.034 421.826,92.962C422.258,92.962 422.762,92.818 423.05,92.53C423.41,92.818 423.842,92.962 424.346,92.962C424.058,93.034 423.698,93.394 423.626,93.61Z" style="fill:rgb(48,154,167);fill-rule:nonzero;"/>
                    <path d="M466.32,53.436C466.176,53.436 466.032,53.364 465.888,53.364C465.744,53.292 465.528,53.22 465.384,53.22C464.16,52.716 463.008,51.924 462.144,50.844C462.072,50.772 462.072,50.7 462,50.628C461.424,49.836 461.064,48.9 460.705,48.036C460.273,46.884 459.337,46.236 459.337,46.236C457.969,45.228 456.529,45.3 455.881,45.444C455.737,45.444 455.665,45.516 455.593,45.516L455.521,45.444C455.449,45.228 454.945,44.364 454.873,44.292C454.657,44.076 454.441,43.788 454.225,43.572C453.577,42.852 452.785,42.204 451.849,41.628C453.289,43.356 454.081,45.3 454.081,47.1L454.081,47.676C454.081,47.82 454.009,47.964 454.009,48.036C454.009,48.108 454.009,48.18 453.937,48.252L453.937,48.468C453.865,48.54 453.793,48.612 453.793,48.756L453.721,48.756L453.649,48.9L453.433,49.116L453.433,49.188L453.361,49.26L453.289,49.26L453.073,49.476L453.001,49.476L452.929,49.548L452.857,49.548L452.785,49.62L452.569,49.62L452.569,49.692L452.353,49.692C452.353,49.692 452.281,49.692 452.209,49.764L451.849,49.764C451.705,49.692 451.633,49.692 451.633,49.692L451.417,49.692L451.417,49.62L451.201,49.62L451.201,49.548L451.057,49.548L451.057,49.476L450.985,49.476L450.913,49.404L450.841,49.404C449.905,49.548 448.897,49.332 448.033,48.9C447.961,48.9 447.961,48.828 447.961,48.828C447.745,49.044 447.529,49.188 447.313,49.332C446.521,49.98 445.729,50.412 444.865,50.772C446.017,51.708 447.241,52.356 448.465,52.644C450.049,53.004 451.705,52.644 453.433,51.564C454.945,53.148 456.385,53.364 457.681,52.428C458.545,51.78 459.193,51.42 459.625,51.348C459.625,51.348 459.913,51.204 460.273,51.276C460.273,51.276 459.841,51.276 459.553,51.636C459.553,51.708 459.481,51.78 459.481,51.852C459.409,51.924 459.409,51.996 459.409,52.068C459.337,52.5 459.409,53.004 459.769,53.364C459.769,53.436 459.769,53.436 459.841,53.508C459.769,53.508 459.769,53.58 459.769,53.58C459.409,53.94 459.337,54.444 459.409,54.876C459.409,54.948 459.409,55.02 459.481,55.092C459.481,55.164 459.553,55.236 459.553,55.308C459.841,55.668 460.273,55.668 460.273,55.668C459.913,55.74 459.625,55.596 459.625,55.596C459.193,55.524 458.545,55.164 457.681,54.588C456.385,53.58 454.945,53.868 453.433,55.38C451.705,54.3 450.049,53.94 448.465,54.372C447.241,54.588 446.017,55.236 444.865,56.244C445.729,56.532 446.521,57.036 447.313,57.612C447.529,57.756 447.745,57.972 447.889,58.116C447.961,58.116 447.961,58.116 448.033,58.044C448.897,57.612 449.905,57.396 450.841,57.612L450.985,57.468L451.057,57.468L451.129,57.396L451.201,57.396C451.273,57.324 451.345,57.324 451.417,57.324C451.489,57.324 451.489,57.252 451.561,57.252L452.425,57.252L452.497,57.324L452.713,57.324L452.785,57.396L452.857,57.396L452.929,57.468L453.001,57.468L453.145,57.612L453.217,57.612L453.433,57.828L453.505,57.828L453.505,57.9L453.577,57.9L453.577,57.972L453.649,58.044L453.649,58.116L453.793,58.26C453.793,58.332 453.865,58.404 453.937,58.548L453.937,58.764C454.009,58.764 454.009,58.836 454.009,58.908C454.009,59.052 454.081,59.124 454.081,59.34L454.081,59.844C454.081,61.643 453.289,63.587 451.849,65.315L451.849,65.243C451.489,65.675 450.409,66.827 448.825,67.691C448.825,67.763 448.897,67.835 448.897,67.907L448.897,67.979C448.969,68.699 448.753,69.851 448.177,70.427C447.817,70.715 447.025,70.787 446.593,70.643C445.369,70.355 444.505,69.203 444.073,67.979C443.281,64.379 445.729,62.363 445.729,62.363C445.441,62.003 445.009,61.643 444.577,61.427C444.361,61.283 444.145,61.211 444.001,61.139C443.857,61.067 443.713,60.995 443.641,60.923L443.569,60.923C443.281,60.851 442.993,60.779 442.705,60.707C442.777,60.491 442.849,60.347 442.921,60.131C443.281,60.275 443.641,60.347 444.001,60.563C445.369,61.139 446.737,62.363 447.673,64.091C447.745,64.163 447.745,64.235 447.817,64.307C448.969,63.875 449.977,63.155 450.697,62.219C450.625,62.147 450.553,62.003 450.481,61.931C449.833,60.707 448.969,59.628 448.033,58.692C447.745,58.404 447.385,58.116 447.025,57.9C446.017,57.108 444.937,56.532 443.785,56.244C443.929,55.38 444.001,54.444 444.001,53.508C444.001,52.5 443.929,51.564 443.785,50.7C444.937,50.412 446.017,49.836 447.025,49.044C447.385,48.756 447.745,48.468 448.033,48.18C448.969,47.316 449.833,46.236 450.481,45.012C450.553,44.868 450.625,44.796 450.697,44.652C449.977,43.716 448.969,42.996 447.817,42.564C447.745,42.708 447.745,42.78 447.673,42.852C446.737,44.508 445.369,45.732 444.001,46.38C443.641,46.524 443.281,46.668 442.921,46.74C442.849,46.596 442.777,46.38 442.705,46.236C442.993,46.164 443.281,46.092 443.569,45.948L443.641,45.948C443.713,45.876 443.857,45.876 444.001,45.804C444.145,45.732 444.361,45.588 444.577,45.516C445.009,45.228 445.441,44.94 445.729,44.58C445.729,44.58 443.281,42.564 444.073,38.965C444.505,37.669 445.369,36.517 446.593,36.229C447.025,36.157 447.817,36.229 448.177,36.517C448.753,37.093 448.969,38.173 448.897,38.965L448.897,39.037C448.897,39.109 448.825,39.109 448.825,39.181C450.409,40.117 451.489,41.196 451.849,41.628C452.137,40.476 452.281,39.397 452.281,38.317C452.281,37.957 452.209,37.669 452.209,37.309C452.137,37.237 451.993,36.301 451.849,36.085L451.849,36.013C451.921,35.941 451.993,35.869 452.065,35.797C452.641,35.437 453.721,34.573 454.009,32.845C454.009,32.845 454.153,31.693 453.721,30.541C453.289,29.677 452.857,28.813 452.713,27.805L452.713,27.517C452.569,26.221 452.785,24.853 453.361,23.629C453.433,23.485 453.505,23.269 453.577,23.125C453.649,23.053 453.721,22.909 453.865,22.837C453.865,22.837 454.369,22.333 454.945,21.757C454.945,21.757 454.081,22.477 453.721,22.693C453.649,22.837 453.505,22.909 453.433,22.981C453.289,23.053 453.073,23.125 452.929,23.197C451.705,23.773 450.337,23.989 449.041,23.845L448.753,23.845C447.745,23.701 446.881,23.269 446.017,22.837C444.865,22.405 443.713,22.549 443.713,22.549C441.985,22.837 441.122,23.917 440.762,24.493C440.69,24.565 440.618,24.637 440.546,24.709L440.474,24.709C440.258,24.565 439.322,24.421 439.25,24.349C438.89,24.349 438.602,24.277 438.242,24.277C437.162,24.277 436.082,24.421 434.93,24.709C435.362,25.069 436.442,26.149 437.378,27.733C437.45,27.733 437.45,27.733 437.522,27.661L437.594,27.661C438.386,27.589 439.538,27.805 440.042,28.381C440.33,28.741 440.402,29.533 440.33,29.965C440.042,31.189 438.89,32.053 437.594,32.485C433.994,33.277 431.978,30.829 431.978,30.829C431.618,31.117 431.33,31.549 431.042,31.981C430.97,32.197 430.826,32.413 430.754,32.557C430.682,32.701 430.682,32.845 430.61,32.917L430.61,32.989C430.466,33.277 430.394,33.565 430.322,33.853C430.178,33.781 429.962,33.709 429.818,33.637C429.89,33.277 430.034,32.917 430.178,32.557C430.826,31.189 432.05,29.821 433.706,28.885C433.778,28.813 433.85,28.813 433.994,28.741C433.562,27.589 432.842,26.653 431.906,25.861C431.762,25.933 431.69,26.005 431.546,26.077C430.322,26.797 429.242,27.589 428.378,28.525C428.09,28.813 427.802,29.173 427.514,29.533C426.722,30.541 426.218,31.693 425.93,32.773C424.994,32.629 424.058,32.557 423.05,32.557C422.114,32.557 421.179,32.629 420.243,32.773C419.955,31.693 419.451,30.541 418.587,29.533C418.371,29.173 418.083,28.813 417.795,28.525C416.931,27.589 415.851,26.797 414.555,26.077C414.483,26.005 414.339,25.933 414.267,25.861C413.331,26.653 412.611,27.589 412.179,28.741C412.251,28.813 412.323,28.813 412.467,28.885C414.123,29.821 415.347,31.189 415.995,32.557C416.139,32.917 416.283,33.277 416.355,33.637C416.139,33.709 415.995,33.781 415.779,33.853C415.779,33.565 415.707,33.277 415.563,32.989L415.563,32.917C415.491,32.845 415.491,32.701 415.419,32.557C415.275,32.413 415.203,32.197 415.059,31.981C414.843,31.549 414.555,31.117 414.195,30.829C414.195,30.829 412.179,33.277 408.579,32.485C407.283,32.053 406.131,31.189 405.843,29.965C405.699,29.533 405.771,28.741 406.131,28.381C406.635,27.805 407.787,27.589 408.579,27.661L408.651,27.661C408.651,27.733 408.723,27.733 408.795,27.733C409.659,26.149 410.811,25.069 411.243,24.709C410.091,24.421 408.939,24.277 407.931,24.277C407.571,24.277 407.283,24.349 406.923,24.349C406.851,24.421 405.915,24.565 405.699,24.709L405.627,24.709C405.555,24.637 405.483,24.565 405.411,24.493C405.051,23.917 404.115,22.837 402.459,22.549C402.459,22.549 401.308,22.405 400.156,22.837C399.292,23.269 398.428,23.701 397.42,23.845L397.132,23.845C395.836,23.989 394.396,23.773 393.172,23.197C393.1,23.125 392.884,23.053 392.74,22.981C392.596,22.909 392.524,22.837 392.38,22.693C392.02,22.477 391.228,21.757 391.228,21.757C391.804,22.333 392.308,22.837 392.308,22.837C392.38,22.909 392.452,23.053 392.596,23.125C392.668,23.269 392.74,23.485 392.812,23.629C393.316,24.853 393.604,26.221 393.46,27.517C393.46,27.661 393.388,27.733 393.388,27.805C393.244,28.813 392.812,29.677 392.452,30.541C392.02,31.693 392.164,32.845 392.164,32.845C392.452,34.573 393.532,35.437 394.108,35.797C394.18,35.869 394.252,35.941 394.324,36.013L394.324,36.085C394.18,36.301 393.964,37.237 393.964,37.309C393.892,37.669 393.892,37.957 393.892,38.317C393.892,39.397 393.964,40.476 394.324,41.628C394.684,41.196 395.764,40.117 397.276,39.181L397.276,38.965C397.204,38.173 397.42,37.093 397.996,36.517C398.356,36.229 399.076,36.157 399.508,36.229C400.804,36.517 401.596,37.669 402.027,38.965C402.891,42.564 400.444,44.58 400.444,44.58C400.732,44.94 401.164,45.228 401.596,45.516C401.74,45.588 401.956,45.732 402.171,45.804C402.315,45.876 402.387,45.876 402.531,45.948L402.603,45.948C402.891,46.092 403.179,46.164 403.467,46.236C403.395,46.38 403.323,46.596 403.251,46.74C402.891,46.668 402.459,46.524 402.099,46.38C400.732,45.732 399.436,44.508 398.5,42.852C398.428,42.78 398.356,42.708 398.356,42.564C397.204,42.996 396.196,43.716 395.476,44.652C395.548,44.796 395.62,44.868 395.62,45.012C396.34,46.236 397.204,47.316 398.14,48.18C398.428,48.468 398.788,48.756 399.076,49.044C400.156,49.836 401.236,50.412 402.315,50.7C402.243,51.564 402.171,52.5 402.171,53.508C402.171,54.444 402.243,55.38 402.315,56.244C401.236,56.532 400.156,57.108 399.076,57.9C398.788,58.116 398.428,58.404 398.14,58.692C397.204,59.628 396.34,60.707 395.62,61.931C395.62,62.003 395.548,62.147 395.476,62.219C396.196,63.155 397.204,63.875 398.356,64.307C398.356,64.235 398.428,64.163 398.5,64.091C399.436,62.363 400.732,61.139 402.099,60.563C402.459,60.347 402.891,60.275 403.251,60.131C403.323,60.347 403.395,60.491 403.395,60.707C403.179,60.779 402.891,60.851 402.603,60.923L402.531,60.923C402.387,60.995 402.315,61.067 402.171,61.139C401.956,61.211 401.74,61.283 401.596,61.427C401.164,61.643 400.732,62.003 400.444,62.363C400.444,62.363 402.891,64.379 402.027,67.979C401.596,69.203 400.804,70.355 399.508,70.643C399.076,70.787 398.356,70.715 397.996,70.427C397.42,69.851 397.204,68.699 397.276,67.979L397.276,67.691C395.764,66.827 394.684,65.675 394.324,65.243C394.252,65.243 394.252,65.243 394.252,65.315C392.884,63.587 392.092,61.643 392.092,59.844L392.092,59.34C392.092,59.124 392.092,59.052 392.164,58.908L392.164,58.692L392.236,58.62L392.236,58.548C392.308,58.404 392.308,58.332 392.38,58.26L392.38,58.188L392.452,58.188L392.452,58.116L392.596,57.972L392.596,57.9L392.668,57.828L392.74,57.828L392.812,57.756L392.812,57.684L392.884,57.684L392.956,57.612L393.028,57.612L393.172,57.468L393.244,57.468L393.316,57.396L393.388,57.396L393.46,57.324L393.676,57.324L393.748,57.252L394.612,57.252L394.684,57.324L394.756,57.324C394.828,57.324 394.9,57.324 394.972,57.396L395.116,57.468L395.188,57.468L395.332,57.612C396.268,57.396 397.276,57.612 398.14,58.044C398.14,58.116 398.212,58.116 398.212,58.116C398.428,57.972 398.644,57.756 398.86,57.612C399.652,57.036 400.444,56.532 401.308,56.244C400.156,55.236 398.932,54.588 397.636,54.372C396.124,53.94 394.468,54.3 392.668,55.38C391.228,53.868 389.788,53.58 388.492,54.588C387.628,55.164 386.98,55.524 386.548,55.596C386.548,55.596 386.26,55.74 385.9,55.668C385.9,55.668 386.332,55.668 386.62,55.308C386.62,55.236 386.692,55.164 386.692,55.092C386.692,55.02 386.764,54.948 386.764,54.876C386.836,54.444 386.764,53.94 386.404,53.58L386.332,53.508C386.332,53.436 386.404,53.436 386.404,53.364C386.764,53.004 386.836,52.5 386.764,52.068C386.764,51.996 386.692,51.924 386.692,51.852C386.692,51.78 386.62,51.708 386.62,51.636C386.332,51.276 385.9,51.276 385.9,51.276C386.26,51.204 386.548,51.348 386.548,51.348C386.98,51.42 387.628,51.78 388.492,52.428C389.788,53.364 391.228,53.148 392.668,51.564C394.468,52.644 396.124,53.004 397.636,52.644C398.932,52.356 400.156,51.708 401.308,50.772C400.444,50.412 399.652,49.98 398.86,49.332C398.644,49.188 398.428,49.044 398.212,48.828L398.14,48.9C397.276,49.332 396.268,49.548 395.332,49.404L395.26,49.404L395.116,49.548L394.972,49.548L394.972,49.62L394.756,49.62L394.756,49.692L394.54,49.692C394.396,49.764 394.252,49.764 394.252,49.764L393.964,49.764C393.892,49.692 393.82,49.692 393.82,49.692L393.604,49.692L393.532,49.62L393.388,49.62L393.316,49.548L393.244,49.548L393.172,49.476L393.1,49.476L393.028,49.404L392.956,49.404L392.956,49.332L392.812,49.26L392.596,49.044L392.596,48.972L392.524,48.9L392.452,48.9L392.452,48.756L392.38,48.756C392.308,48.612 392.308,48.54 392.236,48.468L392.236,48.396L392.164,48.252L392.164,48.036C392.092,47.964 392.092,47.82 392.092,47.676L392.092,47.1C392.092,45.3 392.884,43.356 394.324,41.628C393.388,42.204 392.596,42.852 391.948,43.572C391.732,43.788 391.516,44.076 391.3,44.292C391.228,44.364 390.652,45.228 390.652,45.444C390.58,45.444 390.58,45.444 390.58,45.516C390.508,45.516 390.364,45.444 390.292,45.444C389.644,45.3 388.204,45.228 386.836,46.236C386.836,46.236 385.9,46.884 385.468,48.036C385.036,48.972 384.748,49.836 384.172,50.628C384.1,50.7 384.028,50.772 383.956,50.844C383.164,51.924 382.013,52.716 380.717,53.22C380.573,53.22 380.429,53.292 380.285,53.364C380.141,53.364 379.997,53.436 379.853,53.436L378.269,53.436C378.269,53.436 379.421,53.508 379.853,53.58L380.285,53.58C380.429,53.652 380.573,53.724 380.717,53.796C382.013,54.228 383.164,55.092 383.956,56.1C384.028,56.172 384.1,56.244 384.172,56.316C384.748,57.108 385.036,58.044 385.468,58.908C385.9,60.059 386.836,60.707 386.836,60.707C388.204,61.787 389.644,61.643 390.292,61.499L390.652,61.499C390.652,61.787 391.228,62.579 391.3,62.651C391.516,62.939 391.732,63.155 391.948,63.371C392.596,64.091 393.388,64.739 394.252,65.315C393.964,66.467 393.892,67.547 393.892,68.627C393.892,68.915 393.892,69.275 393.964,69.563C393.964,69.707 394.18,70.643 394.324,70.859L394.324,70.931C394.252,70.931 394.18,71.003 394.108,71.075C393.532,71.435 392.452,72.371 392.164,74.099C392.164,74.099 392.02,75.179 392.452,76.331C392.812,77.267 393.244,78.131 393.388,79.067C393.388,79.211 393.46,79.283 393.46,79.355C393.604,80.722 393.316,82.09 392.812,83.314C392.74,83.458 392.668,83.602 392.596,83.746C392.452,83.89 392.38,83.962 392.308,84.106C392.308,84.106 391.804,84.61 391.228,85.186C391.228,85.186 392.02,84.466 392.38,84.178C392.524,84.106 392.596,84.034 392.74,83.962C392.884,83.89 393.1,83.818 393.172,83.746C394.396,83.17 395.836,82.954 397.132,83.026C397.204,83.098 397.348,83.098 397.42,83.098C398.428,83.242 399.292,83.674 400.156,84.034C401.308,84.538 402.459,84.322 402.459,84.322C404.115,84.106 405.051,82.954 405.411,82.45C405.483,82.378 405.555,82.306 405.627,82.162C405.627,82.162 405.627,82.234 405.699,82.234C405.915,82.306 406.851,82.522 406.923,82.522C407.283,82.594 407.571,82.594 407.931,82.594C408.939,82.666 410.091,82.522 411.243,82.234C410.811,81.874 409.659,80.794 408.795,79.211L408.579,79.211C407.787,79.355 406.635,79.139 406.131,78.491C405.771,78.203 405.699,77.411 405.843,76.979C406.131,75.683 407.283,74.891 408.579,74.459C412.179,73.667 414.195,76.043 414.195,76.043C414.555,75.827 414.843,75.323 415.059,74.963C415.203,74.747 415.275,74.531 415.419,74.315C415.491,74.171 415.491,74.099 415.563,73.955L415.563,73.883C415.635,73.667 415.779,73.379 415.779,73.091C415.995,73.163 416.139,73.235 416.355,73.307C416.283,73.667 416.139,74.027 415.995,74.387C415.347,75.755 414.123,77.123 412.467,78.059C412.323,78.059 412.251,78.131 412.179,78.203C412.611,79.283 413.331,80.29 414.267,81.01C414.339,81.01 414.483,80.938 414.555,80.866C415.851,80.146 416.931,79.283 417.795,78.347C418.083,78.059 418.371,77.771 418.587,77.411C419.379,76.403 419.955,75.323 420.243,74.243C421.179,74.315 422.114,74.387 423.05,74.387C424.058,74.387 424.994,74.315 425.93,74.243C426.218,75.323 426.722,76.403 427.514,77.411C427.802,77.771 428.09,78.059 428.378,78.347C429.242,79.283 430.322,80.146 431.546,80.866C431.69,80.938 431.762,81.01 431.906,81.01C432.842,80.29 433.562,79.283 433.994,78.203C433.85,78.131 433.778,78.059 433.706,78.059C432.05,77.123 430.826,75.755 430.178,74.387C430.034,74.027 429.89,73.667 429.818,73.307C429.962,73.235 430.178,73.163 430.322,73.091C430.394,73.379 430.466,73.667 430.61,73.883L430.61,73.955C430.682,74.099 430.682,74.171 430.754,74.315C430.826,74.531 430.97,74.747 431.042,74.963C431.33,75.323 431.618,75.827 431.978,76.043C431.978,76.043 433.994,73.667 437.594,74.459C438.89,74.891 440.042,75.683 440.33,76.979C440.402,77.411 440.33,78.203 440.042,78.491C439.538,79.139 438.386,79.355 437.594,79.211L437.378,79.211C436.442,80.794 435.362,81.874 434.93,82.234C436.082,82.522 437.162,82.666 438.242,82.594C438.602,82.594 438.89,82.594 439.25,82.522C439.322,82.522 440.258,82.306 440.474,82.234L440.546,82.162C440.618,82.306 440.69,82.378 440.762,82.45C441.122,82.954 441.985,84.106 443.713,84.322C443.713,84.322 444.865,84.538 446.017,84.034C446.881,83.674 447.745,83.242 448.753,83.098C448.825,83.098 448.897,83.098 449.041,83.026C450.337,82.954 451.705,83.17 452.929,83.746C453.073,83.818 453.289,83.89 453.433,83.962C453.505,84.034 453.649,84.106 453.721,84.178C454.081,84.466 454.945,85.186 454.945,85.186C454.369,84.61 453.865,84.106 453.865,84.106C453.721,83.962 453.649,83.89 453.577,83.746C453.505,83.602 453.433,83.458 453.361,83.314C452.785,82.09 452.569,80.722 452.713,79.355L452.713,79.067C452.857,78.131 453.289,77.267 453.721,76.331C454.153,75.179 454.009,74.099 454.009,74.099C453.721,72.371 452.641,71.435 452.065,71.075C451.993,71.003 451.921,70.931 451.849,70.931L451.849,70.859C451.993,70.643 452.137,69.707 452.209,69.563C452.209,69.275 452.281,68.915 452.281,68.627C452.281,67.547 452.137,66.467 451.849,65.315C452.785,64.739 453.577,64.091 454.225,63.371C454.441,63.155 454.657,62.939 454.873,62.651C454.945,62.579 455.449,61.787 455.521,61.499L455.881,61.499C456.529,61.643 457.969,61.787 459.337,60.707C459.337,60.707 460.273,60.059 460.705,58.908C461.064,58.044 461.424,57.108 462,56.316C462.072,56.244 462.072,56.172 462.144,56.1C463.008,55.092 464.16,54.228 465.384,53.796C465.528,53.724 465.744,53.652 465.888,53.58L466.32,53.58C466.32,53.58 467.04,53.508 467.832,53.58C467.832,53.58 466.752,53.508 466.32,53.436ZM455.161,49.692C455.161,49.692 455.665,48.9 455.809,48.324C455.809,48.324 456.817,48.108 457.465,49.116C457.465,49.116 456.313,50.412 455.161,49.692ZM390.364,48.324C390.508,48.9 390.94,49.692 390.94,49.692C389.86,50.412 388.708,49.116 388.708,49.116C389.284,48.108 390.364,48.324 390.364,48.324ZM383.596,54.732C383.524,54.516 383.164,54.156 382.948,54.012C382.732,53.796 382.372,53.652 382.085,53.508L381.941,53.508C381.941,53.436 382.013,53.436 382.085,53.436C382.372,53.364 382.732,53.148 382.948,52.932C383.164,52.86 383.524,52.5 383.596,52.212C383.596,52.716 383.74,53.148 384.028,53.508C383.74,53.796 383.596,54.3 383.596,54.732ZM390.364,58.62C390.364,58.62 389.284,58.836 388.708,57.828C388.708,57.828 389.86,56.604 390.94,57.252C390.94,57.252 390.508,58.044 390.364,58.62ZM449.977,73.091C449.977,73.091 450.913,73.667 450.625,74.819C450.625,74.819 448.897,74.891 448.609,73.595C448.609,73.595 449.473,73.379 449.977,73.091ZM449.977,33.853C449.473,33.493 448.609,33.277 448.609,33.277C448.897,31.981 450.625,32.125 450.625,32.125C450.913,33.277 449.977,33.853 449.977,33.853ZM451.201,24.637C451.561,24.565 451.849,24.493 452.209,24.349C452.209,24.277 452.281,24.277 452.353,24.205C452.281,24.277 452.281,24.349 452.281,24.349C452.065,24.709 451.993,24.997 451.921,25.357C451.921,25.573 451.849,26.077 451.993,26.293C451.705,25.933 451.273,25.717 450.841,25.717C450.841,25.285 450.625,24.853 450.265,24.565C450.481,24.709 450.985,24.637 451.201,24.637ZM444.433,25.933C444.433,25.933 444.577,27.661 443.281,27.949C443.281,27.949 443.065,27.085 442.705,26.581C442.705,26.581 443.281,25.645 444.433,25.933ZM435.65,36.013C437.522,36.013 439.25,35.653 440.618,34.789C441.985,33.925 442.849,32.485 443.353,30.541C445.513,30.541 446.665,29.749 446.953,28.093C447.097,27.085 447.313,26.365 447.529,26.005C447.529,26.005 447.673,25.717 447.961,25.501C447.961,25.501 447.601,25.789 447.745,26.221C447.745,26.293 447.745,26.365 447.817,26.509C447.817,26.509 447.889,26.581 447.889,26.653C448.177,27.013 448.609,27.301 449.113,27.373L449.185,27.373L449.185,27.517C449.257,27.949 449.545,28.381 449.905,28.669C449.977,28.669 450.049,28.741 450.049,28.741C450.193,28.813 450.265,28.813 450.337,28.813C450.769,28.957 451.057,28.597 451.057,28.597C450.841,28.885 450.553,29.029 450.553,29.029C450.193,29.245 449.473,29.461 448.465,29.605C446.809,29.893 446.017,31.045 446.017,33.205C444.073,33.709 442.633,34.573 441.769,35.941C440.906,37.309 440.546,39.037 440.546,40.908C440.546,41.268 440.546,41.7 440.618,42.06C440.402,41.772 440.258,41.484 440.042,41.268C440.042,40.117 440.114,38.677 440.402,38.245C440.402,38.245 439.394,38.533 438.458,39.253C438.098,38.893 437.666,38.533 437.306,38.173C438.026,37.165 438.386,36.157 438.386,36.157C437.882,36.445 436.442,36.517 435.29,36.517C435.074,36.301 434.786,36.157 434.498,35.941C434.858,36.013 435.29,36.013 435.65,36.013ZM401.74,25.933C402.819,25.645 403.395,26.581 403.395,26.581C403.107,27.085 402.891,27.949 402.891,27.949C401.596,27.661 401.74,25.933 401.74,25.933ZM394.18,26.293C394.252,26.077 394.252,25.573 394.18,25.357C394.18,24.997 394.036,24.709 393.892,24.349C393.892,24.349 393.82,24.277 393.82,24.205C393.892,24.277 393.892,24.277 393.964,24.349C394.252,24.493 394.612,24.565 394.972,24.637C395.116,24.637 395.692,24.709 395.908,24.565C395.548,24.853 395.332,25.285 395.332,25.717C394.9,25.717 394.468,25.933 394.18,26.293ZM396.196,33.853C396.196,33.853 395.26,33.277 395.548,32.125C395.548,32.125 397.204,31.981 397.564,33.277C397.564,33.277 396.7,33.493 396.196,33.853ZM400.084,33.205C400.156,31.045 399.364,29.893 397.708,29.605C396.628,29.461 395.908,29.245 395.548,29.029C395.548,29.029 395.26,28.885 395.044,28.597C395.044,28.597 395.404,28.957 395.836,28.813C395.908,28.813 395.98,28.813 396.052,28.741C396.124,28.741 396.196,28.669 396.268,28.669C396.628,28.381 396.916,27.949 396.916,27.517L396.916,27.373L397.06,27.373C397.564,27.301 397.996,27.013 398.212,26.653C398.284,26.581 398.284,26.509 398.356,26.509C398.356,26.365 398.428,26.293 398.428,26.221C398.5,25.789 398.212,25.501 398.212,25.501C398.5,25.717 398.572,26.005 398.572,26.005C398.86,26.365 399.076,27.085 399.22,28.093C399.436,29.749 400.66,30.541 402.819,30.541C403.251,32.485 404.187,33.925 405.555,34.789C406.923,35.653 408.651,36.013 410.523,36.013C410.883,36.013 411.243,36.013 411.603,35.941C411.387,36.157 411.099,36.301 410.811,36.517C409.731,36.517 408.291,36.445 407.787,36.157C407.787,36.157 408.147,37.165 408.867,38.173C408.435,38.533 408.075,38.893 407.715,39.253C406.779,38.533 405.771,38.245 405.771,38.245C406.059,38.677 406.131,40.117 406.131,41.268C405.915,41.484 405.771,41.772 405.555,42.06C405.627,41.7 405.627,41.268 405.627,40.908C405.627,39.037 405.267,37.309 404.331,35.941C403.539,34.573 402.099,33.709 400.084,33.205ZM396.196,73.091C396.7,73.379 397.564,73.595 397.564,73.595C397.204,74.891 395.548,74.819 395.548,74.819C395.26,73.667 396.196,73.091 396.196,73.091ZM394.972,82.306C394.612,82.306 394.252,82.45 393.964,82.594C393.892,82.594 393.892,82.666 393.82,82.666C393.82,82.666 393.892,82.594 393.892,82.522C394.036,82.234 394.18,81.874 394.18,81.586C394.252,81.37 394.252,80.794 394.18,80.578C394.468,80.938 394.9,81.154 395.332,81.154C395.332,81.658 395.548,82.09 395.908,82.378C395.692,82.234 395.116,82.306 394.972,82.306ZM401.74,80.938C401.74,80.938 401.596,79.283 402.891,78.923C402.891,78.923 403.107,79.858 403.395,80.362C403.395,80.362 402.819,81.226 401.74,80.938ZM410.523,70.859C408.651,70.859 406.923,71.291 405.555,72.155C404.187,73.019 403.251,74.387 402.819,76.403C400.66,76.403 399.436,77.195 399.22,78.779C399.076,79.858 398.86,80.578 398.572,80.938C398.572,80.938 398.5,81.226 398.212,81.442C398.212,81.442 398.5,81.082 398.428,80.65C398.428,80.578 398.356,80.506 398.356,80.434C398.284,80.362 398.284,80.29 398.212,80.29C397.996,79.858 397.564,79.642 397.06,79.57L396.916,79.57L396.916,79.427C396.916,78.923 396.628,78.491 396.268,78.275C396.196,78.203 396.124,78.203 396.052,78.203C395.98,78.131 395.908,78.059 395.836,78.059C395.404,77.987 395.044,78.275 395.044,78.275C395.26,77.987 395.548,77.915 395.548,77.915C395.908,77.699 396.628,77.483 397.708,77.267C399.364,77.051 400.156,75.827 400.084,73.739C402.099,73.235 403.539,72.299 404.331,70.931C405.267,69.563 405.627,67.907 405.627,65.963C405.627,65.603 405.627,65.315 405.555,64.955C405.771,65.171 405.915,65.459 406.131,65.747C406.131,66.827 406.059,68.267 405.771,68.699C405.771,68.699 406.707,68.411 407.715,67.691C408.075,68.051 408.435,68.411 408.795,68.771C408.147,69.779 407.787,70.715 407.787,70.715C408.291,70.427 409.659,70.427 410.739,70.427C411.027,70.571 411.243,70.787 411.531,70.931C411.171,70.931 410.883,70.859 410.523,70.859ZM432.05,70.931L431.978,70.931C431.618,71.075 431.258,71.291 430.898,71.435C430.754,71.507 430.61,71.579 430.466,71.651C430.322,71.651 430.178,71.723 430.106,71.795C429.962,71.795 429.818,71.867 429.746,71.939C428.45,72.371 427.082,72.731 425.714,72.875C425.354,72.947 424.994,72.947 424.634,73.019L423.914,73.019C423.626,73.091 423.338,73.091 423.05,73.091C422.762,73.091 422.546,73.091 422.258,73.019L421.539,73.019C421.179,72.947 420.819,72.947 420.459,72.875C419.091,72.731 417.723,72.371 416.427,71.939C416.283,71.867 416.211,71.795 416.067,71.795C415.923,71.723 415.851,71.651 415.707,71.651C415.563,71.579 415.419,71.507 415.275,71.435C414.843,71.291 414.483,71.075 414.123,70.931C410.451,69.059 407.499,66.035 405.627,62.363C405.267,61.643 404.907,60.851 404.619,60.059C404.187,58.764 403.827,57.468 403.683,56.028C403.611,55.668 403.611,55.38 403.539,55.02L403.539,54.3C403.467,54.012 403.467,53.796 403.467,53.508C403.467,53.22 403.467,52.932 403.539,52.644L403.539,51.924C403.611,51.564 403.611,51.204 403.683,50.916L403.683,50.844C403.827,49.476 404.187,48.108 404.619,46.812C404.907,46.092 405.267,45.3 405.627,44.58C406.491,42.852 407.643,41.268 409.011,39.829L409.443,39.397C410.811,38.101 412.467,36.949 414.195,36.013C414.915,35.653 415.635,35.365 416.427,35.077C417.723,34.573 419.091,34.285 420.459,34.069C420.819,33.997 421.179,33.997 421.539,33.997C421.61,33.925 421.754,33.925 421.898,33.925L424.274,33.925C424.418,33.925 424.49,33.925 424.634,33.997C424.994,33.997 425.354,33.997 425.642,34.069L425.714,34.069C427.082,34.285 428.45,34.573 429.746,35.077C430.466,35.365 431.258,35.653 431.978,36.013C433.778,36.949 435.362,38.101 436.802,39.469C436.802,39.541 436.874,39.613 436.946,39.613C436.946,39.685 437.018,39.685 437.09,39.757C438.458,41.196 439.61,42.78 440.546,44.58C440.906,45.3 441.265,46.092 441.481,46.812C441.985,48.108 442.273,49.476 442.489,50.844L442.489,50.916C442.561,51.204 442.561,51.564 442.633,51.924L442.633,55.02C442.561,55.38 442.561,55.668 442.489,56.028C442.345,57.468 441.985,58.764 441.553,60.059C441.265,60.851 440.906,61.643 440.546,62.363C438.674,66.035 435.65,69.059 432.05,70.931ZM444.433,80.938C443.281,81.226 442.705,80.362 442.705,80.362C443.065,79.858 443.281,78.923 443.281,78.923C444.577,79.283 444.433,80.938 444.433,80.938ZM449.905,78.275C449.545,78.491 449.257,78.923 449.185,79.427L449.185,79.57L449.113,79.57C448.609,79.642 448.177,79.858 447.889,80.29C447.889,80.29 447.817,80.362 447.817,80.434C447.745,80.506 447.745,80.578 447.745,80.65C447.601,81.082 447.961,81.442 447.961,81.442C447.673,81.226 447.529,80.938 447.529,80.938C447.313,80.578 447.097,79.858 446.953,78.779C446.665,77.195 445.513,76.403 443.353,76.403C442.849,74.387 441.985,73.019 440.618,72.155C439.25,71.291 437.522,70.859 435.65,70.859C435.29,70.859 434.93,70.931 434.642,70.931C434.858,70.787 435.146,70.571 435.434,70.427C436.514,70.427 437.882,70.427 438.386,70.715C438.386,70.715 438.026,69.779 437.306,68.771C437.738,68.411 438.098,68.051 438.458,67.691C439.394,68.411 440.402,68.699 440.402,68.699C440.114,68.267 440.042,66.827 440.042,65.747C440.258,65.459 440.402,65.171 440.618,64.955C440.546,65.315 440.546,65.603 440.546,65.963C440.546,67.907 440.906,69.563 441.769,70.931C442.633,72.299 444.073,73.235 446.017,73.739C446.017,75.827 446.809,77.051 448.465,77.267C449.473,77.483 450.193,77.699 450.553,77.915C450.553,77.915 450.841,77.987 451.057,78.275C451.057,78.275 450.769,77.987 450.337,78.059C450.265,78.059 450.193,78.131 450.049,78.203C450.049,78.203 449.977,78.203 449.905,78.275ZM451.993,80.578C451.849,80.794 451.921,81.37 451.921,81.586C451.993,81.874 452.065,82.234 452.281,82.522C452.281,82.594 452.281,82.666 452.353,82.666C452.281,82.666 452.209,82.594 452.209,82.594C451.849,82.45 451.561,82.306 451.201,82.306C450.985,82.306 450.481,82.234 450.265,82.378C450.625,82.09 450.841,81.658 450.841,81.154C451.273,81.154 451.705,80.938 451.993,80.578ZM455.809,58.62C455.665,58.044 455.161,57.252 455.161,57.252C456.313,56.604 457.465,57.828 457.465,57.828C456.817,58.836 455.809,58.62 455.809,58.62ZM464.088,53.508C463.728,53.652 463.44,53.796 463.152,54.012C463.008,54.156 462.576,54.516 462.576,54.732C462.576,54.3 462.432,53.796 462.072,53.508C462.432,53.148 462.576,52.716 462.576,52.212C462.576,52.5 463.008,52.86 463.152,52.932C463.44,53.148 463.728,53.364 464.088,53.436C464.16,53.436 464.16,53.436 464.232,53.508L464.088,53.508Z" style="fill:rgb(48,154,167);fill-rule:nonzero;"/>
                </g>
            </g>
        </g>
    </g>
</svg>
