<?xml version="1.0" encoding="utf-8"?>
<!-- Generator: Adobe Illustrator 19.0.0, SVG Export Plug-In . SVG Version: 6.00 Build 0)  -->
<svg version="1.1" id="Layer_1" xmlns="http://www.w3.org/2000/svg" xmlns:xlink="http://www.w3.org/1999/xlink" x="0px" y="0px"
	 viewBox="0 0 87.2 70.1" style="enable-background:new 0 0 87.2 70.1;" xml:space="preserve">
<style type="text/css">
	.st0{fill:#1F3056;}
	.st1{fill:#EB6E25;}
</style>
<g id="XMLID_3_">
	<g id="XMLID_4_">
		<g id="XMLID_47_">
			<path id="XMLID_46_" class="st0" d="M15.6,23.5c1.9-0.5,2.9-2.3,4.6-5.3l0-0.1c0.5-0.9,1-1.8,1.6-2.7c1.7-2.7,3.8-3.4,5.2-3.5
				c0.1,0,0.1,0,0.2,0c0-2.6,0.2-9.5,5.9-11.8h-5.4L13.7,24c0.4-0.2,0.8-0.3,1.2-0.4C15.2,23.6,15.4,23.5,15.6,23.5z"/>
		</g>
		<g id="XMLID_44_">
			<path id="XMLID_43_" class="st0" d="M66.6,18.1c1.7,3,2.7,4.8,4.6,5.3c0,0,0,0,0,0c0.2,0,0.4,0.1,0.6,0.1c0.3,0,0.7,0.1,1,0.3
				L59.1,0h-5.4c1.9,0.8,3.4,2.3,4.4,4.3c1,2,1.5,4.4,1.6,7.5c0.1,0,0.1,0,0.2,0c1.4,0.1,3.4,0.8,5.2,3.5
				C65.6,16.3,66.1,17.2,66.6,18.1C66.6,18.1,66.6,18.1,66.6,18.1z"/>
		</g>
		<g id="XMLID_41_">
			<path id="XMLID_40_" class="st0" d="M28.7,50.4c-1-2-1.5-4.4-1.6-7.5c-0.1,0-0.1,0-0.2,0c-1.4-0.1-3.4-0.8-5.2-3.5
				c-0.5-0.8-1-1.7-1.6-2.8c-1.6-2.9-2.7-4.8-4.6-5.3c-0.2,0-0.4-0.1-0.7-0.1c-0.4,0-0.8-0.2-1.1-0.3l13.8,23.8h5.3
				C31.1,53.8,29.7,52.4,28.7,50.4z"/>
		</g>
		<g id="XMLID_38_">
			<path id="XMLID_37_" class="st0" d="M66.7,36.6c-0.5,0.8-1,1.9-1.6,2.8c-1.7,2.7-3.8,3.4-5.2,3.5c-0.1,0-0.1,0-0.2,0
				c0,2.5-0.2,9.3-5.7,11.7h5.1l13.7-23.7c-0.3,0.1-0.6,0.2-0.9,0.2c-0.2,0-0.5,0.1-0.7,0.1C69.4,31.8,68.3,33.6,66.7,36.6z"/>
		</g>
		<g id="XMLID_34_">
			<path id="XMLID_35_" class="st0" d="M45.6,43.9c0-1.4-0.9-2.5-2.1-2.6h-0.1c-1.2,0-2.1,1.1-2.2,2.5c0,0.9-0.5,5.3-3.8,5.3
				c-3.1,0-4.5-1.1-4.5-7.6v-0.9l-0.5,0.4c-0.5,0.5-1.9,1.8-3.9,2.1c0.3,7.5,3.3,11.2,8.9,11.2c2.2,0,4-0.8,5.4-2.4
				c0.1-0.2,0.3-0.2,0.5-0.2c0.2,0,0.4,0.1,0.5,0.2c1.4,1.6,3.4,2.4,5.6,2.4c5.3,0,8.2-3,8.8-9.1c0,0,0,0,0-0.1c0,0,0-0.1,0-0.1
				c0-0.2,0-0.6,0-1.1l0-0.9c0-0.7,0.1-1.4,0.1-1.5V20.7L54,24.2v17.3c0,6.5-1.1,7.6-4.5,7.6C47.1,49,45.6,47.1,45.6,43.9L45.6,43.9
				z"/>
		</g>
		<g id="XMLID_28_">
			<polygon id="XMLID_32_" class="st1" points="42.2,23.3 34.3,17.2 34.3,23.4 38.2,26.4 			"/>
		</g>
		<g id="XMLID_11_">
			<path id="XMLID_30_" class="st0" d="M28.2,20.2v14.2l4.8-3.7V13.3c0-6.4,1-7.4,4.3-7.4c2.3,0,3.6,1.8,3.6,4.9v0
				c0,1.5,1,2.7,2.3,2.8h0.1c1.3,0,2.4-1.1,2.4-2.7c0-0.8,0.4-5.1,3.6-5.1c3,0,4.3,1.1,4.3,7.4v1.3l0.8-0.6c0.5-0.5,2-1.8,4-2.1
				c-0.2-7.7-3.3-11.6-9.1-11.6c-2.3,0-4.1,0.8-5.6,2.5c-0.2,0.2-0.6,0.2-0.8,0c-1.5-1.6-3.5-2.5-5.7-2.5c-5.7,0-8.6,3.3-9.1,10.2
				c0,0.2-0.1,0.3-0.1,0.4v8V20.2z"/>
		</g>
		<g id="XMLID_8_">
			<polygon id="XMLID_26_" class="st1" points="44.6,31.4 52.5,37.5 52.5,31.3 48.7,28.3 			"/>
		</g>
		<g id="XMLID_5_">
			<path id="XMLID_29_" class="st1" d="M70.7,30.1c0.2-0.1,0.8-0.1,1.1-0.2c1.1-0.1,2-1.2,2-2.5c0-1.3-0.9-2.4-2-2.5
				c-0.1,0-0.3,0-0.4-0.1c0,0,0,0,0,0c0,0,0,0,0,0c-0.1,0-0.2,0-0.3-0.1c0,0,0,0-0.1,0c-0.4-0.1-0.9-0.3-1.3-0.6c0,0,0,0-0.1-0.1
				c-1.5-0.9-2.6-2.8-4-5.3c-0.5-0.9-1-1.8-1.6-2.7c-1.5-2.3-3.1-2.9-4.2-3c-0.1,0-0.2,0-0.3,0l-0.2,0c-0.2,0-0.4,0-0.4,0
				c-1.7,0.2-2.9,1.3-3.3,1.8L37.1,29.1c0,0,0,0-0.1,0.1L35,30.8l-6.2,4.7l-0.4,0.4c0,0,0,0-0.1,0c-0.3,0.2-0.6,0.4-0.9,0.4
				c-0.3,0-0.5-0.1-0.7-0.2c-0.2-0.2-0.3-0.3-0.4-0.6c-0.4-0.7-0.9-1.4-1.3-2.2L25,33.1c-0.8-1.4-1.7-3.1-2.9-4.5c0,0,0,0,0-0.1
				L22,28.4c-0.1-0.1-0.1-0.1-0.2-0.2c0,0,0,0-0.1-0.1l-0.5-0.6c0,0,0,0-0.1,0c-0.1-0.2-0.1-0.4,0-0.5l0.5-0.5
				c1.3-1.5,2.3-3.3,3.2-4.9l0-0.1c0.4-0.8,0.9-1.6,1.4-2.4c0.2-0.3,0.4-0.5,0.5-0.6l0-5.4c-1.1,0.1-2.7,0.8-4.1,2.9
				c-0.6,0.9-1.1,1.8-1.6,2.7c-1.2,2.2-2.2,3.8-3.4,4.8c-0.8,0.6-1.6,0.9-2.1,1.1c0,0,0,0-0.1,0c-0.1,0-0.3,0.1-0.4,0.1
				c-0.1,0-0.1,0-0.2,0c-0.1,0-0.1,0-0.1,0c0,0-0.1,0-0.1,0l-0.1,0c-0.2,0-0.3,0.1-0.4,0.1c-0.1,0-0.1,0-0.1,0.1
				c-0.3,0.2-0.6,0.4-0.8,0.7c0,0.1-0.1,0.1-0.1,0.2l0,0.1l-0.1,0.2c0,0.1,0,0.1-0.1,0.2c0,0,0,0,0,0c0,0,0,0,0,0
				c0,0.1,0,0.1-0.1,0.2c0,0.1,0,0.2-0.1,0.2c0,0.1,0,0.2,0,0.2c0,0.1,0,0.2,0,0.2c0,0.1,0,0.1,0,0.2c0,0.1,0,0.2,0,0.2
				c0,0.1,0,0.2,0,0.2c0,0.1,0,0.2,0.1,0.2c0,0,0,0,0,0c0,0,0,0,0,0c0,0,0,0.1,0,0.1l0,0.1c0,0.1,0,0.1,0.1,0.1l0.1,0.2
				c0,0.1,0.1,0.1,0.1,0.1c0,0,0,0,0,0.1c0.1,0.1,0.2,0.3,0.4,0.4c0,0,0,0,0,0c0.1,0,0.1,0.1,0.2,0.1c0,0,0.1,0,0.1,0.1l0,0
				c0,0,0,0,0.1,0c0.1,0.1,0.3,0.1,0.4,0.2c0.1,0,0.1,0,0.1,0l0.5,0.1c0.2,0,0.3,0.1,0.5,0.1c0.8,0.2,1.3,0.6,1.4,0.6
				c1.6,1,2.7,2.8,4.1,5.3c0.6,1.1,1.1,1.9,1.6,2.7c1.4,2.1,2.9,2.8,3.9,2.9c0,0,0,0,0,0c0,0,0,0,0,0c0,0,0,0,0,0c0.1,0,0.1,0,0.2,0
				c0.1,0,0.2,0,0.2,0h0c0.2,0,0.4,0,0.7,0l0.1,0c0,0,0,0,0,0c1.6-0.3,2.9-1.3,3.3-1.8c0,0,0.1-0.1,0.1-0.1l0.8-0.6
				c0,0,0.1-0.1,0.2-0.1l10.2-7.9l11.1-8.6l5.2-4l0.1,0c0.1,0,0.3-0.1,0.4-0.1c0.4,0,0.8,0.2,1.1,0.7l0.4,0.6c0.3,0.5,0.7,1.1,1,1.7
				l0,0.1c0.6,1.1,1.3,2.4,2.2,3.6c0,0,0,0,0,0c0,0,0,0.1,0.1,0.1c0.3,0.4,0.6,0.8,0.9,1.1c0,0,0.1,0,0.1,0.1
				c0.2,0.2,0.3,0.4,0.5,0.5c0.1,0.1,0.1,0.3,0,0.5c-1.3,1.6-2.9,4.2-3.7,5.5l0,0.1c-0.4,0.7-0.9,1.6-1.4,2.4
				c-0.2,0.3-0.4,0.5-0.5,0.6v5.4c1.1-0.1,2.7-0.8,4.1-3c0.6-0.9,1.1-1.9,1.6-2.7c0.1-0.2,0.3-0.5,0.4-0.7
				C67.2,33,68.3,30.9,70.7,30.1z"/>
		</g>
	</g>
</g>
<g id="XMLID_63_">
	<path id="XMLID_64_" class="st0" d="M2.3,60.9c2.2,0,3.3,0.8,3.3,2.8v0.9c0,1.9-1.1,2.8-3.3,2.8H1.7v2.8H0v-9.2H2.3z M2.3,65.7
		c1.2,0,1.6-0.4,1.6-1.3v-0.7c0-0.9-0.3-1.3-1.6-1.3H1.7v3.3H2.3z"/>
	<path id="XMLID_67_" class="st0" d="M12.3,60.9v1.4H8.6v2.4h3.1v1.5H8.6v2.4h3.8v1.5H6.9v-9.2H12.3z"/>
	<path id="XMLID_69_" class="st0" d="M19.5,70.1h-1.6l-2.7-5.9l0.1,3.5v2.4h-1.6v-9.2h1.6l2.7,6.1l-0.2-3.9v-2.2h1.6V70.1z"/>
	<path id="XMLID_71_" class="st0" d="M23.9,62.3c-0.9,0-1.3,0.3-1.3,1.2c0,1.2,0.9,1.1,2.3,1.3c1.1,0.2,2.1,0.6,2.1,2.4
		c0,2.1-0.9,3-3.1,3c-2.3,0-3-1.1-3-2.6h1.7c0,0.7,0.3,1.1,1.4,1.1c1,0,1.5-0.4,1.5-1.5c0-1.1-1.3-1.1-2.3-1.2
		c-1-0.1-2.1-0.6-2.1-2.6c0-1.7,1.1-2.6,3-2.6c1.7,0,2.8,0.6,2.9,2.5h-1.7C25.1,62.5,24.7,62.3,23.9,62.3z"/>
	<path id="XMLID_73_" class="st0" d="M30.1,70.1h-1.7v-9.2h1.7V70.1z"/>
	<path id="XMLID_77_" class="st0" d="M31.7,67.4v-3.9c0-2,0.9-2.8,3.1-2.8s3.2,0.8,3.2,2.8v3.9c0,1.9-1,2.8-3.2,2.8
		C32.5,70.2,31.7,69.3,31.7,67.4z M36.2,67.4v-3.7c0-0.8-0.2-1.4-1.5-1.4c-1.2,0-1.4,0.5-1.4,1.4v3.7c0,0.9,0.2,1.4,1.4,1.4
		S36.2,68.2,36.2,67.4z"/>
	<path id="XMLID_80_" class="st0" d="M45.3,70.1h-1.6L41,64.3l0.1,3.5v2.4h-1.6v-9.2h1.6l2.7,6.1l-0.2-3.9v-2.2h1.6V70.1z"/>
	<path id="XMLID_82_" class="st0" d="M49.8,67.4v-3.9c0-2,0.9-2.8,3.1-2.8s3.2,0.8,3.2,2.8v3.9c0,1.9-1,2.8-3.2,2.8
		C50.7,70.2,49.8,69.3,49.8,67.4z M54.4,67.4v-3.7c0-0.8-0.2-1.4-1.5-1.4c-1.2,0-1.4,0.5-1.4,1.4v3.7c0,0.9,0.2,1.4,1.4,1.4
		S54.4,68.2,54.4,67.4z"/>
	<path id="XMLID_85_" class="st0" d="M63.1,62.4h-3.8v2.3h3.2v1.5h-3.2v3.9h-1.6v-9.2h5.4V62.4z"/>
	<path id="XMLID_87_" class="st0" d="M69.7,62.4h-3.8v2.3h3.2v1.5h-3.2v3.9h-1.6v-9.2h5.4V62.4z"/>
	<path id="XMLID_89_" class="st0" d="M72.6,70.1h-1.7v-9.2h1.7V70.1z"/>
	<path id="XMLID_91_" class="st0" d="M80.4,67.3c0,2-1,2.9-3.2,2.9c-2.2,0-3.1-0.9-3.1-2.8v-3.8c0-2,0.9-2.8,3.1-2.8
		s3.2,0.8,3.2,2.9h-1.7c0-0.9-0.2-1.4-1.5-1.4c-1.2,0-1.4,0.5-1.4,1.4v3.6c0,0.9,0.2,1.4,1.4,1.4s1.5-0.5,1.5-1.4H80.4z"/>
	<path id="XMLID_93_" class="st0" d="M87,60.9v1.4h-3.7v2.4h3.1v1.5h-3.1v2.4h3.8v1.5h-5.5v-9.2H87z"/>
</g>
</svg>
